<svg xmlns="http://www.w3.org/2000/svg" viewBox="0 0 551.83396 217.02218"><defs><style>.cls-1{fill:#fff;}.cls-2{fill:#00b5af;}.cls-3{fill:#004a7c;}.cls-4{fill:#474c55;}</style></defs><title>CBD-graphic</title><g id="Layer_2" data-name="Layer 2"><g id="Layer_1-2" data-name="Layer 1"><path class="cls-1" d="M329.7553,142.85188a2.55,2.55,0,1,1,2.46289-1.90039A2.54312,2.54312,0,0,1,329.7553,142.85188Z" transform="translate(-4.37793)"/><path class="cls-2" d="M329.75206,138.35192a1.94968,1.94968,0,1,1-1.88391,1.45362,1.95138,1.95138,0,0,1,1.88391-1.45362m.00006-1.2h-.00006a3.14435,3.14435,0,1,0,.00006,0Z" transform="translate(-4.37793)"/><path class="cls-1" d="M340.35686,143.3177a4.77214,4.77214,0,1,1,4.44043-3.02344A4.75058,4.75058,0,0,1,340.35686,143.3177Z" transform="translate(-4.37793)"/><path class="cls-2" d="M340.35912,134.37338a4.17163,4.17163,0,1,1-3.88178,2.64317,4.15921,4.15921,0,0,1,3.88178-2.64317m.00006-1.2h0a5.37343,5.37343,0,1,0,1.96753.37494,5.34251,5.34251,0,0,0-1.96753-.37494Z" transform="translate(-4.37793)"/><path class="cls-1" d="M342.78362,139.49543a2.54956,2.54956,0,1,1,2.37207-1.61523A2.52818,2.52818,0,0,1,342.78362,139.49543Z" transform="translate(-4.37793)"/><path class="cls-2" d="M342.78423,134.99589a1.94974,1.94974,0,1,1-1.81421,1.23537,1.94415,1.94415,0,0,1,1.81421-1.23537m0-1.2h0a3.15059,3.15059,0,1,0,1.15393.21974,3.13253,3.13253,0,0,0-1.15393-.21974Z" transform="translate(-4.37793)"/><path class="cls-1" d="M335.3803,143.69172a4.85553,4.85553,0,0,1-1.78223-.33984,4.61139,4.61139,0,0,1-2.71875-5.915,4.49763,4.49763,0,0,1,4.24023-2.81153,4.85533,4.85533,0,0,1,1.78223.33985,4.76793,4.76793,0,0,1,2.59961,2.43262,4.38284,4.38284,0,0,1,.11816,3.48144A4.49475,4.49475,0,0,1,335.3803,143.69172Z" transform="translate(-4.37793)"/><path class="cls-2" d="M335.11919,135.22465a4.25768,4.25768,0,0,1,1.56244.299,4.005,4.005,0,0,1,2.37964,5.13629,3.912,3.912,0,0,1-3.6811,2.432,4.258,4.258,0,0,1-1.56243-.299,4.005,4.005,0,0,1-2.37964-5.13629,3.91207,3.91207,0,0,1,3.68109-2.432m.00012-1.2h0a5.09228,5.09228,0,0,0-4.79767,3.19211,4.98112,4.98112,0,0,0,.13147,3.95421,5.36734,5.36734,0,0,0,2.92475,2.73842,5.44148,5.44148,0,0,0,2.00231.38255,5.09211,5.09211,0,0,0,4.79755-3.19212,4.98106,4.98106,0,0,0-.13147-3.9542,5.36724,5.36724,0,0,0-2.92474-2.73843,5.44161,5.44161,0,0,0-2.0022-.38254Z" transform="translate(-4.37793)"/><path class="cls-1" d="M367.103,127.33625a3.371,3.371,0,1,1,2.13086-.75976A3.3621,3.3621,0,0,1,367.103,127.33625Z" transform="translate(-4.37793)"/><path class="cls-2" d="M367.09941,121.19348a2.77145,2.77145,0,1,1-1.75152.62507,2.76536,2.76536,0,0,1,1.75152-.62507m.00019-1.2h-.00006a3.97434,3.97434,0,1,0,.00006,0Z" transform="translate(-4.37793)"/><path class="cls-1" d="M364.69377,131.07649a2.55178,2.55178,0,1,1,1.61133-.5752A2.54528,2.54528,0,0,1,364.69377,131.07649Z" transform="translate(-4.37793)"/><path class="cls-2" d="M364.69176,126.57739a1.94944,1.94944,0,1,1-1.23206.43968,1.94526,1.94526,0,0,1,1.23206-.43968m.00012-1.2h-.00006a3.15162,3.15162,0,1,0,.00006,0Z" transform="translate(-4.37793)"/><path class="cls-1" d="M360.73674,129.4759a4.74845,4.74845,0,0,1-3.67871-1.77051,4.61291,4.61291,0,0,1,.51953-6.48925,4.35257,4.35257,0,0,1,2.78321-.98438,4.82881,4.82881,0,0,1,4.75781,5.165,4.37244,4.37244,0,0,1-4.38184,4.0791Z" transform="translate(-4.37793)"/><path class="cls-2" d="M360.36046,120.83207a4.1626,4.1626,0,0,1,3.21375,1.55063,4.005,4.005,0,0,1-.4339,5.6441,3.77656,3.77656,0,0,1-2.40338.849,4.16277,4.16277,0,0,1-3.21375-1.55063,4.00509,4.00509,0,0,1,.4339-5.6441,3.77683,3.77683,0,0,1,2.40338-.849m.00018-1.2h-.00006a5.00969,5.00969,0,0,0-3.1626,1.11966,5.21021,5.21021,0,0,0-.60418,7.3326,5.343,5.343,0,0,0,4.14313,1.9915,4.97293,4.97293,0,0,0,4.98016-4.63379,5.42947,5.42947,0,0,0-5.35645-5.81Z" transform="translate(-4.37793)"/><path class="cls-1" d="M347.66155,132.1175a3.37272,3.37272,0,1,1,1.07812-.17773A3.3686,3.3686,0,0,1,347.66155,132.1175Z" transform="translate(-4.37793)"/><path class="cls-2" d="M347.66106,125.97331a2.77337,2.77337,0,1,1-.88727.14651,2.77231,2.77231,0,0,1,.88727-.14651m.00012-1.2h-.00006a3.9704,3.9704,0,1,0,.00006,0Z" transform="translate(-4.37793)"/><path class="cls-1" d="M355.12248,133.61164a4.66969,4.66969,0,0,1-4.38183-3.2373,4.76695,4.76695,0,0,1,.18066-3.55567,4.38714,4.38714,0,0,1,2.585-2.33593,4.33088,4.33088,0,0,1,1.3916-.2295,4.67066,4.67066,0,0,1,4.38184,3.23633,4.61217,4.61217,0,0,1-2.7666,5.89258A4.32968,4.32968,0,0,1,355.12248,133.61164Z" transform="translate(-4.37793)"/><path class="cls-2" d="M354.89751,124.8533a4.08332,4.08332,0,0,1,3.81341,2.82852,4.005,4.005,0,0,1-2.38989,5.13151,3.73846,3.73846,0,0,1-1.19879.1975,4.08337,4.08337,0,0,1-3.81342-2.82852,4.005,4.005,0,0,1,2.39-5.13152,3.73836,3.73836,0,0,1,1.19873-.19749m.00006-1.2h0a4.97285,4.97285,0,0,0-4.51965,2.91171,5.36732,5.36732,0,0,0-.206,4.00134,5.26936,5.26936,0,0,0,4.95032,3.64448,4.97265,4.97265,0,0,0,4.51959-2.91173,5.3673,5.3673,0,0,0,.206-4.00133,5.26934,5.26934,0,0,0-4.95026-3.64447Z" transform="translate(-4.37793)"/><path class="cls-1" d="M394.41252,135.0511a3.37156,3.37156,0,0,1-.34082-6.72559q.17578-.01758.34571-.01758a3.37151,3.37151,0,0,1,.33984,6.72559A3.40966,3.40966,0,0,1,394.41252,135.0511Z" transform="translate(-4.37793)"/><path class="cls-2" d="M394.4185,128.908a2.77149,2.77149,0,0,1,.27808,5.52863,2.80284,2.80284,0,0,1-.28479.01454,2.77148,2.77148,0,0,1-.27808-5.52862,2.80229,2.80229,0,0,1,.28479-.01455m.00007-1.2a4.00674,4.00674,0,0,0-.40668.02073,3.97149,3.97149,0,0,0,.3999,7.92243,4.00662,4.00662,0,0,0,.40662-.02074,3.97148,3.97148,0,0,0-.39984-7.92242Z" transform="translate(-4.37793)"/><path class="cls-1" d="M387.09319,133.14485a4.60794,4.60794,0,0,1-4.51563-4.23731,4.77213,4.77213,0,0,1,.96582-3.42676,4.388,4.388,0,0,1,3.03907-1.70312,4.26979,4.26979,0,0,1,.44433-.02246,4.60814,4.60814,0,0,1,4.5166,4.2373,4.77144,4.77144,0,0,1-.96679,3.42676,4.38651,4.38651,0,0,1-3.04,1.70313A4.24071,4.24071,0,0,1,387.09319,133.14485Z" transform="translate(-4.37793)"/><path class="cls-2" d="M387.02733,124.355a4.11064,4.11064,0,0,1,.449,8.17069,3.77489,3.77489,0,0,1-.38312.01956,4.11063,4.11063,0,0,1-.449-8.17068,3.77767,3.77767,0,0,1,.38312-.01957m.00024-1.2h-.00006a4.98,4.98,0,0,0-3.95758,1.95813,5.36732,5.36732,0,0,0-1.08978,3.8556,5.20713,5.20713,0,0,0,5.113,4.77651,4.97272,4.97272,0,0,0,.505-.02577,5.30957,5.30957,0,0,0-.57062-10.56447Z" transform="translate(-4.37793)"/><path class="cls-1" d="M372.101,129.79231a3.37246,3.37246,0,1,1,3.25781-2.51465A3.37,3.37,0,0,1,372.101,129.79231Z" transform="translate(-4.37793)"/><path class="cls-2" d="M372.09728,123.648a2.77177,2.77177,0,1,1-2.67823,2.06654,2.774,2.774,0,0,1,2.67823-2.06654m.00024-1.2h-.00012a3.96468,3.96468,0,1,0,.00012,0Z" transform="translate(-4.37793)"/><path class="cls-1" d="M378.34319,133.15364a4.37269,4.37269,0,0,1-3.84571-2.29688,4.76569,4.76569,0,0,1-.42382-3.53516,4.6565,4.6565,0,0,1,4.44629-3.53808,4.3406,4.3406,0,0,1,1.10742.14355,4.6105,4.6105,0,0,1,3.16211,5.68848A4.65825,4.65825,0,0,1,378.34319,133.15364Z" transform="translate(-4.37793)"/><path class="cls-2" d="M378.52007,124.38284a3.74116,3.74116,0,0,1,.954.12387A4.005,4.005,0,0,1,382.209,129.463a4.06676,4.06676,0,0,1-3.8667,3.09119,3.74153,3.74153,0,0,1-.954-.12389,4.00506,4.00506,0,0,1-2.73492-4.95625,4.06686,4.06686,0,0,1,3.8667-3.09117m.00024-1.2h-.00006a5.32185,5.32185,0,0,0-1.43744,10.4079,4.95,4.95,0,0,0,1.25952.1634,5.32185,5.32185,0,0,0,1.43726-10.40789,4.94959,4.94959,0,0,0-1.25928-.16341Z" transform="translate(-4.37793)"/><path class="cls-1" d="M410.67815,144.96125a2.911,2.911,0,1,1,2.86426-2.40527A2.91431,2.91431,0,0,1,410.67815,144.96125Z" transform="translate(-4.37793)"/><path class="cls-2" d="M410.67278,139.73879a2.311,2.311,0,1,1-2.27295,1.9097,2.32309,2.32309,0,0,1,2.27295-1.9097m.00018-1.2h-.00012a3.51469,3.51469,0,1,0,.00012,0Z" transform="translate(-4.37793)"/><path class="cls-1" d="M398.71819,136.71711a3.4393,3.4393,0,0,1-.52539-.041,3.36994,3.36994,0,1,1,.52539.041Z" transform="translate(-4.37793)"/><path class="cls-2" d="M398.71227,130.57347A2.7716,2.7716,0,1,1,395.978,132.915a2.79066,2.79066,0,0,1,2.73432-2.34149m.00024-1.2h-.00012a3.97159,3.97159,0,0,0-.61334,7.895,4.00645,4.00645,0,0,0,.62005.04857,3.97161,3.97161,0,0,0,.61322-7.895,4.00633,4.00633,0,0,0-.61981-.04855Z" transform="translate(-4.37793)"/><path class="cls-1" d="M403.726,146.14192a5.39221,5.39221,0,0,1-.835-.06543,5.70493,5.70493,0,0,1-4.60254-6.6084,5.77726,5.77726,0,0,1,5.57227-4.94434,5.39231,5.39231,0,0,1,.835.06543,5.70354,5.70354,0,0,1,4.60156,6.6084A5.77627,5.77627,0,0,1,403.726,146.14192Z" transform="translate(-4.37793)"/><path class="cls-2" d="M403.85954,135.12387a4.78374,4.78374,0,0,1,.74311.05822,5.23734,5.23734,0,0,1-.876,10.35952,4.78373,4.78373,0,0,1-.7431-.05823,5.23734,5.23734,0,0,1,.876-10.35951m0-1.2h0a6.38029,6.38029,0,0,0-6.16333,5.45064,6.505,6.505,0,0,0,1.06507,4.7377,6.009,6.009,0,0,0,4.96539,2.62941A6.38022,6.38022,0,0,0,409.89,141.291a6.30342,6.30342,0,0,0-5.101-7.29434,6.00809,6.00809,0,0,0-.92945-.07277Z" transform="translate(-4.37793)"/><path class="cls-1" d="M344.66545,138.349a4.79328,4.79328,0,0,1-3.21-1.24805,4.61116,4.61116,0,0,1-.46484-6.49316,4.43964,4.43964,0,0,1,3.2959-1.44532,4.84355,4.84355,0,0,1,4.79,4.43946,4.38892,4.38892,0,0,1-1.11426,3.30176A4.4418,4.4418,0,0,1,344.66545,138.349Z" transform="translate(-4.37793)"/><path class="cls-2" d="M344.28734,129.76269a4.19019,4.19019,0,0,1,2.807,1.0936,4.005,4.005,0,0,1,.42266,5.645,3.81323,3.81323,0,0,1-2.85174,1.24759,4.19054,4.19054,0,0,1-2.807-1.09361,4.005,4.005,0,0,1-.42267-5.645,3.81355,3.81355,0,0,1,2.85175-1.24759m.00031-1.2h-.00007a5.04183,5.04183,0,0,0-3.74261,1.64337,5.21016,5.21016,0,0,0,.50909,7.33983,5.38649,5.38649,0,0,0,3.61115,1.403,5.041,5.041,0,0,0,3.74237-1.6434,5.21016,5.21016,0,0,0-.50909-7.33983,5.386,5.386,0,0,0-3.61084-1.40294Z" transform="translate(-4.37793)"/><path class="cls-1" d="M410.85784,153.50813a5.77686,5.77686,0,1,1,4.28906-1.90528A5.76782,5.76782,0,0,1,410.85784,153.50813Z" transform="translate(-4.37793)"/><path class="cls-2" d="M410.861,142.55477a5.17673,5.17673,0,1,1-3.84387,1.70751,5.15752,5.15752,0,0,1,3.84387-1.70751m0-1.2h0a6.37675,6.37675,0,1,0,4.27179,1.64387,6.38919,6.38919,0,0,0-4.27179-1.64387Z" transform="translate(-4.37793)"/><path class="cls-1" d="M329.6176,152.88215a5.77686,5.77686,0,1,1,4.28906-1.90527A5.76782,5.76782,0,0,1,329.6176,152.88215Z" transform="translate(-4.37793)"/><path class="cls-2" d="M329.62035,141.92861a5.17673,5.17673,0,1,1-3.84387,1.70751,5.15759,5.15759,0,0,1,3.84387-1.70751m.00006-1.2h0a6.37673,6.37673,0,1,0,4.27173,1.64386,6.38922,6.38922,0,0,0-4.27173-1.64386Z" transform="translate(-4.37793)"/><path class="cls-1" d="M407.72325,153.57523c.22579.0478.448.11628.67226.17369.92977-.16425,1.85453.63715,2.77174.64691.10345.00111,1.11824-1.75884,1.22211-1.75545,1.959-1.81816,2.90672-2.738,1.84379-5.12678-2.16935-4.87525-7.51523-9.15714-12.0015-8.52612-3.11325-11.39624-17.40174-11.56277-22.11848-9.43148-9.50608-9.76866-28.88381-5.78544-38.40787,5.90873-6.28117.83249-13.15771,5.404-14.98205,9.70378-1.11873,2.63688-1.17571,4.01563.42521,5.86985,1.24247.182,2.46164,2.29772,3.64737,2.77446,1.21828-.29336,4.247-1.32583,5.45826-1.31294a15.94192,15.94192,0,0,1,7.19927,1.86473l51.43927.68407a15.90334,15.90334,0,0,1,8.19636-2.25236A15.6293,15.6293,0,0,1,407.72325,153.57523Z" transform="translate(-4.37793)"/><path class="cls-1" d="M413.79473,152.23338l5.93342,25.14786c.0068,19.24144-98.43923,19.27626-98.446.03483l5.54994-25.54352" transform="translate(-4.37793)"/><path class="cls-2" d="M370.44434,192.43429c-17.731,0-35.4502-2.49609-44.11133-7.49219-3.74854-2.16308-5.6499-4.69531-5.65088-7.52637l.01367-.12695,5.54981-25.543,1.17285.25391-5.53565,25.47851c.03028,2.34766,1.729,4.50879,5.04981,6.42383,17.10742,9.86817,70.04931,9.85059,87.1499-.03027,3.31689-1.917,5.01367-4.07715,5.04492-6.42188l-5.9165-25.0791,1.168-.27539,5.94921,25.28613c.001,2.83106-1.89843,5.36426-5.645,7.5293C406.00439,189.9255,388.21826,192.43429,370.44434,192.43429Z" transform="translate(-4.37793)"/><path class="cls-2" d="M370.57959,159.6882h-.15576c-19.34375-.01465-37.78125-3.09375-43.84082-7.32227l.68652-.98438c4.91992,3.4336,21.7168,7.09082,43.15527,7.10743h.14893c19.45166,0,38.09326-2.88086,43.40527-6.71192l.70215.97266C409.10059,156.77511,390.56836,159.6882,370.57959,159.6882Z" transform="translate(-4.37793)"/><path class="cls-1" d="M397.0786,165.87082a4.07161,4.07161,0,0,0-.90777,4.72394c.714,1.1016,2.80638,1.70444,3.76639,1.08512a2.9369,2.9369,0,0,0,.39152-4.22428,4.385,4.385,0,0,0-3.05863-1.62025" transform="translate(-4.37793)"/><path class="cls-2" d="M398.92139,172.529a4.08,4.08,0,0,1-3.25391-1.6084,4.68915,4.68915,0,0,1,1.03125-5.51367.59332.59332,0,0,1,.36816-.13575.62176.62176,0,0,1,.26368-.03222,4.99457,4.99457,0,0,1,3.46484,1.83984,3.78277,3.78277,0,0,1,.79395,2.97266,3.091,3.091,0,0,1-1.32715,2.13183A2.47242,2.47242,0,0,1,398.92139,172.529Zm-1.58789-6.082a3.54106,3.54106,0,0,0-.65918,3.82129,2.763,2.763,0,0,0,2.937.90723,1.87389,1.87389,0,0,0,.79346-1.31445,2.615,2.615,0,0,0-.543-2.02832A3.75145,3.75145,0,0,0,397.3335,166.447Z" transform="translate(-4.37793)"/><path class="cls-1" d="M401.75306,172.92819a9.80472,9.80472,0,0,0-3.58734,6.5907c-.15,1.41528-.1937,2.72211.94974,3.56984,1.16667.86495,2.4866.283,3.678-.25724a12.5979,12.5979,0,0,1,4.75708-1.00832c2.5095-.08957,3.84884-1.743,2.60508-3.8969a13.525,13.525,0,0,0-2.95512-3.67266c-1.61518-1.36311-3.20887-2.03291-5.25595-1.36089" transform="translate(-4.37793)"/><path class="cls-2" d="M400.44727,184.12862a2.76386,2.76386,0,0,1-1.68946-.55761c-1.50635-1.11719-1.31543-2.9209-1.189-4.11524a10.42178,10.42178,0,0,1,3.79-6.97949.59632.59632,0,0,1,.37988-.14746l.01855-.00684a5.77446,5.77446,0,0,1,5.83057,1.47266,13.99617,13.99617,0,0,1,3.0874,3.832,3.10944,3.10944,0,0,1,.23,3.12305,3.78325,3.78325,0,0,1-3.333,1.67285,11.859,11.859,0,0,0-4.53077.95508A6.50212,6.50212,0,0,1,400.44727,184.12862Zm1.57959-10.6416a9.11006,9.11006,0,0,0-3.26465,6.09571c-.1626,1.53515-.09766,2.4248.71045,3.02343.833.61817,1.79931.25684,3.07324-.32129a13.01571,13.01571,0,0,1,4.9834-1.06152,2.68578,2.68578,0,0,0,2.32617-1.05566,2.0051,2.0051,0,0,0-.21924-1.94141,12.83244,12.83244,0,0,0-2.82275-3.51465c-1.688-1.42383-3.044-1.78418-4.68213-1.249A.661.661,0,0,1,402.02686,173.487Z" transform="translate(-4.37793)"/><path class="cls-1" d="M410.39928,169.346a4.59982,4.59982,0,0,0-1.78585,1.93544,2.14392,2.14392,0,0,0,.69354,2.81265,2.02311,2.02311,0,0,0,2.72148-.2816,4.13194,4.13194,0,0,0,1.08776-1.5984c.732-2.05956-.27808-3.23308-2.52542-2.90356" transform="translate(-4.37793)"/><path class="cls-2" d="M410.54883,175.08761a2.9666,2.9666,0,0,1-1.55615-.48242c-.67432-.415-1.69336-1.42481-.94434-3.52539a5.07015,5.07015,0,0,1,1.99414-2.21582.60076.60076,0,0,1,.34277-.11719.58661.58661,0,0,1,.11866-.03027,2.97925,2.97925,0,0,1,2.95507.79882,2.82556,2.82556,0,0,1,.22266,2.90039,4.68731,4.68731,0,0,1-1.23437,1.82618A2.7016,2.7016,0,0,1,410.54883,175.08761Zm.10107-5.18066a3.89561,3.89561,0,0,0-1.47168,1.57617c-.479,1.34277.02393,1.84179.44336,2.10058a1.434,1.434,0,0,0,1.98731-.20117,3.50152,3.50152,0,0,0,.94189-1.36914,1.8351,1.8351,0,0,0-.019-1.73633,2.01051,2.01051,0,0,0-1.854-.373Z" transform="translate(-4.37793)"/><path class="cls-1" d="M393.09253,172.1553c-1.24133.94678-1.37183,1.96029-.41256,3.25815.9072,1.2274,1.92755,1.81241,3.44229,1.33378a1.86222,1.86222,0,0,0,.99834-3.15867,3.39122,3.39122,0,0,0-3.83656-1.46873" transform="translate(-4.37793)"/><path class="cls-2" d="M395.12061,177.51437a3.65007,3.65007,0,0,1-2.92286-1.74414c-1.15625-1.56446-.978-2.94141.53077-4.0918a.59267.59267,0,0,1,.353-.123.26609.26609,0,0,1,.03662-.01172,3.97911,3.97911,0,0,1,4.47364,1.67383,2.61727,2.61727,0,0,1,.57373,2.41016,2.66013,2.66013,0,0,1-1.8628,1.6914A3.91985,3.91985,0,0,1,395.12061,177.51437Zm-1.772-4.79785c-.88183.71582-.92529,1.34082-.186,2.34082.86084,1.16406,1.63818,1.47949,2.77832,1.11718a1.51278,1.51278,0,0,0,1.07812-.90039,1.46874,1.46874,0,0,0-.36963-1.31445,2.78563,2.78563,0,0,0-3.19921-1.26367A.6254.6254,0,0,1,393.34863,172.71652Z" transform="translate(-4.37793)"/><path class="cls-1" d="M405.122,164.38107a4.4533,4.4533,0,0,0-2.12594,2.562,3.37113,3.37113,0,0,0,.64449,3.24734,2.3042,2.3042,0,0,0,2.78782.24023,2.9055,2.9055,0,0,0,1.434-2.99243,2.98745,2.98745,0,0,0-2.54889-3.09259" transform="translate(-4.37793)"/><path class="cls-2" d="M405.02441,171.38448a2.41808,2.41808,0,0,1-1.82177-.78418,3.9945,3.9945,0,0,1-.793-3.78418,4.61667,4.61667,0,0,1,2.11328-2.73535l.23682-.17773a.59823.59823,0,0,1,.34814-.12109.57756.57756,0,0,1,.34131-.02051,3.57427,3.57427,0,0,1,3.01269,3.66113c.04737,1.78418-.55175,2.97852-1.78027,3.55176A3.9467,3.9467,0,0,1,405.02441,171.38448Zm.313-6.41406-.09668.07227a3.51638,3.51638,0,0,0-1.6582,2.02734,2.74838,2.74838,0,0,0,.49609,2.71c.46924.501,1.17432.53711,2.09571.10645.76611-.35645,1.12207-1.15235,1.08838-2.43262A2.36469,2.36469,0,0,0,405.3374,164.97042Z" transform="translate(-4.37793)"/><path class="cls-1" d="M383.79729,147.29621a3.36768,3.36768,0,0,1-.85352-.11132,3.34183,3.34183,0,0,1,.84961-6.57325,3.34229,3.34229,0,0,1,.00391,6.68457Z" transform="translate(-4.37793)"/><path class="cls-3" d="M383.79326,141.2115a2.742,2.742,0,1,1-2.64947,2.04434,2.74437,2.74437,0,0,1,2.64947-2.04434m.00024-1.2h-.00012a3.93486,3.93486,0,1,0,.00012,0Z" transform="translate(-4.37793)"/><path class="cls-1" d="M398.70745,147.95149a6.46736,6.46736,0,1,1,6.01855-4.09766A6.45307,6.45307,0,0,1,398.70745,147.95149Z" transform="translate(-4.37793)"/><path class="cls-3" d="M398.71092,135.61611a5.86694,5.86694,0,1,1-5.45922,3.71733,5.85031,5.85031,0,0,1,5.45922-3.71733m.00013-1.2H398.711a7.03635,7.03635,0,1,0,.00006,0Z" transform="translate(-4.37793)"/><path class="cls-1" d="M402.12053,142.57649a3.34177,3.34177,0,1,1,3.10938-2.11719A3.33557,3.33557,0,0,1,402.12053,142.57649Z" transform="translate(-4.37793)"/><path class="cls-3" d="M402.12157,136.4916a2.74208,2.74208,0,1,1-2.55151,1.7374,2.73456,2.73456,0,0,1,2.55151-1.7374m.00012-1.2h-.00006a3.92773,3.92773,0,1,0,.00006,0Z" transform="translate(-4.37793)"/><path class="cls-1" d="M391.70842,148.47785a6.56928,6.56928,0,0,1-2.417-.46191,6.46687,6.46687,0,0,1-3.52539-3.29688,5.92564,5.92564,0,0,1-.16016-4.70507,6.08178,6.08178,0,0,1,5.73535-3.80078,6.56929,6.56929,0,0,1,2.417.46191,6.2415,6.2415,0,0,1,3.68652,8.00195A6.08213,6.08213,0,0,1,391.70842,148.47785Z" transform="translate(-4.37793)"/><path class="cls-3" d="M391.3416,136.81335a5.98775,5.98775,0,0,1,2.19739.42055,5.63257,5.63257,0,0,1,3.34668,7.2236,5.50175,5.50175,0,0,1-5.17707,3.42029,5.988,5.988,0,0,1-2.19732-.42055,5.63259,5.63259,0,0,1-3.34674-7.22359,5.50191,5.50191,0,0,1,5.17706-3.4203m.00012-1.2h-.00006a6.677,6.677,0,0,0-6.29358,4.18044,6.52192,6.52192,0,0,0,.17371,5.17738,7.06291,7.06291,0,0,0,3.84961,3.60254,7.16674,7.16674,0,0,0,2.6372.50407,6.6767,6.6767,0,0,0,6.29352-4.18043,6.5221,6.5221,0,0,0-.17364-5.17737,7.06316,7.06316,0,0,0-3.84961-3.60257,7.16694,7.16694,0,0,0-2.63715-.50406Z" transform="translate(-4.37793)"/><path class="cls-1" d="M436.32268,125.47492a4.49478,4.49478,0,1,1,2.84375-1.01367A4.4821,4.4821,0,0,1,436.32268,125.47492Z" transform="translate(-4.37793)"/><path class="cls-3" d="M436.31816,117.08009a3.89777,3.89777,0,1,1-2.46331.8791,3.88944,3.88944,0,0,1,2.46331-.8791m.00031-1.2h-.00012a5.10176,5.10176,0,1,0,.00012,0Z" transform="translate(-4.37793)"/><path class="cls-1" d="M432.935,130.73567a3.34181,3.34181,0,1,1,2.11329-.75391A3.331,3.331,0,0,1,432.935,130.73567Z" transform="translate(-4.37793)"/><path class="cls-3" d="M432.93205,124.65193a2.7417,2.7417,0,1,1-1.73272.61837,2.73592,2.73592,0,0,1,1.73272-.61837m.00019-1.2h-.00012a3.94463,3.94463,0,1,0,.00012,0Z" transform="translate(-4.37793)"/><path class="cls-1" d="M427.36955,128.48469a6.54746,6.54746,0,0,1-6.44824-7,5.90436,5.90436,0,0,1,5.91895-5.5127,6.43519,6.43519,0,0,1,4.98535,2.4004,6.24171,6.24171,0,0,1-.69531,8.7832A5.87993,5.87993,0,0,1,427.36955,128.48469Z" transform="translate(-4.37793)"/><path class="cls-3" d="M426.84056,116.57182a5.8541,5.8541,0,0,1,4.51978,2.18077,5.6326,5.6326,0,0,1-.61029,7.93779,5.3112,5.3112,0,0,1-3.38,1.19407,5.85468,5.85468,0,0,1-4.51983-2.18078,5.63265,5.63265,0,0,1,.61029-7.93779,5.31151,5.31151,0,0,1,3.38006-1.19406m.00031-1.2h-.00006a6.46853,6.46853,0,0,0-4.13941,1.46467,6.83958,6.83958,0,0,0-.78058,9.6263,7.02865,7.02865,0,0,0,5.44922,2.62167,6.50627,6.50627,0,0,0,6.51776-6.06662,7.1483,7.1483,0,0,0-7.04693-7.646Z" transform="translate(-4.37793)"/><path class="cls-1" d="M408.97991,132.19953a4.5027,4.5027,0,1,1,1.43945-.2373A4.4952,4.4952,0,0,1,408.97991,132.19953Z" transform="translate(-4.37793)"/><path class="cls-3" d="M408.98021,123.80238a3.90041,3.90041,0,1,1-1.2478.20605,3.899,3.899,0,0,1,1.2478-.20605m.00018-1.2h-.00006a5.09638,5.09638,0,1,0,.00006,0Z" transform="translate(-4.37793)"/><path class="cls-1" d="M419.47405,134.30012a6.32451,6.32451,0,0,1-5.93164-4.38574,6.46649,6.46649,0,0,1,.24511-4.82032,5.9273,5.9273,0,0,1,3.49219-3.15722,5.86,5.86,0,0,1,1.87793-.30957,6.32451,6.32451,0,0,1,5.93164,4.38574,6.23922,6.23922,0,0,1-3.7373,7.97754A5.86444,5.86444,0,0,1,419.47405,134.30012Z" transform="translate(-4.37793)"/><path class="cls-3" d="M419.15752,122.22721a5.74276,5.74276,0,0,1,5.36316,3.978,5.63264,5.63264,0,0,1-3.36115,7.21691,5.25714,5.25714,0,0,1-1.68591.27775,5.74283,5.74283,0,0,1-5.36316-3.978,5.63262,5.63262,0,0,1,3.36115-7.21689,5.258,5.258,0,0,1,1.68591-.27776m.00012-1.2h0a6.45528,6.45528,0,0,0-2.07007.34088,6.83953,6.83953,0,0,0-4.114,8.73781,6.92356,6.92356,0,0,0,6.50006,4.794,6.4551,6.4551,0,0,0,2.07-.34089,6.8395,6.8395,0,0,0,4.114-8.73783,6.92344,6.92344,0,0,0-6.49994-4.79393Z" transform="translate(-4.37793)"/><path class="cls-1" d="M474.72991,136.32551a4.49746,4.49746,0,0,1-.45215-8.97168,4.5834,4.5834,0,0,1,.46094-.02344,4.49747,4.49747,0,0,1,.45214,8.97168A4.5804,4.5804,0,0,1,474.72991,136.32551Z" transform="translate(-4.37793)"/><path class="cls-3" d="M474.73931,127.92976a3.89777,3.89777,0,0,1,.39111,7.77537,3.94144,3.94144,0,0,1-.40051.02047,3.89778,3.89778,0,0,1-.39112-7.7754,3.94429,3.94429,0,0,1,.40052-.02044m.00012-1.2a5.1003,5.1003,0,0,0-5.07611,5.61557,5.08128,5.08128,0,0,0,5.06659,4.58026,5.151,5.151,0,0,0,.5224-.02665,5.09778,5.09778,0,0,0-.51288-10.16918Z" transform="translate(-4.37793)"/><path class="cls-1" d="M464.43791,133.64485a6.23974,6.23974,0,0,1-6.10937-5.74024,6.46856,6.46856,0,0,1,1.30957-4.64551,5.93217,5.93217,0,0,1,4.707-2.333,6.38073,6.38073,0,0,1,.69141,12.68847A5.8929,5.8929,0,0,1,464.43791,133.64485Z" transform="translate(-4.37793)"/><path class="cls-3" d="M464.34447,121.52639a5.78113,5.78113,0,0,1,.63141,11.49112,5.30857,5.30857,0,0,1-.53882.0275,5.78113,5.78113,0,0,1-.63141-11.49112,5.30857,5.30857,0,0,1,.53882-.0275m.00043-1.2h-.00019a6.51591,6.51591,0,0,0-5.18054,2.56519,7.06235,7.06235,0,0,0-1.43286,5.07395,6.83727,6.83727,0,0,0,6.70575,6.2795,6.51578,6.51578,0,0,0,5.1803-2.56519,7.06244,7.06244,0,0,0,1.43286-5.074,6.83705,6.83705,0,0,0-6.70532-6.2795Z" transform="translate(-4.37793)"/><path class="cls-1" d="M443.353,128.929a4.498,4.498,0,1,1,4.34571-3.35352A4.48777,4.48777,0,0,1,443.353,128.929Z" transform="translate(-4.37793)"/><path class="cls-3" d="M443.347,120.53211a3.89818,3.89818,0,1,1-3.76666,2.90638,3.901,3.901,0,0,1,3.76666-2.90638m.00025-1.2h-.00006a5.088,5.088,0,1,0,.00006,0Z" transform="translate(-4.37793)"/><path class="cls-1" d="M452.1303,133.65754a5.85827,5.85827,0,0,1-1.49414-.19433,6.23853,6.23853,0,0,1-4.27442-7.70215,6.30846,6.30846,0,0,1,6.01856-4.7959,5.85827,5.85827,0,0,1,1.49414.19433,5.92873,5.92873,0,0,1,3.70019,2.91114,6.46768,6.46768,0,0,1,.57324,4.793A6.30684,6.30684,0,0,1,452.1303,133.65754Z" transform="translate(-4.37793)"/><path class="cls-3" d="M452.38,121.56556a5.26161,5.26161,0,0,1,1.34174.17421,5.63267,5.63267,0,0,1,3.84637,6.97041,5.7194,5.7194,0,0,1-5.43805,4.34739,5.26292,5.26292,0,0,1-1.34179-.17421,5.6326,5.6326,0,0,1-3.84632-6.97042,5.71954,5.71954,0,0,1,5.43805-4.34738m.00018-1.2h-.00006a6.90918,6.90918,0,0,0-6.59863,5.24191,7.063,7.063,0,0,0,.62885,5.23474,6.509,6.509,0,0,0,5.71972,3.41538,6.90881,6.90881,0,0,0,6.59851-5.24191,6.83957,6.83957,0,0,0-4.70135-8.43636,6.474,6.474,0,0,0-1.647-.21376Z" transform="translate(-4.37793)"/><path class="cls-1" d="M497.60784,150.263a3.86471,3.86471,0,0,1-.67383-.05957,3.85014,3.85014,0,0,1,.66406-7.6416,3.86471,3.86471,0,0,1,.67383.05957,3.85014,3.85014,0,0,1-.66406,7.6416Z" transform="translate(-4.37793)"/><path class="cls-3" d="M497.59911,143.162a3.25017,3.25017,0,1,1-3.19666,2.68577,3.26619,3.26619,0,0,1,3.19666-2.68577m.00012-1.2h-.00006a4.45692,4.45692,0,1,0,.00006,0Z" transform="translate(-4.37793)"/><path class="cls-1" d="M480.78752,138.66828a4.4997,4.4997,0,0,1-4.44824-5.19629,4.47483,4.47483,0,0,1,4.43945-3.7998,4.49887,4.49887,0,0,1,4.44727,5.19629A4.47308,4.47308,0,0,1,480.78752,138.66828Z" transform="translate(-4.37793)"/><path class="cls-3" d="M480.77806,130.272a3.89794,3.89794,0,1,1-3.84558,3.293,3.92542,3.92542,0,0,1,3.84558-3.293m.00019-1.2h-.00007a5.09794,5.09794,0,0,0-.78686,10.134,5.14742,5.14742,0,0,0,.79626.06238,5.09792,5.09792,0,0,0,.78669-10.134,5.14492,5.14492,0,0,0-.796-.06237Z" transform="translate(-4.37793)"/><path class="cls-1" d="M487.83049,151.92317a7.29226,7.29226,0,0,1-1.13769-.08887,7.38062,7.38062,0,0,1-4.95215-3.14063,8.067,8.067,0,0,1-1.31738-5.875,7.87783,7.87783,0,0,1,7.59375-6.74707,7.29236,7.29236,0,0,1,1.13769.08887,7.77842,7.77842,0,0,1,6.26953,9.01563A7.87783,7.87783,0,0,1,487.83049,151.92317Z" transform="translate(-4.37793)"/><path class="cls-3" d="M488.01708,136.67159a6.72641,6.72641,0,0,1,1.045.0819,7.36573,7.36573,0,0,1-1.23193,14.56949,6.72644,6.72644,0,0,1-1.04505-.0819,7.36572,7.36572,0,0,1,1.23194-14.56949m0-1.2H488.017a8.48207,8.48207,0,0,0-8.18628,7.25374,8.66275,8.66275,0,0,0,1.41705,6.30967,7.963,7.963,0,0,0,6.5824,3.488,8.48192,8.48192,0,0,0,8.18628-7.25377,8.663,8.663,0,0,0-1.417-6.30966,7.96307,7.96307,0,0,0-6.58239-3.488Z" transform="translate(-4.37793)"/><path class="cls-1" d="M404.767,140.96321a6.56372,6.56372,0,0,1-6.49122-6.01758,5.92721,5.92721,0,0,1,1.50391-4.46192,6.0012,6.0012,0,0,1,4.45606-1.95215,6.56372,6.56372,0,0,1,6.49121,6.01758,5.92721,5.92721,0,0,1-1.50391,4.46192A6.0012,6.0012,0,0,1,404.767,140.96321Z" transform="translate(-4.37793)"/><path class="cls-3" d="M404.23552,129.13169a5.89294,5.89294,0,0,1,3.94769,1.538,5.63258,5.63258,0,0,1,.59436,7.939,5.36269,5.36269,0,0,1-4.01055,1.75461,5.89347,5.89347,0,0,1-3.9477-1.538,5.63265,5.63265,0,0,1-.59442-7.939,5.36332,5.36332,0,0,1,4.01062-1.75461m.00049-1.2h-.00012a6.60215,6.60215,0,0,0-4.90161,2.15039,6.83952,6.83952,0,0,0,.68084,9.63386,7.08881,7.08881,0,0,0,4.7519,1.84738,6.6011,6.6011,0,0,0,4.90124-2.15042,6.52208,6.52208,0,0,0,1.657-4.90811,7.16426,7.16426,0,0,0-7.08923-6.5731Z" transform="translate(-4.37793)"/><path class="cls-1" d="M497.85881,162.28352a7.88082,7.88082,0,1,1,5.85156-2.59961A7.864,7.864,0,0,1,497.85881,162.28352Z" transform="translate(-4.37793)"/><path class="cls-3" d="M497.8637,147.12232a7.28049,7.28049,0,1,1-5.40589,2.40142,7.25362,7.25362,0,0,1,5.40589-2.40142m.00018-1.2h-.00006a8.474,8.474,0,1,0,.00006,0Z" transform="translate(-4.37793)"/><path class="cls-1" d="M383.60393,161.40266a7.87993,7.87993,0,1,1,5.85059-2.59863A7.86785,7.86785,0,0,1,383.60393,161.40266Z" transform="translate(-4.37793)"/><path class="cls-3" d="M383.60808,146.24171a7.28048,7.28048,0,1,1-5.40594,2.4014,7.25344,7.25344,0,0,1,5.40594-2.4014m.00006-1.2h0a8.48049,8.48049,0,1,0,5.68091,2.1862,8.497,8.497,0,0,0-5.68091-2.1862Z" transform="translate(-4.37793)"/><path class="cls-1" d="M493.45093,162.62133c.31754.06724.63.16355.94545.24429,1.30761-.231,2.60819.89607,3.89813.90981.14551.00155,1.57269-2.47361,1.71877-2.46885,2.75514-2.557,4.088-3.85067,2.59308-7.21023-3.051-6.85648-10.56932-12.87848-16.87874-11.991C481.34918,126.07781,461.254,125.8436,454.6205,128.841c-13.36923-13.73851-40.62181-8.13657-54.01632,8.31-8.83373,1.17081-18.50482,7.6-21.07055,13.64727-1.57335,3.70846-1.6535,5.64752.598,8.25527,1.7474.256,3.462,3.23148,5.12961,3.902,1.71337-.41257,5.973-1.86463,7.67642-1.84649a22.42046,22.42046,0,0,1,10.125,2.62252l72.34348.96208a22.36606,22.36606,0,0,1,11.52725-3.16769A21.98127,21.98127,0,0,1,493.45093,162.62133Z" transform="translate(-4.37793)"/><path class="cls-1" d="M501.98977,160.73418l8.34468,35.3676c.00957,27.0609-138.44358,27.10987-138.45315.049l7.80536-35.924" transform="translate(-4.37793)"/><path class="cls-3" d="M441.01855,217.02218c-18.14892,0-35.06591-1.80176-47.64892-5.07617-14.44775-3.75977-22.08594-9.22168-22.08838-15.79492l.01367-.127,7.80518-35.9248,1.17285.2539-7.7915,35.86133c.06738,7.5,11.55224,12.06153,21.19043,14.57031,12.48632,3.249,29.29785,5.03711,47.34667,5.03711h.09864c18.08545-.00683,34.9331-1.80761,47.439-5.07128,9.63379-2.51465,21.11035-7.083,21.17774-14.58008l-8.32813-35.29883,1.168-.27539,8.36035,35.50586c.00586,14.35547-36.187,20.90722-69.8164,20.91992Z" transform="translate(-4.37793)"/><path class="cls-3" d="M441.21777,170.9753h-.22412c-26.72168-.02148-53.16894-4.43066-61.51758-10.25488l.68653-.98437c6.9497,4.84863,30.63183,10.01465,60.832,10.04h.21387c27.39843,0,53.6748-4.07129,61.18359-9.48633l.70117.97265C495.28174,166.89718,469.28076,170.9753,441.21777,170.9753Z" transform="translate(-4.37793)"/><path class="cls-1" d="M478.48043,179.91369c-1.78059,1.45715-2.43408,4.85786-1.27667,6.64368,1.0041,1.54927,3.94686,2.39711,5.297,1.52611,1.77911-1.14772,2.1015-4.02234.55061-5.941a6.167,6.167,0,0,0-4.30161-2.2787" transform="translate(-4.37793)"/><path class="cls-3" d="M481.09424,189.02706a5.55158,5.55158,0,0,1-4.394-2.14355c-1.31885-2.03516-.61231-5.78711,1.3999-7.4336a2.20585,2.20585,0,0,1,.71-.18261,6.79135,6.79135,0,0,1,4.708,2.498,5.07632,5.07632,0,0,1,1.06543,3.98926,4.10693,4.10693,0,0,1-1.75782,2.833A3.19174,3.19174,0,0,1,481.09424,189.02706Zm-2.33887-8.55957c-1.4624,1.31153-2.01611,4.26953-1.04834,5.76367.813,1.25489,3.40088,2.03418,4.46826,1.34864a2.875,2.875,0,0,0,1.22364-2.01465,3.93079,3.93079,0,0,0-.81446-3.0459A5.53287,5.53287,0,0,0,478.75537,180.46749Z" transform="translate(-4.37793)"/><path class="cls-1" d="M485.05453,189.83908a13.78919,13.78919,0,0,0-5.04518,9.26907c-.2109,1.99043-.27241,3.82833,1.3357,5.02057,1.64078,1.21645,3.49712.39807,5.17272-.36177a17.71741,17.71741,0,0,1,6.69028-1.4181c3.52934-.126,5.413-2.45138,3.66376-5.48055a19.02157,19.02157,0,0,0-4.156-5.16517c-2.27158-1.91706-4.51292-2.85906-7.39191-1.91394" transform="translate(-4.37793)"/><path class="cls-3" d="M483.2251,205.35421a3.64825,3.64825,0,0,1-2.23731-.74414c-1.85351-1.374-1.80273-3.416-1.57519-5.56543a14.42625,14.42625,0,0,1,5.24707-9.65723.62745.62745,0,0,1,.4209-.14746c.01855-.00781.03711-.01465.05664-.02148,3.55078-1.16211,6.123.4707,7.96484,2.02539a19.42023,19.42023,0,0,1,4.28906,5.32422,4.14152,4.14152,0,0,1,.32129,4.15332c-.74219,1.34082-2.376,2.15234-4.48242,2.22754a16.89438,16.89438,0,0,0-6.46387,1.36426A8.9114,8.9114,0,0,1,483.2251,205.35421Zm2.11328-14.96582a13.06362,13.06362,0,0,0-4.73242,8.7832c-.2041,1.92383-.25293,3.47461,1.09668,4.47461,1.27539.94629,2.69726.42285,4.56738-.42578a18.03975,18.03975,0,0,1,6.917-1.4707c1.67578-.05957,2.94238-.64649,3.47559-1.60938a2.96861,2.96861,0,0,0-.31055-2.97265,18.243,18.243,0,0,0-4.02344-5.00586c-2.417-2.041-4.458-2.5791-6.81738-1.80274A.59978.59978,0,0,1,485.33838,190.38839Z" transform="translate(-4.37793)"/><path class="cls-1" d="M497.21446,184.80114a6.46907,6.46907,0,0,0-2.5116,2.722c-.50332,1.41066-.586,2.99459.97539,3.95567a2.84527,2.84527,0,0,0,3.82745-.396,5.81113,5.81113,0,0,0,1.52981-2.248c1.02946-2.89655-.39109-4.547-3.55172-4.08353" transform="translate(-4.37793)"/><path class="cls-3" d="M497.43018,192.63937a3.94325,3.94325,0,0,1-2.06641-.64942c-1.082-.666-2.17188-2.0166-1.22656-4.668a6.95594,6.95594,0,0,1,2.7207-3.00293,15.52721,15.52721,0,0,1,.53906-.16113c2.2666-.334,3.39258.37793,3.93262,1.03613.52148.63379.99121,1.81641.27148,3.8418a6.3581,6.3581,0,0,1-1.67675,2.47656A3.54339,3.54339,0,0,1,497.43018,192.63937Zm.04882-7.28809a5.78313,5.78313,0,0,0-2.21093,2.37305c-.7334,2.05566.0625,2.83594.72461,3.24414a2.25649,2.25649,0,0,0,3.09375-.31543,5.15494,5.15494,0,0,0,1.38378-2.01953,2.79446,2.79446,0,0,0-.06835-2.67871c-.48438-.58887-1.48926-.8086-2.83106-.60938A.47822.47822,0,0,1,497.479,185.35128Z" transform="translate(-4.37793)"/><path class="cls-1" d="M472.87448,188.75209c-1.74579,1.33154-1.92933,2.75694-.58022,4.58222,1.27588,1.7262,2.71088,2.549,4.84119,1.87582,2.20169-.69569,2.82793-2.63514,1.40406-4.44231-1.38583-1.75891-3.07835-2.73237-5.3957-2.06561" transform="translate(-4.37793)"/><path class="cls-3" d="M475.74219,196.04171a4.91579,4.91579,0,0,1-3.93018-2.35059c-1.53174-2.07128-1.29639-3.89453.69873-5.416a.6794.6794,0,0,1,.39209-.12305.49488.49488,0,0,1,.07569-.02636c2.32519-.6709,4.30078.07226,6.03271,2.27148a3.44466,3.44466,0,0,1,.76563,3.165,3.509,3.509,0,0,1-2.46094,2.21973A5.21222,5.21222,0,0,1,475.74219,196.04171Zm-2.59815-6.73926c-1.398,1.10645-1.49756,2.14649-.36718,3.67578,1.26953,1.71778,2.48193,2.19922,4.17724,1.65918a2.35582,2.35582,0,0,0,1.67529-1.42773,2.292,2.292,0,0,0-.561-2.07031c-1.41455-1.7959-2.92529-2.38477-4.75879-1.86133A.5737.5737,0,0,1,473.144,189.30245Z" transform="translate(-4.37793)"/><path class="cls-1" d="M489.79253,177.81853c-1.27535.96568-2.60209,1.81148-2.98988,3.60313a4.741,4.741,0,0,0,.9064,4.567c1.13049,1.20756,2.70545.90463,3.92075.33786,1.6526-.77072,2.063-2.46949,2.0168-4.20851a4.2015,4.2015,0,0,0-3.58473-4.34937" transform="translate(-4.37793)"/><path class="cls-3" d="M489.65967,187.42257a3.16962,3.16962,0,0,1-2.38867-1.02344,5.39613,5.39613,0,0,1-1.05567-5.10449c.40235-1.85449,1.66309-2.7959,2.88281-3.706l.332-.249a.61623.61623,0,0,1,.39062-.12109.59533.59533,0,0,1,.37695-.03418,4.80411,4.80411,0,0,1,4.04883,4.918c.06348,2.40234-.73144,4.00683-2.36328,4.76855A5.31322,5.31322,0,0,1,489.65967,187.42257Zm.38281-9.042-.22656.16992c-1.1377.84961-2.12012,1.583-2.42774,2.99805-.39062,1.80957-.15625,3.05273.75879,4.03027.74121.791,1.82813.8584,3.22852.2041,1.1748-.54785,1.72168-1.74219,1.67187-3.64941A3.60178,3.60178,0,0,0,490.04248,178.38058Z" transform="translate(-4.37793)"/><rect class="cls-3" x="424.07885" y="90.99035" width="5.83335" height="0.58494" transform="translate(39.73765 301.18918) rotate(-40.7999)"/><path class="cls-3" d="M424.96045,93.657l-.61035-.708,4.68066-4.041.61035.709Zm-.11719-.6709.15332.17675,4.15137-3.583-.15332-.17774Z" transform="translate(-4.37793)"/><rect class="cls-3" x="433.22022" y="102.00349" width="5.83335" height="0.58494" transform="translate(34.76284 309.83856) rotate(-40.7999)"/><path class="cls-3" d="M434.10205,104.67062l-.61084-.709,4.68067-4.04.61035.709Zm-.11767-.67188.1538.17774,4.15088-3.583-.15332-.17774Z" transform="translate(-4.37793)"/><polygon class="cls-3" points="433.445 104.696 433.885 104.313 430.075 99.898 429.634 100.28 433.445 104.696"/><path class="cls-3" d="M437.80469,104.94308l-4.03907-4.68067.70508-.61132,4.03858,4.67968Zm-3.5459-4.64551,3.58105,4.15137.17627-.15332-3.58154-4.15039Z" transform="translate(-4.37793)"/><polygon class="cls-3" points="424.303 93.682 424.744 93.3 420.933 88.885 420.493 89.267 424.303 93.682"/><path class="cls-3" d="M428.66309,93.92941,424.624,89.24874l.70508-.61133,4.03906,4.68067Zm-3.5459-4.64551,3.582,4.15137.17578-.15235-3.582-4.15137Z" transform="translate(-4.37793)"/><rect class="cls-3" x="421.17414" y="130.47777" width="5.83331" height="0.58494" transform="translate(13.17201 308.75449) rotate(-40.78126)"/><path class="cls-3" d="M422.05518,133.14425l-.61036-.709,4.68164-4.03907.61036.709Zm-.11719-.67188.15332.17774,4.15234-3.582-.15332-.17774Z" transform="translate(-4.37793)"/><rect class="cls-3" x="442.36966" y="112.18502" width="5.83335" height="0.58494" transform="translate(30.33338 318.29113) rotate(-40.7999)"/><path class="cls-3" d="M443.25146,114.85226l-.61035-.709,4.68018-4.04.61035.709Zm-.11718-.67188.15332.17774,4.15088-3.583-.15332-.17774Z" transform="translate(-4.37793)"/><rect class="cls-3" x="419.72438" y="150.22034" width="5.83236" height="0.58494" transform="translate(-0.07479 312.60213) rotate(-40.78147)"/><path class="cls-3" d="M420.60547,152.88644l-.61035-.709,4.68066-4.03808.61035.709Zm-.11719-.67188.15332.17774,4.15137-3.58106-.15332-.17773Z" transform="translate(-4.37793)"/><rect class="cls-3" x="440.91843" y="131.9288" width="5.83241" height="0.58494" transform="translate(17.08037 322.14199) rotate(-40.80012)"/><path class="cls-3" d="M441.7998,134.59542l-.61035-.709,4.67969-4.03907.61035.708Zm-.11718-.67187.15332.17773,4.15039-3.583-.15332-.17675Z" transform="translate(-4.37793)"/><rect class="cls-3" x="421.92655" y="107.93685" width="5.83335" height="0.58494" transform="matrix(0.757, -0.65342, 0.65342, 0.757, 28.14147, 303.90089)"/><path class="cls-3" d="M422.80811,110.60421l-.61036-.709,4.68067-4.04.61035.708Zm-.11719-.67187.15332.17773,4.15137-3.584-.15332-.17676Z" transform="translate(-4.37793)"/><polygon class="cls-3" points="422.151 110.629 422.591 110.247 418.781 105.831 418.341 106.213 422.151 110.629"/><path class="cls-3" d="M426.51074,110.8757l-4.03906-4.67969.70459-.61231,4.03955,4.68067Zm-3.5459-4.64454,3.582,4.15039.17578-.15234-3.58155-4.15137Z" transform="translate(-4.37793)"/><polygon class="cls-3" points="421.398 133.169 421.838 132.787 418.028 128.371 417.588 128.753 421.398 133.169"/><path class="cls-3" d="M425.7583,133.41671l-4.03955-4.68066.70508-.61133,4.03906,4.67969Zm-3.54639-4.64551,3.58155,4.15137.17627-.15332-3.582-4.15039Z" transform="translate(-4.37793)"/><polygon class="cls-3" points="442.594 114.877 443.034 114.495 439.224 110.079 438.784 110.461 442.594 114.877"/><path class="cls-3" d="M446.95361,115.12374l-4.03857-4.67969.70459-.6123,4.03906,4.68066Zm-3.54541-4.64453,3.58155,4.15039.17578-.15234-3.58106-4.15137Z" transform="translate(-4.37793)"/><polygon class="cls-3" points="419.947 152.912 420.388 152.53 416.577 148.114 416.137 148.496 419.947 152.912"/><path class="cls-3" d="M424.30713,153.1589l-4.03906-4.67969.70459-.6123,4.03955,4.68066Zm-3.5459-4.64453,3.582,4.15039.17578-.15235-3.58154-4.15136Z" transform="translate(-4.37793)"/><polygon class="cls-3" points="441.142 134.621 441.582 134.239 437.772 129.823 437.332 130.206 441.142 134.621"/><path class="cls-3" d="M445.502,134.86788l-4.03906-4.67968.70459-.61231,4.03955,4.68066Zm-3.5459-4.64453,3.582,4.15039.17578-.15234L442.13232,130.07Z" transform="translate(-4.37793)"/><rect class="cls-3" x="455.1243" y="112.23873" width="5.83241" height="0.58494" transform="translate(33.39841 326.6396) rotate(-40.80012)"/><path class="cls-3" d="M456.00586,114.905l-.61035-.708,4.67969-4.04.61035.709Zm-.11719-.6709.15332.17676,4.15039-3.582-.15332-.17773Z" transform="translate(-4.37793)"/><polygon class="cls-3" points="455.348 114.931 455.788 114.549 451.978 110.133 451.537 110.515 455.348 114.931"/><path class="cls-3" d="M459.708,115.17843l-4.03906-4.68066.70507-.61133,4.03858,4.67968Zm-3.5459-4.64551,3.58105,4.15137.17627-.15332-3.58154-4.15039Z" transform="translate(-4.37793)"/><rect class="cls-3" x="426.63426" y="140.25238" width="5.83241" height="0.58494" transform="translate(8.17041 314.83107) rotate(-40.80012)"/><path class="cls-3" d="M427.51562,142.91866l-.61035-.708,4.67969-4.04.61035.709Zm-.11718-.67089.15332.17675,4.15039-3.582-.15332-.17773Z" transform="translate(-4.37793)"/><polygon class="cls-3" points="426.858 142.945 427.298 142.563 423.488 138.147 423.047 138.529 426.858 142.945"/><path class="cls-3" d="M431.21826,143.1921l-4.03955-4.68066.70508-.61133,4.03906,4.67969Zm-3.54638-4.64551,3.58154,4.15137.17627-.15332-3.582-4.15039Z" transform="translate(-4.37793)"/><rect class="cls-3" x="456.5661" y="136.66779" width="5.83241" height="0.58494" transform="translate(17.78629 333.51812) rotate(-40.80012)"/><path class="cls-3" d="M457.44775,139.33468l-.61035-.709,4.67969-4.03907.61035.708Zm-.11718-.67188.15332.17774,4.15039-3.583-.15332-.17676Z" transform="translate(-4.37793)"/><polygon class="cls-3" points="456.79 139.36 457.231 138.977 453.42 134.562 452.98 134.944 456.79 139.36"/><path class="cls-3" d="M461.15088,139.60714l-4.03955-4.68066.70508-.61133,4.03857,4.67969Zm-3.54639-4.64551L461.186,139.113l.17578-.15332-3.58155-4.15039Z" transform="translate(-4.37793)"/><rect class="cls-3" x="448.82268" y="101.8874" width="5.83335" height="0.58494" transform="translate(38.63015 320.0053) rotate(-40.7999)"/><path class="cls-3" d="M449.7041,104.55441l-.61035-.709,4.68066-4.04.61036.709Zm-.11719-.67188.15332.17774,4.15137-3.583-.15332-.17774Z" transform="translate(-4.37793)"/><polygon class="cls-3" points="449.047 104.58 449.487 104.197 445.677 99.782 445.237 100.164 449.047 104.58"/><path class="cls-3" d="M453.40723,104.82687l-4.03907-4.68067.70508-.61133,4.03858,4.67969Zm-3.5459-4.64551,3.58105,4.15137.17627-.15332-3.58154-4.15039Z" transform="translate(-4.37793)"/><rect class="cls-3" x="437.35782" y="90.21778" width="5.83335" height="0.58494" transform="translate(43.4693 309.67818) rotate(-40.7999)"/><path class="cls-3" d="M438.23926,92.88448l-.61035-.709,4.68066-4.04.61035.709Zm-.11719-.67187.15332.17773,4.15137-3.583-.15332-.17774Z" transform="translate(-4.37793)"/><polygon class="cls-3" points="437.582 92.91 438.023 92.528 434.211 88.111 433.771 88.493 437.582 92.91"/><path class="cls-3" d="M441.94189,93.157l-4.04-4.68165.70507-.61132,4.04,4.68164ZM438.395,88.51046l3.583,4.15234.17578-.15234-3.583-4.15234Z" transform="translate(-4.37793)"/><rect class="cls-3" x="437.62414" y="146.29478" width="5.83335" height="0.58494" transform="translate(6.89222 323.47912) rotate(-40.7999)"/><path class="cls-3" d="M438.50586,148.96163l-.61035-.709,4.68017-4.04.61036.709Zm-.11719-.67187.15332.17773,4.15088-3.583-.15332-.17773Z" transform="translate(-4.37793)"/><polygon class="cls-3" points="437.848 148.987 438.289 148.605 434.479 144.189 434.038 144.571 437.848 148.987"/><path class="cls-3" d="M442.2085,149.23409l-4.03907-4.68066.70508-.61133,4.03906,4.68067Zm-3.5459-4.6455,3.582,4.15136.17578-.15234-3.582-4.15137Z" transform="translate(-4.37793)"/><path class="cls-1" d="M447.15842,65.37579l-9.37313,7.96112,33.92133,39.93768,9.37313-7.96113s17.457-.09532,25.60758-7.018l48.49574-41.19018C560.61677,52.49009,512.85-3.74867,507.41631.86647L458.92057,42.05665C450.77,48.97937,447.15842,65.37579,447.15842,65.37579Z" transform="translate(-4.37793)"/><path class="cls-3" d="M471.6377,114.11984,436.93945,73.2673l9.67774-8.21973c.458-1.9834,4.09619-16.80762,11.915-23.44824L507.02783.40987a2.49818,2.49818,0,0,1,2.5459-.14648C519.439,3.7878,554.24658,44.7673,556.12744,55.07394a2.49272,2.49272,0,0,1-.55566,2.48828l-48.4961,41.19043c-7.82031,6.64258-23.623,7.123-25.77246,7.1582ZM438.63086,73.406l33.14453,39.02246,9.08252-7.71387.21875-.001c.17188-.001,17.334-.17579,25.22168-6.875l48.49609-41.19043c1.74024-1.47852-5.36523-13.65039-19.87988-30.73829A209.23272,209.23272,0,0,0,517.53076,7.5007c-7.81347-7.11426-9.47265-6.38965-9.72558-6.17676L459.30859,42.51339c-7.8999,6.71094-11.5288,22.8291-11.56445,22.99121l-.04346.19727Z" transform="translate(-4.37793)"/><line class="cls-1" x1="449.33486" y1="78.04831" x2="465.25712" y2="96.79457"/><rect class="cls-3" x="461.07375" y="75.12385" width="1.20065" height="24.59548" transform="translate(48.82502 319.66462) rotate(-40.34356)"/><path class="cls-3" d="M502.58858,47.83116l9.002-7.46769,5.27108,6.3541-9.002,7.46769,7.51169,9.05507-6.35409,5.27108-7.5117-9.05508L492.60962,66.836l-5.27108-6.3541,8.89595-7.37968-7.42369-8.949,6.35409-5.27108Z" transform="translate(-4.37793)"/><path class="cls-4" d="M6.97607,206.94894q-1.65013,0-1.6499,1.24316a1.07336,1.07336,0,0,0,.3794.95215,5.06655,5.06655,0,0,0,1.54.5166,3.90368,3.90368,0,0,1,1.64453.6709,1.69778,1.69778,0,0,1,.48388,1.3584q0,2.34375-2.43115,2.34277a13.69681,13.69681,0,0,1-2.01269-.18652l-.396-.05469.08789-.7041a18.81723,18.81723,0,0,0,2.27686.19726q1.62817,0,1.62793-1.52832a1.03783,1.03783,0,0,0-.35743-.88574,3.46276,3.46276,0,0,0-1.33642-.45605,4.50624,4.50624,0,0,1-1.82617-.71,1.7688,1.7688,0,0,1-.53907-1.457q0-2.04639,2.45313-2.04688a13.61217,13.61217,0,0,1,1.9248.165l.374.05566-.07666.71485A20.59717,20.59717,0,0,0,6.97607,206.94894Z" transform="translate(-4.37793)"/><path class="cls-4" d="M10.56152,211.17355a3.49416,3.49416,0,0,1,.53907-2.17871,2.2106,2.2106,0,0,1,1.8208-.6709,2.19376,2.19376,0,0,1,1.81494.6709,3.52333,3.52333,0,0,1,.5332,2.17871,3.7154,3.7154,0,0,1-.50586,2.18847,2.16679,2.16679,0,0,1-1.84814.68262,2.16577,2.16577,0,0,1-1.84766-.68262A3.715,3.715,0,0,1,10.56152,211.17355Zm.84717-.0166a3.50352,3.50352,0,0,0,.29151,1.68847,1.318,1.318,0,0,0,1.22119.4834,1.30866,1.30866,0,0,0,1.21533-.47852,3.54078,3.54078,0,0,0,.28613-1.68847,3.09688,3.09688,0,0,0-.31933-1.666,1.34624,1.34624,0,0,0-1.18213-.45605,1.36186,1.36186,0,0,0-1.188.45605A3.03805,3.03805,0,0,0,11.40869,211.157Z" transform="translate(-4.37793)"/><path class="cls-4" d="M20.15381,208.43429h.82471v5.5h-.82471v-.38477a3.15059,3.15059,0,0,1-1.62793.49512,1.63724,1.63724,0,0,1-1.49072-.583,4.38941,4.38941,0,0,1-.36866-2.15625v-2.87109h.8252v2.86035a4.05116,4.05116,0,0,0,.209,1.60547q.20874.40722.9458.40723a2.74526,2.74526,0,0,0,.73731-.1045,3.39335,3.39335,0,0,0,.57178-.20312l.19824-.09961Z" transform="translate(-4.37793)"/><path class="cls-4" d="M22.67285,213.93429v-5.5h.814v.74805A5.35681,5.35681,0,0,1,25.5,208.3132v.83593a5.87952,5.87952,0,0,0-.9624.27539,6.33626,6.33626,0,0,0-.76465.33008l-.2749.14258v4.03711Z" transform="translate(-4.37793)"/><path class="cls-4" d="M28.646,208.32394a9.39645,9.39645,0,0,1,1.23193.13281l.26416.03223-.0332.67089q-.88038-.09813-1.29785-.09863a1.51039,1.51039,0,0,0-1.27051.44531,2.89689,2.89689,0,0,0-.33545,1.6504,3.22851,3.22851,0,0,0,.31347,1.67773,1.47054,1.47054,0,0,0,1.30323.47266l1.29834-.09864.03271.68164a11.34949,11.34949,0,0,1-1.52881.1543,2.08483,2.08483,0,0,1-1.77685-.66016,3.84348,3.84348,0,0,1-.48926-2.22753,3.49068,3.49068,0,0,1,.52783-2.2002A2.1756,2.1756,0,0,1,28.646,208.32394Z" transform="translate(-4.37793)"/><path class="cls-4" d="M35.23486,213.25265l.31885-.0332.022.64843a15.831,15.831,0,0,1-2.145.17676,1.93479,1.93479,0,0,1-1.6831-.6875,3.694,3.694,0,0,1-.49512-2.13965q0-2.89306,2.29932-2.89355a2.10343,2.10343,0,0,1,1.66064.62207,2.89377,2.89377,0,0,1,.5503,1.95215l-.044.627H32.08887a2.259,2.259,0,0,0,.32959,1.35351,1.35083,1.35083,0,0,0,1.1499.43946Q34.38721,213.31808,35.23486,213.25265Zm-.29736-2.3877a2.38808,2.38808,0,0,0-.32422-1.42968,1.2557,1.2557,0,0,0-1.05615-.418,1.35162,1.35162,0,0,0-1.1001.44043,2.21971,2.21971,0,0,0-.37939,1.40722Z" transform="translate(-4.37793)"/><path class="cls-4" d="M37.10449,210.3923v-1.25391h.90235v1.25391Zm0,3.542v-1.25391h.90235v1.25391Z" transform="translate(-4.37793)"/><path class="cls-4" d="M41.53711,207.08175V206.322h5.5v.75977H44.71582v6.85254h-.83594v-6.85254Z" transform="translate(-4.37793)"/><path class="cls-4" d="M51.82227,213.25265l.31884-.0332.022.64843a15.83108,15.83108,0,0,1-2.145.17676,1.9348,1.9348,0,0,1-1.68311-.6875,3.694,3.694,0,0,1-.49512-2.13965q0-2.89306,2.29932-2.89355a2.10342,2.10342,0,0,1,1.66064.62207,2.89377,2.89377,0,0,1,.5503,1.95215l-.04395.627H48.67627a2.259,2.259,0,0,0,.32959,1.35351,1.35085,1.35085,0,0,0,1.1499.43946Q50.97461,213.31808,51.82227,213.25265Zm-.29737-2.3877a2.38808,2.38808,0,0,0-.32422-1.42968,1.25568,1.25568,0,0,0-1.05615-.418,1.35162,1.35162,0,0,0-1.1001.44043A2.21971,2.21971,0,0,0,48.665,210.865Z" transform="translate(-4.37793)"/><path class="cls-4" d="M55.8042,208.32394a9.39645,9.39645,0,0,1,1.23193.13281l.26416.03223-.0332.67089q-.88037-.09813-1.29785-.09863a1.51039,1.51039,0,0,0-1.27051.44531,2.89689,2.89689,0,0,0-.33545,1.6504,3.22839,3.22839,0,0,0,.31348,1.67773,1.47051,1.47051,0,0,0,1.30322.47266l1.29834-.09864.03272.68164a11.34964,11.34964,0,0,1-1.52881.1543,2.08486,2.08486,0,0,1-1.77686-.66016,3.84348,3.84348,0,0,1-.48926-2.22753,3.49061,3.49061,0,0,1,.52784-2.2002A2.17558,2.17558,0,0,1,55.8042,208.32394Z" transform="translate(-4.37793)"/><path class="cls-4" d="M59.478,213.93429h-.8252v-7.89844h.8252v2.70606a3.94563,3.94563,0,0,1,1.69385-.418,1.62522,1.62522,0,0,1,1.47949.59472,4.19257,4.19257,0,0,1,.37939,2.11133v2.9043h-.82471v-2.88184a3.7213,3.7213,0,0,0-.22558-1.56738.97856.97856,0,0,0-.95166-.42383,3.657,3.657,0,0,0-1.3418.25293l-.209.07715Z" transform="translate(-4.37793)"/><path class="cls-4" d="M65.49512,213.93429h-.8252v-5.5h.814v.38476a3.51644,3.51644,0,0,1,1.70507-.49511,1.62522,1.62522,0,0,1,1.4795.59472,4.19257,4.19257,0,0,1,.37939,2.11133v2.9043h-.814v-2.88184a3.71321,3.71321,0,0,0-.22559-1.56738.99.99,0,0,0-.9624-.42383,2.88822,2.88822,0,0,0-.74268.10449,3.82762,3.82762,0,0,0-.59912.20313l-.209.09961Z" transform="translate(-4.37793)"/><path class="cls-4" d="M74.56934,210.09542v2.81543c.022.27149.23486.4336.63818.48438l-.0332.64941a1.77274,1.77274,0,0,1-1.3086-.44043,4.83244,4.83244,0,0,1-1.98.44043,1.49446,1.49446,0,0,1-1.15527-.42969,1.75044,1.75044,0,0,1-.396-1.23144,1.54565,1.54565,0,0,1,.40723-1.18262,2.15577,2.15577,0,0,1,1.27588-.46777l1.72705-.165v-.47266a1.10669,1.10669,0,0,0-.24219-.80273.89213.89213,0,0,0-.65967-.24219,15.82913,15.82913,0,0,0-1.82617.10937l-.34131.03321-.03271-.627a11.10148,11.10148,0,0,1,2.145-.24218,1.5348,1.5348,0,0,1,1.78174,1.77148Zm-3.3877,2.24414q0,1.01222.83594,1.01172a4.446,4.446,0,0,0,1.47412-.25293l.25293-.08789V211.195l-1.62793.1543a1.06132,1.06132,0,0,0-.71533.28613A1.01231,1.01231,0,0,0,71.18164,212.33956Z" transform="translate(-4.37793)"/><path class="cls-4" d="M75.79053,208.43429h.87988l1.28711,4.78516h.40723l1.33105-4.78516h.84668l-1.55078,5.5H77.3418Z" transform="translate(-4.37793)"/><path class="cls-4" d="M81.7085,207.19112v-.957h.82519v.957Zm0,6.74317v-5.5h.82519v5.5Z" transform="translate(-4.37793)"/><path class="cls-4" d="M83.98486,211.17355a3.49416,3.49416,0,0,1,.53907-2.17871,2.79829,2.79829,0,0,1,3.63574,0,3.52333,3.52333,0,0,1,.5332,2.17871A3.7154,3.7154,0,0,1,88.187,213.362a2.84251,2.84251,0,0,1-3.6958,0A3.715,3.715,0,0,1,83.98486,211.17355Zm.84717-.0166a3.50352,3.50352,0,0,0,.29151,1.68847,1.7834,1.7834,0,0,0,2.43652.00488,3.54078,3.54078,0,0,0,.28613-1.68847,3.09688,3.09688,0,0,0-.31933-1.666,1.34624,1.34624,0,0,0-1.18213-.45605,1.36186,1.36186,0,0,0-1.188.45605A3.03805,3.03805,0,0,0,84.832,211.157Z" transform="translate(-4.37793)"/><path class="cls-3" d="M16.73047,171.66866v2.78907H8.021l-.4834,4.95214a9.14948,9.14948,0,0,1,3.81347-.88281q6.03371,0,6.03418,5.63574a6.728,6.728,0,0,1-1.665,4.89551,6.2784,6.2784,0,0,1-4.71044,1.708,19.92187,19.92187,0,0,1-2.90332-.24219q-1.62233-.2417-2.58985-.46972l-.96777-.25586.34179-2.39063a35.252,35.252,0,0,0,5.749.56836,3.46312,3.46312,0,0,0,2.56152-.91016,3.505,3.505,0,0,0,.91065-2.58984,3.17551,3.17551,0,0,0-.79688-2.41992,2.93146,2.93146,0,0,0-2.07764-.73926,10.451,10.451,0,0,0-3.75683.56836l-.51221.19922-1.99219-.42676.51221-9.98926Z" transform="translate(-4.37793)"/><path class="cls-3" d="M19.81006,174.51437v-2.84571H31.6499v3.75684l-6.916,15.34082-2.96-.85449,6.68847-14.54395v-.85351Z" transform="translate(-4.37793)"/><path class="cls-3" d="M33.92383,175.39718q0-4.04151,3.28711-4.042,3.2871,0,3.2876,4.042a4.71284,4.71284,0,0,1-.854,3.07324,3.40281,3.40281,0,0,1-4.86719,0A4.71578,4.71578,0,0,1,33.92383,175.39718Zm2.54736-1.63672a4.50111,4.50111,0,0,0-.21387,1.63672,4.62331,4.62331,0,0,0,.21387,1.65039.811.811,0,0,0,1.5083,0,4.63692,4.63692,0,0,0,.21338-1.65039,4.51431,4.51431,0,0,0-.21338-1.63672.82.82,0,0,0-1.5083,0Zm.811,16.86328,6.31836-19.83789,1.76464.59766-6.31835,19.80957Zm4.8667-3.95605q0-4.04151,3.28759-4.042,3.28712,0,3.28711,4.042a4.71108,4.71108,0,0,1-.854,3.07324,3.4,3.4,0,0,1-4.8667,0A4.711,4.711,0,0,1,42.14893,186.66769Zm3.28759-2.10645a.7698.7698,0,0,0-.76855.49805,4.44782,4.44782,0,0,0-.21338,1.62207,4.70173,4.70173,0,0,0,.21338,1.65137.80718.80718,0,0,0,1.5083.01367,6.70626,6.70626,0,0,0,.01416-3.30078A.744.744,0,0,0,45.43652,184.56124Z" transform="translate(-4.37793)"/><path class="cls-3" d="M63.7793,190.76632q-4.26929,0-5.79151-2.3623-1.52343-2.3628-1.52295-7.77051,0-5.40673,1.53711-7.69824,1.53663-2.291,5.77735-2.292a24.7257,24.7257,0,0,1,5.57861.71192l-.11377,2.56152a29.20349,29.20349,0,0,0-5.12305-.45508q-2.562,0-3.47216,1.52246-.91186,1.52344-.91114,5.72071,0,4.19823.88233,5.7207.88184,1.52343,3.44384,1.52246a32.09005,32.09005,0,0,0,5.18018-.42676l.08545,2.61817A26.581,26.581,0,0,1,63.7793,190.76632Z" transform="translate(-4.37793)"/><path class="cls-3" d="M71.16211,190.45284l4.81006-19.49609h6.29l4.83838,19.49609h-3.188l-1.05274-4.18359H75.37451l-1.05322,4.18359Zm7.25781-16.84961-2.41943,9.877H82.2334l-2.39063-9.877Z" transform="translate(-4.37793)"/><path class="cls-3" d="M97.03076,182.99581v-2.78906h5.54981v9.9043a24.874,24.874,0,0,1-3.1167.42675q-2.34815.22852-3.40088.22852-4.43994,0-6.11914-2.44824-1.68018-2.44776-1.67969-7.66992,0-5.22365,1.72217-7.61329,1.72193-2.39208,5.96289-2.3916a31.87076,31.87076,0,0,1,5.63525.56934l.9961.19922-.11377,2.50488a47.58568,47.58568,0,0,0-6.17627-.45508q-2.73267,0-3.74268,1.53614-1.01074,1.53808-1.01025,5.69238,0,4.15577.95312,5.73535.95361,1.57909,3.85694,1.58008a13.811,13.811,0,0,0,3.102-.25684v-4.75293Z" transform="translate(-4.37793)"/><path class="cls-3" d="M109.17236,183.50851v6.94433h-3.15918V170.95675h7.39991q6.60278,0,6.603,6.2041,0,4.15723-3.1875,5.63574l3.21582,7.65625h-3.47216l-2.81788-6.94433Zm7.59912-6.31836q0-3.501-3.35839-3.501h-4.24073v7.08692h4.29785a3.03514,3.03514,0,0,0,2.5044-.98243A4.00811,4.00811,0,0,0,116.77148,177.19015Z" transform="translate(-4.37793)"/><path class="cls-3" d="M136.58008,178.86886h-3.92774v6.26172a6.65185,6.65185,0,0,0,.25635,2.30566q.25562.56982,1.30908.56934l2.334-.08594.14209,2.47656a16.65084,16.65084,0,0,1-2.90283.37012q-2.41994,0-3.31592-1.11035-.89649-1.11036-.89649-4.1836v-6.60351h-1.82177v-2.64649h1.82177v-4.127h3.07373v4.127h3.92774Z" transform="translate(-4.37793)"/><path class="cls-3" d="M141.76562,190.45284h-3.10253V170.30245h3.10253v6.65918a8.80592,8.80592,0,0,1,3.89893-1.05273q2.84619,0,3.88525,1.6084,1.03858,1.60839,1.03858,5.30761v7.62793h-3.102v-7.542a7.9249,7.9249,0,0,0-.48389-3.27344,2.06445,2.06445,0,0,0-2.04932-.96777,8.61951,8.61951,0,0,0-2.73242.45508l-.45508.1709Z" transform="translate(-4.37793)"/><path class="cls-3" d="M153.62793,190.45284V176.22237h3.07373v1.707A13.53986,13.53986,0,0,1,161.54,175.9089v3.10254a19.98145,19.98145,0,0,0-4.18359,1.25195l-.626.25684v9.93261Z" transform="translate(-4.37793)"/><path class="cls-3" d="M164.30908,177.75948q1.46558-1.85008,4.88135-1.85058,3.41529,0,4.88086,1.85058a8.83018,8.83018,0,0,1,1.46582,5.54981,9.16011,9.16011,0,0,1-1.42285,5.57812q-1.42383,1.87794-4.92383,1.87891-3.501,0-4.92383-1.87891a9.15327,9.15327,0,0,1-1.42334-5.57812A8.82708,8.82708,0,0,1,164.30908,177.75948Zm2.31983,9.25a3.45247,3.45247,0,0,0,5.123,0,7.881,7.881,0,0,0,.6543-3.72851,7.12123,7.12123,0,0,0-.69727-3.67188,3.47269,3.47269,0,0,0-5.03759,0,7.11615,7.11615,0,0,0-.69727,3.67188A7.86773,7.86773,0,0,0,166.62891,187.00948Z" transform="translate(-4.37793)"/><path class="cls-3" d="M186.72266,176.22237h3.07373v14.23047h-3.07373V189.571a7.80515,7.80515,0,0,1-3.84229,1.19531q-2.93188,0-3.92773-1.58008-.99682-1.57909-.9961-5.53613v-7.42774h3.10205v7.457a9.13278,9.13278,0,0,0,.42676,3.44336q.427.88329,1.99268.88281a6.852,6.852,0,0,0,2.81738-.56934l.42725-.1709Z" transform="translate(-4.37793)"/><path class="cls-3" d="M205.31055,192.38839q0,4.667-6.74512,4.668a10.13125,10.13125,0,0,1-4.81006-.88281,3.36569,3.36569,0,0,1-1.56543-3.21582,3.14177,3.14177,0,0,1,.51221-1.80762,7.677,7.677,0,0,1,1.65088-1.63672,2.30976,2.30976,0,0,1-.939-2.07715,4.39789,4.39789,0,0,1,.76807-1.85058l.25635-.42676a4.55951,4.55951,0,0,1-2.04932-4.26953,4.46269,4.46269,0,0,1,1.53711-3.75684,6.59542,6.59542,0,0,1,4.15527-1.19531,10.91243,10.91243,0,0,1,2.47608.28515l.42676.085,4.41162-.11329V178.698l-2.36231-.1416a3.707,3.707,0,0,1,.76856,2.333q0,2.79052-1.4087,3.85742a7.30515,7.30515,0,0,1-4.39746,1.06641,5.86,5.86,0,0,1-1.25244-.11329,4.31831,4.31831,0,0,0-.39844,1.49414.72607.72607,0,0,0,.52686.72559,9.91675,9.91675,0,0,0,2.54736.22754q3.38673.02929,4.63916.91113Q205.31031,189.94014,205.31055,192.38839Zm-10.0752.28418a1.48856,1.48856,0,0,0,.79688,1.42383,6.25164,6.25164,0,0,0,2.73242.42676q3.44312,0,3.44385-1.96387,0-1.11036-.61182-1.40918a6.68508,6.68508,0,0,0-2.43359-.32715l-2.78907-.1709a3.74658,3.74658,0,0,0-.88232.95313A2.09145,2.09145,0,0,0,195.23535,192.67257Zm.854-9.86133a2.81115,2.81115,0,0,0,2.0205.61133,2.75994,2.75994,0,0,0,2.00684-.61133,2.62674,2.62674,0,0,0,.61182-1.92187,2.58884,2.58884,0,0,0-.626-1.9209,2.81857,2.81857,0,0,0-2.021-.61133q-2.61913,0-2.61865,2.53223A2.58788,2.58788,0,0,0,196.08936,182.81124Z" transform="translate(-4.37793)"/><path class="cls-3" d="M210.46777,190.45284h-3.10254V170.30245h3.10254v6.65918a8.80592,8.80592,0,0,1,3.89893-1.05273q2.84619,0,3.88525,1.6084,1.03859,1.60839,1.03858,5.30761v7.62793h-3.102v-7.542a7.9249,7.9249,0,0,0-.48389-3.27344,2.06445,2.06445,0,0,0-2.04932-.96777,8.61951,8.61951,0,0,0-2.73242.45508l-.45508.1709Z" transform="translate(-4.37793)"/><path class="cls-3" d="M240.72168,190.45284H228.62549v-2.7041l4.63965-4.78125a30.30648,30.30648,0,0,0,2.96-3.38672,4.59944,4.59944,0,0,0,.85351-2.68945,2.46424,2.46424,0,0,0-.82519-2.09277,4.54494,4.54494,0,0,0-2.7041-.626,21.39349,21.39349,0,0,0-3.89893.39844l-.71143.11426-.19921-2.50489a19.87458,19.87458,0,0,1,5.7207-.82519q5.89159,0,5.89111,5.2373a6.83489,6.83489,0,0,1-.89648,3.55762,17.93763,17.93763,0,0,1-3.20166,3.64258l-4.01319,3.89941h8.48145Z" transform="translate(-4.37793)"/><path class="cls-3" d="M244.564,173.6462a7.35923,7.35923,0,0,1,10.6587-.01367q1.76441,2.27637,1.76464,7.52734,0,5.25147-1.7788,7.42872a7.61084,7.61084,0,0,1-10.64454.01464q-1.779-2.16357-1.7788-7.415Q242.78516,175.9382,244.564,173.6462Zm8.26807,2.02051a3.10542,3.10542,0,0,0-2.93164-1.55078,3.13727,3.13727,0,0,0-2.9458,1.55078q-.89649,1.55274-.89648,5.45117,0,3.89941.9248,5.39258a3.19277,3.19277,0,0,0,2.93164,1.49512,3.1256,3.1256,0,0,0,2.90332-1.49512q.89649-1.49413.89649-5.39258Q253.71436,177.21846,252.832,175.66671Z" transform="translate(-4.37793)"/><path class="cls-3" d="M270.92773,190.45284H258.83154v-2.7041l4.63965-4.78125a30.30542,30.30542,0,0,0,2.96-3.38672,4.59945,4.59945,0,0,0,.85352-2.68945,2.46422,2.46422,0,0,0-.8252-2.09277,4.54494,4.54494,0,0,0-2.7041-.626,21.39339,21.39339,0,0,0-3.89892.39844l-.71143.11426-.19922-2.50489a19.87458,19.87458,0,0,1,5.7207-.82519q5.89161,0,5.89112,5.2373a6.8348,6.8348,0,0,1-.89649,3.55762,17.93731,17.93731,0,0,1-3.20166,3.64258l-4.01318,3.89941h8.48144Z" transform="translate(-4.37793)"/><path class="cls-3" d="M285.89258,190.45284H273.79639v-2.7041l4.63965-4.78125a30.30754,30.30754,0,0,0,2.96-3.38672,4.59951,4.59951,0,0,0,.85351-2.68945,2.46424,2.46424,0,0,0-.82519-2.09277,4.545,4.545,0,0,0-2.70411-.626,21.39347,21.39347,0,0,0-3.89892.39844l-.71143.11426-.19922-2.50489a19.87465,19.87465,0,0,1,5.72071-.82519q5.89159,0,5.89111,5.2373a6.83489,6.83489,0,0,1-.89648,3.55762,17.93763,17.93763,0,0,1-3.20166,3.64258l-4.01319,3.89941h8.48145Z" transform="translate(-4.37793)"/><path class="cls-2" d="M17.227,33.44991V31.26925h7.49219V44.58956q-1.1499.23732-4.04346.61426a38.491,38.491,0,0,1-4.79687.377q-5.9458,0-8.24561-3.48828Q5.33424,38.6047,5.334,31.50753a32.72037,32.72037,0,0,1,.47608-6.02539,13.12857,13.12857,0,0,1,1.66455-4.44043q2.26026-3.80566,8.36475-3.80566a39.42065,39.42065,0,0,1,7.57177.75293l1.30811.27832-.11865,2.10058a48.34668,48.34668,0,0,0-8.563-.91211q-4.79664,0-6.48145,2.874-1.6853,2.87549-1.68506,9.13769,0,6.26514,1.68506,9.07813,1.68457,2.81543,6.4419,2.81543a35.567,35.567,0,0,0,6.30322-.63477V33.44991Z" transform="translate(-4.37793)"/><path class="cls-2" d="M44.96875,45.18429H29.9043V17.63253h2.458v25.332H44.96875Z" transform="translate(-4.37793)"/><path class="cls-2" d="M68.231,31.62667q0,7.37256-2.31934,10.66406-2.31885,3.29-8.44385,3.29-6.1245,0-8.44384-3.37011Q46.70435,38.843,46.70459,31.5671q0-7.27441,2.33887-10.80273,2.33862-3.52735,8.40429-3.52832,6.06593,0,8.42432,3.50879Q68.23048,24.25313,68.231,31.62667ZM50.90674,40.60519q1.66553,2.75684,6.561,2.75586,4.89552,0,6.561-2.69629,1.66479-2.69532,1.665-9.01856,0-6.32226-1.74463-9.25683-1.74463-2.93262-6.50147-2.9336-4.916,0-6.62011,3.17188a11.161,11.161,0,0,0-1.249,3.72656,33.57966,33.57966,0,0,0-.33691,5.19336Q49.2417,37.8508,50.90674,40.60519Z" transform="translate(-4.37793)"/><path class="cls-2" d="M73.09814,17.63253h9.792q8.12622,0,8.12695,6.9375,0,4.87647-3.64746,6.42188,4.55859,1.42821,4.55908,6.541,0,4.16309-2.16064,5.90723-2.16138,1.74462-6.28321,1.74414H73.09814ZM82.811,19.8132H75.55615V30.08077h7.61133A5.44757,5.44757,0,0,0,87.231,28.75265a5.45645,5.45645,0,0,0,1.28857-3.94434,4.71737,4.71737,0,0,0-1.40723-3.80566A6.5544,6.5544,0,0,0,82.811,19.8132Zm.396,12.4082H75.55615V43.00362h7.88916a6.99479,6.99479,0,0,0,4.43994-1.22851q1.54616-1.229,1.5459-4.32129Q89.43115,32.2214,83.207,32.2214Z" transform="translate(-4.37793)"/><path class="cls-2" d="M94.335,45.18429l7.92822-27.55176h5.74854l7.88867,27.55176h-2.418L111.26221,37.573H98.97314l-2.18066,7.61133Zm9.7124-25.41113L99.56787,35.3923h11.09961L106.188,19.77316Z" transform="translate(-4.37793)"/><path class="cls-2" d="M134.72266,45.18429H119.6582V17.63253h2.458v25.332h12.60645Z" transform="translate(-4.37793)"/><path class="cls-2" d="M162.47168,17.63253h2.49756L157.5957,45.18429h-5.98632l-7.41309-27.55176h2.53711l6.69971,25.37109H155.772Z" transform="translate(-4.37793)"/><path class="cls-2" d="M168.7666,45.18429V17.63253h16.53125v2.21973H171.22461V30.08077h11.69482v2.17969H171.22461V43.00362h14.07324v2.18067Z" transform="translate(-4.37793)"/><path class="cls-2" d="M188.0918,19.85226V17.63253h19.82177v2.21973h-8.64209v25.332h-2.458v-25.332Z" transform="translate(-4.37793)"/><path class="cls-2" d="M211.44482,45.18429V17.63253h16.53125v2.21973H213.90283V30.08077h11.69483v2.17969H213.90283V43.00362h14.07324v2.18067Z" transform="translate(-4.37793)"/><path class="cls-2" d="M234.62744,34.322V45.18429h-2.458V17.63253h10.10889q4.32056,0,6.44238,1.96192,2.11964,1.96289,2.12061,6.2041,0,6.62109-5.312,8.04785l5.66894,11.33789h-2.73535L243.03174,34.322Zm13.67676-8.48339a6.21749,6.21749,0,0,0-1.4668-4.5586,6.21951,6.21951,0,0,0-4.55908-1.46679h-7.65088V32.1423h7.65088Q248.304,32.1423,248.3042,25.83859Z" transform="translate(-4.37793)"/><path class="cls-2" d="M255.55859,45.18429V17.63253h2.458V45.18429Z" transform="translate(-4.37793)"/><path class="cls-2" d="M263.84766,45.18429V17.63253h4.83642l11.53613,25.37109h.91211V17.63253h2.418V45.18429H278.793l-11.61524-25.332h-.87207v25.332Z" transform="translate(-4.37793)"/><path class="cls-2" d="M287.34814,45.18429l7.92823-27.55176h5.74853l7.88867,27.55176h-2.418L304.27539,37.573H291.98633l-2.18067,7.61133Zm9.71241-25.41113-4.4795,15.61914h11.09961l-4.47949-15.61914Z" transform="translate(-4.37793)"/><path class="cls-2" d="M315.12939,34.322V45.18429h-2.458V17.63253h10.10888q4.32056,0,6.44239,1.96192,2.11962,1.96289,2.1206,6.2041,0,6.62109-5.312,8.04785l5.66895,11.33789h-2.73536L323.53369,34.322Zm13.67676-8.48339a6.21753,6.21753,0,0,0-1.46679-4.5586,6.21953,6.21953,0,0,0-4.55909-1.46679h-7.65088V32.1423h7.65088Q328.80591,32.1423,328.80615,25.83859Z" transform="translate(-4.37793)"/><path class="cls-2" d="M344.34131,45.18429h-2.458V33.529L333.043,17.63253h2.73535l7.334,13.35938,7.29444-13.35938h2.7749L344.34131,33.529Z" transform="translate(-4.37793)"/><path class="cls-2" d="M381.52588,44.74777a35.75227,35.75227,0,0,1-6.97754.833,14.51069,14.51069,0,0,1-4.65772-.61425,7.45347,7.45347,0,0,1-2.874-1.72461,7.631,7.631,0,0,1-1.74463-2.89356,26.5044,26.5044,0,0,1-1.189-8.84082q0-8.959,2.854-11.85351,2.33862-2.417,7.13574-2.418a38.38556,38.38556,0,0,1,7.45313.833l-.11914,2.14063a38.78615,38.78615,0,0,0-6.62012-.75391,11.00926,11.00926,0,0,0-3.86523.53516,6.08045,6.08045,0,0,0-2.22022,1.42773,5.70494,5.70494,0,0,0-1.28808,2.47754,24.25761,24.25761,0,0,0-.793,6.73926,48.05822,48.05822,0,0,0,.27734,6.0459,11.94714,11.94714,0,0,0,1.07031,3.627,4.78887,4.78887,0,0,0,2.33887,2.33887,10.43739,10.43739,0,0,0,4.28174.71387,38.76478,38.76478,0,0,0,6.81836-.75391Z" transform="translate(-4.37793)"/><path class="cls-2" d="M385.62451,17.63253h9.792q8.12622,0,8.127,6.9375,0,4.87647-3.64746,6.42188,4.55859,1.42821,4.55908,6.541,0,4.16309-2.16065,5.90723-2.16136,1.74462-6.2832,1.74414H385.62451Zm9.71289,2.18067h-7.25488V30.08077h7.61133a5.44753,5.44753,0,0,0,4.06347-1.32812,5.45645,5.45645,0,0,0,1.28858-3.94434,4.71737,4.71737,0,0,0-1.40723-3.80566A6.55443,6.55443,0,0,0,395.3374,19.8132Zm.396,12.4082h-7.65088V43.00362h7.88916a6.99479,6.99479,0,0,0,4.43994-1.22851q1.54614-1.229,1.5459-4.32129Q401.95752,32.2214,395.7334,32.2214Z" transform="translate(-4.37793)"/><path class="cls-2" d="M419.14209,45.18429H409.1123V17.63253h10.02979q9.791,0,9.792,13.39942Q428.93408,45.18381,419.14209,45.18429ZM426.397,31.032q0-11.17969-7.25488-11.17969h-7.57178V43.00362h7.57178Q426.39674,43.00362,426.397,31.032Z" transform="translate(-4.37793)"/><path class="cls-2" d="M6.4043,86.18429V58.63253h4.59863l8.52344,24.10254,8.4834-24.10254H32.6084V86.18429h-2.458V61.16964H29.5957L20.95361,85.27218h-2.894L9.41748,61.16964H8.8623V86.18429Z" transform="translate(-4.37793)"/><path class="cls-2" d="M36.36621,86.18429l7.92822-27.55176H50.043l7.88867,27.55176h-2.418L53.29346,78.573H41.00439l-2.18066,7.61133Zm9.7124-25.41113L41.59912,76.3923H52.69873L48.21924,60.77316Z" transform="translate(-4.37793)"/><path class="cls-2" d="M64.14746,75.322V86.18429h-2.458V58.63253H71.79834q4.32055,0,6.44238,1.96192,2.11964,1.96288,2.12061,6.2041,0,6.62109-5.312,8.04785l5.66894,11.33789H77.98291L72.55176,75.322Zm13.67676-8.48339a6.21749,6.21749,0,0,0-1.4668-4.5586,6.21952,6.21952,0,0,0-4.55908-1.46679H64.14746V73.1423h7.65088Q77.824,73.1423,77.82422,66.83859Z" transform="translate(-4.37793)"/><path class="cls-2" d="M87.47314,86.18429h-2.458V58.63253h2.458V71.63546l4.75733-.11914,7.65088-12.88379h2.81445l-8.32471,13.835,8.84034,13.7168h-2.9336L92.27,73.73605l-4.79688.08007Z" transform="translate(-4.37793)"/><path class="cls-2" d="M106.81787,86.18429V58.63253h16.53125v2.21973H109.27588V71.08077H120.9707v2.17969H109.27588V84.00362h14.07324v2.18067Z" transform="translate(-4.37793)"/><path class="cls-2" d="M126.14355,60.85226V58.63253h19.82178v2.21973h-8.64209v25.332h-2.458v-25.332Z" transform="translate(-4.37793)"/><path class="cls-2" d="M173.71387,58.63253h2.49756l-7.37354,27.55176h-5.98633l-7.41308-27.55176h2.53711l6.6997,25.37109h2.33887Z" transform="translate(-4.37793)"/><path class="cls-2" d="M175.91406,86.18429l7.92823-27.55176h5.74853l7.88867,27.55176h-2.418L192.84131,78.573H180.55225l-2.18067,7.61133Zm9.7124-25.41113L181.147,76.3923h11.09961l-4.47949-15.61914Z" transform="translate(-4.37793)"/><path class="cls-2" d="M216.30176,86.18429H201.2373V58.63253h2.458v25.332h12.60645Z" transform="translate(-4.37793)"/><path class="cls-2" d="M221.49072,78.09737q0,6.26369,6.8584,6.26368a8.28852,8.28852,0,0,0,5.35156-1.4668q1.78419-1.46631,1.78418-4.79688V58.63253h2.45752V78.09737q0,4.4795-2.418,6.48145-2.41845,2.00244-7.07617,2.002-4.65893,0-7.01709-2.002-2.35913-2.001-2.3584-6.48145V58.63253h2.418Z" transform="translate(-4.37793)"/><path class="cls-2" d="M243.67871,86.18429V58.63253H260.21v2.21973H246.13672V71.08077h11.69482v2.17969H246.13672V84.00362H260.21v2.18067Z" transform="translate(-4.37793)"/><path class="cls-2" d="M289.50488,86.18429H272.81494V84.12277l8.16651-8.64161q1.98192-2.102,2.874-3.15234a12.11066,12.11066,0,0,0,1.62549-2.55664,6.90934,6.90934,0,0,0,.7334-3.05273,4.40023,4.40023,0,0,0-1.48682-3.76563,7.65833,7.65833,0,0,0-4.57861-1.11035,27.10265,27.10265,0,0,0-5.82764.71387l-1.07031.2373-.19825-2.10059a27.63373,27.63373,0,0,1,7.6709-1.07031A9.37141,9.37141,0,0,1,286.71,61.26925q2.04126,1.645,2.0415,5.25195a8.986,8.986,0,0,1-1.229,4.75782,28.35,28.35,0,0,1-4.12256,4.915l-7.61181,7.84961h13.71679Z" transform="translate(-4.37793)"/><path class="cls-2" d="M293.82959,65.09445a7.93938,7.93938,0,0,1,3.11182-4.30176,9.054,9.054,0,0,1,4.71728-1.169,12.31934,12.31934,0,0,1,4.42041.6543,6.89733,6.89733,0,0,1,2.894,2.20019q2.45729,3.01319,2.45752,10.64356,0,7.63183-2.35839,10.54492-2.35914,2.91357-7.03663,2.91406-4.67871,0-7.01709-2.874-2.33936-2.874-2.33886-10.12891A25.29982,25.29982,0,0,1,293.82959,65.09445Zm12.09082-2.29981a6.67537,6.67537,0,0,0-3.86523-.99023,6.88138,6.88138,0,0,0-3.86524.95117q-2.97289,2.02147-2.97314,10.8623,0,6.145,1.665,8.44336a5.97877,5.97877,0,0,0,5.19336,2.29981,7.074,7.074,0,0,0,3.72607-.87207q3.09228-1.90284,3.09228-9.91114Q308.89355,64.85764,305.92041,62.79464Z" transform="translate(-4.37793)"/><path class="cls-2" d="M330.79639,86.18429H314.10645V84.12277l8.1665-8.64161q1.98194-2.102,2.874-3.15234a12.11066,12.11066,0,0,0,1.62549-2.55664,6.90934,6.90934,0,0,0,.7334-3.05273,4.40023,4.40023,0,0,0-1.48682-3.76563,7.65833,7.65833,0,0,0-4.57861-1.11035,27.10272,27.10272,0,0,0-5.82764.71387l-1.07031.2373-.19824-2.10059a27.63363,27.63363,0,0,1,7.6709-1.07031,9.37138,9.37138,0,0,1,5.98632,1.64551q2.04126,1.645,2.04151,5.25195a8.986,8.986,0,0,1-1.229,4.75782,28.34944,28.34944,0,0,1-4.12255,4.915l-7.61182,7.84961h13.7168Z" transform="translate(-4.37793)"/><path class="cls-2" d="M351.77539,86.18429H335.08545V84.12277l8.1665-8.64161q1.98193-2.102,2.874-3.15234a12.11064,12.11064,0,0,0,1.62548-2.55664,6.90934,6.90934,0,0,0,.7334-3.05273,4.40023,4.40023,0,0,0-1.48681-3.76563,7.65837,7.65837,0,0,0-4.57862-1.11035,27.10256,27.10256,0,0,0-5.82763.71387l-1.07032.2373-.19824-2.10059a27.63373,27.63373,0,0,1,7.6709-1.07031,9.37141,9.37141,0,0,1,5.98633,1.64551q2.04126,1.645,2.0415,5.25195a8.986,8.986,0,0,1-1.229,4.75782,28.35,28.35,0,0,1-4.12256,4.915l-7.61182,7.84961h13.7168Z" transform="translate(-4.37793)"/><path class="cls-3" d="M11.09473,140.43136q0,7.97607,8.39648,7.97656,8.39576,0,8.396-7.97656V112.48409H34.604v27.82715q0,7.25684-3.8081,10.585-3.80932,3.32813-11.335,3.3291-7.52711,0-11.30469-3.3291-3.77856-3.32812-3.77832-10.585V112.48409h6.7168Z" transform="translate(-4.37793)"/><path class="cls-3" d="M53.69336,117.64132q-7.6172,0-7.6167,5.33789A4.32443,4.32443,0,0,0,47.876,126.907q1.79883,1.17041,7.94629,2.8789,6.14647,1.70947,8.666,4.07813,2.5188,2.3701,2.51856,7.46679,0,6.47754-3.688,9.68555-3.68848,3.20947-10.04541,3.209a59.55319,59.55319,0,0,1-11.2749-1.20019l-2.15918-.41992.65966-5.33692a101.21085,101.21085,0,0,0,12.3545,1.0791q7.43554,0,7.43652-6.59667a4.40884,4.40884,0,0,0-1.6792-3.8086q-1.67945-1.22754-7.55664-2.69824-5.87769-1.46923-8.75586-4.04883-2.87842-2.57665-2.87842-8.15625,0-5.57666,3.62793-8.42578,3.62843-2.84766,10.04541-2.84863a65.83954,65.83954,0,0,1,10.915,1.0791l2.09912.36035-.53955,5.39746Q57.17066,117.64327,53.69336,117.64132Z" transform="translate(-4.37793)"/><path class="cls-3" d="M86.20361,153.56515H71.99023V112.48409H86.20361q9.47535,0,12.9541,4.79786,3.47754,4.79882,3.47852,15.05273a48.28566,48.28566,0,0,1-.68994,8.8457,20.17239,20.17239,0,0,1-2.42871,6.56739Q96.09937,153.56612,86.20361,153.56515Zm9.53565-21.23047q0-7.43554-1.85889-10.73438-1.85962-3.29882-7.67676-3.29882H78.647V147.6882h7.55664q5.93775,0,7.91651-4.37793a17.67912,17.67912,0,0,0,1.28955-4.73829A49.39215,49.39215,0,0,0,95.73926,132.33468Z" transform="translate(-4.37793)"/><path class="cls-3" d="M147.854,141.81027q0,6.23877-3.56836,9.32617-3.56835,3.08936-9.68554,3.08886h-.47949l-.83985,6.95606q-3.83862-.18018-3.83838-.41992l.83985-6.77637a72.22089,72.22089,0,0,1-7.43653-1.08008l-1.1997-.23926.65966-5.1582q4.73731.66064,8.69629.90039l1.61914-12.415q-6.238-1.67724-8.81591-4.13769-2.57959-2.458-2.57862-7.73633,0-5.27637,3.5083-8.03613,3.50831-2.75831,9.68555-2.75879H135.5l1.01953-8.03614h3.83789l-1.07959,8.33594,7.67676,1.0791-.54,5.15821q-4.2583-.48048-7.79639-.71973l-1.499,11.57422q6.0564,1.74024,8.396,4.01855Q147.8545,137.01339,147.854,141.81027Zm-20.21045-17.69141a4.35248,4.35248,0,0,0,1.2295,3.3584,12.86621,12.86621,0,0,0,4.52783,2.21875l1.37939-10.73535Q127.64209,119.08224,127.64355,124.11886Zm13.7334,18.05176a4.36676,4.36676,0,0,0-1.10937-3.17871,9.25686,9.25686,0,0,0-3.92822-1.9795l-1.499,11.51465Q141.37574,148.28829,141.377,142.17062Z" transform="translate(-4.37793)"/><path class="cls-3" d="M170.75781,113.98312v39.582h-6.65722V121.53976l-9.2959,5.99707-3.0586-4.97754,12.89453-8.57617Z" transform="translate(-4.37793)"/><path class="cls-3" d="M204.04785,153.56515H178.55957v-5.69727l9.77539-10.07519a63.795,63.795,0,0,0,6.23731-7.13672,9.68957,9.68957,0,0,0,1.79931-5.668q0-3.08788-1.73926-4.40723-1.74022-1.31982-5.69726-1.32031a45.0971,45.0971,0,0,0-8.21631.83984l-1.49951.24024-.41992-5.27734a41.86381,41.86381,0,0,1,12.05468-1.73926q12.41455,0,12.41407,11.03418a14.40376,14.40376,0,0,1-1.88868,7.49707,37.8382,37.8382,0,0,1-6.74707,7.67676l-8.45605,8.21582h17.87158Z" transform="translate(-4.37793)"/><path class="cls-3" d="M234.77783,113.98312v5.87793H216.42627l-1.01953,10.43457a19.28571,19.28571,0,0,1,8.03613-1.85938q12.71339,0,12.71436,11.875,0,6.71778-3.50879,10.31543-3.5083,3.59766-9.9253,3.59863a42.05954,42.05954,0,0,1-6.11718-.50976q-3.41822-.50976-5.45752-.99024l-2.03906-.53906.71972-5.03808a74.16,74.16,0,0,0,12.11426,1.19921,7.29573,7.29573,0,0,0,5.39746-1.91894,7.38106,7.38106,0,0,0,1.91943-5.457q0-3.53907-1.6792-5.09766a6.17663,6.17663,0,0,0-4.37793-1.55957,22.00732,22.00732,0,0,0-7.9165,1.19922l-1.07959.41992-4.19824-.89941,1.07959-21.05078Z" transform="translate(-4.37793)"/><path class="cls-3" d="M241.83643,153.56515V112.48409h11.5747l9.17578,32.085,9.17579-32.085h11.63476v41.08106h-6.7168v-33.7041h-.8999l-9.71533,32.02441h-6.957l-9.71533-32.02441h-.89991v33.7041Z" transform="translate(-4.37793)"/></g></g></svg>