<svg xmlns="http://www.w3.org/2000/svg" viewBox="0 0 569.39903 265.37659"><defs><style>.cls-1{fill:#fff;}.cls-2{fill:#00b5af;}.cls-3,.cls-5,.cls-6,.cls-7{fill:none;}.cls-3{stroke:#fff;stroke-width:6px;}.cls-3,.cls-6,.cls-7{stroke-miterlimit:10;}.cls-4{fill:#474c55;}.cls-5,.cls-6,.cls-7{stroke:#474c55;}.cls-5{stroke-linejoin:round;stroke-width:3px;}.cls-6{stroke-dasharray:2;}</style></defs><title>Mfg-Chart2</title><g id="Layer_2" data-name="Layer 2"><g id="Layer_1-2" data-name="Layer 1"><rect class="cls-1" width="569.39903" height="265.37659"/><polygon class="cls-2" points="56.594 117.445 253.021 132.018 561.991 100.853 561.991 220.095 56.594 220.095 56.594 117.445"/><line class="cls-3" x1="99.15712" y1="218.69737" x2="99.15712" y2="102.65877"/><line class="cls-3" x1="151.57931" y1="220.09543" x2="151.57931" y2="97.06655"/><line class="cls-3" x1="204.0015" y1="219.3964" x2="204.0015" y2="111.04711"/><line class="cls-3" x1="256.42369" y1="219.3964" x2="256.42369" y2="108.251"/><line class="cls-3" x1="308.84588" y1="219.3964" x2="308.84588" y2="112.44516"/><line class="cls-3" x1="361.26807" y1="219.3964" x2="361.26807" y2="113.84322"/><line class="cls-3" x1="413.69026" y1="219.3964" x2="413.69026" y2="97.06655"/><line class="cls-3" x1="466.11245" y1="220.09543" x2="466.11245" y2="97.76558"/><line class="cls-3" x1="518.53464" y1="219.3964" x2="518.53464" y2="96.36752"/><path class="cls-4" d="M64.2843,238.39728h-6.292V237.0672l2.41357-2.35156a15.29022,15.29022,0,0,0,1.53955-1.666,2.1812,2.1812,0,0,0,.44385-1.32324,1.18148,1.18148,0,0,0-.4292-1.0293,2.47013,2.47013,0,0,0-1.40625-.30761,11.72964,11.72964,0,0,0-2.02832.19628l-.37012.05567-.10351-1.23242a10.88578,10.88578,0,0,1,2.97558-.40528q3.06446,0,3.06446,2.5752a3.21765,3.21765,0,0,1-.46631,1.75,8.96589,8.96589,0,0,1-1.66553,1.792l-2.0874,1.918H64.2843Z"/><path class="cls-4" d="M66.95666,230.13068a3.98251,3.98251,0,0,1,5.54395-.00782,5.876,5.876,0,0,1,.918,3.70313,5.61812,5.61812,0,0,1-.9253,3.6543,4.12219,4.12219,0,0,1-5.53662.00683,5.583,5.583,0,0,1-.92529-3.64648A5.86577,5.86577,0,0,1,66.95666,230.13068Zm4.3003.99316a1.63914,1.63914,0,0,0-1.52442-.76269,1.65813,1.65813,0,0,0-1.53271.76269,5.51647,5.51647,0,0,0-.46631,2.68164,5.18557,5.18557,0,0,0,.48144,2.65234,1.68913,1.68913,0,0,0,1.52491.73536,1.65215,1.65215,0,0,0,1.50976-.73536,5.32586,5.32586,0,0,0,.46631-2.65234A5.587,5.587,0,0,0,71.257,231.12384Z"/><path class="cls-4" d="M80.17,229.157v9.24024H78.52649v-7.47559l-2.29493,1.39942-.75488-1.16211,3.18311-2.002Z"/><path class="cls-4" d="M88.75647,229.157v9.24024H87.11291v-7.47559L84.818,232.32111l-.75488-1.16211,3.1831-2.002Z"/><path class="cls-4" d="M115.8092,238.39728H109.859V237.0672l2.28222-2.35156a14.93627,14.93627,0,0,0,1.45557-1.666,2.26218,2.26218,0,0,0,.42041-1.32324,1.21291,1.21291,0,0,0-.40625-1.0293,2.23584,2.23584,0,0,0-1.33008-.30761,10.51246,10.51246,0,0,0-1.918.19628l-.3501.05567-.09765-1.23242a9.77525,9.77525,0,0,1,2.814-.40528q2.8982,0,2.898,2.5752a3.36122,3.36122,0,0,1-.44092,1.75,8.7983,8.7983,0,0,1-1.57519,1.792l-1.97412,1.918h4.17236Z"/><path class="cls-4" d="M118.33606,230.13068a3.62137,3.62137,0,0,1,5.24316-.00782,6.133,6.133,0,0,1,.86768,3.70313,5.85794,5.85794,0,0,1-.875,3.6543,3.74291,3.74291,0,0,1-5.23584.00683,5.82383,5.82383,0,0,1-.875-3.64648A6.12268,6.12268,0,0,1,118.33606,230.13068Zm4.06689.99316a1.52772,1.52772,0,0,0-1.44189-.76269,1.54351,1.54351,0,0,0-1.44873.76269,5.78082,5.78082,0,0,0-.44141,2.68164,5.44322,5.44322,0,0,0,.45508,2.65234,1.57061,1.57061,0,0,0,1.44189.73536,1.53783,1.53783,0,0,0,1.42823-.73536,5.59331,5.59331,0,0,0,.44091-2.65234A5.86673,5.86673,0,0,0,122.403,231.12384Z"/><path class="cls-4" d="M130.83069,229.157v9.24024H129.277v-7.47559l-2.17041,1.39942-.71386-1.16211,3.01025-2.002Z"/><path class="cls-4" d="M140.16906,238.39728h-5.95019V237.0672l2.28223-2.35156a14.93487,14.93487,0,0,0,1.45556-1.666,2.26211,2.26211,0,0,0,.42041-1.32324,1.21291,1.21291,0,0,0-.40625-1.0293,2.2358,2.2358,0,0,0-1.33008-.30761,10.51228,10.51228,0,0,0-1.918.19628l-.3501.05567L134.275,229.409a9.77527,9.77527,0,0,1,2.814-.40528q2.8982,0,2.898,2.5752a3.36131,3.36131,0,0,1-.44092,1.75,8.79872,8.79872,0,0,1-1.5752,1.792l-1.97412,1.918h4.17236Z"/><path class="cls-4" d="M168.79651,238.39728h-5.9502V237.0672l2.28223-2.35156a14.93487,14.93487,0,0,0,1.45556-1.666,2.26211,2.26211,0,0,0,.42041-1.32324,1.21291,1.21291,0,0,0-.40625-1.0293,2.23578,2.23578,0,0,0-1.33007-.30761,10.51229,10.51229,0,0,0-1.918.19628l-.3501.05567-.09766-1.23242a9.77532,9.77532,0,0,1,2.814-.40528q2.89819,0,2.898,2.5752a3.36131,3.36131,0,0,1-.44092,1.75,8.79872,8.79872,0,0,1-1.5752,1.792l-1.97412,1.918h4.17237Z"/><path class="cls-4" d="M171.32336,230.13068a3.62138,3.62138,0,0,1,5.24317-.00782,6.133,6.133,0,0,1,.86767,3.70313,5.85787,5.85787,0,0,1-.875,3.6543,3.74291,3.74291,0,0,1-5.23584.00683,5.8239,5.8239,0,0,1-.875-3.64648A6.12275,6.12275,0,0,1,171.32336,230.13068Zm4.0669.99316a1.52774,1.52774,0,0,0-1.4419-.76269,1.54353,1.54353,0,0,0-1.44873.76269,5.781,5.781,0,0,0-.44141,2.68164,5.44322,5.44322,0,0,0,.45508,2.65234,1.57063,1.57063,0,0,0,1.4419.73536,1.53783,1.53783,0,0,0,1.42822-.73536,5.59315,5.59315,0,0,0,.44092-2.65234A5.86673,5.86673,0,0,0,175.39026,231.12384Z"/><path class="cls-4" d="M183.818,229.157v9.24024h-1.55371v-7.47559l-2.17041,1.39942L179.38,231.159l3.01026-2.002Z"/><path class="cls-4" d="M187.192,229.451a8.7518,8.7518,0,0,1,2.856-.44727,3.48919,3.48919,0,0,1,2.26123.59473,2.3273,2.3273,0,0,1,.707,1.88281,2.2783,2.2783,0,0,1-.21728,1.00781,2.14441,2.14441,0,0,1-.44092.65137,4.89367,4.89367,0,0,1-.56006.42676,2.98284,2.98284,0,0,1,1.07129.7627,2.15691,2.15691,0,0,1,.3291,1.33691,2.89624,2.89624,0,0,1-.73535,2.17773,3.29488,3.29488,0,0,1-2.34473.707,10.09677,10.09677,0,0,1-1.38623-.10546,11.95445,11.95445,0,0,1-1.2041-.2168l-.43359-.11231.09765-1.2041a15.33306,15.33306,0,0,0,2.71631.28028q1.67944-.01318,1.67969-1.48438a1.23616,1.23616,0,0,0-.43359-1.02148,1.83755,1.83755,0,0,0-1.14844-.36426h-1.86182V233.0213H190.006a1.35907,1.35907,0,0,0,.959-.42676,1.3878,1.3878,0,0,0,.44141-1.03613,1.06426,1.06426,0,0,0-.38525-.90332,1.70164,1.70164,0,0,0-1.05713-.29394,13.85434,13.85434,0,0,0-2.28174.19628l-.36426.07032Z"/><path class="cls-4" d="M220.78283,238.39728h-5.94921V237.0672l2.28125-2.35156a14.901,14.901,0,0,0,1.45605-1.666,2.26168,2.26168,0,0,0,.41992-1.32324,1.2125,1.2125,0,0,0-.40527-1.0293,2.23891,2.23891,0,0,0-1.33008-.30761,10.4998,10.4998,0,0,0-1.918.19628l-.35058.05567-.09766-1.23242a9.77193,9.77193,0,0,1,2.81348-.40528q2.89891,0,2.89843,2.5752a3.3615,3.3615,0,0,1-.4414,1.75,8.78813,8.78813,0,0,1-1.57422,1.792l-1.97461,1.918h4.17187Z"/><path class="cls-4" d="M223.31018,230.13068a3.62137,3.62137,0,0,1,5.24316-.00782,6.13607,6.13607,0,0,1,.86817,3.70313,5.86119,5.86119,0,0,1-.875,3.6543,3.74352,3.74352,0,0,1-5.23633.00683,5.82706,5.82706,0,0,1-.875-3.64648A6.12614,6.12614,0,0,1,223.31018,230.13068Zm4.06738.99316a1.75171,1.75171,0,0,0-2.8916,0,5.79,5.79,0,0,0-.44043,2.68164,5.43739,5.43739,0,0,0,.45508,2.65234,1.56875,1.56875,0,0,0,1.4414.73536,1.53963,1.53963,0,0,0,1.42871-.73536,5.59446,5.59446,0,0,0,.44043-2.65234A5.87482,5.87482,0,0,0,227.37756,231.12384Z"/><path class="cls-4" d="M235.80529,229.157v9.24024h-1.55371v-7.47559l-2.16992,1.39942-.71387-1.16211,3.00977-2.002Z"/><path class="cls-4" d="M242.97326,238.39728v-1.65235h-4.1582v-1.18945l2.43652-6.39844h1.72168l-2.57617,6.23047h2.57617v-2.71582h1.56836v2.71582h1.00782v1.35742h-1.00782v1.65235Z"/><path class="cls-4" d="M272.77014,238.39728h-5.94922V237.0672l2.28125-2.35156a14.89886,14.89886,0,0,0,1.45605-1.666,2.26162,2.26162,0,0,0,.41993-1.32324,1.21251,1.21251,0,0,0-.40528-1.0293,2.23887,2.23887,0,0,0-1.33008-.30761,10.49961,10.49961,0,0,0-1.918.19628l-.35059.05567-.09766-1.23242a9.772,9.772,0,0,1,2.81348-.40528q2.89893,0,2.89844,2.5752a3.3614,3.3614,0,0,1-.44141,1.75,8.78781,8.78781,0,0,1-1.57422,1.792l-1.97461,1.918h4.17188Z"/><path class="cls-4" d="M275.29748,230.13068a3.62138,3.62138,0,0,1,5.24317-.00782,6.13614,6.13614,0,0,1,.86816,3.70313,5.86112,5.86112,0,0,1-.875,3.6543,3.74352,3.74352,0,0,1-5.23633.00683,5.82706,5.82706,0,0,1-.875-3.64648A6.12614,6.12614,0,0,1,275.29748,230.13068Zm4.06739.99316a1.75172,1.75172,0,0,0-2.89161,0,5.79009,5.79009,0,0,0-.44043,2.68164,5.43739,5.43739,0,0,0,.45508,2.65234,1.56878,1.56878,0,0,0,1.44141.73536,1.53964,1.53964,0,0,0,1.42871-.73536,5.59459,5.59459,0,0,0,.44043-2.65234A5.87482,5.87482,0,0,0,279.36487,231.12384Z"/><path class="cls-4" d="M287.7926,229.157v9.24024h-1.55371v-7.47559l-2.16992,1.39942-.71387-1.16211,3.00977-2.002Z"/><path class="cls-4" d="M297.01916,229.157v1.37207H292.735l-.23828,2.43653a4.50289,4.50289,0,0,1,1.876-.43457q2.96776,0,2.96777,2.77246a3.311,3.311,0,0,1-.81836,2.4082,3.08973,3.08973,0,0,1-2.31738.83984,9.82051,9.82051,0,0,1-1.42774-.11914q-.79833-.11865-1.27441-.23144l-.47559-.126.168-1.17578a17.33084,17.33084,0,0,0,2.82813.28027,1.70325,1.70325,0,0,0,1.25976-.44824,1.72391,1.72391,0,0,0,.44825-1.27441,1.56021,1.56021,0,0,0-.39258-1.18945,1.43781,1.43781,0,0,0-1.02149-.36426,5.1422,5.1422,0,0,0-1.84863.28027l-.252.09766-.97949-.21.252-4.91407Z"/><path class="cls-4" d="M324.75744,238.39728h-5.94922V237.0672l2.28125-2.35156a14.90025,14.90025,0,0,0,1.45606-1.666,2.26168,2.26168,0,0,0,.41992-1.32324,1.2125,1.2125,0,0,0-.40527-1.0293,2.23891,2.23891,0,0,0-1.33008-.30761,10.4998,10.4998,0,0,0-1.918.19628l-.35059.05567-.09765-1.23242a9.77193,9.77193,0,0,1,2.81348-.40528q2.89891,0,2.89843,2.5752a3.3615,3.3615,0,0,1-.4414,1.75,8.78813,8.78813,0,0,1-1.57422,1.792l-1.97461,1.918h4.17187Z"/><path class="cls-4" d="M327.28479,230.13068a3.62137,3.62137,0,0,1,5.24316-.00782,6.13607,6.13607,0,0,1,.86817,3.70313,5.86119,5.86119,0,0,1-.875,3.6543,3.74352,3.74352,0,0,1-5.23633.00683,5.82706,5.82706,0,0,1-.875-3.64648A6.12614,6.12614,0,0,1,327.28479,230.13068Zm4.06738.99316a1.75171,1.75171,0,0,0-2.8916,0,5.79,5.79,0,0,0-.44043,2.68164,5.43739,5.43739,0,0,0,.45508,2.65234,1.56875,1.56875,0,0,0,1.4414.73536,1.53963,1.53963,0,0,0,1.42871-.73536,5.59446,5.59446,0,0,0,.44043-2.65234A5.87482,5.87482,0,0,0,331.35217,231.12384Z"/><path class="cls-4" d="M339.7799,229.157v9.24024h-1.55371v-7.47559l-2.16992,1.39942-.71387-1.16211,3.00977-2.002Z"/><path class="cls-4" d="M349.09045,230.55743a17.37133,17.37133,0,0,0-2.46387-.19628,1.98164,1.98164,0,0,0-1.65234.68652,3.066,3.066,0,0,0-.56055,1.918l.32227-.11231a5.75945,5.75945,0,0,1,1.69433-.32226q3.13624,0,3.13575,2.94043a2.9343,2.9343,0,0,1-.86817,2.2959,3.66131,3.66131,0,0,1-2.53418.78417,2.84491,2.84491,0,0,1-2.51269-1.23925,6.2328,6.2328,0,0,1-.84668-3.53516q0-4.77393,3.75195-4.77344a11.22869,11.22869,0,0,1,2.26758.252l.40625.084Zm-4.4248,3.6543-.26563.09766q.02784,2.88427,1.84766,2.88379a1.54658,1.54658,0,0,0,1.708-1.69434,1.54691,1.54691,0,0,0-.4336-1.19629,1.72014,1.72014,0,0,0-1.21094-.39941A4.91354,4.91354,0,0,0,344.66565,234.21173Z"/><path class="cls-4" d="M377.74475,238.39728h-5.94922V237.0672l2.28125-2.35156a14.89886,14.89886,0,0,0,1.45605-1.666,2.26162,2.26162,0,0,0,.41993-1.32324,1.21251,1.21251,0,0,0-.40528-1.0293,2.23887,2.23887,0,0,0-1.33008-.30761,10.49961,10.49961,0,0,0-1.918.19628l-.35059.05567-.09766-1.23242a9.772,9.772,0,0,1,2.81348-.40528q2.89893,0,2.89844,2.5752a3.3614,3.3614,0,0,1-.44141,1.75,8.78781,8.78781,0,0,1-1.57422,1.792l-1.97461,1.918h4.17188Z"/><path class="cls-4" d="M380.27209,230.13068a3.62138,3.62138,0,0,1,5.24317-.00782,6.13614,6.13614,0,0,1,.86816,3.70313,5.86112,5.86112,0,0,1-.875,3.6543,3.74352,3.74352,0,0,1-5.23633.00683,5.82706,5.82706,0,0,1-.875-3.64648A6.12614,6.12614,0,0,1,380.27209,230.13068Zm4.06738.99316a1.75171,1.75171,0,0,0-2.8916,0,5.79009,5.79009,0,0,0-.44043,2.68164,5.43739,5.43739,0,0,0,.45508,2.65234,1.56877,1.56877,0,0,0,1.44141.73536,1.53964,1.53964,0,0,0,1.42871-.73536,5.59459,5.59459,0,0,0,.44043-2.65234A5.87465,5.87465,0,0,0,384.33947,231.12384Z"/><path class="cls-4" d="M392.76721,229.157v9.24024H391.2135v-7.47559l-2.16992,1.39942-.71387-1.16211,3.00976-2.002Z"/><path class="cls-4" d="M396.23987,230.55743V229.157h5.82324v1.84864l-3.40137,7.54589-1.45605-.41992,3.29-7.15429v-.41993Z"/><path class="cls-2" d="M7.84729,22.7215V6.8631h5.48095l2.79834,11.56738L18.92541,6.8631h5.48047V22.7215H21.18762V10.45392h-.3501L17.736,22.02228H14.5177L11.41565,10.45392H11.066V22.7215Z"/><path class="cls-2" d="M26.171,22.7215,29.73938,6.8631h6.10986L39.4176,22.7215H36.19934l-.62988-2.86817h-5.5503l-.62988,2.86817ZM32.23449,9.5213l-1.60888,7.5332H34.963L33.35412,9.5213Z"/><path class="cls-2" d="M41.18274,22.7215V6.8631h5.43408l3.82471,13.05957h.23339V6.8631h3.21827V22.7215H48.59924L44.6344,9.661h-.23291V22.7215Z"/><path class="cls-2" d="M59.9425,17.42755q0,2.77588,2.82178,2.77539,2.822,0,2.82226-2.77539V6.8631h3.21827V17.35724a5.50935,5.50935,0,0,1-1.5044,4.28027,6.56792,6.56792,0,0,1-4.53613,1.36426,6.56575,6.56575,0,0,1-4.53565-1.36426,5.50938,5.50938,0,0,1-1.50439-4.28027V6.8631H59.9425Z"/><path class="cls-2" d="M71.63537,22.7215V6.8631H81.757V9.661H74.85412v4.665h5.64356v2.79785H74.85412V22.7215Z"/><path class="cls-2" d="M81.69153,22.7215,85.25988,6.8631h6.10987l3.56836,15.8584H91.71985L91.09,19.85333H85.53967l-.62988,2.86817ZM87.755,9.5213l-1.60888,7.5332h4.3374L88.87463,9.5213Z"/><path class="cls-2" d="M106.51965,22.46466a21.23283,21.23283,0,0,1-4.45459.53711,8.49041,8.49041,0,0,1-3.17139-.49023A3.90463,3.90463,0,0,1,97.028,20.949a6.93913,6.93913,0,0,1-.9331-2.51856,21.35905,21.35905,0,0,1-.25635-3.63867q0-4.59375,1.29443-6.40137,1.29419-1.80762,4.769-1.80762a20.28784,20.28784,0,0,1,4.64112.62989l-.09326,2.56543a26.463,26.463,0,0,0-3.83643-.34961,4.311,4.311,0,0,0-2.18066.4082,2.5206,2.5206,0,0,0-.96778,1.55078A16.56211,16.56211,0,0,0,99.15,15.282a7.96511,7.96511,0,0,0,.6416,3.8125,2.75728,2.75728,0,0,0,2.56494,1.06153,27.54242,27.54242,0,0,0,4.09327-.32617Z"/><path class="cls-2" d="M107.83947,9.70782V6.8631h11.66065V9.70782h-4.19775V22.7215H112.0841V9.70782Z"/><path class="cls-2" d="M124.358,17.42755q0,2.77588,2.82178,2.77539,2.822,0,2.82226-2.77539V6.8631h3.21826V17.35724a5.50935,5.50935,0,0,1-1.50439,4.28027,8.22259,8.22259,0,0,1-9.07178,0,5.50935,5.50935,0,0,1-1.50439-4.28027V6.8631H124.358Z"/><path class="cls-2" d="M139.26965,17.40411V22.7215H136.0509V6.8631h6.15723q5.59716,0,5.59716,5.22363a5.01694,5.01694,0,0,1-2.33251,4.57129l2.2622,6.06348H144.2135l-1.84229-5.31739Zm4.6875-3.45117a2.86391,2.86391,0,0,0,.55957-1.84277,2.65776,2.65776,0,0,0-.59473-1.81934,2.16267,2.16267,0,0,0-1.71386-.67578h-2.93848v5.03711h2.98486A2.05077,2.05077,0,0,0,143.95715,13.95294Z"/><path class="cls-2" d="M150.09045,22.7215V6.8631h3.21875V22.7215Z"/><path class="cls-2" d="M156.24475,22.7215V6.8631h5.43408l3.82471,13.05957h.2334V6.8631h3.21826V22.7215h-5.29395L159.69641,9.661h-.23291V22.7215Z"/><path class="cls-2" d="M178.59582,17.03107V14.23224h4.61768v8.23242a35.66665,35.66665,0,0,1-5.41065.53711q-3.70824,0-5.0957-1.98242-1.38794-1.98193-1.38769-6.29688,0-4.31542,1.44628-6.22754,1.44581-1.91162,4.92041-1.91211a24.60453,24.60453,0,0,1,4.688.49024l.83936.16309-.09326,2.49511a44.20727,44.20727,0,0,0-4.58252-.30273,5.35476,5.35476,0,0,0-2.50733.41992,2.52,2.52,0,0,0-1.061,1.55078,15.24,15.24,0,0,0-.33789,3.87109,7.79919,7.79919,0,0,0,.67627,3.83594q.676,1.09718,2.79834,1.09668l1.936-.09375V17.03107Z"/><path class="cls-2" d="M190.9093,22.7215V6.8631H201.171V9.661h-7.043v3.709h5.64355v2.752h-5.64355v3.80078h7.043V22.7215Z"/><path class="cls-2" d="M203.44446,22.7215V6.8631h5.481l2.79834,11.56738L214.52307,6.8631h5.48047V22.7215h-3.21875V10.45392h-.34961l-3.102,11.56836h-3.21826l-3.10206-11.56836h-.3496V22.7215Z"/><path class="cls-2" d="M228.777,18.10431h-2.6123V22.7215h-3.21875V6.8631H228.777q5.64258,0,5.64356,5.5039a5.87256,5.87256,0,0,1-1.43457,4.25586A5.59772,5.59772,0,0,1,228.777,18.10431Zm-2.6123-2.752h2.58887q2.40087,0,2.40136-2.98536a3.10413,3.10413,0,0,0-.583-2.11132,2.34542,2.34542,0,0,0-1.81836-.64063h-2.58887Z"/><path class="cls-2" d="M245.28088,22.7215h-9.02539V6.8631h3.21875V19.87579h5.80664Z"/><path class="cls-2" d="M257.97424,21.03107q-1.481,1.97021-5.0957,1.9707-3.61524,0-5.09571-1.9707-1.48095-1.97169-1.48046-6.16895,0-4.19824,1.48046-6.23828,1.481-2.04052,5.09571-2.041,3.61523,0,5.0957,2.041,1.481,2.04053,1.48145,6.23828Q259.45569,19.06036,257.97424,21.03107Zm-7.67285-2.05274a3.32407,3.32407,0,0,0,5.1543,0,8.914,8.914,0,0,0,.68847-4.10449,9.33593,9.33593,0,0,0-.70019-4.18652,3.17316,3.17316,0,0,0-5.13086,0,9.3519,9.3519,0,0,0-.69922,4.18652A8.92937,8.92937,0,0,0,250.30139,18.97833Z"/><path class="cls-2" d="M267.74377,22.7215H264.525V16.30841L259.62756,6.8631h3.56836l2.915,6.32031,2.915-6.32031h3.56836l-4.85059,9.44531Z"/><path class="cls-2" d="M274.17737,22.7215V6.8631h5.48046l2.79883,11.56738L285.25549,6.8631H290.736V22.7215h-3.21875V10.45392h-.34961L284.066,22.02228h-3.21875l-3.10157-11.56836h-.3496V22.7215Z"/><path class="cls-2" d="M293.67834,22.7215V6.8631h10.26172V9.661h-7.043v3.709h5.64356v2.752h-5.64356v3.80078h7.043V22.7215Z"/><path class="cls-2" d="M306.2135,22.7215V6.8631h5.43457l3.82422,13.05957h.2334V6.8631h3.21875V22.7215h-5.29493L309.66565,9.661h-.2334V22.7215Z"/><path class="cls-2" d="M320.63049,9.70782V6.8631h11.66113V9.70782h-4.19824V22.7215h-3.21777V9.70782Z"/><path class="cls-2" d="M338.984,22.7215V6.8631h3.21875V22.7215Z"/><path class="cls-2" d="M345.13928,22.7215V6.8631h5.43457l3.82422,13.05957h.2334V6.8631h3.21875V22.7215h-5.29493L348.59143,9.661h-.2334V22.7215Z"/><path class="cls-2" d="M364.54162,9.70782V6.8631h11.66114V9.70782h-4.19825V22.7215h-3.21777V9.70782Z"/><path class="cls-2" d="M387.02893,22.7215V16.14435h-5.90039V22.7215h-3.21875V6.8631h3.21875v6.4834h5.90039V6.8631h3.21777V22.7215Z"/><path class="cls-2" d="M393.18908,22.7215V6.8631H403.4508V9.661h-7.043v3.709h5.64356v2.752h-5.64356v3.80078h7.043V22.7215Z"/><path class="cls-2" d="M413.85217,17.42755q0,2.77588,2.82129,2.77539,2.82129,0,2.82226-2.77539V6.8631h3.21778V17.35724a5.5092,5.5092,0,0,1-1.50391,4.28027,8.22339,8.22339,0,0,1-9.07226,0,5.5092,5.5092,0,0,1-1.50391-4.28027V6.8631h3.21875Z"/><path class="cls-2" d="M425.54455,22.7215V6.8631h5.43457l3.82422,13.05957h.2334V6.8631h3.21875V22.7215h-5.29492L428.9967,9.661h-.2334V22.7215Z"/><path class="cls-2" d="M441.17932,22.7215V6.8631h3.21875V22.7215Z"/><path class="cls-2" d="M446.11584,9.70782V6.8631H457.777V9.70782h-4.19824V22.7215H450.361V9.70782Z"/><path class="cls-2" d="M459.484,22.7215V6.8631h10.26171V9.661h-7.043v3.709h5.64355v2.752h-5.64355v3.80078h7.043V22.7215Z"/><path class="cls-2" d="M477.36,22.7215h-5.34082V6.8631H477.36a11.13519,11.13519,0,0,1,3.38184.43164,4.02888,4.02888,0,0,1,2.06347,1.42187,5.87312,5.87312,0,0,1,1.01465,2.332,17.64848,17.64848,0,0,1,.28028,3.4873,20.43908,20.43908,0,0,1-.25684,3.55664,6.89693,6.89693,0,0,1-.96777,2.51856,4.03724,4.03724,0,0,1-2.06446,1.60937A10.067,10.067,0,0,1,477.36,22.7215Zm3.38184-6.29688q.04688-.74561.04687-2.06347a19.06329,19.06329,0,0,0-.09375-2.11133,4.03152,4.03152,0,0,0-.44336-1.44532,1.844,1.844,0,0,0-1.03711-.89843A5.69388,5.69388,0,0,0,477.36,9.661h-2.12207V19.92267H477.36a3.253,3.253,0,0,0,2.542-.88574A4.43311,4.43311,0,0,0,480.74182,16.42462Z"/><path class="cls-2" d="M496.43615,9.38165q-2.54149,0-2.542,1.67871a1.2727,1.2727,0,0,0,.62988,1.14356,16.46376,16.46376,0,0,0,2.9502,1.14258,8.1438,8.1438,0,0,1,3.25391,1.69043,3.9892,3.9892,0,0,1,.93261,2.90332,4.67322,4.67322,0,0,1-1.51562,3.77832,5.9307,5.9307,0,0,1-3.96485,1.2832,22.011,22.011,0,0,1-4.45507-.56055l-.83887-.16308.32617-2.49512a38.73772,38.73772,0,0,0,4.78125.41992q2.47119,0,2.47168-2.05273a1.36659,1.36659,0,0,0-.57129-1.166,8.09345,8.09345,0,0,0-2.27344-.90918,9.26632,9.26632,0,0,1-3.81347-1.831,3.89141,3.89141,0,0,1-1.10742-2.9502,4.28348,4.28348,0,0,1,1.44531-3.54492,6.14606,6.14606,0,0,1,3.96484-1.166,26.29263,26.29263,0,0,1,4.38477.4668l.83887.16309-.25586,2.542Q497.78918,9.38263,496.43615,9.38165Z"/><path class="cls-2" d="M502.79065,9.70782V6.8631h11.66113V9.70782h-4.19824V22.7215h-3.21778V9.70782Z"/><path class="cls-2" d="M514.0719,22.7215l3.56836-15.8584h6.11035L527.319,22.7215h-3.21875l-.62989-2.86817h-5.55078l-.6289,2.86817Zm6.06347-13.2002L518.526,17.0545h4.33789l-1.60938-7.5332Z"/><path class="cls-2" d="M526.93713,9.70782V6.8631h11.66113V9.70782H534.4V22.7215h-3.21777V9.70782Z"/><path class="cls-2" d="M540.30529,22.7215V6.8631H550.567V9.661h-7.043v3.709h5.64356v2.752H543.524v3.80078h7.043V22.7215Z"/><path class="cls-2" d="M557.82385,9.38165q-2.54151,0-2.542,1.67871a1.2727,1.2727,0,0,0,.62988,1.14356,16.46309,16.46309,0,0,0,2.9502,1.14258,8.14381,8.14381,0,0,1,3.2539,1.69043,3.98916,3.98916,0,0,1,.93262,2.90332,4.67319,4.67319,0,0,1-1.51563,3.77832,5.93066,5.93066,0,0,1-3.96484,1.2832,22.01118,22.01118,0,0,1-4.45508-.56055l-.83887-.16308.32618-2.49512a38.73741,38.73741,0,0,0,4.78125.41992q2.47119,0,2.47168-2.05273a1.36659,1.36659,0,0,0-.57129-1.166,8.09345,8.09345,0,0,0-2.27344-.90918,9.26631,9.26631,0,0,1-3.81348-1.831,3.89141,3.89141,0,0,1-1.10742-2.9502,4.28351,4.28351,0,0,1,1.44531-3.54492,6.14609,6.14609,0,0,1,3.96485-1.166,26.29252,26.29252,0,0,1,4.38476.4668l.83887.16309-.25586,2.542Q559.17688,9.38263,557.82385,9.38165Z"/><path class="cls-2" d="M430.49963,251.86212q-1.44873,0-1.44824,1.10742a.9927.9927,0,0,0,.32812.87305,3.85439,3.85439,0,0,0,1.28711.41406,3.21816,3.21816,0,0,1,1.36817.52149,1.36432,1.36432,0,0,1,.40918,1.11621,1.86348,1.86348,0,0,1-.499,1.4541,2.13449,2.13449,0,0,1-1.46289.44531,12.28439,12.28439,0,0,1-1.6289-.126l-.32422-.04493.06347-.47754a16.49893,16.49893,0,0,0,1.90723.15333,1.447,1.447,0,0,0,1.02637-.32911,1.25234,1.25234,0,0,0,.35058-.96289,1.0135,1.0135,0,0,0-.31054-.86328,2.44956,2.44956,0,0,0-.98926-.35547,8.55093,8.55093,0,0,1-.99512-.22949,2.19981,2.19981,0,0,1-.58887-.29785,1.06766,1.06766,0,0,1-.3916-.49414,2.12176,2.12176,0,0,1-.11718-.76074q0-1.6377,1.98046-1.6377a12.36631,12.36631,0,0,1,1.54786.126l.29687.04492-.04492.47656A16.79422,16.79422,0,0,0,430.49963,251.86212Z"/><path class="cls-2" d="M433.47033,255.46271a2.917,2.917,0,0,1,.42676-1.79981,2.26637,2.26637,0,0,1,2.916,0,2.90969,2.90969,0,0,1,.42773,1.79981,3.16111,3.16111,0,0,1-.3916,1.80859,2.3302,2.3302,0,0,1-2.9834,0A3.14129,3.14129,0,0,1,433.47033,255.46271Zm.55762-.01367a3.08948,3.08948,0,0,0,.24707,1.47558q.24756.41016,1.08008.41016.83349,0,1.085-.41406a3.0493,3.0493,0,0,0,.25195-1.47168,2.63385,2.63385,0,0,0-.2832-1.44922,1.60643,1.60643,0,0,0-2.09766-.00391A2.62941,2.62941,0,0,0,434.028,255.449Z"/><path class="cls-2" d="M441.33557,253.2215h.53125v4.5h-.53125v-.333a2.63812,2.63812,0,0,1-1.38574.42285,1.32637,1.32637,0,0,1-1.21-.46777,3.67565,3.67565,0,0,1-.293-1.77344V253.2215h.53125v2.33984a3.38037,3.38037,0,0,0,.19336,1.4043q.19335.36034.84179.35937a2.38079,2.38079,0,0,0,.64746-.09375,2.34931,2.34931,0,0,0,.50391-.19336l.1709-.09082Z"/><path class="cls-2" d="M443.30627,257.7215v-4.5h.53125v.64843a4.8585,4.8585,0,0,1,.81445-.45019,3.79921,3.79921,0,0,1,.88672-.28809v.54a5.08819,5.08819,0,0,0-.81054.24707,6.32071,6.32071,0,0,0-.65625.293l-.23438.13477v3.375Z"/><path class="cls-2" d="M448.1217,253.13165a6.217,6.217,0,0,1,.96289.08985l.207.02734-.02636.459a9.1721,9.1721,0,0,0-1.05274-.08984,1.30761,1.30761,0,0,0-1.09863.39063,2.50942,2.50942,0,0,0-.29688,1.44043,2.84173,2.84173,0,0,0,.27051,1.46289,1.26035,1.26035,0,0,0,1.125.41308l1.07031-.08008.01856.459a9.9783,9.9783,0,0,1-1.18848.10742,1.71242,1.71242,0,0,1-1.46191-.53125,3.17577,3.17577,0,0,1-.3916-1.82617,2.89208,2.89208,0,0,1,.42675-1.80957A1.77523,1.77523,0,0,1,448.1217,253.13165Z"/><path class="cls-2" d="M453.41369,257.2713l.26953-.02637.01856.44043a14.37025,14.37025,0,0,1-1.71973.126,1.54466,1.54466,0,0,1-1.3584-.57617,3.12839,3.12839,0,0,1-.38769-1.7461q0-2.35692,1.85449-2.35742a1.6694,1.6694,0,0,1,1.332.50879,2.44983,2.44983,0,0,1,.44043,1.624l-.01758.43164h-3.05957a2.13514,2.13514,0,0,0,.28321,1.22851,1.10585,1.10585,0,0,0,.97168.40039Q452.72912,257.325,453.41369,257.2713Zm-2.62793-2.02441h2.53809a2.11015,2.11015,0,0,0-.293-1.26953,1.10951,1.10951,0,0,0-.93555-.37793,1.21024,1.21024,0,0,0-.97656.3916A1.91947,1.91947,0,0,0,450.78576,255.24689Z"/><path class="cls-2" d="M455.01526,254.75177v-.918h.59375v.918Zm0,2.96973v-.90918h.59375v.90918Z"/><path class="cls-2" d="M459.192,251.46661h2.22266q1.84571,0,1.84473,1.5752a1.41733,1.41733,0,0,1-.82715,1.458,1.39867,1.39867,0,0,1,1.03418,1.48437,1.62924,1.62924,0,0,1-.49024,1.34082,2.22356,2.22356,0,0,1-1.42675.39649H459.192Zm2.20508.49512h-1.64746v2.33106h1.72852a1.0574,1.0574,0,0,0,1.21484-1.19727,1.07215,1.07215,0,0,0-.31934-.86426A1.49235,1.49235,0,0,0,461.39709,251.96173Zm.08985,2.81641h-1.73731v2.44824h1.791a1.582,1.582,0,0,0,1.00781-.2793,1.1855,1.1855,0,0,0,.35156-.98047Q462.9,254.77863,461.48694,254.77814Z"/><path class="cls-2" d="M467.56994,253.2215h.53125v4.5h-.53125v-.333a2.63806,2.63806,0,0,1-1.38574.42285,1.32638,1.32638,0,0,1-1.21-.46777,3.67577,3.67577,0,0,1-.293-1.77344V253.2215h.53125v2.33984a3.38037,3.38037,0,0,0,.19336,1.4043q.19336.36034.8418.35937a2.38079,2.38079,0,0,0,.64746-.09375,2.34919,2.34919,0,0,0,.5039-.19336l.1709-.09082Z"/><path class="cls-2" d="M469.54065,257.7215v-4.5h.53125v.64843a4.8581,4.8581,0,0,1,.81445-.45019,3.79906,3.79906,0,0,1,.88672-.28809v.54a5.0886,5.0886,0,0,0-.81055.24707,6.32071,6.32071,0,0,0-.65625.293l-.23437.13477v3.375Z"/><path class="cls-2" d="M475.66174,257.2713l.26953-.02637.01856.44043a14.37025,14.37025,0,0,1-1.71973.126,1.54465,1.54465,0,0,1-1.3584-.57617,3.12831,3.12831,0,0,1-.38769-1.7461q0-2.35692,1.85449-2.35742a1.66942,1.66942,0,0,1,1.332.50879,2.44989,2.44989,0,0,1,.44043,1.624l-.01758.43164h-3.05957a2.13522,2.13522,0,0,0,.2832,1.22851,1.10588,1.10588,0,0,0,.97168.40039Q474.97718,257.325,475.66174,257.2713Zm-2.62793-2.02441h2.53809a2.11015,2.11015,0,0,0-.293-1.26953,1.10951,1.10951,0,0,0-.93555-.37793,1.21023,1.21023,0,0,0-.97656.3916A1.91942,1.91942,0,0,0,473.03381,255.24689Z"/><path class="cls-2" d="M480.4049,254.56232v2.41211c.02344.22168.21875.35449.585.39648l-.02735.43164a1.30525,1.30525,0,0,1-1.01758-.36035,4.19816,4.19816,0,0,1-1.6914.36914,1.17571,1.17571,0,0,1-.918-.34668,1.41914,1.41914,0,0,1-.31543-.98926,1.2761,1.2761,0,0,1,.31933-.9541,1.65708,1.65708,0,0,1,1.00391-.38281l1.53027-.15332v-.42285a1.00025,1.00025,0,0,0-.2207-.72461.79962.79962,0,0,0-.58984-.21973,13.25978,13.25978,0,0,0-1.49414.10742l-.27832.02735-.02735-.43262a9.39136,9.39136,0,0,1,1.73242-.18848,1.43187,1.43187,0,0,1,1.07618.35059A1.525,1.525,0,0,1,480.4049,254.56232Zm-2.82617,1.88086q0,.90966.74707.90918a3.71006,3.71006,0,0,0,.71094-.07618,4.38916,4.38916,0,0,0,.61133-.15722l.22558-.08106V255.408l-1.46679.15332a.77519.77519,0,0,0-.82813.88184Z"/><path class="cls-2" d="M484.733,253.2215h.53125v4.5H484.733v-.333a2.63809,2.63809,0,0,1-1.38574.42285,1.32637,1.32637,0,0,1-1.21-.46777,3.67565,3.67565,0,0,1-.293-1.77344V253.2215h.53125v2.33984a3.38037,3.38037,0,0,0,.19336,1.4043q.19335.36034.84179.35937a2.38079,2.38079,0,0,0,.64746-.09375,2.34931,2.34931,0,0,0,.50391-.19336l.1709-.09082Z"/><path class="cls-2" d="M488.58557,255.46271a2.917,2.917,0,0,1,.42676-1.79981,2.26636,2.26636,0,0,1,2.916,0,2.90961,2.90961,0,0,1,.42774,1.79981,3.1611,3.1611,0,0,1-.39161,1.80859,2.33019,2.33019,0,0,1-2.98339,0A3.14121,3.14121,0,0,1,488.58557,255.46271Zm.55762-.01367a3.08948,3.08948,0,0,0,.24707,1.47558q.24755.41016,1.08007.41016.83351,0,1.085-.41406a3.04928,3.04928,0,0,0,.252-1.47168,2.63383,2.63383,0,0,0-.28321-1.44922,1.60641,1.60641,0,0,0-2.09765-.00391A2.62932,2.62932,0,0,0,489.14319,255.449Z"/><path class="cls-2" d="M494.32678,253.69806v4.02344h-.53906v-4.02344h-.58594v-.47656h.58594v-.459a2.25281,2.25281,0,0,1,.26074-1.292,1.10737,1.10737,0,0,1,.92676-.33691l.873.04492v.459q-.53174-.01758-.792-.01758a.63762.63762,0,0,0-.57617.2334,1.8639,1.8639,0,0,0-.15332.918v.4502h1.35937v.47656Z"/><path class="cls-2" d="M502.21057,257.7215h-3.41992v-6.25489h.55761v5.751h2.86231Z"/><path class="cls-2" d="M506.18908,254.56232v2.41211c.02344.22168.21875.35449.585.39648l-.02734.43164a1.30525,1.30525,0,0,1-1.01758-.36035,4.19816,4.19816,0,0,1-1.6914.36914,1.17571,1.17571,0,0,1-.918-.34668,1.41914,1.41914,0,0,1-.31543-.98926,1.2761,1.2761,0,0,1,.31933-.9541,1.65705,1.65705,0,0,1,1.00391-.38281l1.53027-.15332v-.42285a1.00025,1.00025,0,0,0-.2207-.72461.79962.79962,0,0,0-.58984-.21973,13.25978,13.25978,0,0,0-1.49414.10742l-.27832.02735-.02735-.43262a9.39136,9.39136,0,0,1,1.73242-.18848,1.43187,1.43187,0,0,1,1.07618.35059A1.525,1.525,0,0,1,506.18908,254.56232Zm-2.82617,1.88086q0,.90966.74707.90918a3.71006,3.71006,0,0,0,.71094-.07618,4.38916,4.38916,0,0,0,.61133-.15722l.22558-.08106V255.408l-1.46679.15332a.77519.77519,0,0,0-.82813.88184Z"/><path class="cls-2" d="M509.609,253.13165a1.39874,1.39874,0,0,1,1.251.52149,3.40779,3.40779,0,0,1,.35059,1.80468,2.87345,2.87345,0,0,1-.44531,1.81836,2.08623,2.08623,0,0,1-1.66016.53516,11.81914,11.81914,0,0,1-1.20606-.07227l-.23437-.01757v-6.498h.54v2.24121A3.25391,3.25391,0,0,1,509.609,253.13165Zm-1.4043,4.13965q.62988.0542,1.01269.05371a2.05391,2.05391,0,0,0,.68848-.10742.9059.9059,0,0,0,.47266-.36426,1.50782,1.50782,0,0,0,.21972-.585,5.55926,5.55926,0,0,0,.05469-.86914,3.00423,3.00423,0,0,0-.22949-1.36816.895.895,0,0,0-.85938-.41309,2.98448,2.98448,0,0,0-.64843.07617,3.15647,3.15647,0,0,0-.53125.15723l-.17969.07227Z"/><path class="cls-2" d="M512.2633,255.46271a2.917,2.917,0,0,1,.42676-1.79981,2.26637,2.26637,0,0,1,2.916,0,2.90969,2.90969,0,0,1,.42773,1.79981,3.16111,3.16111,0,0,1-.3916,1.80859,2.3302,2.3302,0,0,1-2.9834,0A3.14129,3.14129,0,0,1,512.2633,255.46271Zm.55762-.01367a3.08948,3.08948,0,0,0,.24707,1.47558q.24756.41016,1.08008.41016.83349,0,1.085-.41406a3.0493,3.0493,0,0,0,.25195-1.47168,2.63385,2.63385,0,0,0-.2832-1.44922,1.60643,1.60643,0,0,0-2.09766-.00391A2.62941,2.62941,0,0,0,512.82092,255.449Z"/><path class="cls-2" d="M517.28479,257.7215v-4.5h.53125v.64843a4.8581,4.8581,0,0,1,.81445-.45019,3.79906,3.79906,0,0,1,.88672-.28809v.54a5.0886,5.0886,0,0,0-.81055.24707,6.32266,6.32266,0,0,0-.65625.293l-.23437.13477v3.375Z"/><path class="cls-2" d="M524.29553,251.86212q-1.44873,0-1.44824,1.10742a.9927.9927,0,0,0,.32812.87305,3.85439,3.85439,0,0,0,1.28711.41406,3.21816,3.21816,0,0,1,1.36817.52149,1.36432,1.36432,0,0,1,.40918,1.11621,1.86348,1.86348,0,0,1-.499,1.4541,2.1345,2.1345,0,0,1-1.46289.44531,12.28466,12.28466,0,0,1-1.62891-.126l-.32421-.04493.06347-.47754a16.49893,16.49893,0,0,0,1.90723.15333,1.447,1.447,0,0,0,1.02637-.32911,1.25234,1.25234,0,0,0,.35058-.96289,1.0135,1.0135,0,0,0-.31054-.86328,2.44956,2.44956,0,0,0-.98926-.35547,8.55093,8.55093,0,0,1-.99512-.22949,2.19981,2.19981,0,0,1-.58887-.29785,1.06766,1.06766,0,0,1-.3916-.49414,2.12174,2.12174,0,0,1-.11719-.76074q0-1.6377,1.98047-1.6377a12.366,12.366,0,0,1,1.54785.126l.29688.04492-.04492.47656A16.79422,16.79422,0,0,0,524.29553,251.86212Z"/><path class="cls-2" d="M529.73205,253.69806h-1.50293v2.22363a3.25552,3.25552,0,0,0,.126,1.14258q.126.271.59375.27051l.82812-.06348.03614.459a6.48363,6.48363,0,0,1-.90918.08984,1.1461,1.1461,0,0,1-.94922-.33691,2.21171,2.21171,0,0,1-.26563-1.292v-2.49316h-.666v-.47656h.666v-1.41309h.54v1.41309h1.50293Z"/><path class="cls-2" d="M533.76428,254.56232v2.41211c.02344.22168.21875.35449.585.39648l-.02734.43164a1.30523,1.30523,0,0,1-1.01758-.36035,4.19821,4.19821,0,0,1-1.69141.36914,1.17572,1.17572,0,0,1-.918-.34668,1.41914,1.41914,0,0,1-.31543-.98926,1.2761,1.2761,0,0,1,.31934-.9541,1.657,1.657,0,0,1,1.00391-.38281l1.53027-.15332v-.42285a1.00029,1.00029,0,0,0-.2207-.72461.79963.79963,0,0,0-.58985-.21973,13.25994,13.25994,0,0,0-1.49414.10742l-.27832.02735-.02734-.43262a9.39119,9.39119,0,0,1,1.73242-.18848,1.43183,1.43183,0,0,1,1.07617.35059A1.525,1.525,0,0,1,533.76428,254.56232Zm-2.82617,1.88086q0,.90966.74707.90918a3.71006,3.71006,0,0,0,.71094-.07618,4.38858,4.38858,0,0,0,.61132-.15722l.22559-.08106V255.408l-1.4668.15332a.77519.77519,0,0,0-.82812.88184Z"/><path class="cls-2" d="M537.526,253.69806h-1.50293v2.22363a3.2556,3.2556,0,0,0,.126,1.14258q.126.271.59375.27051l.82813-.06348.03613.459a6.4835,6.4835,0,0,1-.90918.08984,1.14611,1.14611,0,0,1-.94922-.33691,2.2118,2.2118,0,0,1-.26562-1.292v-2.49316h-.666v-.47656h.666v-1.41309h.54v1.41309H537.526Z"/><path class="cls-2" d="M538.46154,252.0965v-.67481h.53125v.67481Zm0,5.625v-4.5h.53125v4.5Z"/><path class="cls-2" d="M541.79162,253.62677q-1.062,0-1.0625.76465a.53361.53361,0,0,0,.23438.49512,3.59347,3.59347,0,0,0,1.05762.2832,2.94026,2.94026,0,0,1,1.16113.38281,1.08446,1.08446,0,0,1,.33691.93164,1.15976,1.15976,0,0,1-.44043,1.00781,2.19851,2.19851,0,0,1-1.2959.31934,8.38425,8.38425,0,0,1-1.27832-.126l-.26074-.03613.03613-.47656a11.16991,11.16991,0,0,0,1.54786.15234,1.58234,1.58234,0,0,0,.84082-.18847.69415.69415,0,0,0,.30175-.63868.6409.6409,0,0,0-.24707-.59863,3.4602,3.4602,0,0,0-1.0625-.27441,2.85952,2.85952,0,0,1-1.14746-.36035,1.01169,1.01169,0,0,1-.333-.88184,1.04369,1.04369,0,0,1,.459-.94531,2.04575,2.04575,0,0,1,1.13379-.29688,9.74036,9.74036,0,0,1,1.35058.11719l.24317.03613-.01856.47656A11.05287,11.05287,0,0,0,541.79162,253.62677Z"/><path class="cls-2" d="M546.97619,253.69806h-1.50293v2.22363a3.25552,3.25552,0,0,0,.126,1.14258q.126.271.59375.27051l.82813-.06348.03613.459a6.48363,6.48363,0,0,1-.90918.08984,1.1461,1.1461,0,0,1-.94922-.33691,2.21179,2.21179,0,0,1-.26563-1.292v-2.49316h-.666v-.47656h.666v-1.41309h.54v1.41309h1.50293Z"/><path class="cls-2" d="M547.91174,252.0965v-.67481h.53125v.67481Zm0,5.625v-4.5h.53125v4.5Z"/><path class="cls-2" d="M551.55627,253.13165a6.217,6.217,0,0,1,.96289.08985l.207.02734-.02636.459a9.1721,9.1721,0,0,0-1.05274-.08984,1.30761,1.30761,0,0,0-1.09863.39063,2.50942,2.50942,0,0,0-.29688,1.44043,2.84173,2.84173,0,0,0,.27051,1.46289,1.26035,1.26035,0,0,0,1.125.41308l1.07031-.08008.01856.459a9.9783,9.9783,0,0,1-1.18848.10742,1.71243,1.71243,0,0,1-1.46191-.53125,3.17577,3.17577,0,0,1-.3916-1.82617,2.89208,2.89208,0,0,1,.42675-1.80957A1.77523,1.77523,0,0,1,551.55627,253.13165Z"/><path class="cls-2" d="M555.22815,253.62677q-1.062,0-1.0625.76465a.5336.5336,0,0,0,.23437.49512,3.59347,3.59347,0,0,0,1.05762.2832,2.94014,2.94014,0,0,1,1.16113.38281,1.08447,1.08447,0,0,1,.33692.93164,1.15979,1.15979,0,0,1-.44043,1.00781,2.19855,2.19855,0,0,1-1.2959.31934,8.384,8.384,0,0,1-1.27832-.126l-.26075-.03613.03614-.47656a11.1698,11.1698,0,0,0,1.54785.15234,1.58232,1.58232,0,0,0,.84082-.18847.69415.69415,0,0,0,.30176-.63868.6409.6409,0,0,0-.24707-.59863,3.4602,3.4602,0,0,0-1.0625-.27441,2.85952,2.85952,0,0,1-1.14746-.36035,1.01169,1.01169,0,0,1-.333-.88184,1.04369,1.04369,0,0,1,.459-.94531,2.04575,2.04575,0,0,1,1.13379-.29688,9.74061,9.74061,0,0,1,1.35059.11719l.24316.03613-.01855.47656A11.053,11.053,0,0,0,555.22815,253.62677Z"/><path class="cls-4" d="M429.73108,238.39728h-5.94922V237.0672l2.28125-2.35156a14.89886,14.89886,0,0,0,1.45605-1.666,2.26161,2.26161,0,0,0,.41992-1.32324,1.2125,1.2125,0,0,0-.40527-1.0293,2.23887,2.23887,0,0,0-1.33008-.30761,10.4998,10.4998,0,0,0-1.918.19628l-.35058.05567-.09766-1.23242a9.77193,9.77193,0,0,1,2.81348-.40528q2.89893,0,2.89844,2.5752a3.3615,3.3615,0,0,1-.44141,1.75,8.78813,8.78813,0,0,1-1.57422,1.792l-1.97461,1.918h4.17188Z"/><path class="cls-4" d="M432.25842,230.13068a3.62137,3.62137,0,0,1,5.24316-.00782,6.13607,6.13607,0,0,1,.86817,3.70313,5.86112,5.86112,0,0,1-.875,3.6543,3.74352,3.74352,0,0,1-5.23633.00683,5.82706,5.82706,0,0,1-.875-3.64648A6.12614,6.12614,0,0,1,432.25842,230.13068Zm4.06738.99316a1.75171,1.75171,0,0,0-2.8916,0,5.79009,5.79009,0,0,0-.44043,2.68164,5.43739,5.43739,0,0,0,.45508,2.65234,1.56876,1.56876,0,0,0,1.44141.73536,1.53965,1.53965,0,0,0,1.42871-.73536,5.59459,5.59459,0,0,0,.44043-2.65234A5.87465,5.87465,0,0,0,436.3258,231.12384Z"/><path class="cls-4" d="M444.75354,229.157v9.24024h-1.55371v-7.47559l-2.16993,1.39942L440.316,231.159l3.00976-2.002Z"/><path class="cls-4" d="M448.66662,229.64044a4.09869,4.09869,0,0,1,2.42871-.63672,4.23144,4.23144,0,0,1,2.457.63672,2.08955,2.08955,0,0,1,.917,1.82715,2.47911,2.47911,0,0,1-.25879,1.2666,2.95079,2.95079,0,0,1-.97266.875,3.61726,3.61726,0,0,1,1.043.94531,2.35315,2.35315,0,0,1,.3291,1.33692,2.24572,2.24572,0,0,1-.96582,2.03027,4.604,4.604,0,0,1-2.54883.62988q-3.47167,0-3.47168-2.50585a2.68223,2.68223,0,0,1,.32227-1.44239,3.72418,3.72418,0,0,1,1.02148-.99414,2.7971,2.7971,0,0,1-.92382-.90332,2.52943,2.52943,0,0,1-.26563-1.25293A2.097,2.097,0,0,1,448.66662,229.64044Zm.623,6.06836q0,1.44288,1.82715,1.44238,1.82665,0,1.82715-1.46972,0-.96679-1.17578-1.33008h-1.34473A1.3832,1.3832,0,0,0,449.28967,235.7088Zm3.51367-4.01758q0-1.2876-1.67969-1.28808-1.68016,0-1.67968,1.28808a1.484,1.484,0,0,0,.97949,1.33008h1.34473A1.49194,1.49194,0,0,0,452.80334,231.69122Z"/><polyline class="cls-5" points="562.203 219.027 55.933 219.027 55.933 49.513"/><path class="cls-4" d="M532.70569,238.39728h-5.94922V237.0672l2.28125-2.35156a14.89992,14.89992,0,0,0,1.45605-1.666,2.26168,2.26168,0,0,0,.41992-1.32324,1.2125,1.2125,0,0,0-.40527-1.0293,2.23887,2.23887,0,0,0-1.33008-.30761,10.4998,10.4998,0,0,0-1.918.19628l-.35058.05567-.09766-1.23242a9.77193,9.77193,0,0,1,2.81348-.40528q2.89891,0,2.89843,2.5752a3.3615,3.3615,0,0,1-.4414,1.75,8.78813,8.78813,0,0,1-1.57422,1.792l-1.97461,1.918h4.17188Z"/><path class="cls-4" d="M535.233,230.13068a3.62137,3.62137,0,0,1,5.24316-.00782,6.13607,6.13607,0,0,1,.86817,3.70313,5.86112,5.86112,0,0,1-.875,3.6543,3.74352,3.74352,0,0,1-5.23633.00683,5.82706,5.82706,0,0,1-.875-3.64648A6.12614,6.12614,0,0,1,535.233,230.13068Zm4.06738.99316a1.75171,1.75171,0,0,0-2.8916,0,5.79009,5.79009,0,0,0-.44043,2.68164,5.43739,5.43739,0,0,0,.45508,2.65234,1.56876,1.56876,0,0,0,1.44141.73536,1.53965,1.53965,0,0,0,1.42871-.73536,5.59459,5.59459,0,0,0,.44043-2.65234A5.87479,5.87479,0,0,0,539.30041,231.12384Z"/><path class="cls-4" d="M548.94592,238.39728H542.9967V237.0672l2.28125-2.35156a14.90025,14.90025,0,0,0,1.45606-1.666,2.26168,2.26168,0,0,0,.41992-1.32324,1.21251,1.21251,0,0,0-.40528-1.0293,2.23886,2.23886,0,0,0-1.33007-.30761,10.49971,10.49971,0,0,0-1.918.19628l-.35059.05567-.09765-1.23242a9.77192,9.77192,0,0,1,2.81347-.40528q2.89893,0,2.89844,2.5752a3.3614,3.3614,0,0,1-.44141,1.75,8.78781,8.78781,0,0,1-1.57422,1.792l-1.97461,1.918h4.17188Z"/><path class="cls-4" d="M551.47326,230.13068a3.62138,3.62138,0,0,1,5.24317-.00782,6.13614,6.13614,0,0,1,.86816,3.70313,5.86112,5.86112,0,0,1-.875,3.6543,3.74352,3.74352,0,0,1-5.23633.00683,5.82712,5.82712,0,0,1-.875-3.64648A6.12622,6.12622,0,0,1,551.47326,230.13068Zm4.06739.99316a1.75172,1.75172,0,0,0-2.89161,0,5.79012,5.79012,0,0,0-.44042,2.68164,5.43742,5.43742,0,0,0,.45507,2.65234,1.56878,1.56878,0,0,0,1.44141.73536,1.53964,1.53964,0,0,0,1.42871-.73536,5.59446,5.59446,0,0,0,.44043-2.65234A5.87482,5.87482,0,0,0,555.54065,231.12384Z"/><path class="cls-4" d="M11.63635,141.29083V151.8797H9.85559v-8.56738l-2.48682,1.60449-.81836-1.33106,3.44922-2.29492Z"/><path class="cls-4" d="M15.06115,142.40607a3.57352,3.57352,0,0,1,3.00831-1.291,3.55943,3.55943,0,0,1,3,1.2832,7.02554,7.02554,0,0,1,.99462,4.24317,6.7186,6.7186,0,0,1-1.00244,4.1875,3.64807,3.64807,0,0,1-3.00049,1.22754,3.65659,3.65659,0,0,1-3-1.21973,6.67617,6.67617,0,0,1-1.00244-4.17871A7.02225,7.02225,0,0,1,15.06115,142.40607Zm4.66065,1.13965a1.74968,1.74968,0,0,0-1.65234-.875,1.76827,1.76827,0,0,0-1.66065.875,6.626,6.626,0,0,0-.50537,3.07226,6.24079,6.24079,0,0,0,.52148,3.04,1.79974,1.79974,0,0,0,1.65235.8418,1.76269,1.76269,0,0,0,1.63672-.8418,6.41381,6.41381,0,0,0,.50537-3.04A6.71974,6.71974,0,0,0,19.7218,143.54572Z"/><path class="cls-4" d="M23.86584,151.8797V140.89044H26.962l2.45459,8.583,2.45459-8.583h3.11231V151.8797H33.18664v-9.0166h-.24072l-2.59863,8.56738H28.486l-2.59863-8.56738H25.6466v9.0166Z"/><line class="cls-6" x1="54.91758" y1="148.1671" x2="562.20298" y2="148.1671"/><line class="cls-7" x1="42.67262" y1="148.1671" x2="56.50124" y2="148.1671"/><line class="cls-6" x1="54.91758" y1="73.10947" x2="562.20298" y2="73.10947"/><path class="cls-4" d="M12.51379,67.01154v10.417h-1.752V69.00079L8.31555,70.57892l-.80469-1.31055,3.39307-2.25683Z"/><path class="cls-4" d="M21.80871,67.01154v1.54687H16.97912l-.26855,2.74609a5.07084,5.07084,0,0,1,2.11523-.48925q3.34571,0,3.34571,3.125a3.72867,3.72867,0,0,1-.92334,2.71484,3.47879,3.47879,0,0,1-2.61182.94727,10.98241,10.98241,0,0,1-1.60986-.13477q-.90015-.13331-1.43653-.25977l-.53662-.14257.18945-1.3252a19.57434,19.57434,0,0,0,3.188.31543,1.921,1.921,0,0,0,1.4209-.50488,1.94444,1.94444,0,0,0,.50488-1.43653,1.7619,1.7619,0,0,0-.44189-1.34179,1.62688,1.62688,0,0,0-1.15234-.41016,5.79682,5.79682,0,0,0-2.083.31543l-.28418.11035-1.105-.23633.28418-5.54Z"/><path class="cls-4" d="M24.06555,77.42853V66.617h3.0459l2.415,8.44434L31.941,66.617h3.062V77.42853H33.23547V68.55841h-.23682l-2.55712,8.42774H28.611l-2.55713-8.42774H25.8175v8.87012Z"/><line class="cls-7" x1="42.67262" y1="73.10947" x2="56.50124" y2="73.10947"/><path class="cls-4" d="M481.71838,238.39728h-5.94922V237.0672l2.28125-2.35156a14.90025,14.90025,0,0,0,1.45606-1.666,2.26168,2.26168,0,0,0,.41992-1.32324,1.21253,1.21253,0,0,0-.40527-1.0293,2.23891,2.23891,0,0,0-1.33008-.30761,10.4998,10.4998,0,0,0-1.918.19628l-.35059.05567-.09765-1.23242a9.77192,9.77192,0,0,1,2.81347-.40528q2.89893,0,2.89844,2.5752a3.3614,3.3614,0,0,1-.44141,1.75,8.788,8.788,0,0,1-1.57421,1.792l-1.97461,1.918h4.17187Z"/><path class="cls-4" d="M484.24572,230.13068a3.62138,3.62138,0,0,1,5.24317-.00782,6.13614,6.13614,0,0,1,.86816,3.70313,5.86112,5.86112,0,0,1-.875,3.6543,3.74352,3.74352,0,0,1-5.23633.00683,5.82712,5.82712,0,0,1-.875-3.64648A6.12622,6.12622,0,0,1,484.24572,230.13068Zm4.06739.99316a1.75171,1.75171,0,0,0-2.8916,0,5.79,5.79,0,0,0-.44043,2.68164,5.43742,5.43742,0,0,0,.45507,2.65234,1.56878,1.56878,0,0,0,1.44141.73536,1.53964,1.53964,0,0,0,1.42871-.73536,5.59446,5.59446,0,0,0,.44043-2.65234A5.87482,5.87482,0,0,0,488.31311,231.12384Z"/><path class="cls-4" d="M496.74084,229.157v9.24024h-1.55371v-7.47559l-2.16992,1.39942-.71387-1.16211,3.00977-2.002Z"/><path class="cls-4" d="M502.66272,237.19318q2.12841,0,2.15625-2.6875l-.33594.11132a5.5872,5.5872,0,0,1-1.708.36426,3.33293,3.33293,0,0,1-2.30957-.7207,2.769,2.769,0,0,1-.79883-2.16309,2.946,2.946,0,0,1,.88965-2.26855,3.41143,3.41143,0,0,1,2.415-.8252,2.94229,2.94229,0,0,1,2.60352,1.24512,6.52806,6.52806,0,0,1,.85449,3.68262,5.28968,5.28968,0,0,1-.959,3.52734,3.5365,3.5365,0,0,1-2.80761,1.09277,11.23615,11.23615,0,0,1-2.26758-.25195l-.40625-.084.14062-1.21875A17.76377,17.76377,0,0,0,502.66272,237.19318Zm.23828-3.584a4.743,4.743,0,0,0,1.63769-.30762l.294-.09863q-.02784-2.84179-1.86133-2.84179a1.65641,1.65641,0,0,0-1.24609.46191,1.73418,1.73418,0,0,0-.44825,1.25976Q501.277,233.60919,502.901,233.60919Z"/></g></g></svg>