<svg xmlns="http://www.w3.org/2000/svg" viewBox="0 0 291.04717 321.29785"><defs><style>.cls-1{fill:#474c55;}.cls-2{fill:#00b5af;}.cls-3{fill:#fff;}</style></defs><title>PrivateLabel-graphic1</title><g id="Layer_2" data-name="Layer 2"><g id="Layer_1-2" data-name="Layer 1"><path class="cls-1" d="M13.26608,140.97852q0,4.09276-1.28711,5.918-1.28613,1.82667-4.68555,1.82618-3.39843,0-4.68554-1.87012-1.2876-1.86913-1.28711-5.90625,0-4.03711,1.29785-5.99512,1.29784-1.95849,4.66406-1.958,3.36621,0,4.67481,1.94629Q13.2656,136.8877,13.26608,140.97852ZM3.6528,145.96191q.92285,1.52931,3.64062,1.5293,2.7173,0,3.64063-1.49609a10.00921,10.00921,0,0,0,.9248-5.00489,10.41623,10.41623,0,0,0-.96875-5.13769q-.96826-1.62744-3.60742-1.62793-2.729,0-3.67383,1.76074a6.16918,6.16918,0,0,0-.69336,2.06738,18.58653,18.58653,0,0,0-.1875,2.88184A10.18439,10.18439,0,0,0,3.6528,145.96191Z" transform="translate(-0.51022)"/><path class="cls-1" d="M17.228,148.50293H15.93014v-11H17.228v.81445a7.32835,7.32835,0,0,1,3.58594-1.03418q2.19873,0,2.93652,1.166a8.6523,8.6523,0,0,1,.73731,4.26758v5.78613H23.16745V142.7832a8.10045,8.10045,0,0,0-.4834-3.4209,2.14276,2.14276,0,0,0-2.06836-.8916,6.13283,6.13283,0,0,0-1.61719.23145,6.72645,6.72645,0,0,0-1.30859.47265l-.46192.21973Z" transform="translate(-0.51022)"/><path class="cls-1" d="M34.58542,147.40332l.66015-.06641.044,1.07813a35.13429,35.13429,0,0,1-4.20215.30762,3.77362,3.77362,0,0,1-3.32129-1.40821,7.65993,7.65993,0,0,1-.94629-4.26757q0-5.76417,4.53223-5.76368a4.07684,4.07684,0,0,1,3.25586,1.24317,5.99034,5.99034,0,0,1,1.07812,3.9707l-.04394,1.05566H28.16159a5.2324,5.2324,0,0,0,.69336,3.00293,2.70827,2.70827,0,0,0,2.376.9795Q32.914,147.53516,34.58542,147.40332Zm-6.42383-4.9502h6.2041a5.16677,5.16677,0,0,0-.71485-3.10253,2.71423,2.71423,0,0,0-2.28808-.92383,2.95848,2.95848,0,0,0-2.38672.957A4.6987,4.6987,0,0,0,28.16159,142.45312Z" transform="translate(-0.51022)"/><path class="cls-1" d="M42.32956,142.98047q0-3.10107,1.04492-4.39942A4.32828,4.32828,0,0,1,46.938,137.2832a4.33178,4.33178,0,0,1,3.56446,1.29785q1.04444,1.29786,1.04492,4.39942a7.7541,7.7541,0,0,1-.957,4.42285q-.958,1.31982-3.6416,1.31934-2.6836,0-3.65137-1.31934A7.67956,7.67956,0,0,1,42.32956,142.98047Zm1.36328-.03223a7.55567,7.55567,0,0,0,.60547,3.60742q.605,1.002,2.63964,1.001,2.03468,0,2.65137-1.01172a7.45232,7.45232,0,0,0,.61621-3.59668,6.424,6.424,0,0,0-.69336-3.542,2.97255,2.97255,0,0,0-2.56347-.957,2.99328,2.99328,0,0,0-2.5625.94531A6.42167,6.42167,0,0,0,43.69284,142.94824Z" transform="translate(-0.51022)"/><path class="cls-1" d="M55.73385,138.669v9.834H54.41354v-9.834H52.98385v-1.166h1.42969v-1.12207a5.50059,5.50059,0,0,1,.6377-3.15723,2.70884,2.70884,0,0,1,2.2666-.82422l2.13379.10938v1.12207q-1.29786-.044-1.93555-.044a1.55661,1.55661,0,0,0-1.4082.57227,4.53482,4.53482,0,0,0-.374,2.24414v1.09961h3.32227v1.166Z" transform="translate(-0.51022)"/><path class="cls-1" d="M71.06784,138.669H67.394v5.43359a7.97262,7.97262,0,0,0,.30762,2.79394q.30908.66064,1.45214.66016l2.02442-.15332.08789,1.12207a16.22208,16.22208,0,0,1-2.22168.21973,2.80182,2.80182,0,0,1-2.32129-.8252,5.41744,5.41744,0,0,1-.64941-3.15722V138.669H64.44577v-1.166H66.0737v-3.4541H67.394v3.4541h3.67383Z" transform="translate(-0.51022)"/><path class="cls-1" d="M74.38034,148.50293H73.08249V132.61914h1.29785v5.52148a8.45571,8.45571,0,0,1,3.56347-.85742q2.2002,0,2.9375,1.166a8.65479,8.65479,0,0,1,.73633,4.26758v5.78613H80.29831V142.7832a8.25724,8.25724,0,0,0-.47364-3.4209q-.47314-.89208-2.05664-.8916a7.48257,7.48257,0,0,0-1.61719.1875,7.63314,7.63314,0,0,0-1.30859.38477l-.46191.17578Z" transform="translate(-0.51022)"/><path class="cls-1" d="M91.72506,147.40332l.66016-.06641.04395,1.07813a35.13429,35.13429,0,0,1-4.20215.30762,3.77362,3.77362,0,0,1-3.32129-1.40821,7.65993,7.65993,0,0,1-.94629-4.26757q0-5.76417,4.53223-5.76368a4.07683,4.07683,0,0,1,3.25585,1.24317,5.99034,5.99034,0,0,1,1.07813,3.9707l-.04395,1.05566H85.30124a5.23249,5.23249,0,0,0,.69335,3.00293,2.7083,2.7083,0,0,0,2.376.9795Q90.05368,147.53516,91.72506,147.40332Zm-6.42382-4.9502h6.2041a5.16677,5.16677,0,0,0-.71485-3.10253,2.71423,2.71423,0,0,0-2.28808-.92383,2.95848,2.95848,0,0,0-2.38672.957A4.6987,4.6987,0,0,0,85.30124,142.45312Z" transform="translate(-0.51022)"/><path class="cls-2" d="M102.39694,148.50293h-2.10059V128.39941h2.10059v11.8711l2.18359-.11133,4.00391-5.65625h2.37988l-4.56348,6.44043,4.75977,7.55957h-2.37988l-4.17188-6.49609-2.21191.084Z" transform="translate(-0.51022)"/><path class="cls-2" d="M122.31588,146.7666l.81153-.084.05664,1.65234a40.17317,40.17317,0,0,1-5.46.44824q-3.0249,0-4.28418-1.75-1.25977-1.75048-1.25977-5.44629,0-7.36377,5.85156-7.36425a5.36033,5.36033,0,0,1,4.22852,1.582q1.39893,1.582,1.39941,4.9707l-.1123,1.5957h-9.23926a5.73269,5.73269,0,0,0,.83985,3.44336,3.43165,3.43165,0,0,0,2.92578,1.12012Q120.15963,146.93457,122.31588,146.7666Zm-.75586-6.07519a6.08673,6.08673,0,0,0-.82617-3.64063,3.19558,3.19558,0,0,0-2.68847-1.06348,3.44539,3.44539,0,0,0-2.79981,1.11915,5.65893,5.65893,0,0,0-.96582,3.585Z" transform="translate(-0.51022)"/><path class="cls-2" d="M125.04049,134.50293h2.09961l3.5,12.17969h.92383l3.52832-12.17969h2.09961l-5.82324,20.21582H129.268l1.82031-6.21582h-2.07226Z" transform="translate(-0.51022)"/><path class="cls-2" d="M156.23,128.39941v20.10352h-2.07129v-.95215a8.53748,8.53748,0,0,1-4.25586,1.23242,6.20471,6.20471,0,0,1-1.96-.28027,4.0154,4.0154,0,0,1-1.56836-1.00781q-1.51172-1.51173-1.51172-5.58594,0-4.07373,1.35742-5.87988,1.3579-1.80615,4.49414-1.80664a17.64009,17.64009,0,0,1,3.44434.36425v-6.1875Zm-7.2793,18.31153a3.63535,3.63535,0,0,0,1.30176.19629,6.98961,6.98961,0,0,0,1.792-.26661,10.61007,10.61007,0,0,0,1.55371-.51757l.56055-.252v-9.49218a18.19184,18.19184,0,0,0-3.332-.33594,3.20623,3.20623,0,0,0-2.96778,1.3584,8.21475,8.21475,0,0,0-.84082,4.21386q0,3.24756.98047,4.36817A2.411,2.411,0,0,0,148.95065,146.71094Z" transform="translate(-0.51022)"/><path class="cls-2" d="M159.63424,148.50293v-14h2.07227v1.9043a13.63173,13.63173,0,0,1,5.124-2.21192v2.12793a15.18479,15.18479,0,0,0-2.45019.69922,16.21181,16.21181,0,0,0-1.94532.84082l-.70019.36328v10.27637Z" transform="translate(-0.51022)"/><path class="cls-2" d="M169.05905,131.33887v-2.43555h2.10058v2.43555Zm0,17.16406v-14h2.10058v14Z" transform="translate(-0.51022)"/><path class="cls-2" d="M173.48288,134.50293h2.24023l3.27539,12.17969h1.03613l3.3877-12.17969h2.15625l-3.94824,14h-4.19922Z" transform="translate(-0.51022)"/><path class="cls-2" d="M197.07858,146.7666l.81152-.084.05664,1.65234a40.17317,40.17317,0,0,1-5.46.44824q-3.0249,0-4.28418-1.75-1.25976-1.75048-1.25976-5.44629,0-7.36377,5.85156-7.36425a5.36034,5.36034,0,0,1,4.22852,1.582q1.39892,1.582,1.39941,4.9707l-.11231,1.5957h-9.23925a5.73269,5.73269,0,0,0,.83984,3.44336,3.43166,3.43166,0,0,0,2.92578,1.12012Q194.92234,146.93457,197.07858,146.7666Zm-.75586-6.07519a6.0868,6.0868,0,0,0-.82617-3.64063,3.19561,3.19561,0,0,0-2.68848-1.06348,3.44537,3.44537,0,0,0-2.7998,1.11915,5.65887,5.65887,0,0,0-.96582,3.585Z" transform="translate(-0.51022)"/><path class="cls-2" d="M201.15182,148.50293v-14h2.07227v1.9043a13.63173,13.63173,0,0,1,5.124-2.21192v2.12793a15.18451,15.18451,0,0,0-2.45019.69922,16.21181,16.21181,0,0,0-1.94532.84082l-.70019.36328v10.27637Z" transform="translate(-0.51022)"/><path class="cls-2" d="M215.24655,136.09863q-3.05274,0-3.05176,2.12793a1.46937,1.46937,0,0,0,.69922,1.38672,11.88306,11.88306,0,0,0,3.19238.83984,8.50789,8.50789,0,0,1,3.52832,1.21778,3.49993,3.49993,0,0,1,1.03613,2.94043,3.65064,3.65064,0,0,1-1.38671,3.16406,6.82887,6.82887,0,0,1-4.0459,1.00781,25.29428,25.29428,0,0,1-4.08789-.39258l-.83985-.13964.11231-1.82032a35.526,35.526,0,0,0,4.81543.47657,4.82777,4.82777,0,0,0,2.47851-.51856,1.867,1.867,0,0,0,.85352-1.73535,1.76255,1.76255,0,0,0-.72754-1.65234,10.79755,10.79755,0,0,0-3.19238-.82618,8.43028,8.43028,0,0,1-3.5-1.14746,3.26514,3.26514,0,0,1-1.03614-2.80078,3.40059,3.40059,0,0,1,1.44239-3.02344,6.25563,6.25563,0,0,1,3.59765-.98046,29.40707,29.40707,0,0,1,4.28418.39257l.78418.13965-.05664,1.792A36.57,36.57,0,0,0,215.24655,136.09863Z" transform="translate(-0.51022)"/><path class="cls-1" d="M3.25534,168.11621v9.38672H1.99557v-9.38672H.63034v-1.11328H1.99557v-1.07129A5.25335,5.25335,0,0,1,2.604,162.918a2.58624,2.58624,0,0,1,2.16309-.78711l2.03711.10547v1.07031q-1.23927-.041-1.84766-.042a1.48821,1.48821,0,0,0-1.34375.5459,4.33588,4.33588,0,0,0-.35742,2.14257v1.04981h3.1709v1.11328Z" transform="translate(-0.51022)"/><path class="cls-1" d="M7.68991,172.23145a6.79674,6.79674,0,0,1,.998-4.19922,4.1308,4.1308,0,0,1,3.40137-1.23926,4.133,4.133,0,0,1,3.40235,1.23926,6.79745,6.79745,0,0,1,.99707,4.19922,7.39341,7.39341,0,0,1-.91309,4.22167q-.91407,1.25977-3.47559,1.25977-2.562,0-3.48632-1.25977A7.32681,7.32681,0,0,1,7.68991,172.23145Zm1.30176-.03125a7.20444,7.20444,0,0,0,.57812,3.44433q.57716.95508,2.51953.95508t2.53125-.96582a7.11308,7.11308,0,0,0,.58789-3.43359,6.12988,6.12988,0,0,0-.66211-3.38086,2.83718,2.83718,0,0,0-2.44629-.91309,2.8551,2.8551,0,0,0-2.44629.90234A6.12381,6.12381,0,0,0,8.99167,172.2002Z" transform="translate(-0.51022)"/><path class="cls-1" d="M18.84909,177.50293v-10.5h1.23925v1.51172a11.54221,11.54221,0,0,1,1.9004-1.04981,8.94617,8.94617,0,0,1,2.06835-.67187v1.25976a11.67477,11.67477,0,0,0-1.89062.57813,14.89884,14.89884,0,0,0-1.53223.68164l-.5459.31543v7.875Z" transform="translate(-0.51022)"/><path class="cls-1" d="M35.48092,168.11621H31.97409v5.18652a7.596,7.596,0,0,0,.29394,2.667q.29444.62988,1.38574.62988l1.93262-.14649.084,1.07129a15.36537,15.36537,0,0,1-2.1211.21,2.67317,2.67317,0,0,1-2.21582-.78809,5.16951,5.16951,0,0,1-.61914-3.01367v-5.81641H29.16061v-1.11328h1.55371v-3.29688h1.25977v3.29688h3.50683Z" transform="translate(-0.51022)"/><path class="cls-1" d="M38.64889,177.50293H37.40963V162.34082h1.23926v5.27148a8.06417,8.06417,0,0,1,3.40137-.81933,3.0741,3.0741,0,0,1,2.80371,1.11328,8.26058,8.26058,0,0,1,.70312,4.07324v5.52344H44.29733v-5.46a7.89627,7.89627,0,0,0-.45117-3.26563,2.02016,2.02016,0,0,0-1.96387-.85058,7.142,7.142,0,0,0-1.543.17871,7.35918,7.35918,0,0,0-1.25.36719l-.44043.168Z" transform="translate(-0.51022)"/><path class="cls-1" d="M55.21042,176.45312l.62988-.06347.042,1.0293a33.44323,33.44323,0,0,1-4.01172.29394,3.60642,3.60642,0,0,1-3.1709-1.34375,7.32143,7.32143,0,0,1-.90234-4.07422q0-5.502,4.32617-5.50195a3.8916,3.8916,0,0,1,3.10742,1.18652,5.72209,5.72209,0,0,1,1.0293,3.79l-.042,1.00879H49.0776a4.991,4.991,0,0,0,.66211,2.86621,2.586,2.586,0,0,0,2.26758.93457Q53.61423,176.5791,55.21042,176.45312Zm-6.13282-4.72558h5.92285a4.93574,4.93574,0,0,0-.68261-2.96094,2.59061,2.59061,0,0,0-2.18457-.88183,2.82294,2.82294,0,0,0-2.27832.91406A4.4861,4.4861,0,0,0,49.0776,171.72754Z" transform="translate(-0.51022)"/><path class="cls-1" d="M71.77877,177.50293H62.938v-1.0918l4.32618-4.57812q1.05029-1.11328,1.52246-1.66992a6.4207,6.4207,0,0,0,.86133-1.3545,3.65785,3.65785,0,0,0,.38867-1.61621,2.3296,2.3296,0,0,0-.78809-1.99511,4.05124,4.05124,0,0,0-2.4248-.58789,14.35919,14.35919,0,0,0-3.08789.37792l-.56641.126L63.06393,164a14.653,14.653,0,0,1,4.06348-.56738,4.96024,4.96024,0,0,1,3.1709.87207,3.36271,3.36271,0,0,1,1.082,2.78222,4.75895,4.75895,0,0,1-.65137,2.51954,14.96133,14.96133,0,0,1-2.18359,2.60449l-4.03223,4.1582h7.26562Z" transform="translate(-0.51022)"/><path class="cls-1" d="M74.22116,166.33105a4.21049,4.21049,0,0,1,1.64843-2.27832,4.79654,4.79654,0,0,1,2.499-.62011,6.54168,6.54168,0,0,1,2.3418.34668,3.66643,3.66643,0,0,1,1.5332,1.166q1.30224,1.59522,1.30176,5.6377,0,4.043-1.249,5.58594a5.286,5.286,0,0,1-7.44531.02148q-1.23925-1.522-1.23828-5.36523A13.40682,13.40682,0,0,1,74.22116,166.33105Zm6.40527-1.21777a3.53009,3.53009,0,0,0-2.04785-.52539,3.64667,3.64667,0,0,0-2.04688.50391q-1.5747,1.07079-1.57519,5.7539,0,3.25635.88183,4.47364a3.16842,3.16842,0,0,0,2.751,1.21777,3.74884,3.74884,0,0,0,1.97363-.46191q1.63917-1.00782,1.63868-5.25Q82.20163,166.20508,80.62643,165.11328Z" transform="translate(-0.51022)"/><path class="cls-1" d="M91.55905,163.64258v13.86035H90.2778V165.07129l-3.69531,2.47754-.60938-1.00781,4.36816-2.89844Z" transform="translate(-0.51022)"/><path class="cls-1" d="M95.51022,176.30566a29.727,29.727,0,0,0,3.73828.23145q3.88476,0,3.92676-5.166l-.6084.21a10.67933,10.67933,0,0,1-3.23437.62989q-4.49415,0-4.49415-4.17871a4.44386,4.44386,0,0,1,1.292-3.34961,4.755,4.755,0,0,1,3.4541-1.25,4.11051,4.11051,0,0,1,3.7168,1.90039,10.31347,10.31347,0,0,1,1.21875,5.53418q0,3.63281-1.36524,5.23926a5.02291,5.02291,0,0,1-4.05371,1.60644,20.3133,20.3133,0,0,1-3.1709-.25195l-.5459-.084Zm3.90625-5.25a7.5958,7.5958,0,0,0,1.61719-.21,14.42674,14.42674,0,0,0,1.55371-.41992l.60937-.21q-.10547-5.60742-3.6123-5.60644a3.33887,3.33887,0,0,0-2.48828.92382,3.39677,3.39677,0,0,0-.91407,2.499Q96.18209,171.05566,99.41647,171.05566Z" transform="translate(-0.51022)"/><path class="cls-1" d="M107.14889,172.27441v-1.17675h6.38379v1.17675Z" transform="translate(-0.51022)"/><path class="cls-1" d="M123.48385,177.50293H114.643v-1.0918l4.32617-4.57812q1.0503-1.11328,1.52247-1.66992a6.42068,6.42068,0,0,0,.86132-1.3545,3.65773,3.65773,0,0,0,.38868-1.61621,2.3296,2.3296,0,0,0-.78809-1.99511,4.05126,4.05126,0,0,0-2.42481-.58789,14.35933,14.35933,0,0,0-3.08789.37792l-.5664.126L114.769,164a14.653,14.653,0,0,1,4.06348-.56738,4.96019,4.96019,0,0,1,3.17089.87207,3.36271,3.36271,0,0,1,1.082,2.78222,4.75895,4.75895,0,0,1-.65137,2.51954,14.96147,14.96147,0,0,1-2.1836,2.60449l-4.03222,4.1582h7.26562Z" transform="translate(-0.51022)"/><path class="cls-1" d="M126.07565,163.958a16.25112,16.25112,0,0,1,4.18945-.52539,4.96537,4.96537,0,0,1,3.21289.83984,3.35545,3.35545,0,0,1,.99707,2.709,3.19756,3.19756,0,0,1-1.93164,3.04589l-.25195.126a4.1213,4.1213,0,0,1,1.91113,1.1123,3.49225,3.49225,0,0,1,.62989,2.33106,4.06321,4.06321,0,0,1-1.08106,3.09766,4.78032,4.78032,0,0,1-3.37109,1.01855,18.31756,18.31756,0,0,1-3.90625-.41992l-.62989-.126.126-1.09179a21.40749,21.40749,0,0,0,4.30566.46191q3.21242,0,3.2129-2.877,0-2.688-3.04493-2.835h-2.81445v-1.13379h2.793a2.829,2.829,0,0,0,1.82715-.73536,2.46133,2.46133,0,0,0,.88183-1.99511,2.21272,2.21272,0,0,0-.68261-1.81641,3.76471,3.76471,0,0,0-2.34082-.55664,17.66649,17.66649,0,0,0-3.38184.33594l-.52441.10547Z" transform="translate(-0.51022)"/><path class="cls-1" d="M150.54049,179.09863a2.92624,2.92624,0,0,1-1.14453,2.583,6.30181,6.30181,0,0,1-3.55957.79785,5.8352,5.8352,0,0,1-3.33887-.69238,2.99931,2.99931,0,0,1-.92382-2.541,2.4126,2.4126,0,0,1,.37793-1.418,5.92875,5.92875,0,0,1,1.32324-1.22851,1.58617,1.58617,0,0,1-.52539-1.42773,3.9052,3.9052,0,0,1,.5039-1.32325l.168-.31445q-1.72264-.71338-1.72168-3.1709,0-3.56982,3.80078-3.57031a7.66039,7.66039,0,0,1,1.88965.21l.31543.06348,3.04492-.06348v1.11328l-2.09961-.042a3.4243,3.4243,0,0,1,.75586,2.48828,3.08154,3.08154,0,0,1-.95605,2.51953,4.70311,4.70311,0,0,1-3.01367.78809,6.06341,6.06341,0,0,1-1.07031-.084,5.05627,5.05627,0,0,0-.41993,1.30176q0,.69287.40918.85059a10.45268,10.45268,0,0,0,2.44629.168,5.24816,5.24816,0,0,1,2.8877.60937A2.7522,2.7522,0,0,1,150.54049,179.09863Zm-7.707.06348a2.07824,2.07824,0,0,0,.62988,1.74316,4.29233,4.29233,0,0,0,2.43653.48243,4.85865,4.85865,0,0,0,2.583-.51465,1.91024,1.91024,0,0,0,.77636-1.72168q0-1.207-.5664-1.56446a4.47369,4.47369,0,0,0-2.16309-.35742l-2.37305-.084a4.12666,4.12666,0,0,0-1.0498.95605A1.87048,1.87048,0,0,0,142.83346,179.16211Zm.14649-8.80957a2.55581,2.55581,0,0,0,.58886,1.91113,2.847,2.847,0,0,0,1.98438.55664,2.8928,2.8928,0,0,0,1.98437-.5459,2.55647,2.55647,0,0,0,.58789-1.92187,2.63214,2.63214,0,0,0-.58789-1.94238,2.81449,2.81449,0,0,0-1.98437-.56739,2.77255,2.77255,0,0,0-1.98438.57813A2.63157,2.63157,0,0,0,142.98,170.35254Z" transform="translate(-0.51022)"/><path class="cls-1" d="M152.6401,177.50293V162.34082h1.23926v15.16211Z" transform="translate(-0.51022)"/><path class="cls-1" d="M156.32467,172.23145a6.79667,6.79667,0,0,1,.99805-4.19922,5.28879,5.28879,0,0,1,6.80371,0,6.79738,6.79738,0,0,1,.99707,4.19922,7.39342,7.39342,0,0,1-.91308,4.22167q-.91407,1.25977-3.47559,1.25977-2.562,0-3.48633-1.25977A7.32689,7.32689,0,0,1,156.32467,172.23145Zm1.30176-.03125a7.20429,7.20429,0,0,0,.57813,3.44433q.57714.95508,2.51953.95508t2.53125-.96582a7.11308,7.11308,0,0,0,.58789-3.43359,6.13,6.13,0,0,0-.66211-3.38086,3.75025,3.75025,0,0,0-4.89258-.01075A6.1237,6.1237,0,0,0,157.62643,172.2002Z" transform="translate(-0.51022)"/><path class="cls-1" d="M172.00924,166.793a3.26084,3.26084,0,0,1,2.91895,1.21777,7.93133,7.93133,0,0,1,.81933,4.21094,6.6978,6.6978,0,0,1-1.04,4.24219q-1.03859,1.24952-3.874,1.249a28.09117,28.09117,0,0,1-2.81445-.168l-.5459-.042V162.34082h1.26074v5.22949A7.57648,7.57648,0,0,1,172.00924,166.793Zm-3.27539,9.66015q1.46923.126,2.36231.126a4.80989,4.80989,0,0,0,1.60644-.252,2.11486,2.11486,0,0,0,1.10254-.85059,3.52856,3.52856,0,0,0,.51465-1.36523,13.01355,13.01355,0,0,0,.126-2.02637,6.98064,6.98064,0,0,0-.53614-3.19238,2.08621,2.08621,0,0,0-2.00488-.96582,6.93139,6.93139,0,0,0-1.51269.17871,7.369,7.369,0,0,0-1.23829.36719l-.41992.168Z" transform="translate(-0.51022)"/><path class="cls-1" d="M185.46432,170.13184v5.62793q.08351.77783,1.36524.92382l-.06348,1.00879a3.04055,3.04055,0,0,1-2.373-.84082,9.79857,9.79857,0,0,1-3.94726.86133,2.749,2.749,0,0,1-2.14258-.80859,3.31394,3.31394,0,0,1-.73438-2.30957,2.98007,2.98007,0,0,1,.74512-2.22657,3.8722,3.8722,0,0,1,2.3418-.89257l3.56933-.35645v-.9873a2.32611,2.32611,0,0,0-.51367-1.69043,1.86184,1.86184,0,0,0-1.376-.51465,31.12626,31.12626,0,0,0-3.48633.25195l-.65039.06348-.06348-1.00781a21.84834,21.84834,0,0,1,4.043-.44141,3.33119,3.33119,0,0,1,2.50976.81933A3.55124,3.55124,0,0,1,185.46432,170.13184Zm-6.59375,4.38867q0,2.12256,1.74317,2.12109a8.59655,8.59655,0,0,0,1.65918-.17773,10.31393,10.31393,0,0,0,1.42773-.36817l.52441-.18847v-3.80176l-3.42285.35742a1.80871,1.80871,0,0,0-1.93164,2.05762Z" transform="translate(-0.51022)"/><path class="cls-1" d="M188.69186,177.50293V162.34082h1.23926v15.16211Z" transform="translate(-0.51022)"/><path class="cls-1" d="M197.4067,182.22754V167.00293H198.646v.79785a6.48755,6.48755,0,0,1,3.4541-1.00781,3.0792,3.0792,0,0,1,2.709,1.28125,7.476,7.476,0,0,1,.89258,4.168,6.63865,6.63865,0,0,1-1.04981,4.17969,4.24884,4.24884,0,0,1-3.48633,1.291,11.44219,11.44219,0,0,1-2.51953-.27344v4.78809Zm4.43067-14.30078a5.37287,5.37287,0,0,0-1.49121.23144,5.86267,5.86267,0,0,0-1.23828.48242l-.46192.23145v7.47559a14.521,14.521,0,0,0,2.47754.252,2.92352,2.92352,0,0,0,2.541-1.01856,5.87724,5.87724,0,0,0,.73535-3.35937,6.345,6.345,0,0,0-.64063-3.31836A2.146,2.146,0,0,0,201.83737,167.92676Z" transform="translate(-0.51022)"/><path class="cls-1" d="M215.08249,176.45312l.62988-.06347.042,1.0293a33.44309,33.44309,0,0,1-4.01172.29394,3.60642,3.60642,0,0,1-3.1709-1.34375,7.32143,7.32143,0,0,1-.90234-4.07422q0-5.502,4.32617-5.50195a3.8916,3.8916,0,0,1,3.10742,1.18652,5.72209,5.72209,0,0,1,1.0293,3.79l-.042,1.00879h-7.14063a4.991,4.991,0,0,0,.66211,2.86621,2.586,2.586,0,0,0,2.26758.93457Q213.4863,176.5791,215.08249,176.45312Zm-6.13282-4.72558h5.92285a4.93574,4.93574,0,0,0-.68261-2.96094,2.59061,2.59061,0,0,0-2.18457-.88183,2.82294,2.82294,0,0,0-2.27832.91406A4.4861,4.4861,0,0,0,208.94967,171.72754Z" transform="translate(-0.51022)"/><path class="cls-1" d="M223.7485,168.11621h-3.50683v5.18652a7.596,7.596,0,0,0,.29394,2.667q.29443.62988,1.38574.62988l1.93262-.14649.084,1.07129a15.36526,15.36526,0,0,1-2.12109.21,2.67317,2.67317,0,0,1-2.21582-.78809,5.16943,5.16943,0,0,1-.61914-3.01367v-5.81641h-1.55371v-1.11328h1.55371v-3.29688h1.25977v3.29688h3.50683Z" transform="translate(-0.51022)"/><path class="cls-1" d="M9.42917,191.34082v15.16211H8.1694v-.77734a6.50685,6.50685,0,0,1-3.36035.9873,4.49222,4.49222,0,0,1-1.34375-.17871A3.22592,3.22592,0,0,1,2.31,205.83105q-1.19678-1.07079-1.19628-4.18945a7.69618,7.69618,0,0,1,1.00781-4.4834A3.95276,3.95276,0,0,1,5.52389,195.793a18.16922,18.16922,0,0,1,2.64551.27344v-4.72559ZM4.02194,205.43164a2.87647,2.87647,0,0,0,1.00781.14746,5.27066,5.27066,0,0,0,1.42774-.23144,9.447,9.447,0,0,0,1.2705-.44043l.44141-.23145V197.1582a18.83393,18.83393,0,0,0-2.60352-.25195,2.67741,2.67741,0,0,0-2.46777,1.0918,6.53515,6.53515,0,0,0-.68262,3.38086q0,2.688.81934,3.50683A2.278,2.278,0,0,0,4.02194,205.43164Z" transform="translate(-0.51022)"/><path class="cls-1" d="M12.14206,193.37793v-1.5752h1.23925v1.5752Zm0,13.125v-10.5h1.23925v10.5Z" transform="translate(-0.51022)"/><path class="cls-1" d="M23.146,205.45312l.62988-.06347.042,1.0293a33.44323,33.44323,0,0,1-4.01172.29394,3.60642,3.60642,0,0,1-3.1709-1.34375,7.32143,7.32143,0,0,1-.90234-4.07422q0-5.502,4.32617-5.50195a3.89161,3.89161,0,0,1,3.10742,1.18652,5.72209,5.72209,0,0,1,1.0293,3.79l-.042,1.00879H17.01315a4.99089,4.99089,0,0,0,.66211,2.86621,2.586,2.586,0,0,0,2.26758.93457Q21.54978,205.5791,23.146,205.45312Zm-6.13281-4.72558H22.936a4.93566,4.93566,0,0,0-.68262-2.96094,2.59059,2.59059,0,0,0-2.18457-.88183,2.823,2.823,0,0,0-2.27832.91406A4.48616,4.48616,0,0,0,17.01315,200.72754Z" transform="translate(-0.51022)"/><path class="cls-1" d="M31.812,197.11621H28.30514v5.18652a7.59589,7.59589,0,0,0,.29395,2.667q.29444.62988,1.38574.62988l1.93262-.14649.084,1.07129a15.3654,15.3654,0,0,1-2.12109.21,2.67314,2.67314,0,0,1-2.21582-.78809,5.16943,5.16943,0,0,1-.61914-3.01367v-5.81641H25.49167v-1.11328h1.55371v-3.29688h1.25976v3.29688H31.812Z" transform="translate(-0.51022)"/><path class="cls-1" d="M41.16745,199.13184v5.62793q.08349.77783,1.36523.92382l-.06348,1.00879a3.04053,3.04053,0,0,1-2.373-.84082,9.79862,9.79862,0,0,1-3.94727.86133,2.74905,2.74905,0,0,1-2.14258-.80859,3.314,3.314,0,0,1-.73437-2.30957,2.98007,2.98007,0,0,1,.74512-2.22657,3.87219,3.87219,0,0,1,2.34179-.89257l3.56934-.35645v-.9873a2.32615,2.32615,0,0,0-.51367-1.69043,1.86185,1.86185,0,0,0-1.376-.51465,31.12642,31.12642,0,0,0-3.48633.25195l-.65039.06348-.06348-1.00781a21.84834,21.84834,0,0,1,4.043-.44141,3.33122,3.33122,0,0,1,2.50977.81933A3.55124,3.55124,0,0,1,41.16745,199.13184Zm-6.59375,4.38867q0,2.12256,1.74316,2.12109a8.59647,8.59647,0,0,0,1.65918-.17773,10.31354,10.31354,0,0,0,1.42773-.36817l.52442-.18847v-3.80176l-3.42285.35742a1.80871,1.80871,0,0,0-1.93164,2.05762Z" transform="translate(-0.51022)"/><path class="cls-1" d="M44.33444,206.50293v-10.5H45.5737v1.51172a11.54166,11.54166,0,0,1,1.90039-1.04981,8.94608,8.94608,0,0,1,2.06836-.67187v1.25976a11.67456,11.67456,0,0,0-1.89063.57813,14.89984,14.89984,0,0,0-1.53223.68164l-.54589.31543v7.875Z" transform="translate(-0.51022)"/><path class="cls-1" d="M50.84713,196.00293h1.28028l2.793,9.4082h.75683l2.81348-9.4082h1.28125l-4.53613,15.22461H53.976l1.40625-4.72461H53.93405Z" transform="translate(-0.51022)"/><path class="cls-1" d="M69.26413,196.94824q-2.47852,0-2.47852,1.78516a1.2454,1.2454,0,0,0,.54688,1.1543,8.32187,8.32187,0,0,0,2.46679.6621,6.80278,6.80278,0,0,1,2.709.89258,2.52419,2.52419,0,0,1,.78808,2.17285,2.70981,2.70981,0,0,1-1.02929,2.35254,5.12787,5.12787,0,0,1-3.02442.74512,19.52775,19.52775,0,0,1-2.98144-.29394l-.60938-.084.084-1.11328a25.954,25.954,0,0,0,3.6123.35742,3.6963,3.6963,0,0,0,1.96387-.4414,1.62143,1.62143,0,0,0,.70312-1.49122A1.5,1.5,0,0,0,71.438,202.25a8.12129,8.12129,0,0,0-2.47851-.63965,6.688,6.688,0,0,1-2.67774-.84082,2.35719,2.35719,0,0,1-.77636-2.05762,2.43338,2.43338,0,0,1,1.07031-2.20507,4.7772,4.7772,0,0,1,2.64648-.69336,22.81465,22.81465,0,0,1,3.14942.27343l.56738.084-.042,1.11328A25.77376,25.77376,0,0,0,69.26413,196.94824Z" transform="translate(-0.51022)"/><path class="cls-1" d="M82.08639,196.00293h1.23926v10.5H82.08639v-.77734a6.16278,6.16278,0,0,1-3.23437.9873q-2.14161,0-2.82422-1.0918a8.58558,8.58558,0,0,1-.68262-4.13671v-5.48145h1.23926v5.46a7.88792,7.88792,0,0,0,.45117,3.27637q.45117.83936,1.96387.83984a5.5039,5.5039,0,0,0,1.51172-.2207,5.33521,5.33521,0,0,0,1.17578-.45117l.39941-.21Z" transform="translate(-0.51022)"/><path class="cls-1" d="M86.05514,211.22754V196.00293H87.2944v.79785a6.48752,6.48752,0,0,1,3.4541-1.00781,3.0792,3.0792,0,0,1,2.709,1.28125,7.47605,7.47605,0,0,1,.89257,4.168,6.63865,6.63865,0,0,1-1.0498,4.17969,4.24887,4.24887,0,0,1-3.48633,1.291,11.44213,11.44213,0,0,1-2.51953-.27344v4.78809Zm4.43067-14.30078a5.373,5.373,0,0,0-1.49122.23144,5.86311,5.86311,0,0,0-1.23828.48242l-.46191.23145v7.47559a14.52085,14.52085,0,0,0,2.47754.252,2.92349,2.92349,0,0,0,2.541-1.01856,5.87715,5.87715,0,0,0,.73536-3.35937,6.345,6.345,0,0,0-.64063-3.31836A2.146,2.146,0,0,0,90.48581,196.92676Z" transform="translate(-0.51022)"/><path class="cls-1" d="M96.69967,211.22754V196.00293h1.23926v.79785a6.48752,6.48752,0,0,1,3.4541-1.00781,3.0792,3.0792,0,0,1,2.709,1.28125,7.47605,7.47605,0,0,1,.89257,4.168,6.63865,6.63865,0,0,1-1.0498,4.17969,4.24886,4.24886,0,0,1-3.48633,1.291,11.44213,11.44213,0,0,1-2.51953-.27344v4.78809Zm4.43067-14.30078a5.37287,5.37287,0,0,0-1.49121.23144,5.863,5.863,0,0,0-1.23829.48242l-.46191.23145v7.47559a14.52085,14.52085,0,0,0,2.47754.252,2.92352,2.92352,0,0,0,2.541-1.01856,5.87724,5.87724,0,0,0,.73535-3.35937,6.345,6.345,0,0,0-.64063-3.31836A2.146,2.146,0,0,0,101.13034,196.92676Z" transform="translate(-0.51022)"/><path class="cls-1" d="M107.396,206.50293V191.34082h1.23926v15.16211Z" transform="translate(-0.51022)"/><path class="cls-1" d="M118.46139,205.45312l.62988-.06347.042,1.0293a33.44323,33.44323,0,0,1-4.01172.29394,3.60642,3.60642,0,0,1-3.1709-1.34375,7.32143,7.32143,0,0,1-.90234-4.07422q0-5.502,4.32617-5.50195a3.89161,3.89161,0,0,1,3.10742,1.18652,5.72209,5.72209,0,0,1,1.0293,3.79l-.042,1.00879h-7.14062a4.99089,4.99089,0,0,0,.66211,2.86621,2.586,2.586,0,0,0,2.26758.93457Q116.86521,205.5791,118.46139,205.45312Zm-6.13281-4.72558h5.92285a4.93566,4.93566,0,0,0-.68262-2.96094,2.59059,2.59059,0,0,0-2.18457-.88183,2.823,2.823,0,0,0-2.27832.91406A4.4861,4.4861,0,0,0,112.32858,200.72754Z" transform="translate(-0.51022)"/><path class="cls-1" d="M122.93209,206.50293h-1.23925v-10.5h1.23925v.77734a6.35391,6.35391,0,0,1,3.40137-.9873,2.87054,2.87054,0,0,1,2.5625,1.11328,7.92718,7.92718,0,0,1,1.83692-.78809,6.82167,6.82167,0,0,1,1.94238-.32519,3.08587,3.08587,0,0,1,2.80371,1.10254,8.2535,8.2535,0,0,1,.7041,4.084v5.52344h-1.23926v-5.46a7.87532,7.87532,0,0,0-.45214-3.26563q-.45119-.85107-1.9629-.85058a5.79868,5.79868,0,0,0-1.55371.2207,5.90628,5.90628,0,0,0-1.21875.45117l-.41992.21a10.56719,10.56719,0,0,1,.31543,3.23438v5.46h-1.25976v-5.418a8.03845,8.03845,0,0,0-.45215-3.30762,1.99493,1.99493,0,0,0-1.94239-.85058,6.21262,6.21262,0,0,0-2.667.67187l-.39844.21Z" transform="translate(-0.51022)"/><path class="cls-1" d="M145.83639,205.45312l.62988-.06347.042,1.0293a33.44323,33.44323,0,0,1-4.01172.29394,3.60642,3.60642,0,0,1-3.1709-1.34375,7.32143,7.32143,0,0,1-.90234-4.07422q0-5.502,4.32617-5.50195a3.89161,3.89161,0,0,1,3.10742,1.18652,5.72209,5.72209,0,0,1,1.0293,3.79l-.042,1.00879h-7.14062a4.99089,4.99089,0,0,0,.66211,2.86621,2.586,2.586,0,0,0,2.26758.93457Q144.2402,205.5791,145.83639,205.45312Zm-6.13281-4.72558h5.92285a4.93566,4.93566,0,0,0-.68262-2.96094,2.59059,2.59059,0,0,0-2.18457-.88183,2.823,2.823,0,0,0-2.27832.91406A4.4861,4.4861,0,0,0,139.70358,200.72754Z" transform="translate(-0.51022)"/><path class="cls-1" d="M150.30319,206.50293h-1.23926v-10.5h1.23926v.77734a6.99521,6.99521,0,0,1,3.42285-.9873,3.07218,3.07218,0,0,1,2.80273,1.11328,8.24682,8.24682,0,0,1,.70411,4.07324v5.52344h-1.25977v-5.46a7.735,7.735,0,0,0-.46191-3.26563,2.04617,2.04617,0,0,0-1.97461-.85058,5.83755,5.83755,0,0,0-1.543.2207,6.47545,6.47545,0,0,0-1.25.45117l-.44043.21Z" transform="translate(-0.51022)"/><path class="cls-1" d="M165.19088,197.11621h-3.50683v5.18652a7.596,7.596,0,0,0,.29394,2.667q.29443.62988,1.38575.62988l1.93261-.14649.084,1.07129a15.36537,15.36537,0,0,1-2.1211.21,2.67317,2.67317,0,0,1-2.21582-.78809,5.16951,5.16951,0,0,1-.61914-3.01367v-5.81641h-1.55371v-1.11328h1.55371v-3.29688h1.25977v3.29688h3.50683Z" transform="translate(-0.51022)"/><path class="cls-1" d="M170.51315,196.94824q-2.47851,0-2.47852,1.78516a1.2454,1.2454,0,0,0,.54688,1.1543,8.32187,8.32187,0,0,0,2.4668.6621,6.80266,6.80266,0,0,1,2.709.89258,2.52419,2.52419,0,0,1,.78809,2.17285,2.70979,2.70979,0,0,1-1.0293,2.35254,5.12783,5.12783,0,0,1-3.02441.74512,19.52775,19.52775,0,0,1-2.98145-.29394l-.60938-.084.084-1.11328a25.954,25.954,0,0,0,3.6123.35742,3.69627,3.69627,0,0,0,1.96387-.4414,1.62144,1.62144,0,0,0,.70313-1.49122A1.5,1.5,0,0,0,172.687,202.25a8.12138,8.12138,0,0,0-2.47852-.63965,6.68793,6.68793,0,0,1-2.67773-.84082,2.35716,2.35716,0,0,1-.77637-2.05762,2.4334,2.4334,0,0,1,1.07031-2.20507,4.77724,4.77724,0,0,1,2.64649-.69336,22.81452,22.81452,0,0,1,3.14941.27343l.56738.084-.042,1.11328A25.7735,25.7735,0,0,0,170.51315,196.94824Z" transform="translate(-0.51022)"/><path class="cls-1" d="M182.52584,206.50293h-1.23925v-10.5h1.23925v.77734a6.35391,6.35391,0,0,1,3.40137-.9873,2.87054,2.87054,0,0,1,2.5625,1.11328,7.92718,7.92718,0,0,1,1.83692-.78809,6.82167,6.82167,0,0,1,1.94238-.32519,3.08587,3.08587,0,0,1,2.80371,1.10254,8.2535,8.2535,0,0,1,.7041,4.084v5.52344h-1.23926v-5.46a7.87532,7.87532,0,0,0-.45214-3.26563q-.45119-.85107-1.9629-.85058a5.79868,5.79868,0,0,0-1.55371.2207,5.90628,5.90628,0,0,0-1.21875.45117l-.41992.21a10.56719,10.56719,0,0,1,.31543,3.23438v5.46h-1.25976v-5.418a8.03845,8.03845,0,0,0-.45215-3.30762,1.99493,1.99493,0,0,0-1.94239-.85058,6.21262,6.21262,0,0,0-2.667.67187l-.39844.21Z" transform="translate(-0.51022)"/><path class="cls-1" d="M205.71139,199.13184v5.62793q.08351.77783,1.36524.92382l-.06348,1.00879a3.04055,3.04055,0,0,1-2.37305-.84082,9.79857,9.79857,0,0,1-3.94726.86133,2.749,2.749,0,0,1-2.14258-.80859,3.31394,3.31394,0,0,1-.73438-2.30957,2.98007,2.98007,0,0,1,.74512-2.22657,3.8722,3.8722,0,0,1,2.3418-.89257l3.56933-.35645v-.9873a2.32611,2.32611,0,0,0-.51367-1.69043,1.86184,1.86184,0,0,0-1.376-.51465,31.12626,31.12626,0,0,0-3.48633.25195l-.65039.06348-.06348-1.00781a21.84834,21.84834,0,0,1,4.043-.44141,3.33119,3.33119,0,0,1,2.50976.81933A3.55124,3.55124,0,0,1,205.71139,199.13184Zm-6.59375,4.38867q0,2.12256,1.74317,2.12109a8.59655,8.59655,0,0,0,1.65918-.17773,10.31393,10.31393,0,0,0,1.42773-.36817l.52441-.18847v-3.80176l-3.42285.35742a1.80871,1.80871,0,0,0-1.93164,2.05762Z" transform="translate(-0.51022)"/><path class="cls-1" d="M208.87838,206.50293v-10.5h1.23926v1.51172a11.54249,11.54249,0,0,1,1.90039-1.04981,8.94639,8.94639,0,0,1,2.06836-.67187v1.25976a11.67446,11.67446,0,0,0-1.89062.57813,14.89785,14.89785,0,0,0-1.53223.68164l-.5459.31543v7.875Z" transform="translate(-0.51022)"/><path class="cls-1" d="M217.12741,206.50293h-1.23926V191.34082h1.23926v9.03027l1.78418-.042,3.23437-4.32617h1.44922l-3.59082,4.80859,3.75879,5.69141h-1.46973l-3.36035-5.06055-1.80566.042Z" transform="translate(-0.51022)"/><path class="cls-1" d="M232.10885,205.45312l.62989-.06347.042,1.0293a33.44323,33.44323,0,0,1-4.01172.29394,3.60642,3.60642,0,0,1-3.1709-1.34375,7.32143,7.32143,0,0,1-.90234-4.07422q0-5.502,4.32617-5.50195a3.89161,3.89161,0,0,1,3.10742,1.18652,5.72209,5.72209,0,0,1,1.0293,3.79l-.042,1.00879H225.976a4.99089,4.99089,0,0,0,.66211,2.86621,2.586,2.586,0,0,0,2.26758.93457Q230.51267,205.5791,232.10885,205.45312Zm-6.13281-4.72558h5.92285a4.93566,4.93566,0,0,0-.68262-2.96094,2.59059,2.59059,0,0,0-2.18457-.88183,2.823,2.823,0,0,0-2.27832.91406A4.48616,4.48616,0,0,0,225.976,200.72754Z" transform="translate(-0.51022)"/><path class="cls-1" d="M240.77487,197.11621H237.268v5.18652a7.59589,7.59589,0,0,0,.29395,2.667q.29444.62988,1.38574.62988l1.93262-.14649.084,1.07129a15.3654,15.3654,0,0,1-2.12109.21,2.67314,2.67314,0,0,1-2.21582-.78809,5.16943,5.16943,0,0,1-.61914-3.01367v-5.81641h-1.55371v-1.11328h1.55371v-3.29688H237.268v3.29688h3.50684Z" transform="translate(-0.51022)"/><path class="cls-1" d="M.69381,225.00293H1.97409l2.31054,9.4082h.29395l2.72949-9.19824H8.63131l2.73047,9.19824h.31446l2.31054-9.4082h1.28028l-2.625,10.5h-2.1836l-2.47754-8.65234-2.499,8.65234H3.31881Z" transform="translate(-0.51022)"/><path class="cls-1" d="M17.25436,222.37793v-1.5752h1.23926v1.5752Zm0,13.125v-10.5h1.23926v10.5Z" transform="translate(-0.51022)"/><path class="cls-1" d="M21.271,235.50293V220.34082h1.23926v15.16211Z" transform="translate(-0.51022)"/><path class="cls-1" d="M25.34909,235.50293V220.34082h1.23925v15.16211Z" transform="translate(-0.51022)"/><path class="cls-1" d="M38.57858,224.793a3.2608,3.2608,0,0,1,2.91894,1.21777,7.93132,7.93132,0,0,1,.81934,4.21094,6.69773,6.69773,0,0,1-1.04,4.24219q-1.03857,1.24952-3.874,1.249a28.09152,28.09152,0,0,1-2.81446-.168l-.54589-.042V220.34082h1.26074v5.22949A7.57644,7.57644,0,0,1,38.57858,224.793Zm-3.27539,9.66015q1.46923.126,2.3623.126a4.80991,4.80991,0,0,0,1.60645-.252,2.11494,2.11494,0,0,0,1.10254-.85059,3.52872,3.52872,0,0,0,.51465-1.36523,13.01374,13.01374,0,0,0,.126-2.02637,6.9808,6.9808,0,0,0-.53613-3.19238,2.08622,2.08622,0,0,0-2.00488-.96582,6.93148,6.93148,0,0,0-1.5127.17871,7.36918,7.36918,0,0,0-1.23828.36719l-.41992.168Z" transform="translate(-0.51022)"/><path class="cls-1" d="M51.69674,234.45312l.62989-.06347.042,1.0293a33.44323,33.44323,0,0,1-4.01172.29394,3.60642,3.60642,0,0,1-3.1709-1.34375,7.32143,7.32143,0,0,1-.90234-4.07422q0-5.502,4.32617-5.50195a3.89161,3.89161,0,0,1,3.10742,1.18652,5.72209,5.72209,0,0,1,1.0293,3.79l-.042,1.00879H45.56393a4.99089,4.99089,0,0,0,.66211,2.86621,2.586,2.586,0,0,0,2.26758.93457Q50.10056,234.5791,51.69674,234.45312Zm-6.13281-4.72558h5.92285a4.93574,4.93574,0,0,0-.68261-2.96094,2.59062,2.59062,0,0,0-2.18458-.88183,2.823,2.823,0,0,0-2.27832.91406A4.48616,4.48616,0,0,0,45.56393,229.72754Z" transform="translate(-0.51022)"/><path class="cls-1" d="M64.84225,226.11621H61.33542v5.18652a7.596,7.596,0,0,0,.29394,2.667q.29444.62988,1.38574.62988l1.93262-.14649.084,1.07129a15.36526,15.36526,0,0,1-2.12109.21,2.67317,2.67317,0,0,1-2.21582-.78809,5.16943,5.16943,0,0,1-.61914-3.01367v-5.81641H58.52194v-1.11328h1.55371v-3.29688h1.25977v3.29688h3.50683Z" transform="translate(-0.51022)"/><path class="cls-1" d="M68.01022,235.50293H66.771V220.34082h1.23926v5.27148a8.06417,8.06417,0,0,1,3.40137-.81933,3.0741,3.0741,0,0,1,2.80371,1.11328,8.26058,8.26058,0,0,1,.70312,4.07324v5.52344H73.65866v-5.46a7.89627,7.89627,0,0,0-.45117-3.26563,2.02016,2.02016,0,0,0-1.96387-.85058,7.14192,7.14192,0,0,0-1.543.17871,7.3589,7.3589,0,0,0-1.25.36719l-.44043.168Z" transform="translate(-0.51022)"/><path class="cls-1" d="M84.57174,234.45312l.62989-.06347.042,1.0293a33.44323,33.44323,0,0,1-4.01172.29394,3.60642,3.60642,0,0,1-3.1709-1.34375,7.32143,7.32143,0,0,1-.90234-4.07422q0-5.502,4.32617-5.50195a3.89161,3.89161,0,0,1,3.10742,1.18652,5.72209,5.72209,0,0,1,1.0293,3.79l-.042,1.00879H78.43893a4.99089,4.99089,0,0,0,.66211,2.86621,2.586,2.586,0,0,0,2.26758.93457Q82.97555,234.5791,84.57174,234.45312Zm-6.13281-4.72558h5.92285a4.93574,4.93574,0,0,0-.68261-2.96094,2.59062,2.59062,0,0,0-2.18458-.88183,2.823,2.823,0,0,0-2.27832.91406A4.48616,4.48616,0,0,0,78.43893,229.72754Z" transform="translate(-0.51022)"/><path class="cls-1" d="M92.53073,235.50293V220.34082H93.77v15.16211Z" transform="translate(-0.51022)"/><path class="cls-1" d="M103.80709,228.13184v5.62793q.0835.77783,1.36524.92382l-.06348,1.00879a3.04053,3.04053,0,0,1-2.373-.84082,9.79862,9.79862,0,0,1-3.94727.86133,2.749,2.749,0,0,1-2.14258-.80859,3.314,3.314,0,0,1-.73437-2.30957,2.98007,2.98007,0,0,1,.74511-2.22657,3.87222,3.87222,0,0,1,2.3418-.89257l3.56934-.35645v-.9873a2.32615,2.32615,0,0,0-.51367-1.69043,1.86185,1.86185,0,0,0-1.376-.51465,31.12626,31.12626,0,0,0-3.48633.25195l-.65039.06348-.06348-1.00781a21.84834,21.84834,0,0,1,4.043-.44141,3.33122,3.33122,0,0,1,2.50977.81933A3.55124,3.55124,0,0,1,103.80709,228.13184Zm-6.59375,4.38867q0,2.12256,1.74317,2.12109a8.59647,8.59647,0,0,0,1.65918-.17773,10.31354,10.31354,0,0,0,1.42773-.36817l.52442-.18847v-3.80176l-3.42285.35742a1.80873,1.80873,0,0,0-1.93165,2.05762Z" transform="translate(-0.51022)"/><path class="cls-1" d="M113.37448,225.00293h1.23926v10.5h-1.23926v-.77734a6.16281,6.16281,0,0,1-3.23438.9873q-2.14159,0-2.82422-1.0918a8.58573,8.58573,0,0,1-.68261-4.13671v-5.48145h1.23925v5.46a7.88787,7.88787,0,0,0,.45118,3.27637q.45117.83936,1.96386.83984a5.50385,5.50385,0,0,0,1.51172-.2207,5.3348,5.3348,0,0,0,1.17578-.45117l.39942-.21Z" transform="translate(-0.51022)"/><path class="cls-1" d="M118.58249,235.50293h-1.23926v-10.5h1.23926v.77734a6.99521,6.99521,0,0,1,3.42285-.9873,3.07218,3.07218,0,0,1,2.80273,1.11328,8.24685,8.24685,0,0,1,.7041,4.07324v5.52344h-1.25976v-5.46a7.73478,7.73478,0,0,0-.46192-3.26563,2.04615,2.04615,0,0,0-1.97461-.85058,5.83754,5.83754,0,0,0-1.543.2207,6.4752,6.4752,0,0,0-1.25.45117l-.44043.21Z" transform="translate(-0.51022)"/><path class="cls-1" d="M132.12936,224.793a14.43689,14.43689,0,0,1,2.24609.21l.4834.06348-.0625,1.07031a21.78651,21.78651,0,0,0-2.457-.21,3.04488,3.04488,0,0,0-2.5625.91406,5.85,5.85,0,0,0-.69336,3.35938,6.64771,6.64771,0,0,0,.63086,3.41308q.62988.96534,2.625.96582l2.499-.18945.042,1.07129a23.00667,23.00667,0,0,1-2.77246.25195q-2.499,0-3.41211-1.23926a7.4242,7.4242,0,0,1-.91407-4.26269q0-3.02344.99805-4.22071A4.13871,4.13871,0,0,1,132.12936,224.793Z" transform="translate(-0.51022)"/><path class="cls-1" d="M138.18893,235.50293h-1.23926V220.34082h1.23926v5.27148a8.06417,8.06417,0,0,1,3.40137-.81933,3.0741,3.0741,0,0,1,2.80371,1.11328,8.26058,8.26058,0,0,1,.70312,4.07324v5.52344h-1.25976v-5.46a7.89627,7.89627,0,0,0-.45117-3.26563,2.02016,2.02016,0,0,0-1.96387-.85058,7.14192,7.14192,0,0,0-1.543.17871,7.35918,7.35918,0,0,0-1.25.36719l-.44043.168Z" transform="translate(-0.51022)"/><path class="cls-1" d="M151.90084,230.23145a6.79667,6.79667,0,0,1,.99805-4.19922,5.28879,5.28879,0,0,1,6.80371,0,6.79738,6.79738,0,0,1,.99707,4.19922,7.39342,7.39342,0,0,1-.91308,4.22167q-.91407,1.25977-3.47559,1.25977-2.562,0-3.48633-1.25977A7.32689,7.32689,0,0,1,151.90084,230.23145Zm1.30176-.03125a7.20442,7.20442,0,0,0,.57813,3.44433q.57714.95508,2.51953.95508t2.53125-.96582a7.11308,7.11308,0,0,0,.58789-3.43359,6.12988,6.12988,0,0,0-.66211-3.38086,3.75025,3.75025,0,0,0-4.89258-.01075A6.12379,6.12379,0,0,0,153.2026,230.2002Z" transform="translate(-0.51022)"/><path class="cls-1" d="M164.70065,226.11621v9.38672h-1.25977v-9.38672h-1.36523v-1.11328h1.36523v-1.07129a5.25335,5.25335,0,0,1,.6084-3.01367,2.58625,2.58625,0,0,1,2.16309-.78711l2.03711.10547v1.07031q-1.23926-.041-1.84766-.042a1.48822,1.48822,0,0,0-1.34375.5459,4.33588,4.33588,0,0,0-.35742,2.14257v1.04981h3.1709v1.11328Z" transform="translate(-0.51022)"/><path class="cls-2" d="M4.11667,266.50293H2.01608V246.39941H4.11667v6.8877a10.03873,10.03873,0,0,1,4.31152-1.06445q2.79931,0,3.7666,1.51269.96533,1.51171.96582,5.376v7.3916H11.06V259.167a9.47568,9.47568,0,0,0-.57324-3.99023,2.49107,2.49107,0,0,0-2.42187-1.07813,9.31334,9.31334,0,0,0-3.416.64453l-.53222.19532Z" transform="translate(-0.51022)"/><path class="cls-2" d="M16.45846,249.33887v-2.43555h2.10059v2.43555Zm0,17.16406v-14h2.10059v14Z" transform="translate(-0.51022)"/><path class="cls-2" d="M27.228,273.083q-3.36034,0-4.68945-.91016a3.738,3.738,0,0,1-1.33008-3.31836,3.15681,3.15681,0,0,1,.50391-1.86133,7.81438,7.81438,0,0,1,1.708-1.61035,2.166,2.166,0,0,1-.78418-1.93164,4.81881,4.81881,0,0,1,.70019-1.76465l.25195-.44726q-2.2119-1.00782-2.21191-4.22852,0-4.7871,5.23535-4.78808a10.51027,10.51027,0,0,1,2.49219.28027l.41992.084,4.14453-.1123v1.792l-2.66015-.05566a3.80686,3.80686,0,0,1,.92382,2.7998q0,2.63232-1.30175,3.68262a6.51616,6.51616,0,0,1-4.10254,1.0498,7.65519,7.65519,0,0,1-1.37207-.1123,5.87905,5.87905,0,0,0-.50391,1.5957q0,.86865.53223,1.07813a13.26456,13.26456,0,0,0,3.21972.21,6.81669,6.81669,0,0,1,3.86426.83984q1.17627.84082,1.17578,3.27637Q33.44381,273.08252,27.228,273.083Zm-3.94824-4.39649a2.33485,2.33485,0,0,0,.82617,2.0586,5.73525,5.73525,0,0,0,3.05176.57422,6.19408,6.19408,0,0,0,3.19238-.61622,2.25374,2.25374,0,0,0,.96582-2.05859q0-1.44141-.70019-1.86133a5.98545,5.98545,0,0,0-2.74317-.41992l-3.02441-.14062a4.93856,4.93856,0,0,0-1.24609,1.17675A2.34876,2.34876,0,0,0,23.27975,268.68652Zm.19629-11.67578a3.12888,3.12888,0,0,0,.74219,2.35254,3.5065,3.5065,0,0,0,2.45019.69922,3.45326,3.45326,0,0,0,2.43555-.69922,4.20695,4.20695,0,0,0,0-4.73242,3.45784,3.45784,0,0,0-2.43555-.7002,3.46191,3.46191,0,0,0-2.45019.71387A3.18092,3.18092,0,0,0,23.476,257.01074Z" transform="translate(-0.51022)"/><path class="cls-2" d="M38.02389,266.50293H35.92331V246.39941h2.10058v6.8877a10.03881,10.03881,0,0,1,4.31153-1.06445q2.79932,0,3.7666,1.51269.96533,1.51171.96582,5.376v7.3916H44.96725V259.167a9.47584,9.47584,0,0,0-.57324-3.99023,2.49108,2.49108,0,0,0-2.42188-1.07813,9.31329,9.31329,0,0,0-3.416.64453l-.53223.19532Z" transform="translate(-0.51022)"/><path class="cls-2" d="M61.20651,266.7832a4.69323,4.69323,0,0,1-4.0459-1.65234q-1.21875-1.65234-1.21777-5.59961,0-3.94776,1.45605-5.62793,1.45459-1.68018,5.15137-1.68066l4.67578.28027v20.21582H65.15475v-6.85937A9.19345,9.19345,0,0,1,61.20651,266.7832ZM62.57858,254.043q-2.63232,0-3.57031,1.31641a7.3252,7.3252,0,0,0-.9375,4.18554,8.19276,8.19276,0,0,0,.76953,4.11621,2.80325,2.80325,0,0,0,2.58984,1.2461,8.87486,8.87486,0,0,0,3.2207-.61621l.50391-.19629v-9.88379Q63.41745,254.04248,62.57858,254.043Z" transform="translate(-0.51022)"/><path class="cls-2" d="M79.4028,252.50293h2.09961v14H79.4028v-.98047a8.01259,8.01259,0,0,1-4.14356,1.26074q-2.85644,0-3.79394-1.48437-.939-1.48389-.93848-5.48828v-7.30762h2.09961v7.28027a10.30812,10.30812,0,0,0,.53223,4.08789q.53173,1.03564,2.4082,1.03614a6.934,6.934,0,0,0,1.876-.26661,8.5224,8.5224,0,0,0,1.456-.51757l.50391-.252Z" transform="translate(-0.51022)"/><path class="cls-2" d="M94.82565,256.73047v7.16894q.08349,1.03564,1.624,1.23145l-.084,1.65234a4.51782,4.51782,0,0,1-3.332-1.12011,12.31762,12.31762,0,0,1-5.04,1.12011,3.80586,3.80586,0,0,1-2.94043-1.09179,4.46231,4.46231,0,0,1-1.00781-3.13672,3.93114,3.93114,0,0,1,1.03613-3.00977,5.49953,5.49953,0,0,1,3.24805-1.19043l4.3955-.41992v-1.2041a2.81736,2.81736,0,0,0-.61621-2.044,2.2707,2.2707,0,0,0-1.67968-.61523,40.48926,40.48926,0,0,0-4.64747.2793l-.86816.084-.084-1.5957a28.25231,28.25231,0,0,1,5.46-.61621,3.90531,3.90531,0,0,1,4.53613,4.50781Zm-8.624,5.71289q0,2.5752,2.12793,2.57519a11.32363,11.32363,0,0,0,3.75195-.64355l.64355-.22363v-4.62012l-4.14355.3916a2.697,2.697,0,0,0-1.82031.72852A2.57283,2.57283,0,0,0,86.20163,262.44336Z" transform="translate(-0.51022)"/><path class="cls-2" d="M98.75827,266.50293V246.39941h2.10058v20.10352Z" transform="translate(-0.51022)"/><path class="cls-2" d="M104.33053,249.33887v-2.43555h2.10059v2.43555Zm0,17.16406v-14h2.10059v14Z" transform="translate(-0.51022)"/><path class="cls-2" d="M117.29147,254.32324H112.8403v6.69141a9.03755,9.03755,0,0,0,.34961,3.16406q.3501.75586,1.666.75586l2.49219-.168.13965,1.73633a19.18654,19.18654,0,0,1-2.85547.30762,3.65872,3.65872,0,0,1-3.02441-1.06348q-.83935-1.06347-.83985-4.06055v-7.36328h-1.98828v-1.82031H110.768v-4.28418h2.07227v4.28418h4.45117Z" transform="translate(-0.51022)"/><path class="cls-2" d="M118.92135,252.50293H121.021l3.5,12.17969h.92383l3.52832-12.17969h2.09961l-5.82324,20.21582h-2.10059l1.82031-6.21582h-2.07226Z" transform="translate(-0.51022)"/><path class="cls-2" d="M150.11178,246.39941v20.10352h-2.07129v-.95215a8.53746,8.53746,0,0,1-4.25586,1.23242,6.20471,6.20471,0,0,1-1.96-.28027,4.01554,4.01554,0,0,1-1.56836-1.00781q-1.51172-1.51173-1.51172-5.58594,0-4.07373,1.35743-5.87988,1.3579-1.80615,4.49414-1.80664a17.63991,17.63991,0,0,1,3.44433.36425v-6.1875Zm-7.27929,18.31153a3.63529,3.63529,0,0,0,1.30175.19629,6.98962,6.98962,0,0,0,1.792-.26661,10.61049,10.61049,0,0,0,1.55371-.51757l.56054-.252v-9.49218a18.19167,18.19167,0,0,0-3.332-.33594,3.20622,3.20622,0,0,0-2.96777,1.3584,8.21464,8.21464,0,0,0-.84082,4.21386q0,3.24756.98047,4.36817A2.411,2.411,0,0,0,142.83249,264.71094Z" transform="translate(-0.51022)"/><path class="cls-2" d="M153.50729,249.33887v-2.43555h2.10059v2.43555Zm0,17.16406v-14h2.10059v14Z" transform="translate(-0.51022)"/><path class="cls-2" d="M168.63327,264.7666l.81152-.084.05664,1.65234a40.17317,40.17317,0,0,1-5.46.44824q-3.0249,0-4.28418-1.75-1.25976-1.75048-1.25977-5.44629,0-7.36377,5.85157-7.36425a5.36032,5.36032,0,0,1,4.22851,1.582q1.39893,1.582,1.39942,4.9707l-.11231,1.5957h-9.23926a5.73269,5.73269,0,0,0,.83985,3.44336,3.43165,3.43165,0,0,0,2.92578,1.12012Q166.477,264.93457,168.63327,264.7666Zm-.75586-6.07519a6.0868,6.0868,0,0,0-.82617-3.64063,3.19562,3.19562,0,0,0-2.68848-1.06348,3.44539,3.44539,0,0,0-2.79981,1.11915,5.65893,5.65893,0,0,0-.96582,3.585Z" transform="translate(-0.51022)"/><path class="cls-2" d="M180.08151,254.32324h-4.45117v6.69141a9.03755,9.03755,0,0,0,.34961,3.16406q.35008.75586,1.666.75586l2.49219-.168.13965,1.73633a19.18654,19.18654,0,0,1-2.85547.30762,3.65871,3.65871,0,0,1-3.02441-1.06348q-.83937-1.06347-.83985-4.06055v-7.36328h-1.98828v-1.82031h1.98828v-4.28418h2.07227v4.28418h4.45117Z" transform="translate(-0.51022)"/><path class="cls-2" d="M192.62448,256.73047v7.16894q.08349,1.03564,1.624,1.23145l-.084,1.65234a4.51782,4.51782,0,0,1-3.332-1.12011,12.31766,12.31766,0,0,1-5.04,1.12011,3.80586,3.80586,0,0,1-2.94043-1.09179,4.46232,4.46232,0,0,1-1.00782-3.13672,3.93114,3.93114,0,0,1,1.03614-3.00977,5.49952,5.49952,0,0,1,3.248-1.19043l4.39551-.41992v-1.2041a2.8174,2.8174,0,0,0-.61621-2.044,2.27073,2.27073,0,0,0-1.67969-.61523,40.48909,40.48909,0,0,0-4.64746.2793l-.86816.084-.084-1.5957a28.25248,28.25248,0,0,1,5.46-.61621,3.90531,3.90531,0,0,1,4.53614,4.50781Zm-8.624,5.71289q0,2.5752,2.12793,2.57519a11.32364,11.32364,0,0,0,3.752-.64355l.64355-.22363v-4.62012l-4.14355.3916a2.697,2.697,0,0,0-1.82032.72852A2.57288,2.57288,0,0,0,184.00045,262.44336Z" transform="translate(-0.51022)"/><path class="cls-2" d="M196.47506,266.50293v-14h2.07227v1.9043a13.63173,13.63173,0,0,1,5.124-2.21192v2.12793a15.18479,15.18479,0,0,0-2.45019.69922,16.21181,16.21181,0,0,0-1.94532.84082l-.70019.36328v10.27637Z" transform="translate(-0.51022)"/><path class="cls-2" d="M205.25924,252.50293h2.09961l3.5,12.17969h.92383l3.52832-12.17969h2.09961l-5.82324,20.21582h-2.10059l1.82031-6.21582h-2.07226Z" transform="translate(-0.51022)"/><path class="cls-2" d="M6.41256,284.09863q-3.05272,0-3.05175,2.12793A1.46939,1.46939,0,0,0,4.06,287.61328a11.88305,11.88305,0,0,0,3.19239.83984,8.50795,8.50795,0,0,1,3.52832,1.21778,3.49993,3.49993,0,0,1,1.03613,2.94043,3.65063,3.65063,0,0,1-1.38672,3.16406,6.82887,6.82887,0,0,1-4.0459,1.00781,25.29439,25.29439,0,0,1-4.08789-.39258l-.83984-.13964.1123-1.82032a35.5261,35.5261,0,0,0,4.81543.47657,4.82781,4.82781,0,0,0,2.47852-.51856,1.86706,1.86706,0,0,0,.85351-1.73535,1.76255,1.76255,0,0,0-.72753-1.65234,10.79765,10.79765,0,0,0-3.19239-.82618,8.43028,8.43028,0,0,1-3.5-1.14746,3.26514,3.26514,0,0,1-1.03613-2.80078,3.40061,3.40061,0,0,1,1.44238-3.02344,6.25569,6.25569,0,0,1,3.59766-.98046,29.40719,29.40719,0,0,1,4.28418.39257l.78418.13965-.05664,1.792A36.57,36.57,0,0,0,6.41256,284.09863Z" transform="translate(-0.51022)"/><path class="cls-2" d="M23.17819,282.50293H25.2778v14H23.17819v-.98047a8.01259,8.01259,0,0,1-4.14356,1.26074q-2.85643,0-3.79394-1.48437-.939-1.48389-.93848-5.48828v-7.30762h2.09961v7.28027a10.30812,10.30812,0,0,0,.53223,4.08789q.53174,1.03564,2.4082,1.03614a6.934,6.934,0,0,0,1.876-.26661,8.5224,8.5224,0,0,0,1.45605-.51757l.50391-.252Z" transform="translate(-0.51022)"/><path class="cls-2" d="M28.67135,302.71875V282.50293h2.07227v1.00781a8.07816,8.07816,0,0,1,4.20019-1.28808,4.41333,4.41333,0,0,1,3.86426,1.69433q1.20264,1.69483,1.2041,5.58594,0,3.8921-1.41406,5.58594-1.415,1.69482-4.69043,1.69433a14.90153,14.90153,0,0,1-3.13574-.30859v6.24414Zm5.96485-18.62012a6.51715,6.51715,0,0,0-1.80664.28028,9.42485,9.42485,0,0,0-1.52539.55957l-.53223.28027v9.43652a21.48239,21.48239,0,0,0,3.02344.30762,3.6246,3.6246,0,0,0,3.17871-1.28809,7.45329,7.45329,0,0,0,.90918-4.20019,7.76,7.76,0,0,0-.8252-4.14356A2.73173,2.73173,0,0,0,34.6362,284.09863Z" transform="translate(-0.51022)"/><path class="cls-2" d="M42.89889,302.71875V282.50293h2.07227v1.00781a8.07816,8.07816,0,0,1,4.20019-1.28808,4.41333,4.41333,0,0,1,3.86426,1.69433q1.20264,1.69483,1.2041,5.58594,0,3.8921-1.41406,5.58594-1.415,1.69482-4.69043,1.69433a14.90153,14.90153,0,0,1-3.13574-.30859v6.24414Zm5.96485-18.62012a6.51727,6.51727,0,0,0-1.80665.28028,9.42557,9.42557,0,0,0-1.52539.55957l-.53222.28027v9.43652a21.48239,21.48239,0,0,0,3.02344.30762,3.62461,3.62461,0,0,0,3.17871-1.28809,7.45329,7.45329,0,0,0,.90918-4.20019,7.76,7.76,0,0,0-.8252-4.14356A2.73173,2.73173,0,0,0,48.86374,284.09863Z" transform="translate(-0.51022)"/><path class="cls-2" d="M57.226,296.50293V276.39941h2.10059v20.10352Z" transform="translate(-0.51022)"/><path class="cls-2" d="M72.44967,294.7666l.81153-.084.05664,1.65234a40.17329,40.17329,0,0,1-5.46.44824q-3.02491,0-4.28418-1.75-1.25978-1.75048-1.25977-5.44629,0-7.36377,5.85156-7.36425a5.36033,5.36033,0,0,1,4.22852,1.582q1.39893,1.582,1.39941,4.9707l-.1123,1.5957H64.44186a5.73276,5.73276,0,0,0,.83984,3.44336,3.43167,3.43167,0,0,0,2.92579,1.12012Q70.29342,294.93457,72.44967,294.7666Zm-.75586-6.07519a6.08673,6.08673,0,0,0-.82617-3.64063,3.19558,3.19558,0,0,0-2.68847-1.06348,3.44537,3.44537,0,0,0-2.79981,1.11915,5.65887,5.65887,0,0,0-.96582,3.585Z" transform="translate(-0.51022)"/><path class="cls-2" d="M78.6235,296.50293H76.52292v-14h2.07226v.98047a7.93037,7.93037,0,0,1,4.08789-1.26074,4.20723,4.20723,0,0,1,3.64063,1.42871,10.2245,10.2245,0,0,1,2.39355-.99414,9.31488,9.31488,0,0,1,2.58984-.43457q2.79933,0,3.76661,1.498.96533,1.49854.96582,5.39063v7.3916H93.93893V289.167a9.6797,9.6797,0,0,0-.55957-3.99023,2.42824,2.42824,0,0,0-2.37988-1.07813,7.241,7.241,0,0,0-1.9043.2666,9.56248,9.56248,0,0,0-1.51172.51758l-.53222.252a14.02518,14.02518,0,0,1,.36425,4.08789v7.28027H85.31491V289.2793a10.297,10.297,0,0,0-.5459-4.10254,2.42313,2.42313,0,0,0-2.39356-1.07813,6.68742,6.68742,0,0,0-1.834.2666,8.67424,8.67424,0,0,0-1.44238.51758l-.47559.252Z" transform="translate(-0.51022)"/><path class="cls-2" d="M108.9194,294.7666l.81152-.084.05664,1.65234a40.17317,40.17317,0,0,1-5.46.44824q-3.0249,0-4.28418-1.75-1.25976-1.75048-1.25976-5.44629,0-7.36377,5.85156-7.36425a5.36033,5.36033,0,0,1,4.22852,1.582q1.39891,1.582,1.39941,4.9707l-.11231,1.5957h-9.23925a5.73269,5.73269,0,0,0,.83984,3.44336,3.43166,3.43166,0,0,0,2.92578,1.12012Q106.76316,294.93457,108.9194,294.7666Zm-.75586-6.07519a6.0868,6.0868,0,0,0-.82617-3.64063,3.19561,3.19561,0,0,0-2.68848-1.06348,3.44537,3.44537,0,0,0-2.7998,1.11915,5.65887,5.65887,0,0,0-.96582,3.585Z" transform="translate(-0.51022)"/><path class="cls-2" d="M115.09323,296.50293h-2.10059v-14h2.07227v.98047a8.94185,8.94185,0,0,1,4.33984-1.26074q2.79931,0,3.7666,1.51269.96534,1.51172.96582,5.376v7.3916h-2.07226V289.167a9.45585,9.45585,0,0,0-.57422-3.99023,2.52038,2.52038,0,0,0-2.44922-1.07813,7.29957,7.29957,0,0,0-1.89063.2666,9.42224,9.42224,0,0,0-1.52539.51758l-.53222.252Z" transform="translate(-0.51022)"/><path class="cls-2" d="M134.67038,284.32324H130.2192v6.69141a9.03779,9.03779,0,0,0,.34961,3.16406q.3501.75586,1.666.75586l2.49219-.168.13965,1.73633a19.18654,19.18654,0,0,1-2.85547.30762,3.65873,3.65873,0,0,1-3.02442-1.06348q-.83936-1.06347-.83984-4.06055v-7.36328h-1.98828v-1.82031h1.98828v-4.28418h2.07226v4.28418h4.45118Z" transform="translate(-0.51022)"/><path class="cls-2" d="M141.72409,284.09863q-3.05274,0-3.05176,2.12793a1.46937,1.46937,0,0,0,.69922,1.38672,11.88294,11.88294,0,0,0,3.19238.83984,8.50795,8.50795,0,0,1,3.52832,1.21778,3.49993,3.49993,0,0,1,1.03613,2.94043,3.65064,3.65064,0,0,1-1.38671,3.16406,6.82889,6.82889,0,0,1-4.0459,1.00781,25.29428,25.29428,0,0,1-4.08789-.39258l-.83985-.13964.11231-1.82032a35.526,35.526,0,0,0,4.81543.47657,4.8278,4.8278,0,0,0,2.47851-.51856,1.867,1.867,0,0,0,.85352-1.73535,1.76255,1.76255,0,0,0-.72754-1.65234,10.79765,10.79765,0,0,0-3.19238-.82618,8.43028,8.43028,0,0,1-3.5-1.14746,3.26514,3.26514,0,0,1-1.03614-2.80078,3.40059,3.40059,0,0,1,1.44239-3.02344,6.25563,6.25563,0,0,1,3.59765-.98046,29.40719,29.40719,0,0,1,4.28418.39257l.78418.13965-.05664,1.792A36.57,36.57,0,0,0,141.72409,284.09863Z" transform="translate(-0.51022)"/><path class="cls-2" d="M213.14192,40.10222a2.96273,2.96273,0,0,0,.37761-.02317,3.05794,3.05794,0,1,0-.37761.02317Zm-.15058-4.35063a1.45421,1.45421,0,0,1,.15753-.00927,1.28877,1.28877,0,1,1-.15753.00927Z" transform="translate(-0.51022)"/><path class="cls-3" d="M213.14206,40.35254a3.31928,3.31928,0,0,1-.39649-6.61426,3.22927,3.22927,0,0,1,2.419.65918,3.31871,3.31871,0,0,1-1.61426,5.92969A3.181,3.181,0,0,1,213.14206,40.35254Zm.03222-6.14356a2.71056,2.71056,0,0,0-.36523.0254,2.81859,2.81859,0,0,0-1.39844,5.01855,2.74653,2.74653,0,0,0,2.07715.57812,2.81868,2.81868,0,0,0,1.37109-5.03808A2.7521,2.7521,0,0,0,213.17428,34.209Zm-.01953,4.36329a1.5398,1.5398,0,0,1-.19336-3.06836h.00293a1.54,1.54,0,0,1,.37012,3.05761A1.59686,1.59686,0,0,1,213.15475,38.57227ZM213.021,36a1.04049,1.04049,0,1,0,1.16016.90625A1.04346,1.04346,0,0,0,213.021,36Z" transform="translate(-0.51022)"/><path class="cls-2" d="M224.256,38.747a2.96284,2.96284,0,0,0,.37761-.02317,3.06937,3.06937,0,0,0,1.52087-5.46376,3.07,3.07,0,0,0-4.93906,2.78806v.00116A3.06866,3.06866,0,0,0,224.256,38.747ZM223.2459,34.8817a1.29031,1.29031,0,1,1-.26526.95329A1.28438,1.28438,0,0,1,223.2459,34.8817Z" transform="translate(-0.51022)"/><path class="cls-3" d="M224.25631,38.99707a3.32085,3.32085,0,1,1,3.30078-3.72168,3.3242,3.3242,0,0,1-2.89355,3.69629A3.15511,3.15511,0,0,1,224.25631,38.99707Zm.01856-6.14062a2.8441,2.8441,0,0,0-.35156.02246,2.81944,2.81944,0,0,0-1.39844,5.01953,2.74769,2.74769,0,0,0,2.07617.57715,2.8192,2.8192,0,0,0,1.39941-5.01856A2.78719,2.78719,0,0,0,224.27487,32.85645Zm-.00293,4.36035a1.53968,1.53968,0,0,1-1.22363-2.48828l.001-.001a1.54646,1.54646,0,1,1,1.22266,2.48926Zm-.83008-2.18067a1.04728,1.04728,0,0,0-.21289.76953,1.06191,1.06191,0,0,0,1.16113.90528,1.04578,1.04578,0,0,0,.90625-1.16114,1.04508,1.04508,0,0,0-1.16113-.90527A1.04506,1.04506,0,0,0,223.44186,35.03613Z" transform="translate(-0.51022)"/><path class="cls-2" d="M219.33775,44.71579a3.11,3.11,0,0,0,.37181-.02317,3.064,3.064,0,1,0-.37181.02317Zm-.15754-4.35179a1.29132,1.29132,0,1,1-1.12356,1.43862A1.288,1.288,0,0,1,219.18021,40.364Z" transform="translate(-0.51022)"/><path class="cls-3" d="M219.33737,44.96582a3.31988,3.31988,0,0,1-.40137-6.61523,3.26451,3.26451,0,0,1,2.4375.6748,3.3218,3.3218,0,0,1-2.03613,5.94043Zm.01269-6.1416a2.86008,2.86008,0,0,0-.35254.02246,2.823,2.823,0,1,0,2.06836.57324A2.781,2.781,0,0,0,219.35006,38.82422Zm.00879,4.36035a1.54005,1.54005,0,0,1-.21-3.06836,1.507,1.507,0,0,1,1.13086.30859,1.54306,1.54306,0,0,1-.75391,2.751A1.59376,1.59376,0,0,1,219.35885,43.18457Zm-.01367-2.581a1.01273,1.01273,0,0,0-.13281.00878h-.00195a1.037,1.037,0,1,0,.76269.207A1.02335,1.02335,0,0,0,219.34518,40.60352Z" transform="translate(-0.51022)"/><path class="cls-2" d="M212.0728,62.97314a3.05657,3.05657,0,0,0,2.08612,1.08418h.00116c.088.00695.17491.00927.26178.00927a3.067,3.067,0,1,0-2.34906-1.09345Zm1.51971-2.963a1.2899,1.2899,0,0,1,2.11508,1.09808,1.30707,1.30707,0,0,1-1.39693,1.17569,1.2908,1.2908,0,0,1-.71815-2.27377Z" transform="translate(-0.51022)"/><path class="cls-3" d="M214.42233,64.31641c-.09277,0-.18652-.002-.28223-.00977a3.31406,3.31406,0,0,1-2.25879-1.17285h0a3.32,3.32,0,0,1,.4043-4.67578,3.319,3.319,0,0,1,5.44336,2.82617A3.33857,3.33857,0,0,1,214.42233,64.31641Zm-2.1582-1.50489a2.81523,2.81523,0,0,0,1.917.99707c.08008.00586.16015.00782.24121.00782a2.83526,2.83526,0,0,0,2.80859-2.5752,2.8191,2.8191,0,1,0-4.96679,1.57031Zm2.11523-.27539c-.02637,0-.05371-.001-.08008-.002a1.54163,1.54163,0,0,1-.86816-2.71582l.001-.001a1.5773,1.5773,0,0,1,1.12305-.35351,1.541,1.541,0,0,1,1.40137,1.667A1.55961,1.55961,0,0,1,214.37936,62.53613Zm-.626-2.335a1.04055,1.04055,0,0,0,.58008,1.834,1.062,1.062,0,0,0,1.125-.94825,1.04055,1.04055,0,0,0-.94726-1.125A1.0138,1.0138,0,0,0,213.75338,60.20117Z" transform="translate(-0.51022)"/><path class="cls-2" d="M215.12148,52.90044c.08919.0081.17722.01158.26525.01158a3.07544,3.07544,0,1,0-.26525-.01158Zm.26294-4.34832c.03706,0,.07413.00116.1112.00464a1.29126,1.29126,0,1,1-.1112-.00464Z" transform="translate(-0.51022)"/><path class="cls-3" d="M215.38717,53.16211c-.09668,0-.1914-.00391-.28711-.0127a3.3184,3.3184,0,0,1-3.02148-3.59375,3.31949,3.31949,0,1,1,3.30859,3.60645Zm.00391-6.13867a2.81895,2.81895,0,0,0-2.16309,4.63379,2.79607,2.79607,0,0,0,1.915.99414h0a2.81955,2.81955,0,0,0,.48535-5.61817C215.54831,47.02637,215.4692,47.02344,215.39108,47.02344Zm.00391,4.36035a1.449,1.449,0,0,1-.14551-.00684A1.54147,1.54147,0,0,1,213.851,49.71a1.54033,1.54033,0,1,1,2.50879,1.31934A1.50749,1.50749,0,0,1,215.395,51.38379Zm-.01075-2.582a1.04671,1.04671,0,0,0-1.03515.95117,1.03532,1.03532,0,0,0,1.69238.89062,1.03558,1.03558,0,0,0-.56738-1.83789C215.44577,48.80371,215.41452,48.80176,215.38424,48.80176Z" transform="translate(-0.51022)"/><path class="cls-2" d="M219.94586,58.94915h.00116c.08919.00811.17722.01159.26525.01159a3.06907,3.06907,0,0,0,2.34791-5.04446,3.0413,3.0413,0,0,0-2.085-1.083,3.06938,3.06938,0,0,0-.52935,6.1159Zm.37645-4.34368a1.29219,1.29219,0,0,1,1.17453,1.39693,1.29048,1.29048,0,1,1-1.17453-1.39693Z" transform="translate(-0.51022)"/><path class="cls-3" d="M220.21237,59.21094c-.09473,0-.19043-.00391-.28711-.0127h-.001a3.31944,3.31944,0,0,1,.57129-6.61426,3.31964,3.31964,0,0,1,3.02246,3.59278A3.33858,3.33858,0,0,1,220.21237,59.21094Zm-.24512-.51074c.084.00683.16406.01074.24512.01074A2.836,2.836,0,0,0,223.02,56.13379a2.82111,2.82111,0,0,0-2.56641-3.05176,2.81959,2.81959,0,0,0-.48633,5.61817Zm.24024-1.26856c-.043,0-.085-.002-.12793-.00586a1.53807,1.53807,0,0,1-.84668-2.72168,1.50217,1.50217,0,0,1,1.11328-.34765,1.54313,1.54313,0,0,1,1.39941,1.667A1.54838,1.54838,0,0,1,220.20749,57.43164Zm-.00684-2.582a1.01236,1.01236,0,0,0-.64844.23926,1.03811,1.03811,0,0,0,.56934,1.83886,1.0541,1.0541,0,0,0,1.126-.94726,1.04251,1.04251,0,0,0-.94726-1.126h-.002A.82928.82928,0,0,0,220.20065,54.84961Z" transform="translate(-0.51022)"/><path class="cls-2" d="M155.19261,68.69753V54.1491a.88982.88982,0,0,0-.88959-.88959h-4.9182v-3.7344a.88982.88982,0,0,0-.88959-.88959H124.722a.88981.88981,0,0,0-.88958.88959v3.7344H99.19273V43.12542a.88981.88981,0,0,0-.88958-.88959H93.83321L91.38685,23.08774a.88916.88916,0,0,0-.88263-.77723H78.10214a.89.89,0,0,0-.88263.77723L74.77083,42.23583H65.35605l-2.4452-19.14809a.88916.88916,0,0,0-.88264-.77723H49.62382a.88886.88886,0,0,0-.88379.78881l-3.4263,30.16019H27.57415a.8898.8898,0,0,0-.0695,1.77686v53.53729a.88981.88981,0,0,0,.88958.88959h1.49886l-.97675,2.84511h1.88111l1.18293-3.44512a.88966.88966,0,0,0-.84094-1.17916H29.28382V55.03868H66.50973V53.25951H47.10463l3.3138-29.16983H61.24519L63.5624,42.23583H55.62273V44.015H75.55385a.89.89,0,0,0,.88264-.77723l2.44867-19.1481h10.836l2.31836,18.14615H84.09874V44.015H97.41356V54.1491a.88981.88981,0,0,0,.88959.88958H124.722a.88981.88981,0,0,0,.88959-.88958V50.41469h21.99408V54.1491a.88981.88981,0,0,0,.88958.88958h4.9182v57.26968h1.77918v-5.80345h12.66732v-1.77917H155.19261v-4.0124h12.66732V98.93417H155.19261Z" transform="translate(-0.51022)"/><path class="cls-3" d="M155.44284,112.55859h-2.2793V55.28906h-4.66846a1.14124,1.14124,0,0,1-1.13965-1.13965V50.665H125.86178v3.48437a1.14124,1.14124,0,0,1-1.13965,1.13965H98.30319a1.14124,1.14124,0,0,1-1.13965-1.13965V44.26465H83.8486v-2.2793h7.90674l-2.2544-17.64551H79.10543L76.68454,43.26855a1.142,1.142,0,0,1-1.13086.9961H55.37252v-2.2793h7.90577L61.02487,24.33984H50.64157L47.38424,53.00977H66.75973v2.27929H29.53366v52.14453h1.606a1.13959,1.13959,0,0,1,1.07715,1.51075L30.976,112.55859H28.56637l.97656-2.8457H28.394a1.14113,1.14113,0,0,1-1.13916-1.13965V55.24316a1.1395,1.1395,0,0,1,.31933-2.23339H45.09079l3.40088-29.93848A1.13813,1.13813,0,0,1,49.624,22.06055h12.4043a1.14149,1.14149,0,0,1,1.13037.99609l2.41748,18.92871h8.97461l2.4209-18.92871a1.14147,1.14147,0,0,1,1.13037-.99609H90.50436a1.14147,1.14147,0,0,1,1.13037.99609l2.41846,18.92871h4.25A1.14124,1.14124,0,0,1,99.44284,43.125v9.88477h24.13965V49.52539a1.14123,1.14123,0,0,1,1.13964-1.13965h23.77295a1.14124,1.14124,0,0,1,1.13965,1.13965v3.48438h4.66846a1.14123,1.14123,0,0,1,1.13965,1.13964V98.68457h12.667v2.27832h-12.667v3.5127h12.667v2.27929h-12.667Zm-1.7793-.5h1.2793v-5.80371h12.667v-1.27929h-12.667v-4.5127h12.667V99.18457h-12.667V54.14941a.64058.64058,0,0,0-.63965-.63964h-5.16846V49.52539a.64059.64059,0,0,0-.63965-.63965H124.72213a.64058.64058,0,0,0-.63964.63965v3.98438H98.94284V43.125a.64059.64059,0,0,0-.63965-.63965H93.61276L91.13864,23.11914a.64054.64054,0,0,0-.63428-.55859H78.102a.64054.64054,0,0,0-.63428.55859L74.99118,42.48535H65.13571L62.66256,23.11914a.64053.64053,0,0,0-.63427-.55859H49.624a.63861.63861,0,0,0-.63525.56738L45.53708,53.50977H27.57418a.63964.63964,0,0,0-.0498,1.27734l.23047.01758v53.76855a.64017.64017,0,0,0,.63916.63965h1.84912l-.97656,2.8457h1.352l1.12549-3.27636a.64071.64071,0,0,0-.6045-.84864H29.03366V54.78906H66.25973V53.50977H46.82467l.03125-.27832,3.33936-29.39161h11.27l2.38135,18.64551H55.87252v1.2793H75.55368a.641.641,0,0,0,.63476-.5586L78.665,23.83984H89.94137L92.3237,42.48535H84.3486v1.2793H97.66354V54.14941a.64059.64059,0,0,0,.63965.63965h26.41894a.64059.64059,0,0,0,.63965-.63965V50.165h22.49365v3.98437a.64059.64059,0,0,0,.63965.63965h5.16846Z" transform="translate(-0.51022)"/><rect class="cls-2" x="118.07965" y="67.66431" width="1.77917" height="44.64405"/><path class="cls-3" d="M120.61911,112.55859h-2.2793V67.41406h2.2793Zm-1.7793-.5h1.2793V67.91406h-1.2793Z" transform="translate(-0.51022)"/><rect class="cls-2" x="30.99409" y="99.97202" width="9.85262" height="1.77917"/><path class="cls-3" d="M41.6069,102.001H31.25436v-2.2793H41.6069Zm-9.85254-.5H41.1069v-1.2793H31.75436Z" transform="translate(-0.51022)"/><rect class="cls-2" x="45.52051" y="99.97202" width="9.8561" height="1.77917"/><path class="cls-3" d="M56.13668,102.001H45.78073v-2.2793h10.356Zm-9.85595-.5h9.356v-1.2793H46.28073Z" transform="translate(-0.51022)"/><rect class="cls-2" x="60.05041" y="99.97202" width="9.85146" height="1.77917"/><path class="cls-3" d="M70.66208,102.001H60.31051v-2.2793H70.66208Zm-9.85157-.5h9.35157v-1.2793H60.81051Z" transform="translate(-0.51022)"/><rect class="cls-2" x="74.57683" y="99.97202" width="9.85262" height="1.77917"/><path class="cls-3" d="M85.18991,102.001h-10.353v-2.2793h10.353Zm-9.853-.5h9.353v-1.2793h-9.353Z" transform="translate(-0.51022)"/><rect class="cls-2" x="89.10441" y="99.97202" width="9.85378" height="1.77917"/><path class="cls-3" d="M99.71823,102.001H89.36471v-2.2793H99.71823Zm-9.85352-.5h9.35352v-1.2793H89.86471Z" transform="translate(-0.51022)"/><rect class="cls-2" x="103.63199" y="99.97202" width="9.85378" height="1.77917"/><path class="cls-3" d="M114.24606,102.001h-10.354v-2.2793h10.354Zm-9.854-.5h9.354v-1.2793h-9.354Z" transform="translate(-0.51022)"/><rect class="cls-2" x="30.99409" y="86.9711" width="9.85262" height="1.77917"/><path class="cls-3" d="M41.6069,89H31.25436V86.7207H41.6069Zm-9.85254-.5H41.1069V87.2207H31.75436Z" transform="translate(-0.51022)"/><rect class="cls-2" x="45.52051" y="86.9711" width="9.8561" height="1.77917"/><path class="cls-3" d="M56.13668,89H45.78073V86.7207h10.356Zm-9.85595-.5h9.356V87.2207H46.28073Z" transform="translate(-0.51022)"/><rect class="cls-2" x="60.05041" y="86.9711" width="9.85146" height="1.77917"/><path class="cls-3" d="M70.66208,89H60.31051V86.7207H70.66208Zm-9.85157-.5h9.35157V87.2207H60.81051Z" transform="translate(-0.51022)"/><rect class="cls-2" x="74.57683" y="86.9711" width="9.85262" height="1.77917"/><path class="cls-3" d="M85.18991,89h-10.353V86.7207h10.353Zm-9.853-.5h9.353V87.2207h-9.353Z" transform="translate(-0.51022)"/><rect class="cls-2" x="89.10441" y="86.9711" width="9.85378" height="1.77917"/><path class="cls-3" d="M99.71823,89H89.36471V86.7207H99.71823Zm-9.85352-.5h9.35352V87.2207H89.86471Z" transform="translate(-0.51022)"/><rect class="cls-2" x="103.63199" y="86.9711" width="9.85378" height="1.77917"/><path class="cls-3" d="M114.24606,89h-10.354V86.7207h10.354Zm-9.854-.5h9.354V87.2207h-9.354Z" transform="translate(-0.51022)"/><rect class="cls-2" x="30.99409" y="73.97481" width="9.85262" height="1.77917"/><path class="cls-3" d="M41.6069,76.00391H31.25436v-2.2793H41.6069Zm-9.85254-.5H41.1069v-1.2793H31.75436Z" transform="translate(-0.51022)"/><rect class="cls-2" x="45.52051" y="73.97481" width="9.8561" height="1.77917"/><path class="cls-3" d="M56.13668,76.00391H45.78073v-2.2793h10.356Zm-9.85595-.5h9.356v-1.2793H46.28073Z" transform="translate(-0.51022)"/><rect class="cls-2" x="60.05041" y="73.97481" width="9.85146" height="1.77917"/><path class="cls-3" d="M70.66208,76.00391H60.31051v-2.2793H70.66208Zm-9.85157-.5h9.35157v-1.2793H60.81051Z" transform="translate(-0.51022)"/><rect class="cls-2" x="74.57683" y="73.97481" width="9.85262" height="1.77917"/><path class="cls-3" d="M85.18991,76.00391h-10.353v-2.2793h10.353Zm-9.853-.5h9.353v-1.2793h-9.353Z" transform="translate(-0.51022)"/><rect class="cls-2" x="89.10441" y="73.97481" width="9.85378" height="1.77917"/><path class="cls-3" d="M99.71823,76.00391H89.36471v-2.2793H99.71823Zm-9.85352-.5h9.35352v-1.2793H89.86471Z" transform="translate(-0.51022)"/><rect class="cls-2" x="103.63199" y="73.97481" width="9.85378" height="1.77917"/><path class="cls-3" d="M114.24606,76.00391h-10.354v-2.2793h10.354Zm-9.854-.5h9.354v-1.2793h-9.354Z" transform="translate(-0.51022)"/><rect class="cls-2" x="125.86236" y="99.97202" width="21.03962" height="1.77917"/><path class="cls-3" d="M147.66208,102.001H126.12252v-2.2793h21.53956Zm-21.03956-.5h20.53956v-1.2793H126.62252Z" transform="translate(-0.51022)"/><rect class="cls-2" x="125.86236" y="86.9711" width="21.03962" height="1.77917"/><path class="cls-3" d="M147.66208,89H126.12252V86.7207h21.53956Zm-21.03956-.5h20.53956V87.2207H126.62252Z" transform="translate(-0.51022)"/><rect class="cls-2" x="125.86236" y="73.97481" width="21.03962" height="1.77917"/><path class="cls-3" d="M147.66208,76.00391H126.12252v-2.2793h21.53956Zm-21.03956-.5h20.53956v-1.2793H126.62252Z" transform="translate(-0.51022)"/><path class="cls-2" d="M30.2012,17.65524a.89012.89012,0,0,0,.52588.812A18.97079,18.97079,0,0,1,41.899,35.76433V50.87918h1.77917V35.77591A20.41015,20.41015,0,0,0,39.1654,22.90168V6.5528c0-3.76916-2.36759-6.30239-5.89-6.30239H25.79845a3.34282,3.34282,0,0,0-2.39308.99036,3.42208,3.42208,0,0,0-.988,2.45678V10.3984H24.1965V3.68829a1.66107,1.66107,0,0,1,.47375-1.19654,1.57518,1.57518,0,0,1,1.1282-.46217h7.47692c3.03131,0,4.11086,2.33632,4.11086,4.52322V20.941a20.50145,20.50145,0,0,0-5.40585-3.85328V11.54282a.88982.88982,0,0,0-.88959-.88959h-16.104a.88981.88981,0,0,0-.88958.88959v5.54485A20.75973,20.75973,0,0,0,2.40282,35.76433v76.544H4.182V35.75275A18.95962,18.95962,0,0,1,15.35045,18.46722a.89012.89012,0,0,0,.52588-.812V12.4324H30.2012Z" transform="translate(-0.51022)"/><path class="cls-3" d="M4.43209,112.55859H2.1528V35.76465a21.10936,21.10936,0,0,1,11.69433-18.833V11.543a1.14124,1.14124,0,0,1,1.13965-1.13965l7.18067-.00488V3.69727A3.66429,3.66429,0,0,1,23.2275,1.06543,3.58867,3.58867,0,0,1,25.79831,0h7.477c3.67285,0,6.14013,2.63379,6.14013,6.55273V22.81445a20.66861,20.66861,0,0,1,4.5127,12.96485V51.12891h-2.2793V35.76465A18.72605,18.72605,0,0,0,30.625,18.69531a1.14209,1.14209,0,0,1-.67383-1.04V12.68262H16.12643v4.97265a1.14244,1.14244,0,0,1-.67334,1.04A18.7089,18.7089,0,0,0,4.43209,35.75Zm-1.77929-.5H3.93209V35.75293A19.21355,19.21355,0,0,1,15.2485,18.23828a.64.64,0,0,0,.37793-.583V12.18262H30.45114v5.47265a.63963.63963,0,0,0,.37842.583,19.23153,19.23153,0,0,1,11.31933,17.5293V50.62891h1.2793V35.77637a20.17833,20.17833,0,0,0-4.4585-12.71973l-.0542-.06836V6.55273C38.91549,2.93262,36.64889.5,33.27536.5h-7.477a3.0956,3.0956,0,0,0-2.21534.917,3.1671,3.1671,0,0,0-.91552,2.27735v6.4541h1.27929v-6.46a1.90672,1.90672,0,0,1,.5459-1.37207,1.82188,1.82188,0,0,1,1.30567-.53711h7.477c3.21533,0,4.36084,2.46582,4.36084,4.77343v14.9834l-.42481-.416a20.25224,20.25224,0,0,0-5.33984-3.80664l-.14112-.06836V11.543a.64058.64058,0,0,0-.63964-.63965h-16.104a.64059.64059,0,0,0-.63965.63965v5.70215l-.14111.06836A20.59918,20.59918,0,0,0,2.6528,35.76172ZM32.23043,16.93164a20.60391,20.60391,0,0,1,4.90577,3.42578V6.55273c0-2.06543-1.01416-4.27343-3.86084-4.27343h-7.477a1.32406,1.32406,0,0,0-.9502.38867,1.40816,1.40816,0,0,0-.40137,1.01758v6.71777h6.64405A1.14123,1.14123,0,0,1,32.23043,11.543Z" transform="translate(-0.51022)"/><path class="cls-2" d="M254.72232,87.4433a19.76558,19.76558,0,0,0-3.363-1.00733,26.3064,26.3064,0,0,0-17.21228-14.68731,2.66114,2.66114,0,0,0,.98663-2.04108,2.7041,2.7041,0,0,0-5.4082,0,2.62666,2.62666,0,0,0,.38007,1.29877,24.93288,24.93288,0,0,0-2.49512-.14044,25.83172,25.83172,0,0,0-7.60968,1.16034,4.10157,4.10157,0,0,0,.14087-1.01673,4.152,4.152,0,1,0-6.03571,3.67853,25.8732,25.8732,0,0,0-9.22741,9.7475V23.48621c0-4.88581-2.89814-8.16846-7.21051-8.16846H187.5455c-4.18067,0-6.57605,2.48663-6.87116,6.9823H175.6542a6.65533,6.65533,0,0,0-6.64636,6.6499v83.3584H170.787V28.95a4.87424,4.87424,0,0,1,4.86719-4.87073h12.41254A4.87305,4.87305,0,0,1,192.93167,28.95V44.13544H177.628v1.77917h15.30365V66.92529H177.628v1.77918h15.30365V89.71631H177.628v1.77917h15.30365v1.84693a39.70929,39.70929,0,0,0-12.64862,11.04168,10.25778,10.25778,0,0,1,2.63653-.54412c4.90686-6.02259,13.40021-11.73169,20.4253-11.99933a.8914.8914,0,0,0,.8305-.68109A24.16719,24.16719,0,0,1,217.55,74.85089c.08167-.03326.15668-.07727.2356-.11554a24.01871,24.01871,0,0,1,9.82483-2.09027,24.42625,24.42625,0,0,1,22.29639,14.91907.89.89,0,0,0,.66717.53283,17.87754,17.87754,0,0,1,1.8711.44617A6.84057,6.84057,0,0,1,254.72232,87.4433Zm-51.623,1.10077c-.173.51446-.34631,1.029-.48883,1.55908a23.16189,23.16189,0,0,0-7.89966,2.32721V28.95a6.6541,6.6541,0,0,0-6.6441-6.6499h-5.61957c.25861-3.43945,1.958-5.20313,5.09833-5.20313H197.668c4.00427,0,5.43133,3.3,5.43133,6.38929Zm13.8504-15.37427c-.021.00952-.04095.02069-.06195.03021a2.57694,2.57694,0,1,1,.06195-.03021Zm15.47891-2.02225a1.44,1.44,0,1,1,1.44186-1.43995A1.44163,1.44163,0,0,1,232.42864,71.14755Z" transform="translate(-0.51022)"/><path class="cls-3" d="M252.70645,88.35858a18.13361,18.13361,0,0,0-2.08978-.508.63858.63858,0,0,1-.4795-.38184,24.67873,24.67873,0,0,0-22.52636-15.07324,24.16868,24.16868,0,0,0-9.9336,2.11426l-.09179.04687c-.043.02148-.085.04395-.13965.06641a24.33182,24.33182,0,0,0-13.51368,16.47754.64427.64427,0,0,1-.59667.49023c-7.25391.27637-15.80372,6.23633-20.543,12.00879a10.95,10.95,0,0,0-1.86036.32129,39.86339,39.86339,0,0,1,12.1211-10.35938l.1289-.07129V91.24512H177.8779V89.9668h15.30419V68.4541H177.8779V67.17578h15.30419V45.665H177.8779v-1.2793h15.30419V28.9502a5.12384,5.12384,0,0,0-5.11523-5.1211h-12.4126a5.12456,5.12456,0,0,0-5.11718,5.1211v83.10839h-1.2793V28.9502a6.40573,6.40573,0,0,1,6.39648-6.4004h5.2544l.01465-.23339c.29-4.415,2.58007-6.749,6.62207-6.749h10.123c4.16309,0,6.96,3.18262,6.96,7.91895v61.9375l.46973-.86914a25.67147,25.67147,0,0,1,9.13867-9.65332l.37793-.23242-.39453-.20313a3.89473,3.89473,0,1,1,5.67188-3.456,3.79225,3.79225,0,0,1-.13379.9541l-.11133.43261.42676-.13086a25.60682,25.60682,0,0,1,7.53711-1.14941,24.23791,24.23791,0,0,1,2.46972.13965l.47949.04785-.23632-.41992a2.34639,2.34639,0,0,1-.34864-1.17578,2.45411,2.45411,0,0,1,4.90821,0,2.40142,2.40142,0,0,1-.89746,1.84961l-.36622.30859.4629.124a26.11669,26.11669,0,0,1,17.04882,14.5459l.05176.11914.127.02539a19.70785,19.70785,0,0,1,3.03943.8833c.25476-.08612.51837-.16369.7948-.22949a20.24581,20.24581,0,0,0-3.60766-1.11767A26.6198,26.6198,0,0,0,234.63424,71.625a2.84087,2.84087,0,0,0,.749-1.917,2.95411,2.95411,0,0,0-5.90821,0,2.61439,2.61439,0,0,0,.21094,1.00781c-.77051-.06738-1.43848-.09961-2.07519-.09961a26.02029,26.02029,0,0,0-7.27637,1.04981,3.85844,3.85844,0,0,0,.05762-.65625,4.40241,4.40241,0,1,0-6.77149,3.6875,26.175,26.175,0,0,0-8.49219,8.78711V23.48633c0-5.03516-2.998-8.41895-7.46-8.41895h-10.123c-4.21387,0-6.7295,2.47657-7.10352,6.98242h-4.7876a6.90639,6.90639,0,0,0-6.89648,6.9004v83.60839h2.2793V28.9502a4.62453,4.62453,0,0,1,4.61718-4.6211h12.4126a4.62349,4.62349,0,0,1,4.61523,4.6211V43.88574H177.3779V46.165h15.30419V66.67578H177.3779V68.9541h15.30419V89.4668H177.3779v2.27832h15.30419v1.45019a39.98325,39.98325,0,0,0-12.60351,11.043l-.46143.64844.74952-.26758a10.03473,10.03473,0,0,1,2.57226-.53027l.10645-.00879.06738-.082c4.6543-5.71192,13.10156-11.63575,20.24316-11.90723a1.14785,1.14785,0,0,0,1.0625-.873A23.82558,23.82558,0,0,1,217.645,75.082c.05859-.02441.11425-.05273.16992-.082l.07324-.03613a23.63565,23.63565,0,0,1,9.72266-2.06836,24.17417,24.17417,0,0,1,22.06543,14.76562,1.13386,1.13386,0,0,0,.85449.68164c.57165.10083,1.132.2392,1.68628.39423A5.30413,5.30413,0,0,1,252.70645,88.35858Z" transform="translate(-0.51022)"/><path class="cls-3" d="M218.61276,71.00977a2.64731,2.64731,0,1,0-1.582,2.39843l-.08106-.23828-.15625-.20117a2.34581,2.34581,0,1,1,.05469-.02734l.20313.457A2.62609,2.62609,0,0,0,218.61276,71.00977Z" transform="translate(-0.51022)"/><path class="cls-3" d="M194.81784,92.65625a22.76018,22.76018,0,0,1,7.81347-2.30371l.17481-.01465.0459-.16992c.14062-.52246.31543-1.042.48437-1.54395l.0127-65.13769c0-3.21-1.49219-6.63965-5.68067-6.63965h-10.123c-3.27735,0-5.07618,1.82812-5.34766,5.43457l-.02051.26855h5.88965a6.40418,6.40418,0,0,1,6.39356,6.4004v63.877Zm-6.751-70.60645H182.7192c.31543-3.16406,1.89649-4.70312,4.82618-4.70312h10.123c3.81934,0,5.18067,3.17187,5.18067,6.13965v65.0166c-.14942.44434-.30176.90137-.4336,1.36621a23.11058,23.11058,0,0,0-7.45507,2.168V28.9502A6.90514,6.90514,0,0,0,188.06686,22.0498Z" transform="translate(-0.51022)"/><path class="cls-2" d="M228.5394,80.22739a2.82282,2.82282,0,1,0,2.82281,2.824A2.82764,2.82764,0,0,0,228.5394,80.22739Zm0,3.86646a1.04365,1.04365,0,1,1,1.04364-1.04249A1.04529,1.04529,0,0,1,228.5394,84.09385Z" transform="translate(-0.51022)"/><path class="cls-3" d="M228.53952,86.12305a3.07276,3.07276,0,1,1,3.07226-3.07129A3.07621,3.07621,0,0,1,228.53952,86.12305Zm0-5.64551a2.57276,2.57276,0,1,0,2.57226,2.57422A2.57775,2.57775,0,0,0,228.53952,80.47754Zm0,3.86621a1.29346,1.29346,0,1,1,1.29394-1.292A1.29472,1.29472,0,0,1,228.53952,84.34375Zm0-2.08691a.79346.79346,0,1,0,.79394.79492A.79562.79562,0,0,0,228.53952,82.25684Z" transform="translate(-0.51022)"/><path class="cls-2" d="M235.385,76.90535a1.98072,1.98072,0,1,0,1.97609,1.98071A1.98354,1.98354,0,0,0,235.385,76.90535Zm-.20154,1.98071a.19924.19924,0,1,1,.39846,0C235.58311,79.11078,235.18465,79.10383,235.18349,78.88606Z" transform="translate(-0.51022)"/><path class="cls-3" d="M235.38522,81.11719a2.231,2.231,0,1,1,2.22559-2.23145A2.23371,2.23371,0,0,1,235.38522,81.11719Zm0-3.96192a1.731,1.731,0,1,0,1.72559,1.73047A1.73254,1.73254,0,0,0,235.38522,77.15527Zm.0029,2.36089a.63753.63753,0,0,1-.67718-.61881v-.00292a.67136.67136,0,1,1,1.3427,0,.62758.62758,0,0,1-.65822.62173Zm-.09016-.61881v.00325c0,.107.16865.08756.16865-.00325Zm.08433-.13946a.17224.17224,0,0,0-.08433.13784l.16865-.00162A.15188.15188,0,0,0,235.38229,78.75789Z" transform="translate(-0.51022)"/><path class="cls-3" d="M289.21571,108.596c.353-8.07745-7.04507-14.31882-15.12845-14.14865A14.06175,14.06175,0,0,0,247.4646,91.9817a7.13459,7.13459,0,0,1-1.66273,2.8678,7.37729,7.37729,0,0,1-2.6254,1.08045,12.537,12.537,0,0,0-7.94181,7.53033,4.13376,4.13376,0,0,0-4.114.01665c.5206-1.99556-5.57214-3.97956-5.9473-4.11217-2.99328-1.05805-13.48447-1.72207-21.40678,8.06432" transform="translate(-0.51022)"/><path class="cls-2" d="M289.7153,108.61719l-1-.043a12.29243,12.29243,0,0,0-3.61719-9.17969,15.06651,15.06651,0,0,0-11-4.44726l-.4082.00878-.08985-.39843a13.56254,13.56254,0,0,0-25.67675-2.37793l-.20313.4873a4.737,4.737,0,0,1-3.90137,3.59473c-.166.04785-.332.0957-.49511.14551a12.06772,12.06772,0,0,0-7.61914,7.22558l-.20606.55957-.51562-.30078a3.64824,3.64824,0,0,0-3.60645.01465l-1.04687.62305.30761-1.17871c.22461-.86231-2.05761-2.2959-5.55078-3.48633-2.4541-.86621-12.94629-1.98438-20.93066,7.8789l-.77735-.6289c7.60157-9.39063,18.07618-9.59278,21.96192-8.22071,2.68164.915,5.66308,2.25,6.2207,3.81836a4.6528,4.6528,0,0,1,3.4082.0586,13.111,13.111,0,0,1,8.05957-7.31836c.16993-.05274.3418-.10156.51465-.15137a3.80772,3.80772,0,0,0,3.252-3.01465l.21-.50293a14.56187,14.56187,0,0,1,27.47461,2.16114,15.96776,15.96776,0,0,1,11.333,4.751A13.28217,13.28217,0,0,1,289.7153,108.61719Z" transform="translate(-0.51022)"/><path class="cls-2" d="M180.81931,103.43458a2.96307,2.96307,0,0,0,.33474.17628,3.05792,3.05792,0,1,0-.33474-.17628Zm2.13047-3.79629a1.45429,1.45429,0,0,1,.13944.07389,1.2887,1.2887,0,1,1-.13944-.07389Z" transform="translate(-0.51022)"/><path class="cls-3" d="M182.41256,104.13379a3.29044,3.29044,0,0,1-1.36132-.29492,2.97612,2.97612,0,0,1-.36231-.19141,3.31889,3.31889,0,0,1,3.0957-5.85742,3.22866,3.22866,0,0,1,1.72559,1.81934,3.32012,3.32012,0,0,1-3.09766,4.52441Zm.00586-6.13965a2.81977,2.81977,0,0,0-2.63769,3.81641,2.78137,2.78137,0,0,0,1.16894,1.41015l.001.001a2.66442,2.66442,0,0,0,.30469.16113,2.81873,2.81873,0,0,0,3.78808-3.59375,2.733,2.733,0,0,0-1.46093-1.542A2.82848,2.82848,0,0,0,182.41842,97.99414Zm-.0039,4.36035a1.52461,1.52461,0,0,1-.63086-.13672,1.54,1.54,0,1,1,1.26855-2.80664h.002c.05664.02637.10937.05469.1621.085a1.54075,1.54075,0,0,1-.80175,2.8584Zm.00586-2.58008a1.03968,1.03968,0,1,0,.53906.15137,1.22618,1.22618,0,0,0-.11328-.05957A1.03268,1.03268,0,0,0,182.42038,99.77441Z" transform="translate(-0.51022)"/><path class="cls-2" d="M183.71863,110.59469a3.11159,3.11159,0,0,0,.32979.17327,3.064,3.064,0,1,0-.32979-.17327Zm2.12513-3.80088a1.29132,1.29132,0,1,1-1.70724.646A1.288,1.288,0,0,1,185.84376,106.79381Z" transform="translate(-0.51022)"/><path class="cls-3" d="M185.311,111.292a3.37663,3.37663,0,0,1-1.72168-.4834h-.001a3.32,3.32,0,0,1,3.0918-5.8623,3.32162,3.32162,0,0,1-1.36914,6.3457Zm-1.46289-.91113a2.88571,2.88571,0,0,0,.30371.15918,2.81807,2.81807,0,0,0,3.794-3.57324,2.775,2.775,0,0,0-1.46973-1.56446,2.81995,2.81995,0,0,0-2.62793,4.97852Zm1.46094-.86914a1.51582,1.51582,0,0,1-.62988-.13574,1.54139,1.54139,0,0,1,1.2666-2.81055h0a1.518,1.518,0,0,1,.80664.85156,1.54379,1.54379,0,0,1-1.44336,2.09473Zm.00683-2.58106a1.03785,1.03785,0,1,0,.96973.665,1.02277,1.02277,0,0,0-.543-.57324l-.001-.001A1.04729,1.04729,0,0,0,185.31588,106.93066Z" transform="translate(-0.51022)"/><path class="cls-2" d="M241.8612,93.01961c.072.05325.14544.10193.22068.14764a3.07549,3.07549,0,1,0-.22068-.14764ZM244.34386,89.44c.03168.01925.06275.03948.09263.0617a1.29139,1.29139,0,1,1-.09263-.0617Z" transform="translate(-0.51022)"/><path class="cls-3" d="M243.66061,93.85645a3.28561,3.28561,0,0,1-1.709-.47559c-.082-.04981-.16114-.10156-.23926-.16016a3.31733,3.31733,0,0,1-.71387-4.63965,3.31916,3.31916,0,1,1,2.66211,5.2754Zm.0166-6.12891a2.8168,2.8168,0,0,0-1.66894,5.08984l.00195.002a2.39574,2.39574,0,0,0,.20117.13378,2.81933,2.81933,0,1,0,1.46582-5.22558Zm-.01758,4.35351a1.47929,1.47929,0,0,1-.89746-.29785,1.5391,1.5391,0,0,1-.33105-2.15039,1.55266,1.55266,0,0,1,2.041-.40722,1.148,1.148,0,0,1,.11621.07812,1.53605,1.53605,0,0,1-.69824,2.76074A1.67266,1.67266,0,0,1,243.65963,92.08105Zm.01856-2.57617a1.03655,1.03655,0,0,0-1.03223,1.19824,1.03207,1.03207,0,0,0,.41406.67872.99916.99916,0,0,0,.75782.1875,1.03577,1.03577,0,0,0,.4707-1.86524.62989.62989,0,0,0-.07227-.04883l-.002-.001A1.02331,1.02331,0,0,0,243.67819,89.50488Z" transform="translate(-0.51022)"/><path class="cls-2" d="M177.20584,104.28332a1.98072,1.98072,0,1,0,1.97609,1.98071A1.98354,1.98354,0,0,0,177.20584,104.28332Zm-.20154,1.98071a.19924.19924,0,1,1,.39846,0C177.40391,106.48875,177.00545,106.4818,177.0043,106.264Z" transform="translate(-0.51022)"/><path class="cls-3" d="M177.206,108.49512a2.231,2.231,0,1,1,2.22607-2.23145A2.23382,2.23382,0,0,1,177.206,108.49512Zm0-3.96192a1.731,1.731,0,1,0,1.72607,1.73047A1.73264,1.73264,0,0,0,177.206,104.5332Zm.00049,2.14649a.42592.42592,0,0,1-.45215-.415v-.001a.44922.44922,0,1,1,.89844,0,.42174.42174,0,0,1-.44385.416Zm-.05371-.416v.001c-.00049.06738.10107.05273.10156-.001Zm.05078-.084a.10316.10316,0,0,0-.05078.083h.10156A.09408.09408,0,0,0,177.20358,106.17969Z" transform="translate(-0.51022)"/><path class="cls-2" d="M285.79259,111.09662a2.96332,2.96332,0,0,0,.24732.28629,3.06938,3.06938,0,0,0,5.26741-2.10244,3.07,3.07,0,0,0-5.21137-2.2381l-.00092.0007a3.06864,3.06864,0,0,0-.30244,4.05355Zm2.46191-3.14638a1.29032,1.29032,0,1,1-.919.3669A1.2844,1.2844,0,0,1,288.2545,107.95024Z" transform="translate(-0.51022)"/><path class="cls-3" d="M288.23776,112.55762a3.32188,3.32188,0,0,1-2.64356-1.3086l-.001-.001a3.31939,3.31939,0,0,1,2.64551-5.32617h.041a3.318,3.318,0,0,1-.042,6.63574Zm-2.24609-1.61231a2.61473,2.61473,0,0,0,.22656.2627,2.81957,2.81957,0,0,0,4.83886-1.93067,2.81957,2.81957,0,1,0-5.06542,1.668Zm2.24707-.165a1.54,1.54,0,1,1,.001-3.08007h.01856a1.54009,1.54009,0,0,1-.01953,3.08007Zm.001-2.58007a1.041,1.041,0,1,0,.72559,1.78613,1.03354,1.03354,0,0,0,.3125-.73145,1.04705,1.04705,0,0,0-.2959-.74121,1.03511,1.03511,0,0,0-.73047-.31347Z" transform="translate(-0.51022)"/><path class="cls-2" d="M283.02532,107.89319a1.98072,1.98072,0,1,0,1.117,2.56524A1.98356,1.98356,0,0,0,283.02532,107.89319Zm-.91046,1.77057a.19924.19924,0,1,1,.371.14541C282.40491,110.01881,282.03647,109.86693,282.11486,109.66376Z" transform="translate(-0.51022)"/><path class="cls-3" d="M282.29831,111.96777a2.23494,2.23494,0,1,1,.8916-.1875A2.20778,2.20778,0,0,1,282.29831,111.96777Zm.00586-3.96191a1.72565,1.72565,0,1,0,.62988.12012h-.001A1.7127,1.7127,0,0,0,282.30417,108.00586Zm.02832,2.1543a.4951.4951,0,0,1-.17872-.03418.42711.42711,0,0,1-.27246-.55176l.001-.00195a.4492.4492,0,1,1,.83594.3291A.40494.40494,0,0,1,282.33249,110.16016Zm-.08008-.44141h0a.04848.04848,0,0,0,.03222.06348.04957.04957,0,0,0,.0625-.02637Zm.001-.001.09473.03614a.09346.09346,0,0,0-.01758-.09571h-.001A.10647.10647,0,0,0,282.25338,109.71777Z" transform="translate(-0.51022)"/><path class="cls-2" d="M225.30079,65.86314a1.79472,1.79472,0,0,0,.22856-.014,1.85785,1.85785,0,0,0,.92055-3.30713,1.85821,1.85821,0,0,0-2.98952,1.68757v.0007a1.85739,1.85739,0,0,0,1.84041,1.63288Zm-.61137-2.3396a.781.781,0,1,1-.16055.577A.77747.77747,0,0,1,224.68942,63.52354Z" transform="translate(-0.51022)"/><path class="cls-3" d="M225.30124,65.92285a1.91762,1.91762,0,1,1,1.90722-2.14941,1.921,1.921,0,0,1-1.67187,2.13476A1.74759,1.74759,0,0,1,225.30124,65.92285Zm.01269-3.7168a1.751,1.751,0,0,0-.22559.01465,1.798,1.798,0,0,0,.2129,3.583,1.54936,1.54936,0,0,0,.2207-.01465,1.79754,1.79754,0,0,0,.89062-3.20019A1.77453,1.77453,0,0,0,225.31393,62.20605Zm-.00586,2.63965a.83974.83974,0,0,1-.665-1.35937h0a.83792.83792,0,0,1,.56055-.31641.86043.86043,0,0,1,.61914.17383.83053.83053,0,0,1,.31738.55859.84253.84253,0,0,1-.73437.9375A.81821.81821,0,0,1,225.30807,64.8457Zm-.57129-1.28515h0a.72126.72126,0,1,0,1.28418.35644.70739.70739,0,0,0-.27246-.47851.71836.71836,0,0,0-1.01172.12207Z" transform="translate(-0.51022)"/><path class="cls-1" d="M2.75045,314.68848q-1.60986,0-1.61035,1.22949a1.103,1.103,0,0,0,.36524.9707,4.31886,4.31886,0,0,0,1.42968.46,3.56,3.56,0,0,1,1.52051.58008,1.51124,1.51124,0,0,1,.45508,1.23926,2.07064,2.07064,0,0,1-.55469,1.61523,2.36954,2.36954,0,0,1-1.625.49512,13.73,13.73,0,0,1-1.81054-.13965L.56,321.08789l.07032-.5293a18.46692,18.46692,0,0,0,2.12011.16993,1.60934,1.60934,0,0,0,1.13965-.36524,1.39226,1.39226,0,0,0,.39063-1.07031,1.12759,1.12759,0,0,0-.34571-.96,2.7293,2.7293,0,0,0-1.0996-.39453,9.50074,9.50074,0,0,1-1.1045-.25489,2.4595,2.4595,0,0,1-.65527-.33007,1.18965,1.18965,0,0,1-.43555-.54981,2.3796,2.3796,0,0,1-.12988-.8457q0-1.81934,2.2002-1.81934a13.61367,13.61367,0,0,1,1.71972.13965l.33008.0498-.0498.53028A18.50452,18.50452,0,0,0,2.75045,314.68848Z" transform="translate(-0.51022)"/><path class="cls-1" d="M6.05026,318.68848a3.23919,3.23919,0,0,1,.47461-2,1.96825,1.96825,0,0,1,1.62012-.58985,1.96694,1.96694,0,0,1,1.62011.58985,3.23848,3.23848,0,0,1,.47559,2,3.52176,3.52176,0,0,1-.43555,2.00976,1.92831,1.92831,0,0,1-1.65527.59961,1.94049,1.94049,0,0,1-1.65918-.59961A3.48511,3.48511,0,0,1,6.05026,318.68848Zm.62012-.01563a3.45007,3.45007,0,0,0,.27441,1.64063q.27538.45409,1.2002.45507.92577,0,1.20507-.46a3.38782,3.38782,0,0,0,.28028-1.63574,2.9181,2.9181,0,0,0-.31543-1.60937,1.351,1.351,0,0,0-1.165-.43555,1.35914,1.35914,0,0,0-1.165.43066A2.91471,2.91471,0,0,0,6.67038,318.67285Z" transform="translate(-0.51022)"/><path class="cls-1" d="M14.79049,316.19824h.58985v5h-.58985v-.37012a2.93567,2.93567,0,0,1-1.54.46973,1.47244,1.47244,0,0,1-1.34472-.51953,4.08553,4.08553,0,0,1-.3252-1.96973v-2.61035h.58985v2.59961a3.75142,3.75142,0,0,0,.21484,1.56055q.21533.3999.93555.39941a2.62385,2.62385,0,0,0,.71972-.10449,2.57358,2.57358,0,0,0,.55957-.21484l.19043-.10059Z" transform="translate(-0.51022)"/><path class="cls-1" d="M16.98,321.19824v-5h.58984v.71973a5.5594,5.5594,0,0,1,.90527-.5,4.20586,4.20586,0,0,1,.98536-.31934v.59961a5.48419,5.48419,0,0,0-.9004.27539,7.22568,7.22568,0,0,0-.73046.32422l-.25977.15039v3.75Z" transform="translate(-0.51022)"/><path class="cls-1" d="M22.33053,316.09863a6.8769,6.8769,0,0,1,1.06934.09961l.23047.03028-.03028.50976a10.36716,10.36716,0,0,0-1.16992-.09961,1.44887,1.44887,0,0,0-1.21972.43457,2.78055,2.78055,0,0,0-.33008,1.59961,3.16058,3.16058,0,0,0,.2998,1.625,1.3994,1.3994,0,0,0,1.25.46l1.19043-.08984.01953.51074a11.08935,11.08935,0,0,1-1.32031.11914,1.90566,1.90566,0,0,1-1.625-.58984,3.53409,3.53409,0,0,1-.43457-2.0293,3.208,3.208,0,0,1,.47461-2.01074A1.97352,1.97352,0,0,1,22.33053,316.09863Z" transform="translate(-0.51022)"/><path class="cls-1" d="M28.20944,320.69824l.30078-.03027.01953.49023a15.84742,15.84742,0,0,1-1.91016.13965,1.71449,1.71449,0,0,1-1.50976-.63965,3.48045,3.48045,0,0,1-.42969-1.94043q0-2.61913,2.05957-2.61914a1.8574,1.8574,0,0,1,1.48047.56446,2.72715,2.72715,0,0,1,.48926,1.80468l-.01953.48047H25.28952a2.38038,2.38038,0,0,0,.31543,1.36524,1.23136,1.23136,0,0,0,1.08007.44433Q27.44968,320.75781,28.20944,320.69824Zm-2.91992-2.25h2.82031a2.34689,2.34689,0,0,0-.3252-1.41015,1.23243,1.23243,0,0,0-1.04-.41993,1.34592,1.34592,0,0,0-1.085.43555A2.13738,2.13738,0,0,0,25.28952,318.44824Z" transform="translate(-0.51022)"/><path class="cls-1" d="M29.99069,317.89844v-1.02051h.66015v1.02051Zm0,3.2998v-1.00976h.66015v1.00976Z" transform="translate(-0.51022)"/><path class="cls-1" d="M33.8901,314.80859v-.56054h5v.56054H36.71042v6.38965H36.0903v-6.38965Z" transform="translate(-0.51022)"/><path class="cls-1" d="M43.17917,320.69824,43.48,320.668l.01953.49023a15.84742,15.84742,0,0,1-1.91016.13965,1.71448,1.71448,0,0,1-1.50976-.63965,3.48045,3.48045,0,0,1-.42969-1.94043q0-2.61913,2.05957-2.61914a1.85742,1.85742,0,0,1,1.48047.56446,2.72715,2.72715,0,0,1,.48926,1.80468l-.01954.48047H40.25924a2.38038,2.38038,0,0,0,.31543,1.36524,1.23138,1.23138,0,0,0,1.08008.44433Q42.41941,320.75781,43.17917,320.69824Zm-2.91993-2.25h2.82032a2.34689,2.34689,0,0,0-.3252-1.41015,1.23246,1.23246,0,0,0-1.04-.41993,1.34592,1.34592,0,0,0-1.085.43555A2.13738,2.13738,0,0,0,40.25924,318.44824Z" transform="translate(-0.51022)"/><path class="cls-1" d="M46.86959,316.09863a6.8769,6.8769,0,0,1,1.06934.09961l.23047.03028-.03027.50976a10.36747,10.36747,0,0,0-1.16993-.09961,1.44887,1.44887,0,0,0-1.21972.43457,2.78055,2.78055,0,0,0-.33008,1.59961,3.16058,3.16058,0,0,0,.2998,1.625,1.39941,1.39941,0,0,0,1.25.46l1.19043-.08984.01954.51074a11.08948,11.08948,0,0,1-1.32032.11914,1.90566,1.90566,0,0,1-1.625-.58984,3.53409,3.53409,0,0,1-.43457-2.0293,3.20809,3.20809,0,0,1,.47461-2.01074A1.97352,1.97352,0,0,1,46.86959,316.09863Z" transform="translate(-0.51022)"/><path class="cls-1" d="M50.02975,321.19824h-.58984v-7.21972h.58984v2.50976a3.84726,3.84726,0,0,1,1.62012-.38965,1.46518,1.46518,0,0,1,1.335.5293,3.93073,3.93073,0,0,1,.335,1.94043v2.62988h-.59961v-2.59961a3.775,3.775,0,0,0-.21484-1.55566q-.21534-.4043-.93555-.4043a3.41615,3.41615,0,0,0-.73535.085,3.47887,3.47887,0,0,0-.59473.17481l-.21.08008Z" transform="translate(-0.51022)"/><path class="cls-1" d="M55.45944,321.19824h-.58985v-5h.58985v.37012a3.333,3.333,0,0,1,1.62988-.46973,1.46408,1.46408,0,0,1,1.335.5293,3.93061,3.93061,0,0,1,.335,1.94043v2.62988h-.59961v-2.59961a3.68794,3.68794,0,0,0-.21972-1.55566.97554.97554,0,0,0-.94043-.4043,2.7823,2.7823,0,0,0-.73535.10449,3.13754,3.13754,0,0,0-.59473.21485l-.21.10058Z" transform="translate(-0.51022)"/><path class="cls-1" d="M63.73971,317.68848v2.67968q.03956.37061.64942.44043l-.03028.4795a1.44915,1.44915,0,0,1-1.12988-.39942,4.66209,4.66209,0,0,1-1.87988.40918,1.30755,1.30755,0,0,1-1.01953-.38476,1.57842,1.57842,0,0,1-.35059-1.09961,1.41806,1.41806,0,0,1,.35547-1.06055,1.84627,1.84627,0,0,1,1.11523-.42481l1.69922-.16992v-.46972a1.11215,1.11215,0,0,0-.24414-.80567.88729.88729,0,0,0-.65527-.24414,14.9966,14.9966,0,0,0-1.66016.11914l-.30957.03028-.03027-.4795a10.38558,10.38558,0,0,1,1.9248-.21,1.58813,1.58813,0,0,1,1.19531.38965A1.69342,1.69342,0,0,1,63.73971,317.68848Zm-3.14062,2.08984q0,1.01075.83008,1.00977a4.101,4.101,0,0,0,.79-.085,4.90425,4.90425,0,0,0,.67969-.1748l.25-.08984v-1.81055l-1.62988.16992a1.02791,1.02791,0,0,0-.70508.28027A1.01676,1.01676,0,0,0,60.59909,319.77832Z" transform="translate(-0.51022)"/><path class="cls-1" d="M64.90866,316.19824h.66015l1.25,4.48047h.40039l1.29981-4.48047h.62012l-1.46,5H66.36959Z" transform="translate(-0.51022)"/><path class="cls-1" d="M70.25924,314.94824v-.75h.58985v.75Zm0,6.25v-5h.58985v5Z" transform="translate(-0.51022)"/><path class="cls-1" d="M72.23874,318.68848a3.23927,3.23927,0,0,1,.4746-2,2.51989,2.51989,0,0,1,3.24024,0,3.23848,3.23848,0,0,1,.47559,2,3.52176,3.52176,0,0,1-.43555,2.00976,2.59,2.59,0,0,1-3.31445,0A3.48511,3.48511,0,0,1,72.23874,318.68848Zm.62011-.01563a3.45,3.45,0,0,0,.27442,1.64063q.27539.45409,1.20019.45507.92578,0,1.20508-.46a3.388,3.388,0,0,0,.28027-1.63574,2.9181,2.9181,0,0,0-.31543-1.60937,1.78351,1.78351,0,0,0-2.33007-.00489A2.91461,2.91461,0,0,0,72.85885,318.67285Z" transform="translate(-0.51022)"/></g></g></svg>