<svg xmlns="http://www.w3.org/2000/svg" viewBox="0 0 438.34105 216"><defs><style>.cls-1{fill:#004a7c;}.cls-2{fill:#00b5af;}.cls-3{fill:#fff;}</style></defs><title>Supplement-chart1</title><g id="Layer_2" data-name="Layer 2"><g id="Layer_1-2" data-name="Layer 1"><rect class="cls-1" width="438.34105" height="216"/><polygon class="cls-2" points="164.189 194.132 164.189 76.46 138.996 101.331 138.996 194.132 164.189 194.132"/><polygon class="cls-2" points="102.316 194.132 130.182 194.132 130.182 110.032 102.316 137.54 102.316 194.132"/><polygon class="cls-2" points="25.798 136.331 25.798 194.132 56.824 194.132 56.824 106.069 25.798 136.331"/><polygon class="cls-2" points="92.879 138.155 65.637 111.72 65.637 194.132 93.503 194.132 93.503 138.155 92.879 138.155"/><polygon class="cls-3" points="102.316 120.455 177.952 46.912 193.32 62.159 193.32 22.625 154.337 22.625 169.163 37.872 102.316 102.87 97.493 107.56 93.503 103.41 60.438 69.014 25.175 102.919 25.175 118.881 25.938 119.675 60.086 86.843 93.503 121.603 97.191 125.439 102.316 120.455"/><path class="cls-3" d="M183.18354,186.93718q-1.87207,0-1.87207,1.42969a1.27868,1.27868,0,0,0,.42383,1.12793,4.969,4.969,0,0,0,1.66308.53515,4.14155,4.14155,0,0,1,1.76758.67481,1.75966,1.75966,0,0,1,.5293,1.44238,2.40283,2.40283,0,0,1-.64551,1.87793,2.75591,2.75591,0,0,1-1.88965.57519,15.86689,15.86689,0,0,1-2.10449-.1621l-.41895-.0586.08106-.61621a21.44383,21.44383,0,0,0,2.46582.19727,1.86921,1.86921,0,0,0,1.32519-.42383,1.62315,1.62315,0,0,0,.4541-1.24512,1.31338,1.31338,0,0,0-.40136-1.11621,3.193,3.193,0,0,0-1.2793-.459,10.72009,10.72009,0,0,1-1.28516-.29688,2.84943,2.84943,0,0,1-.76171-.38379,1.37724,1.37724,0,0,1-.50586-.63965,2.74341,2.74341,0,0,1-.15137-.98242q0-2.11669,2.55859-2.11621a15.95154,15.95154,0,0,1,2,.16211l.38379.05859-.05762.61621A21.48775,21.48775,0,0,0,183.18354,186.93718Z"/><path class="cls-3" d="M187.02045,191.58855a3.76848,3.76848,0,0,1,.55274-2.32618,2.931,2.931,0,0,1,3.76757,0,3.76848,3.76848,0,0,1,.55274,2.32618,4.10184,4.10184,0,0,1-.50586,2.33789,3.01346,3.01346,0,0,1-3.85547,0A4.064,4.064,0,0,1,187.02045,191.58855Zm.7207-.01758a3.9847,3.9847,0,0,0,.32032,1.90722q.31933.52881,1.3955.5293,1.0752,0,1.40137-.53515a3.94077,3.94077,0,0,0,.3252-1.90137,3.39515,3.39515,0,0,0-.36621-1.87207,2.07675,2.07675,0,0,0-2.71-.00586A3.39164,3.39164,0,0,0,187.74115,191.571Z"/><path class="cls-3" d="M197.18451,188.693h.68653v5.81445h-.68653v-.43066a3.40347,3.40347,0,0,1-1.791.54687,1.71292,1.71292,0,0,1-1.56348-.60449,4.757,4.757,0,0,1-.37793-2.291V188.693h.68555v3.02344a4.36082,4.36082,0,0,0,.25,1.81445q.25048.46435,1.08789.46484a3.07688,3.07688,0,0,0,.83691-.12207,2.97455,2.97455,0,0,0,.65137-.25l.2207-.11621Z"/><path class="cls-3" d="M199.73139,194.50749V188.693h.68652V189.53a6.3584,6.3584,0,0,1,1.05176-.58105,4.9139,4.9139,0,0,1,1.14551-.37207v.69726a6.55473,6.55473,0,0,0-1.0459.32032,8.29654,8.29654,0,0,0-.84961.37793l-.30176.17382v4.36133Z"/><path class="cls-3" d="M205.95307,188.57683a8.019,8.019,0,0,1,1.24414.11621l.26758.03515-.03516.59278a12.08109,12.08109,0,0,0-1.36035-.11621,1.68489,1.68489,0,0,0-1.41895.50586,3.23892,3.23892,0,0,0-.38378,1.86035,3.66842,3.66842,0,0,0,.3496,1.88965,1.62714,1.62714,0,0,0,1.45313.53515l1.38379-.10449.02344.59277a12.7944,12.7944,0,0,1-1.53516.13965,2.21372,2.21372,0,0,1-1.88965-.68652,4.11545,4.11545,0,0,1-.50586-2.36035,3.73088,3.73088,0,0,1,.55274-2.33789A2.29309,2.29309,0,0,1,205.95307,188.57683Z"/><path class="cls-3" d="M212.791,193.92644l.34863-.03516.02344.56934a18.58724,18.58724,0,0,1-2.22168.16308,1.99718,1.99718,0,0,1-1.75586-.74414,4.05373,4.05373,0,0,1-.5-2.25586q0-3.04687,2.39551-3.04687a2.15574,2.15574,0,0,1,1.72168.65722,3.1661,3.1661,0,0,1,.56933,2.09864l-.02343.55859h-3.95313a2.76559,2.76559,0,0,0,.36621,1.58691,1.43213,1.43213,0,0,0,1.25586.51758Q211.90669,193.99577,212.791,193.92644Zm-3.39551-2.61719h3.2793a2.73058,2.73058,0,0,0-.37793-1.63965,1.43548,1.43548,0,0,0-1.21-.48828,1.56638,1.56638,0,0,0-1.26172.50586A2.48237,2.48237,0,0,0,209.39545,191.30925Z"/><path class="cls-3" d="M214.86127,190.6696v-1.18555h.76758v1.18555Zm0,3.83789v-1.1748h.76758v1.1748Z"/><path class="cls-3" d="M219.39643,187.07683v-.65137h5.81445v.65137h-2.53516v7.43066h-.7207v-7.43066Z"/><path class="cls-3" d="M230.20014,193.92644l.34863-.03516.02344.56934a18.58724,18.58724,0,0,1-2.22168.16308,1.99718,1.99718,0,0,1-1.75586-.74414,4.05373,4.05373,0,0,1-.5-2.25586q0-3.04687,2.39551-3.04687a2.15576,2.15576,0,0,1,1.72168.65722,3.1661,3.1661,0,0,1,.56933,2.09864l-.02343.55859h-3.95313a2.76559,2.76559,0,0,0,.36621,1.58691,1.43213,1.43213,0,0,0,1.25586.51758Q229.31586,193.99577,230.20014,193.92644Zm-3.39551-2.61719h3.2793a2.73058,2.73058,0,0,0-.37793-1.63965,1.43549,1.43549,0,0,0-1.21-.48828,1.56638,1.56638,0,0,0-1.26172.50586A2.48237,2.48237,0,0,0,226.80463,191.30925Z"/><path class="cls-3" d="M234.49018,188.57683a8.019,8.019,0,0,1,1.24414.11621l.26758.03515-.03516.59278a12.08109,12.08109,0,0,0-1.36035-.11621,1.68489,1.68489,0,0,0-1.41895.50586,3.2389,3.2389,0,0,0-.38379,1.86035,3.6684,3.6684,0,0,0,.34961,1.88965,1.62714,1.62714,0,0,0,1.45313.53515l1.38379-.10449.02344.59277a12.7944,12.7944,0,0,1-1.53516.13965,2.21371,2.21371,0,0,1-1.88965-.68652,4.11545,4.11545,0,0,1-.50586-2.36035,3.73088,3.73088,0,0,1,.55274-2.33789A2.29309,2.29309,0,0,1,234.49018,188.57683Z"/><path class="cls-3" d="M238.166,194.50749h-.68652V186.111h.68652V189.03a4.47481,4.47481,0,0,1,1.88379-.45312,1.7019,1.7019,0,0,1,1.55273.61621,4.57333,4.57333,0,0,1,.38965,2.25586v3.05859h-.69824v-3.02344a4.3653,4.3653,0,0,0-.25-1.80859,1.11921,1.11921,0,0,0-1.08692-.4707,4.00326,4.00326,0,0,0-.85546.09863,4.17592,4.17592,0,0,0-.69141.20312l-.24414.09375Z"/><path class="cls-3" d="M244.48041,194.50749h-.68652V188.693h.68652v.42969a3.87681,3.87681,0,0,1,1.89551-.5459,1.703,1.703,0,0,1,1.55273.61621,4.5871,4.5871,0,0,1,.38868,2.25586v3.05859h-.69727v-3.02344a4.2746,4.2746,0,0,0-.25586-1.80859,1.13359,1.13359,0,0,0-1.09277-.4707,3.22908,3.22908,0,0,0-.85547.12207,3.59007,3.59007,0,0,0-.69141.25l-.24414.11621Z"/><path class="cls-3" d="M254.10932,190.42546v3.11719q.0454.42919.75586.51172l-.03516.55761a1.68741,1.68741,0,0,1-1.31445-.46484,5.43417,5.43417,0,0,1-2.18555.47656,1.52471,1.52471,0,0,1-1.18652-.44726,1.83769,1.83769,0,0,1-.40723-1.2793,1.65011,1.65011,0,0,1,.41309-1.2334,2.14912,2.14912,0,0,1,1.29687-.49414l1.97657-.19726v-.54688a1.28442,1.28442,0,0,0-.28516-.93555,1.02612,1.02612,0,0,0-.76172-.28515,17.07087,17.07087,0,0,0-1.93066.13965l-.36036.03418-.03418-.55762a12.10876,12.10876,0,0,1,2.23829-.24414,1.84638,1.84638,0,0,1,1.38964.45312A1.96569,1.96569,0,0,1,254.10932,190.42546Zm-3.65235,2.43066q0,1.17481.96583,1.17481a4.80718,4.80718,0,0,0,.91894-.09863,5.6525,5.6525,0,0,0,.79-.20411l.291-.10449v-2.10449l-1.89551.19727a1.00149,1.00149,0,0,0-1.07032,1.13964Z"/><path class="cls-3" d="M255.46967,188.693h.7666l1.4541,5.21h.46485l1.51172-5.21h.72168l-1.69825,5.81445h-1.52343Z"/><path class="cls-3" d="M261.69135,187.23894v-.87207h.68652v.87207Zm0,7.26855V188.693h.68652v5.81445Z"/><path class="cls-3" d="M263.99408,191.58855a3.76848,3.76848,0,0,1,.55274-2.32618,2.931,2.931,0,0,1,3.76758,0,3.76855,3.76855,0,0,1,.55273,2.32618,4.10176,4.10176,0,0,1-.50586,2.33789,3.01346,3.01346,0,0,1-3.85547,0A4.064,4.064,0,0,1,263.99408,191.58855Zm.72071-.01758a3.98473,3.98473,0,0,0,.32031,1.90722q.31934.52881,1.39551.5293,1.07519,0,1.40136-.53515a3.94077,3.94077,0,0,0,.3252-1.90137,3.39515,3.39515,0,0,0-.36621-1.87207,2.07675,2.07675,0,0,0-2.71-.00586A3.39175,3.39175,0,0,0,264.71479,191.571Z"/><path class="cls-2" d="M191.539,160.87859v2.83007H184.583l-.40137,3.37207a7.6974,7.6974,0,0,1,2.78223-.5664q5.04639,0,5.04688,4.69238a5.62812,5.62812,0,0,1-1.39161,4.08008,5.2244,5.2244,0,0,1-3.9375,1.43847,16.38627,16.38627,0,0,1-2.46484-.21289,18.54741,18.54741,0,0,1-2.2041-.44726l-.84961-.21289.35449-2.40528a31.67046,31.67046,0,0,0,4.7627.44825,2.14284,2.14284,0,0,0,2.38183-2.37012,2.27823,2.27823,0,0,0-.51855-1.66211,1.9799,1.9799,0,0,0-1.46192-.51855,11.34049,11.34049,0,0,0-2.7832.30664l-.35351.09375-1.9336-.44727.42481-8.41894Z"/><path class="cls-2" d="M193.46772,164.027q0-3.43066,2.83008-3.43164,2.82861,0,2.8291,3.43164,0,3.43067-2.8291,3.43067Q193.46772,167.45769,193.46772,164.027Zm2.417-1.20312a4.5805,4.5805,0,0,0-.10645,1.1914,4.71993,4.71993,0,0,0,.10645,1.20215.41753.41753,0,0,0,.82519,0,4.67441,4.67441,0,0,0,.10645-1.20215,4.53676,4.53676,0,0,0-.10645-1.1914.41993.41993,0,0,0-.82519,0Zm.20019,13.80664,5.542-16.67188,1.72168.61328-5.542,16.625Zm4.26856-3.33692q0-3.43067,2.8291-3.43066,2.83008,0,2.83008,3.43066,0,3.43213-2.83008,3.43164Q200.354,176.72526,200.35346,173.29362Zm2.417-1.20214a4.52816,4.52816,0,0,0-.10644,1.19043,4.68339,4.68339,0,0,0,.10644,1.20312.41754.41754,0,0,0,.8252,0,4.729,4.729,0,0,0,.10644-1.20312,4.5718,4.5718,0,0,0-.10644-1.19043.41993.41993,0,0,0-.8252,0Z"/><path class="cls-2" d="M223.43842,176.1823a21.40467,21.40467,0,0,1-4.50391.543,8.5825,8.5825,0,0,1-3.207-.49511,3.9585,3.9585,0,0,1-1.88672-1.58008,7.00178,7.00178,0,0,1-.94238-2.54688,21.53437,21.53437,0,0,1-.25976-3.67871q0-4.645,1.30859-6.47265,1.3081-1.82667,4.82226-1.82813a20.54989,20.54989,0,0,1,4.69239.63672l-.09375,2.59473a26.72931,26.72931,0,0,0-3.87891-.35449,4.358,4.358,0,0,0-2.20508.41308,2.54936,2.54936,0,0,0-.97851,1.56836,16.71813,16.71813,0,0,0-.31836,3.9375,8.06121,8.06121,0,0,0,.64844,3.85547,2.78776,2.78776,0,0,0,2.59375,1.07324,27.91284,27.91284,0,0,0,4.13867-.33008Z"/><path class="cls-2" d="M225.02924,176.44206l3.6084-16.03515h6.17773l3.6084,16.03515h-3.2539l-.63672-2.90039h-5.61231l-.63672,2.90039Zm6.13184-13.34668-1.627,7.61621h4.38575l-1.627-7.61621Z"/><path class="cls-2" d="M246.85346,170.68816v-2.82911h4.66894v8.32325a35.93557,35.93557,0,0,1-5.4707.543q-3.74853,0-5.15234-2.00488-1.40332-2.00391-1.40235-6.36621,0-4.3623,1.46192-6.2959t4.97558-1.93457a24.928,24.928,0,0,1,4.73926.4961l.84863.165-.09375,2.52246a44.82149,44.82149,0,0,0-4.63378-.30664,5.41744,5.41744,0,0,0-2.53516.4248,2.54908,2.54908,0,0,0-1.07227,1.56836,15.38227,15.38227,0,0,0-.34277,3.91406,7.886,7.886,0,0,0,.68457,3.87891q.68262,1.10889,2.8291,1.1084l1.957-.09375v-3.11328Z"/><path class="cls-2" d="M257.72162,171.06609v5.376h-3.2539V160.40691h6.22558q5.65869,0,5.65918,5.28222a5.07241,5.07241,0,0,1-2.3584,4.62207l2.28711,6.13086h-3.56054l-1.86231-5.376Zm4.74024-3.49024a2.89594,2.89594,0,0,0,.56543-1.86328,2.68413,2.68413,0,0,0-.60157-1.83887,2.183,2.183,0,0,0-1.73242-.68359h-2.97168v5.09277h3.01856A2.07366,2.07366,0,0,0,262.46186,167.57585Z"/><path class="cls-2" d="M277.71772,167.33952v9.10254h-3.15918v-9.10254H273.2851V164.652h1.27344v-.51953a5.95653,5.95653,0,0,1,.7539-3.51269,3.22941,3.22941,0,0,1,2.68848-.9668,13.23164,13.23164,0,0,1,2.19336.23535l.49512.07031-.04785,2.57032q-1.03712-.04687-1.74415-.04688a1.02764,1.02764,0,0,0-.94335.37793,2.58944,2.58944,0,0,0-.23633,1.29688v.49511h2.85351v2.6875Z"/><path class="cls-2" d="M282.25971,176.44206v-11.79h3.13672v1.249a12.00681,12.00681,0,0,1,3.77246-1.53223v3.18359q-1.91016.40137-3.27734.8252l-.47168.165v7.89941Z"/><path class="cls-2" d="M291.66791,165.98405q1.24951-1.61571,4.17383-1.61523,2.92383,0,4.17383,1.61523a7.26925,7.26925,0,0,1,1.25,4.53907q0,6.20214-5.42383,6.20214-5.42432,0-5.42383-6.20214A7.26925,7.26925,0,0,1,291.66791,165.98405Zm2.44043,7.20411a2.19462,2.19462,0,0,0,3.4668,0,5.6,5.6,0,0,0,.4834-2.665,5.44715,5.44715,0,0,0-.4834-2.64063,2.23319,2.23319,0,0,0-3.4668,0,5.44715,5.44715,0,0,0-.4834,2.64063A5.6,5.6,0,0,0,294.10834,173.18816Z"/><path class="cls-2" d="M306.58783,176.44206h-3.16015v-11.79h3.13672v.66016a5.81413,5.81413,0,0,1,2.78222-.94336,3.83792,3.83792,0,0,1,2.94727,1.1084,8.82214,8.82214,0,0,1,3.96191-1.1084,3.61621,3.61621,0,0,1,3.24219,1.35547,7.97049,7.97049,0,0,1,.9082,4.32715v6.39062H317.246v-6.2959a5.651,5.651,0,0,0-.33008-2.22851,1.30632,1.30632,0,0,0-1.32031-.71973,6.49854,6.49854,0,0,0-1.83985.33106l-.35351.11718q.09375,1.76953.09472,2.68848v6.10742h-3.16015v-6.06055a6.94018,6.94018,0,0,0-.30664-2.46386,1.29936,1.29936,0,0,0-1.34375-.71973,5.198,5.198,0,0,0-1.81543.33106l-.28321.09375Z"/><path class="cls-2" d="M338.56244,176.44206H328.47065v-2.75879l3.32422-3.37207a27.83631,27.83631,0,0,0,2.46484-2.78222,3.47658,3.47658,0,0,0,.69531-2.06348,1.8407,1.8407,0,0,0-.57812-1.54492,2.628,2.628,0,0,0-1.63868-.44824,23.0452,23.0452,0,0,0-3.44238.2832l-.5664.07129-.165-2.52344a16.26433,16.26433,0,0,1,4.78711-.708q4.95117,0,4.95214,4.457a5.81256,5.81256,0,0,1-.75488,3.01856,14.97906,14.97906,0,0,1-2.73535,3.08887l-2.71191,2.45214h6.46093Z"/><path class="cls-2" d="M341.88276,162.529a6.23957,6.23957,0,0,1,9.03125,0q1.52051,1.935,1.52148,6.21386,0,4.28028-1.50977,6.13086a6.46079,6.46079,0,0,1-9.05468,0q-1.50879-1.8501-1.50879-6.13086Q340.36225,164.46258,341.88276,162.529Zm7.2041,6.14355a9.5728,9.5728,0,0,0-.61328-4.08008,2.14454,2.14454,0,0,0-2.06348-1.167,2.1672,2.1672,0,0,0-2.0752,1.17871,9.46214,9.46214,0,0,0-.625,4.08008,9.13165,9.13165,0,0,0,.63672,4.05566,2.18882,2.18882,0,0,0,2.0752,1.15528,2.13847,2.13847,0,0,0,2.05176-1.15528A9.48113,9.48113,0,0,0,349.08686,168.67253Z"/><path class="cls-2" d="M362.39545,160.87859v15.56347h-3.2539V164.5573l-3.37208,2.16992-1.48535-2.42969,5.14063-3.41894Z"/><path class="cls-2" d="M370.68647,173.89519q3.13623,0,3.13672-3.82032l-.49512.165a8.60809,8.60809,0,0,1-2.47656.543,5.72881,5.72881,0,0,1-3.96094-1.25,4.7366,4.7366,0,0,1-1.3916-3.71387,4.9052,4.9052,0,0,1,1.5332-3.84375,6.28036,6.28036,0,0,1,4.35059-1.37988,4.95559,4.95559,0,0,1,4.30273,2.08692q1.48681,2.0874,1.48633,6.20214,0,4.11475-1.65137,5.97754a6.11718,6.11718,0,0,1-4.834,1.86328,16.50313,16.50313,0,0,1-3.9375-.51855l-.73145-.165.2832-2.5A30.42322,30.42322,0,0,0,370.68647,173.89519Zm.44824-5.94239a7.31162,7.31162,0,0,0,2.335-.42382l.37695-.11817q0-3.98437-2.64062-3.98535a2.33583,2.33583,0,0,0-1.74512.625,2.40068,2.40068,0,0,0-.61328,1.75684Q368.8476,167.95329,371.13471,167.9528Z"/><path class="cls-2" d="M379.64447,171.60808v-2.877h6.98047v2.877Z"/><path class="cls-2" d="M398.30365,176.44206H388.21186v-2.75879l3.32422-3.37207a27.83631,27.83631,0,0,0,2.46484-2.78222,3.47658,3.47658,0,0,0,.69531-2.06348,1.8407,1.8407,0,0,0-.57812-1.54492,2.628,2.628,0,0,0-1.63867-.44824,23.04523,23.04523,0,0,0-3.44239.2832l-.5664.07129-.165-2.52344a16.26433,16.26433,0,0,1,4.78711-.708q4.95117,0,4.95215,4.457A5.81256,5.81256,0,0,1,397.29,168.071a14.97906,14.97906,0,0,1-2.73535,3.08887l-2.71191,2.45214h6.46093Z"/><path class="cls-2" d="M400.82416,161.445a13.1906,13.1906,0,0,1,4.84571-.84961,6.04555,6.04555,0,0,1,3.90332,1.02637,4.05856,4.05856,0,0,1,1.22558,3.28906,3.90749,3.90749,0,0,1-1.81543,3.4668,4.81376,4.81376,0,0,1,1.61524,1.27344,3.59438,3.59438,0,0,1,.48339,2.09863,5.01359,5.01359,0,0,1-1.26171,3.749,5.645,5.645,0,0,1-4.04395,1.22656,16.53,16.53,0,0,1-4.31543-.61328l-.75488-.18847.165-2.47657a27.302,27.302,0,0,0,4.43359.44825q2.42871,0,2.42871-2.0752a1.71369,1.71369,0,0,0-.625-1.39062,2.48352,2.48352,0,0,0-1.63867-.51953H402.333v-2.6875h3.13672a1.826,1.826,0,0,0,1.37988-.66016,2.12574,2.12574,0,0,0,.60059-1.46289q0-1.67286-2.334-1.67383a19.70366,19.70366,0,0,0-3.46679.33008l-.61328.09472Z"/><path class="cls-3" d="M189.122,85.16765V83.77214h4.79493v8.52539q-.73536.15234-2.58789.39356a24.73078,24.73078,0,0,1-3.07032.24121q-3.80567,0-5.27734-2.2334-1.47217-2.23242-1.47168-6.77442a20.94208,20.94208,0,0,1,.30469-3.85644,8.39962,8.39962,0,0,1,1.06543-2.8418q1.44579-2.436,5.35351-2.43555a25.26744,25.26744,0,0,1,4.84668.48145l.83692.17773-.07618,1.34473a30.93808,30.93808,0,0,0-5.48046-.583q-3.07032,0-4.14844,1.83887a12.03745,12.03745,0,0,0-1.07813,5.84863q0,4.00928,1.07813,5.81055,1.07813,1.80176,4.123,1.80176a22.76557,22.76557,0,0,0,4.03418-.40625v-5.9375Z"/><path class="cls-3" d="M207.01264,92.67839h-9.64258V75.0446h1.57324V91.25749h8.06934Z"/><path class="cls-3" d="M222.0351,84.00066q0,4.71972-1.48438,6.82519-1.48388,2.10645-5.40429,2.10645-3.91992,0-5.4043-2.15723-1.48389-2.15625-1.48437-6.8125,0-4.65528,1.49707-6.91406,1.49706-2.25733,5.3789-2.25782,3.88183,0,5.3916,2.24512Q222.03559,79.28142,222.0351,84.00066Zm-11.08789,5.74707q1.06494,1.76367,4.19922,1.76367,3.1333,0,4.19922-1.72559,1.06639-1.72558,1.06543-5.77246a12.01837,12.01837,0,0,0-1.11621-5.9248q-1.11622-1.87647-4.16114-1.877-3.14648,0-4.2373,2.0293a7.139,7.139,0,0,0-.79883,2.38574,21.38648,21.38648,0,0,0-.21582,3.32324Q209.88178,87.98406,210.94721,89.74773Z"/><path class="cls-3" d="M225.28217,75.0446h6.26758q5.20165,0,5.20117,4.43945,0,3.12159-2.334,4.11036a3.94522,3.94522,0,0,1,2.918,4.18652,4.59764,4.59764,0,0,1-1.38281,3.78125,6.278,6.278,0,0,1-4.02148,1.11621h-6.64844Zm6.2168,1.39551h-4.64356V83.0114h4.87207a2.979,2.979,0,0,0,3.42481-3.375,3.01917,3.01917,0,0,0-.90039-2.43555A4.19345,4.19345,0,0,0,231.499,76.44011Zm.2539,7.9414h-4.89746v6.90137h5.04981a4.47808,4.47808,0,0,0,2.84179-.78613,3.35093,3.35093,0,0,0,.98926-2.76563Q235.73627,84.381,231.75287,84.38151Z"/><path class="cls-3" d="M239.00678,92.67839,244.081,75.0446h3.67871l5.0498,17.63379h-1.54785l-1.4209-4.87207h-7.86621l-1.3955,4.87207Zm6.21582-16.26367-2.86719,9.99609h7.10449l-2.86718-9.99609Z"/><path class="cls-3" d="M264.98627,92.67839h-9.64258V75.0446h1.57325V91.25749h8.06933Z"/><path class="cls-3" d="M279.04194,86.53776h-4.87207v6.14063h-1.57325V75.0446h6.44532a5.557,5.557,0,0,1,4.14843,1.37012,5.84069,5.84069,0,0,1,1.332,4.21191Q284.5224,86.53875,279.04194,86.53776Zm-4.87207-1.3955h4.87207q3.85692,0,3.85644-4.51563a4.64655,4.64655,0,0,0-.91308-3.17187,3.7835,3.7835,0,0,0-2.94336-1.01465h-4.87207Z"/><path class="cls-3" d="M287.206,92.67839V75.0446h10.58105v1.4209h-9.00781v6.5459h7.48535v1.39551h-7.48535v6.876h9.00781v1.39551Z"/><path class="cls-3" d="M299.69037,76.4655V75.0446H312.3769v1.4209h-5.53125V92.67839H305.2724V76.4655Z"/><path class="cls-3" d="M326.40717,92.67839h-6.41992V75.0446h6.41992q6.26659,0,6.2666,8.5752Q332.67377,92.67839,326.40717,92.67839Zm4.64355-9.05859q0-7.15431-4.64355-7.1543h-4.84668V91.28288h4.84668Q331.05072,91.28288,331.05072,83.6198Z"/><path class="cls-3" d="M335.93354,92.67839V75.0446h1.57324V92.67839Z"/><path class="cls-3" d="M341.374,92.67839V75.0446H351.955v1.4209h-9.00781v6.5459h7.48535v1.39551h-7.48535v6.876H351.955v1.39551Z"/><path class="cls-3" d="M353.85737,76.4655V75.0446h12.68652v1.4209h-5.53125V92.67839H359.4394V76.4655Z"/><path class="cls-3" d="M365.85053,92.67839l5.07422-17.63379h3.67871l5.0498,17.63379h-1.54785l-1.4209-4.87207H368.8183l-1.3955,4.87207Zm6.21582-16.26367-2.86719,9.99609h7.10449l-2.86718-9.99609Z"/><path class="cls-3" d="M383.76069,85.72624v6.95215h-1.57325V75.0446h6.47071a5.89242,5.89242,0,0,1,4.123,1.25586,5.17711,5.17711,0,0,1,1.35743,3.9707q0,4.2378-3.4004,5.15039l3.62891,7.25684h-1.751l-3.47656-6.95215Zm8.7539-5.42969a3.35614,3.35614,0,0,0-3.85644-3.85644h-4.89746v7.89062h4.89746Q392.51509,84.33073,392.51459,80.29655Z"/><path class="cls-3" d="M402.59272,92.67839h-1.57325v-7.46l-5.6582-10.17383h1.751l4.69336,8.54981,4.66894-8.54981h1.77637l-5.6582,10.17383Z"/><path class="cls-3" d="M186.96479,102.59148q-4.08546,0-4.085,3.12109a2.79433,2.79433,0,0,0,.92578,2.46094,10.89844,10.89844,0,0,0,3.6289,1.167,9.04911,9.04911,0,0,1,3.85645,1.47168,3.837,3.837,0,0,1,1.1543,3.14648,5.24771,5.24771,0,0,1-1.40821,4.09766,6.01264,6.01264,0,0,1-4.123,1.25586,34.70456,34.70456,0,0,1-4.59278-.35547l-.91308-.127.17773-1.34473a46.73712,46.73712,0,0,0,5.37891.43164,4.08673,4.08673,0,0,0,2.89258-.92578,3.54039,3.54039,0,0,0,.98925-2.71582,2.86535,2.86535,0,0,0-.875-2.43555,6.95309,6.95309,0,0,0-2.791-1.00195,23.41984,23.41984,0,0,1-2.80371-.64746,6.22551,6.22551,0,0,1-1.66211-.83692,3.00708,3.00708,0,0,1-1.10352-1.3955,5.984,5.984,0,0,1-.33008-2.14453q0-4.61719,5.582-4.61719a34.89,34.89,0,0,1,4.36426.35449l.83692.12695-.127,1.34473A47.00906,47.00906,0,0,0,186.96479,102.59148Z"/><path class="cls-3" d="M196.80072,113.93327q0,4.00928,4.38965,4.00879a5.30009,5.30009,0,0,0,3.42578-.93945,3.75534,3.75534,0,0,0,1.14161-3.06934v-12.458H207.331v12.458a5.09342,5.09342,0,0,1-1.54785,4.14844,6.9505,6.9505,0,0,1-4.5293,1.28125,6.78975,6.78975,0,0,1-4.49121-1.28125,5.162,5.162,0,0,1-1.50879-4.14844v-12.458h1.54687Z"/><path class="cls-3" d="M217.582,112.96843H212.7099v6.14062h-1.57324V101.47526H217.582a5.557,5.557,0,0,1,4.14844,1.37012,5.84071,5.84071,0,0,1,1.332,4.21192Q223.06244,112.9694,217.582,112.96843Zm-4.87207-1.39551H217.582q3.85693,0,3.85645-4.51562a4.64654,4.64654,0,0,0-.91309-3.17188,3.78347,3.78347,0,0,0-2.94336-1.01465H212.7099Z"/><path class="cls-3" d="M232.19135,112.96843h-4.87207v6.14062H225.746V101.47526h6.44531a5.557,5.557,0,0,1,4.14844,1.37012,5.84076,5.84076,0,0,1,1.332,4.21192Q237.67182,112.9694,232.19135,112.96843Zm-4.87207-1.39551h4.87207q3.85694,0,3.85645-4.51562a4.64654,4.64654,0,0,0-.91309-3.17188,3.78348,3.78348,0,0,0-2.94336-1.01465h-4.87207Z"/><path class="cls-3" d="M249.998,119.10905h-9.64258V101.47526h1.57324v16.2129H249.998Z"/><path class="cls-3" d="M252.38276,119.10905V101.47526h10.58105v1.4209H253.956v6.5459h7.48535v1.39551H253.956v6.876h9.00781v1.3955Z"/><path class="cls-3" d="M265.78412,119.10905V101.47526h2.94336l5.45508,15.42676,5.43066-15.42676h2.94239v17.63379h-1.57227V103.09831h-.35547l-5.53125,15.42676h-1.85254l-5.53125-15.42676h-.35546v16.01074Z"/><path class="cls-3" d="M286.42963,119.10905V101.47526h10.58106v1.4209h-9.00782v6.5459h7.48535v1.39551h-7.48535v6.876h9.00782v1.3955Z"/><path class="cls-3" d="M299.832,119.10905V101.47526h3.09571l7.38379,16.23829h.584V101.47526h1.54688v17.63379h-3.044l-7.43457-16.21289h-.55859v16.21289Z"/><path class="cls-3" d="M314.85248,102.89616v-1.4209H327.539v1.4209h-5.53125v16.21289h-1.57325V102.89616Z"/><path class="cls-3" d="M334.88959,102.59148q-4.08545,0-4.085,3.12109a2.79433,2.79433,0,0,0,.92578,2.46094,10.89844,10.89844,0,0,0,3.62891,1.167,9.04911,9.04911,0,0,1,3.85644,1.47168,3.837,3.837,0,0,1,1.1543,3.14648,5.24774,5.24774,0,0,1-1.4082,4.09766,6.01269,6.01269,0,0,1-4.123,1.25586,34.7043,34.7043,0,0,1-4.59277-.35547l-.91309-.127.17774-1.34473a46.73715,46.73715,0,0,0,5.3789.43164,4.08671,4.08671,0,0,0,2.89258-.92578,3.54036,3.54036,0,0,0,.98926-2.71582,2.86535,2.86535,0,0,0-.875-2.43555,6.95315,6.95315,0,0,0-2.791-1.00195,23.4208,23.4208,0,0,1-2.80371-.64746,6.22581,6.22581,0,0,1-1.66211-.83692,3.007,3.007,0,0,1-1.10351-1.3955,5.98381,5.98381,0,0,1-.33008-2.14453q0-4.61719,5.582-4.61719a34.89012,34.89012,0,0,1,4.36426.35449l.83691.12695-.12695,1.34473A47.0094,47.0094,0,0,0,334.88959,102.59148Z"/><path class="cls-3" d="M192.44526,145.53874H181.76362v-1.31933l5.22656-5.53125q1.26855-1.34473,1.83984-2.01758a7.78148,7.78148,0,0,0,1.04-1.63672,4.42705,4.42705,0,0,0,.46973-1.95313,2.81588,2.81588,0,0,0-.95215-2.41015,4.90269,4.90269,0,0,0-2.93067-.71094,17.32408,17.32408,0,0,0-3.72949.457l-.68457.15234-.12695-1.34472a17.677,17.677,0,0,1,4.90918-.68555,6.00079,6.00079,0,0,1,3.83105,1.05274,4.06628,4.06628,0,0,1,1.30664,3.3623,5.74893,5.74893,0,0,1-.78613,3.04492,18.1924,18.1924,0,0,1-2.63867,3.14649l-4.87207,5.02343h8.7793Z"/><path class="cls-3" d="M195.35346,132.04069a5.07745,5.07745,0,0,1,1.99121-2.75293,5.79538,5.79538,0,0,1,3.01953-.749,7.88387,7.88387,0,0,1,2.8291.419,4.413,4.413,0,0,1,1.85254,1.4082q1.57325,1.92774,1.57324,6.8125,0,4.88526-1.50976,6.749a6.38588,6.38588,0,0,1-8.99512.02539q-1.49708-1.83984-1.49707-6.48242A16.1802,16.1802,0,0,1,195.35346,132.04069Zm7.73828-1.47168a4.269,4.269,0,0,0-2.47363-.63476,4.40271,4.40271,0,0,0-2.47364.60937q-1.90283,1.29346-1.90332,6.95215,0,3.93311,1.06543,5.4043a3.8272,3.8272,0,0,0,3.32422,1.47168,4.52521,4.52521,0,0,0,2.38477-.55859q1.979-1.2173,1.97949-6.34278Q204.99506,131.88786,203.09174,130.569Z"/><path class="cls-3" d="M216.25287,128.79265v16.74609H214.705V130.51823l-4.46582,2.99414-.73535-1.21875,5.27734-3.501Z"/><path class="cls-3" d="M220.97748,144.09245a35.88,35.88,0,0,0,4.51563.2793q4.69482,0,4.74511-6.24219l-.73535.25391a12.89136,12.89136,0,0,1-3.9082.76172q-5.43018,0-5.42969-5.04981a5.37225,5.37225,0,0,1,1.56055-4.04687,5.75023,5.75023,0,0,1,4.17383-1.50977,4.96849,4.96849,0,0,1,4.49121,2.2959,12.47074,12.47074,0,0,1,1.47168,6.68652q0,4.39014-1.64942,6.33008a6.0675,6.0675,0,0,1-4.89648,1.94141,24.5123,24.5123,0,0,1-3.832-.30469l-.65918-.10156Zm4.71875-6.34277a9.25316,9.25316,0,0,0,1.9541-.25391,17.76,17.76,0,0,0,1.87793-.50781l.73536-.25391q-.12745-6.7749-4.36426-6.77441a4.03833,4.03833,0,0,0-3.00684,1.11621,4.11017,4.11017,0,0,0-1.10351,3.01953Q221.789,137.74871,225.69623,137.74968Z"/><path class="cls-3" d="M234.998,139.22038v-1.41992h7.71289v1.41992Z"/><path class="cls-3" d="M254.67963,145.53874H243.998v-1.31933l5.22656-5.53125q1.26856-1.34473,1.83985-2.01758a7.78148,7.78148,0,0,0,1.04-1.63672,4.427,4.427,0,0,0,.46972-1.95313,2.81585,2.81585,0,0,0-.95215-2.41015,4.90266,4.90266,0,0,0-2.93066-.71094,17.324,17.324,0,0,0-3.72949.457l-.68457.15234-.127-1.34472a17.67708,17.67708,0,0,1,4.90918-.68555,6.00084,6.00084,0,0,1,3.83106,1.05274,4.06631,4.06631,0,0,1,1.30664,3.3623,5.749,5.749,0,0,1-.78613,3.04492,18.19254,18.19254,0,0,1-2.63868,3.14649l-4.87207,5.02343h8.7793Z"/><path class="cls-3" d="M257.58783,132.04069a5.07746,5.07746,0,0,1,1.99122-2.75293,5.79538,5.79538,0,0,1,3.01953-.749,7.88387,7.88387,0,0,1,2.8291.419,4.41308,4.41308,0,0,1,1.85254,1.4082q1.57325,1.92774,1.57324,6.8125,0,4.88526-1.50977,6.749a6.38587,6.38587,0,0,1-8.99511.02539q-1.49708-1.83984-1.49707-6.48242A16.18023,16.18023,0,0,1,257.58783,132.04069Zm7.73829-1.47168a4.269,4.269,0,0,0-2.47364-.63476,4.40268,4.40268,0,0,0-2.47363.60937q-1.90283,1.29346-1.90332,6.95215,0,3.93311,1.06543,5.4043a3.8272,3.8272,0,0,0,3.32422,1.47168,4.52515,4.52515,0,0,0,2.38476-.55859q1.979-1.2173,1.9795-6.34278Q267.22944,131.88786,265.32612,130.569Z"/><path class="cls-3" d="M281.39447,145.53874H270.71283v-1.31933l5.22657-5.53125q1.26855-1.34473,1.83984-2.01758a7.78148,7.78148,0,0,0,1.04-1.63672,4.42705,4.42705,0,0,0,.46973-1.95313,2.81588,2.81588,0,0,0-.95215-2.41015,4.90269,4.90269,0,0,0-2.93067-.71094,17.32408,17.32408,0,0,0-3.72949.457l-.68457.15234-.12695-1.34472a17.677,17.677,0,0,1,4.90918-.68555,6.0008,6.0008,0,0,1,3.83105,1.05274,4.06628,4.06628,0,0,1,1.30664,3.3623,5.749,5.749,0,0,1-.78613,3.04492,18.1924,18.1924,0,0,1-2.63867,3.14649l-4.87207,5.02343h8.77929Z"/><path class="cls-3" d="M284.48334,129.17351a19.61678,19.61678,0,0,1,5.06153-.63477,6.001,6.001,0,0,1,3.88183,1.01465,4.0531,4.0531,0,0,1,1.20508,3.27344,3.86038,3.86038,0,0,1-2.334,3.67871l-.30469.15234a4.99386,4.99386,0,0,1,2.30957,1.34473,4.22277,4.22277,0,0,1,.76074,2.8164,4.9108,4.9108,0,0,1-1.30664,3.74317,5.77712,5.77712,0,0,1-4.07227,1.23047,22.18781,22.18781,0,0,1-4.71972-.50781l-.76074-.15235.15234-1.31933a25.83,25.83,0,0,0,5.20117.55859q3.88183,0,3.88184-3.47656,0-3.24756-3.67871-3.42481H286.3603v-1.37012h3.375a3.41435,3.41435,0,0,0,2.207-.88867,2.97133,2.97133,0,0,0,1.0664-2.41015,2.673,2.673,0,0,0-.82519-2.19434,4.5515,4.5515,0,0,0-2.8291-.67285,21.31048,21.31048,0,0,0-4.085.40625l-.63378.127Z"/></g></g></svg>