<svg xmlns="http://www.w3.org/2000/svg" viewBox="0 0 515.39943 233.54789"><defs><style>.cls-1{fill:#5eaee0;}.cls-2{fill:#474c55;}</style></defs><title>Supply-graphic2</title><g id="Layer_2" data-name="Layer 2"><g id="Layer_1-2" data-name="Layer 1"><path class="cls-1" d="M8.05078,151.74809v-3.29785H47.04492v6.30469L21.04883,213.34282l-3.395-1.3584,25.70508-58.00586v-2.23047Z" transform="translate(-8.05078)"/><path class="cls-1" d="M73.79736,210.045q10.37842,0,15.52-6.40234,5.14014-6.40137,5.2378-20.27246-11.05738,4.26855-19.59375,4.26758-20.27491,0-20.27295-18.915,0-9.69873,5.81982-15.42285,5.81982-5.72169,15.52-5.72266,11.34888,0,16.78125,8.77832,5.43091,8.78028,5.43164,25.51074,0,16.73292-6.11084,24.1045-6.11133,7.37255-18.333,7.37207a115.18723,115.18723,0,0,1-14.16211-.77637l-2.32763-.291.38769-3.20019A132.92121,132.92121,0,0,0,73.79736,210.045Zm1.35791-25.70507a39.98419,39.98419,0,0,0,8.29346-1.06739,64.39186,64.39186,0,0,0,8.09961-2.23047l3.104-1.06738q-.67968-29.09911-18.624-29.09961-8.14819,0-12.90088,4.84961-4.75415,4.85157-4.75293,12.99805,0,8.14746,4.1709,11.88281Q66.71509,184.34087,75.15527,184.33989Z" transform="translate(-8.05078)"/><path class="cls-1" d="M115.38086,147.57719q9.98951,0,9.99121,12.99805,0,6.69286-2.71582,10.03906a8.94116,8.94116,0,0,1-7.32373,3.34668,8.80053,8.80053,0,0,1-7.2749-3.34668q-2.669-3.34716-2.66748-10.13672Q105.39014,147.57817,115.38086,147.57719Zm-6.5957,12.90039q0,10.38135,6.5957,10.37891,6.59546,0,6.59619-10.28125,0-5.04347-1.50342-7.46973-1.50513-2.42284-5.04394-2.4248a5.5868,5.5868,0,0,0-5.09278,2.4248Q108.78419,155.5313,108.78516,160.47758Zm9.894,52.08887L136.624,147.57719l3.104.87305-18.042,64.89258ZM142.44434,186.959q9.98877,0,9.99072,12.998,0,6.69288-2.71582,10.03907a8.9412,8.9412,0,0,1-7.32373,3.34668,8.80056,8.80056,0,0,1-7.2749-3.34668q-2.66895-3.3457-2.66749-10.13672Q132.45312,186.96,142.44434,186.959Zm-6.5962,12.90039q0,10.38135,6.5962,10.3789,6.59472,0,6.5957-10.28125,0-5.04345-1.50342-7.46972-1.50513-2.42286-5.04394-2.42481a5.58678,5.58678,0,0,0-5.09278,2.42481Q135.84718,194.91312,135.84814,199.85942Z" transform="translate(-8.05078)"/><path class="cls-2" d="M170.48877,154.16215a6.46923,6.46923,0,0,1,.95019-4,5.03529,5.03529,0,0,1,6.4795,0,6.46916,6.46916,0,0,1,.95019,4,7.04038,7.04038,0,0,1-.87011,4.01953q-.87012,1.19971-3.30958,1.2002-2.44043,0-3.32031-1.2002A6.97489,6.97489,0,0,1,170.48877,154.16215Zm1.24023-.03027a6.86847,6.86847,0,0,0,.54981,3.28027q.54932.90967,2.39941.90918,1.8501,0,2.41016-.91992a6.772,6.772,0,0,0,.56055-3.26953,5.83953,5.83953,0,0,0-.62989-3.21973,3.5716,3.5716,0,0,0-4.66015-.01074A5.83769,5.83769,0,0,0,171.729,154.13188Z" transform="translate(-8.05078)"/><path class="cls-2" d="M182.68994,150.24125v8.94043h-1.19922v-8.94043h-1.30078v-1.05957h1.30078v-1.01953a4.9842,4.9842,0,0,1,.58008-2.87012,2.45822,2.45822,0,0,1,2.05957-.75l1.94043.09961v1.02051q-1.18066-.041-1.76074-.04a1.41519,1.41519,0,0,0-1.2793.51953,4.12108,4.12108,0,0,0-.34082,2.04v1h3.02051v1.05957Z" transform="translate(-8.05078)"/><path class="cls-2" d="M195.28955,148.98149a13.78945,13.78945,0,0,1,2.14063.20019l.46.05957-.06055,1.02051a20.77113,20.77113,0,0,0-2.33984-.20019,2.89928,2.89928,0,0,0-2.43946.87011,5.57083,5.57083,0,0,0-.66015,3.2002,6.3235,6.3235,0,0,0,.59961,3.25,2.79994,2.79994,0,0,0,2.5.91992l2.37988-.17969.04,1.01953a21.85149,21.85149,0,0,1-2.63965.24024q-2.38036,0-3.25-1.18067a7.07281,7.07281,0,0,1-.87012-4.05957q0-2.87988.9502-4.01953A3.93856,3.93856,0,0,1,195.28955,148.98149Z" transform="translate(-8.05078)"/><path class="cls-2" d="M199.3501,154.16215a6.46916,6.46916,0,0,1,.95019-4,5.03529,5.03529,0,0,1,6.4795,0,6.46923,6.46923,0,0,1,.95019,4,7.04028,7.04028,0,0,1-.87012,4.01953q-.8701,1.19971-3.30957,1.2002-2.44042,0-3.32031-1.2002A6.97489,6.97489,0,0,1,199.3501,154.16215Zm1.24023-.03027a6.86847,6.86847,0,0,0,.54981,3.28027q.54932.90967,2.39941.90918,1.8501,0,2.41016-.91992a6.77212,6.77212,0,0,0,.56054-3.26953,5.83954,5.83954,0,0,0-.62988-3.21973,3.57161,3.57161,0,0,0-4.66016-.01074A5.83779,5.83779,0,0,0,200.59033,154.13188Z" transform="translate(-8.05078)"/><path class="cls-2" d="M211.16553,159.18168h-1.17969v-10h1.17969v.74024a6.05617,6.05617,0,0,1,3.24023-.94043,2.73444,2.73444,0,0,1,2.44043,1.06054,7.42863,7.42863,0,0,1,1.75-.75,6.47975,6.47975,0,0,1,1.84961-.31054,2.94157,2.94157,0,0,1,2.66992,1.0498,7.86613,7.86613,0,0,1,.66992,3.89063v5.25976H222.606v-5.20019a7.51911,7.51911,0,0,0-.42969-3.10938,1.92391,1.92391,0,0,0-1.87012-.81054,5.56092,5.56092,0,0,0-1.48047.21,5.64924,5.64924,0,0,0-1.16015.42968l-.39942.2002a10.06326,10.06326,0,0,1,.29981,3.08008v5.20019h-1.2002v-5.16015a7.6611,7.6611,0,0,0-.42968-3.14942,1.90214,1.90214,0,0,0-1.85059-.81054,5.91111,5.91111,0,0,0-2.54.63964l-.37988.2002Z" transform="translate(-8.05078)"/><path class="cls-2" d="M226.32178,163.68168v-14.5h1.17968v.75977a6.18264,6.18264,0,0,1,3.29-.96,2.93424,2.93424,0,0,1,2.58008,1.21972,7.12577,7.12577,0,0,1,.85059,3.97071,6.31824,6.31824,0,0,1-1,3.97949,4.04388,4.04388,0,0,1-3.32031,1.23047,10.97154,10.97154,0,0,1-2.4004-.25977v4.55957Zm4.21972-13.62011a5.13246,5.13246,0,0,0-1.41992.21972,5.665,5.665,0,0,0-1.17969.46l-.44043.22071v7.12011a13.92114,13.92114,0,0,0,2.36036.23926,2.7864,2.7864,0,0,0,2.41992-.96972,5.59908,5.59908,0,0,0,.70019-3.2002,6.03529,6.03529,0,0,0-.61035-3.16016A2.04373,2.04373,0,0,0,230.5415,150.06157Z" transform="translate(-8.05078)"/><path class="cls-2" d="M243.48584,152.16215v5.35938q.08056.73974,1.2998.87988l-.05957.96a2.89437,2.89437,0,0,1-2.25976-.7998,9.33873,9.33873,0,0,1-3.76074.82031,2.61779,2.61779,0,0,1-2.04-.77051,3.15462,3.15462,0,0,1-.69922-2.19922,2.83592,2.83592,0,0,1,.71-2.12012,3.68338,3.68338,0,0,1,2.22949-.85058l3.40039-.33984v-.93946a2.21849,2.21849,0,0,0-.49023-1.61035,1.76957,1.76957,0,0,0-1.30957-.49023,29.60873,29.60873,0,0,0-3.32031.24023l-.62012.05957-.05957-.96a20.93029,20.93029,0,0,1,3.84961-.41992,3.16853,3.16853,0,0,1,2.38965.78027A3.38233,3.38233,0,0,1,243.48584,152.16215Zm-6.28027,4.17969q0,2.02,1.66015,2.01953a8.19566,8.19566,0,0,0,1.58008-.16992,9.79942,9.79942,0,0,0,1.36035-.34961l.5-.17969V154.042l-3.25976.33985a1.7236,1.7236,0,0,0-1.84082,1.96Z" transform="translate(-8.05078)"/><path class="cls-2" d="M247.69092,159.18168h-1.17969v-10h1.17969v.74024a6.66548,6.66548,0,0,1,3.26074-.94043,2.92749,2.92749,0,0,1,2.66992,1.06054,7.86825,7.86825,0,0,1,.66992,3.87989v5.25976h-1.20019v-5.20019a7.34184,7.34184,0,0,0-.44043-3.10938,1.94718,1.94718,0,0,0-1.87988-.81054,5.59513,5.59513,0,0,0-1.46973.21,6.21142,6.21142,0,0,0-1.19043.42968l-.41992.2002Z" transform="translate(-8.05078)"/><path class="cls-2" d="M256.82764,146.68168v-1.5h1.17968v1.5Zm0,12.5v-10h1.17968v10Z" transform="translate(-8.05078)"/><path class="cls-2" d="M267.31787,158.18168l.59961-.05957.04.9795a31.9378,31.9378,0,0,1-3.81934.28027,3.43615,3.43615,0,0,1-3.0205-1.28027,6.967,6.967,0,0,1-.86036-3.87989q0-5.23974,4.12012-5.24023a3.70853,3.70853,0,0,1,2.96,1.12988,5.44955,5.44955,0,0,1,.98047,3.61035l-.04.96H261.478a4.76134,4.76134,0,0,0,.62988,2.73047,2.46444,2.46444,0,0,0,2.16016.88965Q265.79737,158.3018,267.31787,158.18168Zm-5.83984-4.5h5.63965a4.69389,4.69389,0,0,0-.65039-2.82031,2.46442,2.46442,0,0,0-2.07911-.83984,2.69071,2.69071,0,0,0-2.17089.87011A4.27416,4.27416,0,0,0,261.478,153.68168Z" transform="translate(-8.05078)"/><path class="cls-2" d="M273.64111,150.08207q-2.35986,0-2.35937,1.69922a1.18723,1.18723,0,0,0,.51953,1.10059,7.98819,7.98819,0,0,0,2.35059.62988,6.51949,6.51949,0,0,1,2.58007.84961,2.40839,2.40839,0,0,1,.75,2.07031,2.58046,2.58046,0,0,1-.98047,2.24024,4.87928,4.87928,0,0,1-2.87988.71,18.66042,18.66042,0,0,1-2.83984-.28027l-.58008-.08008.08008-1.05957a24.74167,24.74167,0,0,0,3.43945.33984,3.51178,3.51178,0,0,0,1.87012-.41992,1.54236,1.54236,0,0,0,.66992-1.41992,1.42528,1.42528,0,0,0-.5498-1.33008,7.75335,7.75335,0,0,0-2.35938-.61035,6.3692,6.3692,0,0,1-2.55078-.79981,2.24564,2.24564,0,0,1-.73926-1.96,2.3166,2.3166,0,0,1,1.01953-2.09961,4.54265,4.54265,0,0,1,2.52051-.66015,21.7482,21.7482,0,0,1,3,.25976l.53906.08008-.03906,1.05957A24.55791,24.55791,0,0,0,273.64111,150.08207Z" transform="translate(-8.05078)"/><path class="cls-2" d="M283.061,149.18168h1.21972l2.2002,8.96h.28027l2.59961-8.75976h1.25977l2.60058,8.75976h.29981l2.20019-8.96h1.21973l-2.5,10h-2.08008l-2.36035-8.24023-2.37988,8.24023H285.561Z" transform="translate(-8.05078)"/><path class="cls-2" d="M298.84326,146.68168v-1.5H300.023v1.5Zm0,12.5v-10H300.023v10Z" transform="translate(-8.05078)"/><path class="cls-2" d="M307.87646,150.24125h-3.33984v4.94043a7.24717,7.24717,0,0,0,.28027,2.54q.27979.60058,1.32032.59961l1.83984-.13965.08008,1.01953a14.52378,14.52378,0,0,1-2.02051.2002,2.54509,2.54509,0,0,1-2.10937-.75,4.92068,4.92068,0,0,1-.59082-2.87012v-5.54h-1.4795v-1.05957h1.4795V146.042h1.20019v3.13965h3.33984Z" transform="translate(-8.05078)"/><path class="cls-2" d="M310.90186,159.18168h-1.17969V144.74125h1.17969v5.02051a7.67468,7.67468,0,0,1,3.24023-.78027A2.9264,2.9264,0,0,1,316.812,150.042a7.86825,7.86825,0,0,1,.66992,3.87989v5.25976h-1.20019v-5.20019a7.50226,7.50226,0,0,0-.42969-3.10938,1.92391,1.92391,0,0,0-1.87012-.81054,6.81684,6.81684,0,0,0-1.46972.16992,6.96843,6.96843,0,0,0-1.19043.35058l-.41992.15918Z" transform="translate(-8.05078)"/><path class="cls-1" d="M326.38232,159.18168h-2.17968V145.02153h2.17968v4.67968a6.19551,6.19551,0,0,1,2.74024-.73925,3.00517,3.00517,0,0,1,2.72949,1.12988,7.14387,7.14387,0,0,1,.73047,3.72949v5.36035h-2.18066v-5.2998a5.564,5.564,0,0,0-.33985-2.29981,1.45018,1.45018,0,0,0-1.43945-.68066,6.04791,6.04791,0,0,0-1.91992.32031l-.32032.12012Z" transform="translate(-8.05078)"/><path class="cls-1" d="M334.7749,147.48149v-2.29981h2.17969v2.29981Zm0,11.70019v-10h2.17969v10Z" transform="translate(-8.05078)"/><path class="cls-1" d="M347.898,160.542q0,3.27979-4.73926,3.2793a7.10355,7.10355,0,0,1-3.37988-.62012,2.36511,2.36511,0,0,1-1.10059-2.25976,2.20136,2.20136,0,0,1,.36035-1.26953,5.38562,5.38562,0,0,1,1.16016-1.15039,1.623,1.623,0,0,1-.66016-1.46,3.08251,3.08251,0,0,1,.54-1.29981l.17969-.2998a3.20431,3.20431,0,0,1-1.43945-3,3.138,3.138,0,0,1,1.0791-2.64063,4.64057,4.64057,0,0,1,2.9209-.83984,7.6845,7.6845,0,0,1,1.73926.20019l.2998.05957,3.10059-.0791v1.75977l-1.66016-.10059a2.60737,2.60737,0,0,1,.54,1.64063,3.20915,3.20915,0,0,1-.99024,2.71,5.12813,5.12813,0,0,1-3.08984.75,4.10282,4.10282,0,0,1-.87988-.08008,3.03749,3.03749,0,0,0-.28028,1.0498.50951.50951,0,0,0,.37012.50977,6.92989,6.92989,0,0,0,1.79.16016,6.15,6.15,0,0,1,3.25977.63964A2.68565,2.68565,0,0,1,347.898,160.542Zm-7.0791.19922a1.04407,1.04407,0,0,0,.55957,1,4.38,4.38,0,0,0,1.91992.30078q2.41992,0,2.41992-1.37988,0-.78077-.42969-.99023a4.69576,4.69576,0,0,0-1.71-.23047l-1.96-.12012a2.64544,2.64544,0,0,0-.62011.66992A1.47046,1.47046,0,0,0,340.81885,160.74125Zm.59961-6.92968a1.97439,1.97439,0,0,0,1.41992.42968,1.93852,1.93852,0,0,0,1.41016-.42968,1.84424,1.84424,0,0,0,.42968-1.34961,1.821,1.821,0,0,0-.43945-1.35059,1.98206,1.98206,0,0,0-1.41992-.42969A1.60086,1.60086,0,0,0,340.978,152.462,1.81309,1.81309,0,0,0,341.41846,153.81157Z" transform="translate(-8.05078)"/><path class="cls-1" d="M351.57471,159.18168H349.395V145.02153h2.17969v4.67968a6.1955,6.1955,0,0,1,2.74023-.73925,3.00516,3.00516,0,0,1,2.72949,1.12988,7.14387,7.14387,0,0,1,.73047,3.72949v5.36035h-2.18066v-5.2998a5.56384,5.56384,0,0,0-.33985-2.29981,1.45018,1.45018,0,0,0-1.43945-.68066,6.048,6.048,0,0,0-1.91992.32031l-.32031.12012Z" transform="translate(-8.05078)"/><path class="cls-1" d="M359.96436,154.78129V152.8018h5.98046v1.97949Z" transform="translate(-8.05078)"/><path class="cls-1" d="M368.19482,163.48149V149.18168H370.355v.62012a5.009,5.009,0,0,1,2.5791-.83984,3.40957,3.40957,0,0,1,2.90039,1.21,6.85171,6.85171,0,0,1,.91992,4.05957q0,2.85058-1.0498,4.00976a4.43042,4.43042,0,0,1-3.42969,1.16016,11.71477,11.71477,0,0,1-1.90039-.17969v4.25977Zm4.35938-12.58008a4.58582,4.58582,0,0,0-1.87988.41992l-.29981.14063v5.89941a8.9314,8.9314,0,0,0,1.75977.16016,2.0917,2.0917,0,0,0,1.87988-.78028,5.01694,5.01694,0,0,0,.52051-2.65918Q374.53467,150.90191,372.5542,150.90141Z" transform="translate(-8.05078)"/><path class="cls-1" d="M385.82764,157.38188l.55957-.06055.04,1.62012a20.718,20.718,0,0,1-4.04.46,3.8385,3.8385,0,0,1-3.19043-1.21973,6.27759,6.27759,0,0,1-.96973-3.90039q0-5.31885,4.33984-5.31933,4.20119,0,4.2002,4.58007l-.13965,1.55958h-6.20019a2.73891,2.73891,0,0,0,.54,1.82031,2.552,2.552,0,0,0,1.93945.58008Q384.32763,157.502,385.82764,157.38188Zm-1.2002-3.96a3.41405,3.41405,0,0,0-.4707-2.07031,1.91959,1.91959,0,0,0-1.58985-.58985,1.99287,1.99287,0,0,0-1.62988.62012,3.30019,3.30019,0,0,0-.53027,2.04Z" transform="translate(-8.05078)"/><path class="cls-1" d="M388.58643,159.18168v-10h2.16015v1.2002A9.48683,9.48683,0,0,1,394.146,148.962v2.17968a14.04754,14.04754,0,0,0-2.93946.87989l-.44043.17968v6.98047Z" transform="translate(-8.05078)"/><path class="cls-1" d="M398.52588,151.042v8.13965h-2.16016V151.042h-1.16015v-1.86035h1.16015V148.542a5.02737,5.02737,0,0,1,.62012-2.94042,2.63023,2.63023,0,0,1,2.19922-.79981l2.16015.2002-.01953,1.77929q-.98-.03954-1.62988-.04a1.01242,1.01242,0,0,0-.91016.39063,2.7645,2.7645,0,0,0-.25976,1.42969v.62011h2.63965V151.042Z" transform="translate(-8.05078)"/><path class="cls-1" d="M403.17529,150.26176a5.176,5.176,0,0,1,6.86035,0,6.2081,6.2081,0,0,1,1.0293,3.90039,6.43512,6.43512,0,0,1-1,3.91992,5.19653,5.19653,0,0,1-6.91992,0,6.43512,6.43512,0,0,1-1-3.91992A6.208,6.208,0,0,1,403.17529,150.26176Zm1.62989,6.5a2.42495,2.42495,0,0,0,3.59961,0,5.53344,5.53344,0,0,0,.46-2.62012,5.00979,5.00979,0,0,0-.48926-2.58007,2.44167,2.44167,0,0,0-3.54,0,4.99794,4.99794,0,0,0-.49024,2.58007A5.53342,5.53342,0,0,0,404.80518,156.76176Z" transform="translate(-8.05078)"/><path class="cls-1" d="M412.92139,159.18168v-10h2.16015v1.2002A9.4869,9.4869,0,0,1,418.481,148.962v2.17968a14.04754,14.04754,0,0,0-2.93946.87989l-.44043.17968v6.98047Z" transform="translate(-8.05078)"/><path class="cls-1" d="M422.06641,159.18168h-2.17969v-10h2.16016v.62012a5.18668,5.18668,0,0,1,2.5996-.83984,3.08994,3.08994,0,0,1,2.54.97949,7.58127,7.58127,0,0,1,3.62012-.97949,2.82637,2.82637,0,0,1,2.54,1.10937,7.0608,7.0608,0,0,1,.73926,3.75v5.36035h-2.15918v-5.2998a5.71861,5.71861,0,0,0-.33008-2.29981,1.36941,1.36941,0,0,0-1.37012-.68066,5.42882,5.42882,0,0,0-1.94043.40039l-.33984.13965a10.85333,10.85333,0,0,1,.16016,2.56055v5.17968h-2.16016V154.042a6.45066,6.45066,0,0,0-.32031-2.46,1.38458,1.38458,0,0,0-1.39942-.68066,4.35721,4.35721,0,0,0-1.86035.40039l-.2998.12012Z" transform="translate(-8.05078)"/><path class="cls-1" d="M436.28809,147.48149v-2.29981h2.17968v2.29981Zm0,11.70019v-10h2.17968v10Z" transform="translate(-8.05078)"/><path class="cls-1" d="M442.9082,159.18168h-2.17968v-10h2.16015v.62012a5.55654,5.55654,0,0,1,2.75977-.83984,3.00517,3.00517,0,0,1,2.72949,1.12988,7.144,7.144,0,0,1,.73047,3.72949v5.36035h-2.16016v-5.2998a5.43436,5.43436,0,0,0-.34961-2.29981,1.45336,1.45336,0,0,0-1.43066-.68066,4.95937,4.95937,0,0,0-1.96.40039l-.29981.12012Z" transform="translate(-8.05078)"/><path class="cls-1" d="M459.93164,160.542q0,3.27979-4.73926,3.2793a7.10358,7.10358,0,0,1-3.37988-.62012,2.36511,2.36511,0,0,1-1.10059-2.25976,2.20129,2.20129,0,0,1,.36036-1.26953,5.38531,5.38531,0,0,1,1.16015-1.15039,1.623,1.623,0,0,1-.66015-1.46,3.08245,3.08245,0,0,1,.54-1.29981l.17969-.2998a3.20431,3.20431,0,0,1-1.43945-3,3.138,3.138,0,0,1,1.0791-2.64063,4.64057,4.64057,0,0,1,2.9209-.83984,7.6845,7.6845,0,0,1,1.73926.20019l.2998.05957,3.10059-.0791v1.75977l-1.66016-.10059a2.60737,2.60737,0,0,1,.54,1.64063,3.20918,3.20918,0,0,1-.99023,2.71,5.12818,5.12818,0,0,1-3.08985.75,4.10282,4.10282,0,0,1-.87988-.08008,3.03765,3.03765,0,0,0-.28027,1.0498.5095.5095,0,0,0,.37011.50977,6.92989,6.92989,0,0,0,1.79.16016,6.15,6.15,0,0,1,3.25977.63964A2.68565,2.68565,0,0,1,459.93164,160.542Zm-7.0791.19922a1.04407,1.04407,0,0,0,.55957,1,4.38,4.38,0,0,0,1.91992.30078q2.41992,0,2.41992-1.37988,0-.78077-.42968-.99023a4.69583,4.69583,0,0,0-1.71-.23047l-1.96-.12012a2.64544,2.64544,0,0,0-.62011.66992A1.47046,1.47046,0,0,0,452.85254,160.74125Zm.59961-6.92968a1.97439,1.97439,0,0,0,1.41992.42968,1.93852,1.93852,0,0,0,1.41016-.42968,1.84424,1.84424,0,0,0,.42968-1.34961,1.821,1.821,0,0,0-.43945-1.35059,1.982,1.982,0,0,0-1.41992-.42969,1.60086,1.60086,0,0,0-1.84082,1.78028A1.81309,1.81309,0,0,0,453.45215,153.81157Z" transform="translate(-8.05078)"/><path class="cls-1" d="M472.63184,151.24125a28.83635,28.83635,0,0,0-3.41993-.31933,3.04368,3.04368,0,0,0-1.46972.25.85731.85731,0,0,0-.41016.79.77775.77775,0,0,0,.4502.75976,10.158,10.158,0,0,0,2.12011.50977,4.88589,4.88589,0,0,1,2.37012.91015,2.84508,2.84508,0,0,1,.69922,2.2002,2.68486,2.68486,0,0,1-1.00977,2.32031,4.95126,4.95126,0,0,1-2.95019.73926,17.7649,17.7649,0,0,1-3.08008-.33984l-.61914-.09961.0791-1.82032a29.6705,29.6705,0,0,0,3.46094.32032,3.19527,3.19527,0,0,0,1.50976-.26075.91418.91418,0,0,0,.4502-.85937.85664.85664,0,0,0-.43066-.83008,8.52589,8.52589,0,0,0-2.05957-.5,5.47737,5.47737,0,0,1-2.39063-.84961,2.5248,2.5248,0,0,1-.75976-2.12012,2.65493,2.65493,0,0,1,1.0498-2.30078,4.48142,4.48142,0,0,1,2.69043-.75976,19.08536,19.08536,0,0,1,3.13965.32031l.62012.12012Z" transform="translate(-8.05078)"/><path class="cls-1" d="M480.77734,149.18168h2.16016v10h-2.16016v-.62011a5.478,5.478,0,0,1-2.70019.83984,3.02106,3.02106,0,0,1-2.75977-1.10938,7.77276,7.77276,0,0,1-.70019-3.89062v-5.21973h2.18066v5.24024a6.40663,6.40663,0,0,0,.29981,2.41992q.30028.61964,1.39941.62012a4.82049,4.82049,0,0,0,1.98047-.40039l.2998-.12012Z" transform="translate(-8.05078)"/><path class="cls-1" d="M485.2041,163.48149V149.18168h2.16016v.62012a5.009,5.009,0,0,1,2.5791-.83984,3.40957,3.40957,0,0,1,2.90039,1.21,6.85171,6.85171,0,0,1,.91992,4.05957q0,2.85058-1.0498,4.00976a4.43042,4.43042,0,0,1-3.42969,1.16016,11.71467,11.71467,0,0,1-1.90039-.17969v4.25977Zm4.35938-12.58008a4.58586,4.58586,0,0,0-1.87989.41992l-.2998.14063v5.89941a8.93136,8.93136,0,0,0,1.75976.16016,2.0917,2.0917,0,0,0,1.87989-.78028,5.01694,5.01694,0,0,0,.52051-2.65918Q491.544,150.90191,489.56348,150.90141Z" transform="translate(-8.05078)"/><path class="cls-1" d="M495.62988,163.48149V149.18168H497.79v.62012a5.009,5.009,0,0,1,2.5791-.83984,3.40957,3.40957,0,0,1,2.90039,1.21,6.85171,6.85171,0,0,1,.91992,4.05957q0,2.85058-1.0498,4.00976a4.43042,4.43042,0,0,1-3.42969,1.16016,11.71477,11.71477,0,0,1-1.90039-.17969v4.25977Zm4.35938-12.58008a4.58578,4.58578,0,0,0-1.87988.41992l-.29981.14063v5.89941a8.9314,8.9314,0,0,0,1.75977.16016,2.0917,2.0917,0,0,0,1.87988-.78028,5.01694,5.01694,0,0,0,.52051-2.65918Q501.96973,150.90191,499.98926,150.90141Z" transform="translate(-8.05078)"/><path class="cls-1" d="M506.13184,159.18168V145.02153h2.17968v14.16015Z" transform="translate(-8.05078)"/><path class="cls-1" d="M509.81543,149.18168h2.13965l2.12012,8.13965h.54l2.12012-8.13965h2.16016l-3.80078,14.29981h-2.13965l1.20019-4.29981h-1.7207Z" transform="translate(-8.05078)"/><path class="cls-1" d="M174.46826,175.962a13.35252,13.35252,0,0,1,2.5.27929l.5.10059-.0791,1.71973q-1.58056-.15967-2.34082-.16016a2.46368,2.46368,0,0,0-2.04.68066,4.46756,4.46756,0,0,0-.51953,2.55957,4.8295,4.8295,0,0,0,.5,2.59961,2.40421,2.40421,0,0,0,2.08008.72071l2.33984-.16016.05957,1.74023a19.06678,19.06678,0,0,1-3.04.35938,3.78159,3.78159,0,0,1-3.21-1.22949,6.79172,6.79172,0,0,1-.92969-4.03028,6.33167,6.33167,0,0,1,.98047-3.99023A3.91727,3.91727,0,0,1,174.46826,175.962Z" transform="translate(-8.05078)"/><path class="cls-1" d="M181.28271,186.18168H179.103V172.02153h2.17968v4.67968a6.19554,6.19554,0,0,1,2.74024-.73925,3.00517,3.00517,0,0,1,2.72949,1.12988,7.14387,7.14387,0,0,1,.73047,3.72949v5.36035h-2.18066v-5.2998a5.564,5.564,0,0,0-.33985-2.29981,1.45018,1.45018,0,0,0-1.43945-.68066,6.04791,6.04791,0,0,0-1.91992.32031l-.32032.12012Z" transform="translate(-8.05078)"/><path class="cls-1" d="M197.08447,179.26176v4.55957a.94831.94831,0,0,0,.23047.65039,1.10866,1.10866,0,0,0,.64942.26953l-.05957,1.66016a4.21257,4.21257,0,0,1-2.66016-.73926,7.60741,7.60741,0,0,1-3.21973.73926q-2.981,0-2.98047-3.17969a2.72091,2.72091,0,0,1,.81055-2.20019,4.41483,4.41483,0,0,1,2.49023-.82032l2.57911-.21972v-.71973a1.21173,1.21173,0,0,0-1.37989-1.44043q-1.28027,0-3.19922.16016l-.64062.04-.08008-1.54a17.37854,17.37854,0,0,1,4.00977-.51953,3.68489,3.68489,0,0,1,2.64062.79A3.37906,3.37906,0,0,1,197.08447,179.26176Zm-4.47949,2.47949a1.3452,1.3452,0,0,0-1.37988,1.5q0,1.38135,1.21972,1.38086a7.75,7.75,0,0,0,2.12012-.32031l.35938-.12012v-2.66015Z" transform="translate(-8.05078)"/><path class="cls-1" d="M199.50635,174.48149v-2.29981H201.686v2.29981Zm0,11.70019v-10H201.686v10Z" transform="translate(-8.05078)"/><path class="cls-1" d="M206.12646,186.18168h-2.17968v-10h2.16015v.62012a5.55654,5.55654,0,0,1,2.75977-.83984,3.00517,3.00517,0,0,1,2.72949,1.12988,7.14387,7.14387,0,0,1,.73047,3.72949v5.36035H210.1665v-5.2998a5.4342,5.4342,0,0,0-.34961-2.29981,1.45335,1.45335,0,0,0-1.43066-.68066,4.95937,4.95937,0,0,0-1.96.40039l-.29981.12012Z" transform="translate(-8.05078)"/><path class="cls-1" d="M221.5083,178.24125a28.83623,28.83623,0,0,0-3.41992-.31933,3.04376,3.04376,0,0,0-1.46973.25.85731.85731,0,0,0-.41015.79.77775.77775,0,0,0,.45019.75976,10.15834,10.15834,0,0,0,2.12012.50977,4.88589,4.88589,0,0,1,2.37012.91015,2.84508,2.84508,0,0,1,.69921,2.2002,2.68488,2.68488,0,0,1-1.00976,2.32031,4.95128,4.95128,0,0,1-2.9502.73926,17.7648,17.7648,0,0,1-3.08007-.33984l-.61915-.09961.07911-1.82032a29.6702,29.6702,0,0,0,3.46093.32032,3.19532,3.19532,0,0,0,1.50977-.26075.9142.9142,0,0,0,.45019-.85937.85664.85664,0,0,0-.43066-.83008,8.52575,8.52575,0,0,0-2.05957-.5,5.47732,5.47732,0,0,1-2.39062-.84961,2.5248,2.5248,0,0,1-.75977-2.12012,2.655,2.655,0,0,1,1.0498-2.30078,4.48142,4.48142,0,0,1,2.69043-.75976,19.08525,19.08525,0,0,1,3.13965.32031l.62012.12012Z" transform="translate(-8.05078)"/><path class="cls-2" d="M235.00732,179.16215v5.35938q.08058.73974,1.29981.87988l-.05957.96a2.8944,2.8944,0,0,1-2.25977-.7998,9.33865,9.33865,0,0,1-3.76074.82031,2.61781,2.61781,0,0,1-2.04-.77051,3.15462,3.15462,0,0,1-.69922-2.19922,2.83592,2.83592,0,0,1,.71-2.12012,3.68339,3.68339,0,0,1,2.2295-.85058l3.40039-.33984v-.93946a2.21849,2.21849,0,0,0-.49024-1.61035,1.76957,1.76957,0,0,0-1.30957-.49023,29.60889,29.60889,0,0,0-3.32031.24023l-.62012.05957-.05957-.96a20.93029,20.93029,0,0,1,3.84961-.41992,3.16852,3.16852,0,0,1,2.38965.78027A3.38233,3.38233,0,0,1,235.00732,179.16215Zm-6.28027,4.17969q0,2.02,1.66016,2.01953a8.19574,8.19574,0,0,0,1.58008-.16992,9.7998,9.7998,0,0,0,1.36035-.34961l.5-.17969V181.042l-3.25977.33985a1.7236,1.7236,0,0,0-1.84082,1.96Z" transform="translate(-8.05078)"/><path class="cls-2" d="M241.53857,175.98149a13.78945,13.78945,0,0,1,2.14063.20019l.46.05957-.06055,1.02051a20.771,20.771,0,0,0-2.33984-.20019,2.89926,2.89926,0,0,0-2.43945.87011,5.57081,5.57081,0,0,0-.66016,3.2002,6.3235,6.3235,0,0,0,.59961,3.25,2.8,2.8,0,0,0,2.5.91992l2.37988-.17969.04,1.01953a21.85115,21.85115,0,0,1-2.63965.24024q-2.38036,0-3.25-1.18067a7.07282,7.07282,0,0,1-.87011-4.05957q0-2.87988.95019-4.01953A3.93856,3.93856,0,0,1,241.53857,175.98149Z" transform="translate(-8.05078)"/><path class="cls-2" d="M247.3208,186.18168h-1.17969V171.74125h1.17969v5.02051a7.67475,7.67475,0,0,1,3.24024-.78027A2.92641,2.92641,0,0,1,253.231,177.042a7.86825,7.86825,0,0,1,.66992,3.87989v5.25976h-1.2002v-5.20019a7.5023,7.5023,0,0,0-.42968-3.10938,1.92391,1.92391,0,0,0-1.87012-.81054,6.81693,6.81693,0,0,0-1.46973.16992,6.96871,6.96871,0,0,0-1.19043.35058l-.41992.15918Z" transform="translate(-8.05078)"/><path class="cls-2" d="M256.44775,173.68168v-1.5h1.17969v1.5Zm0,12.5v-10h1.17969v10Z" transform="translate(-8.05078)"/><path class="cls-2" d="M266.937,185.18168l.59961-.05957.04.9795a31.9378,31.9378,0,0,1-3.81934.28027,3.43615,3.43615,0,0,1-3.0205-1.28027,6.967,6.967,0,0,1-.86036-3.87989q0-5.23974,4.12012-5.24023a3.70853,3.70853,0,0,1,2.96,1.12988,5.44955,5.44955,0,0,1,.98047,3.61035l-.04.96h-6.7998a4.76134,4.76134,0,0,0,.62988,2.73047,2.46444,2.46444,0,0,0,2.16016.88965Q265.41651,185.3018,266.937,185.18168Zm-5.83984-4.5h5.63965a4.69389,4.69389,0,0,0-.65039-2.82031,2.46442,2.46442,0,0,0-2.07911-.83984,2.69071,2.69071,0,0,0-2.17089.87011A4.27416,4.27416,0,0,0,261.09717,180.68168Z" transform="translate(-8.05078)"/><path class="cls-2" d="M269.08936,176.18168h1.32031l2.5,8.96h.7998l2.59961-8.96h1.24024l-2.91993,10h-2.62011Z" transform="translate(-8.05078)"/><path class="cls-2" d="M285.75928,185.18168l.59961-.05957.04.9795a31.9378,31.9378,0,0,1-3.81934.28027,3.43617,3.43617,0,0,1-3.02051-1.28027,6.96706,6.96706,0,0,1-.86035-3.87989q0-5.23974,4.12012-5.24023a3.70853,3.70853,0,0,1,2.96,1.12988,5.44955,5.44955,0,0,1,.98047,3.61035l-.04.96h-6.79981a4.76126,4.76126,0,0,0,.62989,2.73047,2.46442,2.46442,0,0,0,2.16015.88965Q284.23876,185.3018,285.75928,185.18168Zm-5.83985-4.5h5.63965a4.69382,4.69382,0,0,0-.65039-2.82031,2.46441,2.46441,0,0,0-2.0791-.83984,2.69075,2.69075,0,0,0-2.1709.87011A4.27422,4.27422,0,0,0,279.91943,180.68168Z" transform="translate(-8.05078)"/><path class="cls-2" d="M293.21826,186.18168v-10H294.398v1.44043a10.89391,10.89391,0,0,1,1.81055-1,8.53989,8.53989,0,0,1,1.96972-.64062v1.20019a11.24089,11.24089,0,0,0-1.7998.54981,14.25479,14.25479,0,0,0-1.46.65039l-.52051.2998v7.5Z" transform="translate(-8.05078)"/><path class="cls-2" d="M306.33057,185.18168l.59961-.05957.04.9795a31.93751,31.93751,0,0,1-3.81933.28027,3.43617,3.43617,0,0,1-3.02051-1.28027,6.96706,6.96706,0,0,1-.86035-3.87989q0-5.23974,4.12012-5.24023a3.70853,3.70853,0,0,1,2.96,1.12988,5.44955,5.44955,0,0,1,.98047,3.61035l-.04.96h-6.79981a4.76126,4.76126,0,0,0,.62989,2.73047,2.46442,2.46442,0,0,0,2.16015.88965Q304.81006,185.3018,306.33057,185.18168Zm-5.83985-4.5h5.63965a4.69389,4.69389,0,0,0-.65039-2.82031,2.46441,2.46441,0,0,0-2.0791-.83984,2.69073,2.69073,0,0,0-2.1709.87011A4.27422,4.27422,0,0,0,300.49072,180.68168Z" transform="translate(-8.05078)"/><path class="cls-2" d="M308.48193,176.18168h1.32032l2.5,8.96h.7998l2.59961-8.96h1.24023l-2.91992,10h-2.62011Z" transform="translate(-8.05078)"/><path class="cls-2" d="M325.15186,185.18168l.5996-.05957.04.9795a31.93751,31.93751,0,0,1-3.81933.28027,3.43617,3.43617,0,0,1-3.02051-1.28027,6.96706,6.96706,0,0,1-.86035-3.87989q0-5.23974,4.12012-5.24023a3.70853,3.70853,0,0,1,2.96,1.12988,5.44955,5.44955,0,0,1,.98047,3.61035l-.04.96H319.312a4.76134,4.76134,0,0,0,.62988,2.73047,2.46445,2.46445,0,0,0,2.16016.88965Q323.63135,185.3018,325.15186,185.18168Zm-5.83985-4.5h5.63965a4.69389,4.69389,0,0,0-.65039-2.82031,2.46441,2.46441,0,0,0-2.0791-.83984,2.69073,2.69073,0,0,0-2.1709.87011A4.27422,4.27422,0,0,0,319.312,180.68168Z" transform="translate(-8.05078)"/><path class="cls-2" d="M329.41553,186.18168h-1.17969v-10h1.17969v.74024a6.66545,6.66545,0,0,1,3.26074-.94043,2.92749,2.92749,0,0,1,2.66992,1.06054,7.86825,7.86825,0,0,1,.66992,3.87989v5.25976h-1.20019v-5.20019a7.34184,7.34184,0,0,0-.44043-3.10938,1.94718,1.94718,0,0,0-1.87988-.81054,5.59513,5.59513,0,0,0-1.46973.21,6.21142,6.21142,0,0,0-1.19043.42968l-.41992.2002Z" transform="translate(-8.05078)"/><path class="cls-2" d="M344.855,176.18168h1.17969v10H344.855v-.74023a5.87037,5.87037,0,0,1-3.08008.94043q-2.04053,0-2.69043-1.04a8.17857,8.17857,0,0,1-.64941-3.94043v-5.21973h1.17969v5.2002a7.49721,7.49721,0,0,0,.42968,3.12012q.43067.7998,1.87012.7998a5.28337,5.28337,0,0,0,1.44043-.21,5.17988,5.17988,0,0,0,1.12012-.42969l.37988-.20019Z" transform="translate(-8.05078)"/><path class="cls-2" d="M355.34033,185.18168l.59961-.05957.04.9795a31.9378,31.9378,0,0,1-3.81934.28027,3.43615,3.43615,0,0,1-3.0205-1.28027,6.967,6.967,0,0,1-.86035-3.87989q0-5.23974,4.12011-5.24023a3.70853,3.70853,0,0,1,2.96,1.12988,5.44955,5.44955,0,0,1,.98047,3.61035l-.04.96h-6.7998a4.76134,4.76134,0,0,0,.62988,2.73047,2.46444,2.46444,0,0,0,2.16016.88965Q353.81983,185.3018,355.34033,185.18168Zm-5.83984-4.5h5.63965a4.69389,4.69389,0,0,0-.65039-2.82031,2.46442,2.46442,0,0,0-2.07911-.83984,2.69071,2.69071,0,0,0-2.17089.87011A4.27416,4.27416,0,0,0,349.50049,180.68168Z" transform="translate(-8.05078)"/><path class="cls-2" d="M370.8999,187.70121a2.78914,2.78914,0,0,1-1.08984,2.46094,6.00606,6.00606,0,0,1-3.38965.75977,5.5584,5.5584,0,0,1-3.17969-.66016,2.857,2.857,0,0,1-.88086-2.41992,2.29575,2.29575,0,0,1,.36035-1.35059,5.67961,5.67961,0,0,1,1.25977-1.16992,1.51245,1.51245,0,0,1-.5-1.35937,3.71184,3.71184,0,0,1,.48047-1.26075l.16016-.2998q-1.64062-.67969-1.64063-3.01953,0-3.3999,3.62012-3.40039a7.29859,7.29859,0,0,1,1.7998.20019l.30078.05957,2.89942-.05957v1.05957l-2-.04a3.26161,3.26161,0,0,1,.71972,2.37012,2.93626,2.93626,0,0,1-.90918,2.40039,4.48356,4.48356,0,0,1-2.87011.75,5.72335,5.72335,0,0,1-1.02051-.08008,4.82707,4.82707,0,0,0-.39941,1.24024q0,.65917.38964.80957a9.89741,9.89741,0,0,0,2.33008.16016,5.00627,5.00627,0,0,1,2.75.58007A2.6229,2.6229,0,0,1,370.8999,187.70121Zm-7.33984.06055a1.97775,1.97775,0,0,0,.60058,1.66016,4.07858,4.07858,0,0,0,2.31934.46,4.63529,4.63529,0,0,0,2.46-.49024,1.8196,1.8196,0,0,0,.74024-1.63964q0-1.15137-.54-1.49024a4.26074,4.26074,0,0,0-2.05957-.33984l-2.26075-.08008a3.94857,3.94857,0,0,0-1,.91016A1.79134,1.79134,0,0,0,363.56006,187.76176Zm.14062-8.38965a2.43562,2.43562,0,0,0,.55957,1.81934,2.71139,2.71139,0,0,0,1.88965.53027,2.74807,2.74807,0,0,0,1.89063-.52051,2.42972,2.42972,0,0,0,.55957-1.8291,2.5079,2.5079,0,0,0-.55957-1.85058,2.685,2.685,0,0,0-1.89063-.54,2.64646,2.64646,0,0,0-1.88965.5498A2.51416,2.51416,0,0,0,363.70068,179.37211Z" transform="translate(-8.05078)"/><path class="cls-2" d="M372.854,186.18168v-10h1.17969v1.44043a10.89432,10.89432,0,0,1,1.81055-1,8.54,8.54,0,0,1,1.96972-.64062v1.20019a11.24119,11.24119,0,0,0-1.7998.54981,14.25579,14.25579,0,0,0-1.46.65039l-.52051.2998v7.5Z" transform="translate(-8.05078)"/><path class="cls-2" d="M378.99658,181.16215a6.46916,6.46916,0,0,1,.9502-4,5.03528,5.03528,0,0,1,6.47949,0,6.46916,6.46916,0,0,1,.95019,4,7.04029,7.04029,0,0,1-.87011,4.01953q-.87012,1.19971-3.30957,1.2002-2.44044,0-3.32032-1.2002A6.97489,6.97489,0,0,1,378.99658,181.16215Zm1.24024-.03027a6.86849,6.86849,0,0,0,.5498,3.28027q.54931.90967,2.39942.90918,1.85008,0,2.41015-.91992a6.772,6.772,0,0,0,.56055-3.26953,5.83954,5.83954,0,0,0-.62988-3.21973,3.57161,3.57161,0,0,0-4.66016-.01074A5.83779,5.83779,0,0,0,380.23682,181.13188Z" transform="translate(-8.05078)"/><path class="cls-2" d="M388.67725,176.18168H389.897l2.2002,8.96h.28027l2.59961-8.75976h1.25977l2.60058,8.75976h.29981l2.20019-8.96h1.21973l-2.5,10h-2.08008l-2.36035-8.24023-2.37988,8.24023h-2.05957Z" transform="translate(-8.05078)"/><path class="cls-2" d="M410.00635,177.24125H406.6665v4.94043a7.24684,7.24684,0,0,0,.28028,2.54q.27978.60058,1.32031.59961l1.83984-.13965.08008,1.01953a14.52378,14.52378,0,0,1-2.02051.2002,2.54511,2.54511,0,0,1-2.10937-.75,4.92068,4.92068,0,0,1-.59082-2.87012v-5.54h-1.47949v-1.05957h1.47949V173.042h1.20019v3.13965h3.33985Z" transform="translate(-8.05078)"/><path class="cls-2" d="M413.03271,186.18168H411.853V171.74125h1.17968v5.02051a7.67475,7.67475,0,0,1,3.24024-.78027,2.92488,2.92488,0,0,1,2.66943,1.06054,7.86825,7.86825,0,0,1,.66992,3.87989v5.25976h-1.1997v-5.20019a7.50226,7.50226,0,0,0-.42969-3.10938,1.92391,1.92391,0,0,0-1.87012-.81054,6.81684,6.81684,0,0,0-1.46972.16992,6.96815,6.96815,0,0,0-1.19043.35058l-.41993.15918Z" transform="translate(-8.05078)"/><path class="cls-2" d="M429.53125,177.08207q-2.35986,0-2.35937,1.69922a1.18723,1.18723,0,0,0,.51953,1.10059,7.98819,7.98819,0,0,0,2.35058.62988,6.51949,6.51949,0,0,1,2.58008.84961,2.40839,2.40839,0,0,1,.75,2.07031,2.58048,2.58048,0,0,1-.98047,2.24024,4.87928,4.87928,0,0,1-2.87988.71,18.66042,18.66042,0,0,1-2.83984-.28027l-.58008-.08008.08008-1.05957a24.74153,24.74153,0,0,0,3.43945.33984,3.51178,3.51178,0,0,0,1.87012-.41992,1.54236,1.54236,0,0,0,.66992-1.41992,1.42526,1.42526,0,0,0-.54981-1.33008,7.75326,7.75326,0,0,0-2.35937-.61035,6.3692,6.3692,0,0,1-2.55078-.79981,2.24561,2.24561,0,0,1-.73926-1.96,2.31658,2.31658,0,0,1,1.01953-2.09961,4.54265,4.54265,0,0,1,2.52051-.66015,21.74845,21.74845,0,0,1,3,.25976l.53906.08008-.03906,1.05957A24.558,24.558,0,0,0,429.53125,177.08207Z" transform="translate(-8.05078)"/><path class="cls-2" d="M441.75391,176.18168h1.17968v10h-1.17968v-.74023a5.8704,5.8704,0,0,1-3.08008.94043q-2.04052,0-2.69043-1.04a8.17842,8.17842,0,0,1-.64942-3.94043v-5.21973h1.17969v5.2002a7.49717,7.49717,0,0,0,.42969,3.12012q.43067.7998,1.87012.7998a5.28343,5.28343,0,0,0,1.44043-.21,5.17955,5.17955,0,0,0,1.12011-.42969l.37989-.20019Z" transform="translate(-8.05078)"/><path class="cls-2" d="M445.544,190.68168v-14.5h1.17968v.75977a6.18264,6.18264,0,0,1,3.29-.96,2.93425,2.93425,0,0,1,2.58008,1.21972,7.12577,7.12577,0,0,1,.85059,3.97071,6.31824,6.31824,0,0,1-1,3.97949,4.0439,4.0439,0,0,1-3.32032,1.23047,10.97151,10.97151,0,0,1-2.40039-.25977v4.55957Zm4.21972-13.62011a5.13246,5.13246,0,0,0-1.41992.21972,5.66474,5.66474,0,0,0-1.17969.46l-.44043.22071v7.12011a13.92113,13.92113,0,0,0,2.36035.23926,2.78641,2.78641,0,0,0,2.41993-.96972,5.59916,5.59916,0,0,0,.70019-3.2002,6.03529,6.03529,0,0,0-.61035-3.16016A2.04373,2.04373,0,0,0,449.76367,177.06157Z" transform="translate(-8.05078)"/><path class="cls-2" d="M462.3877,185.18168l.5996-.05957.04.9795a31.93751,31.93751,0,0,1-3.81933.28027,3.43617,3.43617,0,0,1-3.02051-1.28027,6.96706,6.96706,0,0,1-.86035-3.87989q0-5.23974,4.12012-5.24023a3.70853,3.70853,0,0,1,2.96,1.12988,5.44955,5.44955,0,0,1,.98047,3.61035l-.04.96h-6.79981a4.76134,4.76134,0,0,0,.62988,2.73047,2.46445,2.46445,0,0,0,2.16016.88965Q460.86718,185.3018,462.3877,185.18168Zm-5.83985-4.5h5.63965a4.69389,4.69389,0,0,0-.65039-2.82031,2.46441,2.46441,0,0,0-2.0791-.83984,2.69073,2.69073,0,0,0-2.1709.87011A4.27422,4.27422,0,0,0,456.54785,180.68168Z" transform="translate(-8.05078)"/><path class="cls-2" d="M465.47168,186.18168v-10h1.17969v1.44043a10.89419,10.89419,0,0,1,1.81054-1,8.54,8.54,0,0,1,1.96973-.64062v1.20019a11.24089,11.24089,0,0,0-1.7998.54981,14.25379,14.25379,0,0,0-1.46.65039l-.52051.2998v7.5Z" transform="translate(-8.05078)"/><path class="cls-2" d="M472.15625,173.68168v-1.5h1.17969v1.5Zm0,12.5v-10h1.17969v10Z" transform="translate(-8.05078)"/><path class="cls-2" d="M475.61816,181.16215a6.46916,6.46916,0,0,1,.9502-4,5.03528,5.03528,0,0,1,6.47949,0,6.46916,6.46916,0,0,1,.9502,4,7.04028,7.04028,0,0,1-.87012,4.01953q-.87012,1.19971-3.30957,1.2002-2.44042,0-3.32031-1.2002A6.9748,6.9748,0,0,1,475.61816,181.16215Zm1.24024-.03027a6.86862,6.86862,0,0,0,.5498,3.28027q.54931.90967,2.39942.90918,1.8501,0,2.41015-.91992a6.772,6.772,0,0,0,.56055-3.26953,5.83954,5.83954,0,0,0-.62988-3.21973,3.57161,3.57161,0,0,0-4.66016-.01074A5.83779,5.83779,0,0,0,476.8584,181.13188Z" transform="translate(-8.05078)"/><path class="cls-2" d="M486.25391,186.18168v-10h1.17968v1.44043a10.89432,10.89432,0,0,1,1.81055-1,8.54,8.54,0,0,1,1.96973-.64062v1.20019a11.241,11.241,0,0,0-1.79981.54981,14.25579,14.25579,0,0,0-1.46.65039l-.52051.2998v7.5Z" transform="translate(-8.05078)"/><path class="cls-2" d="M502.09277,177.24125h-3.33984v4.94043a7.24717,7.24717,0,0,0,.28027,2.54q.27979.60058,1.32032.59961l1.83984-.13965.08008,1.01953a14.52392,14.52392,0,0,1-2.02051.2002,2.54512,2.54512,0,0,1-2.10938-.75,4.92076,4.92076,0,0,1-.59082-2.87012v-5.54h-1.47949v-1.05957h1.47949V173.042h1.2002v3.13965h3.33984Z" transform="translate(-8.05078)"/><path class="cls-2" d="M503.38672,181.16215a6.46916,6.46916,0,0,1,.95019-4,5.03529,5.03529,0,0,1,6.4795,0,6.46916,6.46916,0,0,1,.95019,4,7.04028,7.04028,0,0,1-.87012,4.01953q-.8701,1.19971-3.30957,1.2002-2.44042,0-3.32031-1.2002A6.97489,6.97489,0,0,1,503.38672,181.16215Zm1.24023-.03027a6.86847,6.86847,0,0,0,.54981,3.28027q.54932.90967,2.39941.90918,1.8501,0,2.41016-.91992a6.772,6.772,0,0,0,.56055-3.26953,5.83953,5.83953,0,0,0-.62989-3.21973,3.5716,3.5716,0,0,0-4.66015-.01074A5.83769,5.83769,0,0,0,504.627,181.13188Z" transform="translate(-8.05078)"/><path class="cls-2" d="M175.96826,204.24125h-3.33984v4.94043a7.24717,7.24717,0,0,0,.28027,2.54q.27978.60058,1.32031.59961l1.83985-.13965.08008,1.01953a14.52406,14.52406,0,0,1-2.02051.2002,2.54512,2.54512,0,0,1-2.10938-.75,4.92076,4.92076,0,0,1-.59082-2.87012v-5.54h-1.47949v-1.05957h1.47949V200.042h1.2002v3.13965h3.33984Z" transform="translate(-8.05078)"/><path class="cls-2" d="M178.99365,213.18168H177.814V198.74125h1.17969v5.02051a7.67475,7.67475,0,0,1,3.24024-.78027,2.92641,2.92641,0,0,1,2.66992,1.06054,7.86825,7.86825,0,0,1,.66992,3.87989v5.25976h-1.20019v-5.20019a7.50226,7.50226,0,0,0-.42969-3.10938,1.92391,1.92391,0,0,0-1.87012-.81054,6.81693,6.81693,0,0,0-1.46973.16992,6.96871,6.96871,0,0,0-1.19043.35058l-.41992.15918Z" transform="translate(-8.05078)"/><path class="cls-2" d="M194.77881,212.18168l.59961-.05957.04.9795a31.9378,31.9378,0,0,1-3.81934.28027,3.43618,3.43618,0,0,1-3.02051-1.28027,6.96706,6.96706,0,0,1-.86035-3.87989q0-5.23974,4.12012-5.24023a3.70853,3.70853,0,0,1,2.96,1.12988,5.44955,5.44955,0,0,1,.98047,3.61035l-.04.96H188.939a4.76134,4.76134,0,0,0,.62989,2.73047,2.46443,2.46443,0,0,0,2.16015.88965Q193.25831,212.3018,194.77881,212.18168Zm-5.83985-4.5h5.63965a4.69382,4.69382,0,0,0-.65039-2.82031,2.46439,2.46439,0,0,0-2.0791-.83984,2.69075,2.69075,0,0,0-2.1709.87011A4.27422,4.27422,0,0,0,188.939,207.68168Z" transform="translate(-8.05078)"/><path class="cls-2" d="M209.11768,206.16215v5.35938q.08056.73974,1.2998.87988l-.05957.96a2.89441,2.89441,0,0,1-2.25977-.7998,9.33865,9.33865,0,0,1-3.76074.82031,2.61781,2.61781,0,0,1-2.04-.77051,3.15467,3.15467,0,0,1-.69922-2.19922,2.83589,2.83589,0,0,1,.71-2.12012,3.68336,3.68336,0,0,1,2.22949-.85058l3.40039-.33984v-.93946a2.21844,2.21844,0,0,0-.49024-1.61035,1.76955,1.76955,0,0,0-1.30957-.49023,29.60889,29.60889,0,0,0-3.32031.24023l-.62012.05957-.05957-.96a20.93029,20.93029,0,0,1,3.84961-.41992,3.16852,3.16852,0,0,1,2.38965.78027A3.38228,3.38228,0,0,1,209.11768,206.16215Zm-6.28028,4.17969q0,2.02,1.66016,2.01953a8.19574,8.19574,0,0,0,1.58008-.16992,9.7998,9.7998,0,0,0,1.36035-.34961l.5-.17969V208.042l-3.25977.33985a1.72362,1.72362,0,0,0-1.84082,1.96Z" transform="translate(-8.05078)"/><path class="cls-2" d="M210.74756,203.18168h1.32031l2.5,8.96h.79981l2.59961-8.96h1.24023l-2.91992,10h-2.62012Z" transform="translate(-8.05078)"/><path class="cls-2" d="M227.41748,212.18168l.59961-.05957.04.9795a31.9378,31.9378,0,0,1-3.81934.28027,3.43615,3.43615,0,0,1-3.0205-1.28027,6.967,6.967,0,0,1-.86036-3.87989q0-5.23974,4.12012-5.24023a3.70853,3.70853,0,0,1,2.96,1.12988,5.44955,5.44955,0,0,1,.98047,3.61035l-.04.96h-6.7998a4.76134,4.76134,0,0,0,.62988,2.73047,2.46444,2.46444,0,0,0,2.16016.88965Q225.897,212.3018,227.41748,212.18168Zm-5.83984-4.5h5.63965a4.69381,4.69381,0,0,0-.6504-2.82031,2.46439,2.46439,0,0,0-2.0791-.83984,2.69075,2.69075,0,0,0-2.1709.87011A4.27422,4.27422,0,0,0,221.57764,207.68168Z" transform="translate(-8.05078)"/><path class="cls-2" d="M230.50146,213.18168v-10h1.17969v1.44043a10.89432,10.89432,0,0,1,1.81055-1,8.54,8.54,0,0,1,1.96973-.64062v1.20019a11.241,11.241,0,0,0-1.79981.54981,14.25579,14.25579,0,0,0-1.46.65039l-.52051.2998v7.5Z" transform="translate(-8.05078)"/><path class="cls-2" d="M244.11768,206.16215v5.35938q.08056.73974,1.2998.87988l-.05957.96a2.89441,2.89441,0,0,1-2.25977-.7998,9.33865,9.33865,0,0,1-3.76074.82031,2.61781,2.61781,0,0,1-2.04-.77051,3.15467,3.15467,0,0,1-.69922-2.19922,2.83589,2.83589,0,0,1,.71-2.12012,3.68336,3.68336,0,0,1,2.22949-.85058l3.40039-.33984v-.93946a2.21844,2.21844,0,0,0-.49024-1.61035,1.76955,1.76955,0,0,0-1.30957-.49023,29.60889,29.60889,0,0,0-3.32031.24023l-.62012.05957-.05957-.96a20.93029,20.93029,0,0,1,3.84961-.41992,3.16852,3.16852,0,0,1,2.38965.78027A3.38228,3.38228,0,0,1,244.11768,206.16215Zm-6.28028,4.17969q0,2.02,1.66016,2.01953a8.19574,8.19574,0,0,0,1.58008-.16992,9.7998,9.7998,0,0,0,1.36035-.34961l.5-.17969V208.042l-3.25977.33985a1.72362,1.72362,0,0,0-1.84082,1.96Z" transform="translate(-8.05078)"/><path class="cls-2" d="M255.22119,214.70121a2.78914,2.78914,0,0,1-1.08984,2.46094,6.00606,6.00606,0,0,1-3.38965.75977,5.5584,5.5584,0,0,1-3.17969-.66016,2.857,2.857,0,0,1-.88086-2.41992,2.29575,2.29575,0,0,1,.36035-1.35059,5.67961,5.67961,0,0,1,1.25977-1.16992,1.51245,1.51245,0,0,1-.5-1.35937,3.71184,3.71184,0,0,1,.48047-1.26075l.16015-.2998q-1.64062-.67969-1.64062-3.01953,0-3.3999,3.62012-3.40039a7.29859,7.29859,0,0,1,1.7998.20019l.30078.05957,2.89942-.05957v1.05957l-2-.04a3.26161,3.26161,0,0,1,.71972,2.37012,2.93626,2.93626,0,0,1-.90918,2.40039,4.48356,4.48356,0,0,1-2.87011.75,5.72335,5.72335,0,0,1-1.02051-.08008,4.82727,4.82727,0,0,0-.39942,1.24024q0,.65917.38965.80957a9.89741,9.89741,0,0,0,2.33008.16016,5.00627,5.00627,0,0,1,2.75.58007A2.6229,2.6229,0,0,1,255.22119,214.70121Zm-7.33984.06055a1.97775,1.97775,0,0,0,.60058,1.66016,4.07858,4.07858,0,0,0,2.31934.46,4.63529,4.63529,0,0,0,2.46-.49024,1.81961,1.81961,0,0,0,.74023-1.63964q0-1.15137-.54-1.49024a4.26074,4.26074,0,0,0-2.05957-.33984l-2.26075-.08008a3.94857,3.94857,0,0,0-1,.91016A1.79134,1.79134,0,0,0,247.88135,214.76176Zm.14062-8.38965a2.43562,2.43562,0,0,0,.55957,1.81934,2.71139,2.71139,0,0,0,1.88965.53027,2.74807,2.74807,0,0,0,1.89063-.52051,2.42972,2.42972,0,0,0,.55957-1.8291,2.5079,2.5079,0,0,0-.55957-1.85058,2.685,2.685,0,0,0-1.89063-.54,2.64646,2.64646,0,0,0-1.88965.5498A2.51416,2.51416,0,0,0,248.022,206.37211Z" transform="translate(-8.05078)"/><path class="cls-2" d="M263.603,212.18168l.59961-.05957.04.9795a31.9378,31.9378,0,0,1-3.81934.28027,3.43617,3.43617,0,0,1-3.02051-1.28027,6.96706,6.96706,0,0,1-.86035-3.87989q0-5.23974,4.12012-5.24023a3.70853,3.70853,0,0,1,2.96,1.12988,5.44955,5.44955,0,0,1,.98047,3.61035l-.04.96h-6.79981a4.76126,4.76126,0,0,0,.62989,2.73047,2.46442,2.46442,0,0,0,2.16015.88965Q262.08251,212.3018,263.603,212.18168Zm-5.83985-4.5h5.63965a4.69382,4.69382,0,0,0-.65039-2.82031,2.46441,2.46441,0,0,0-2.0791-.83984,2.69075,2.69075,0,0,0-2.1709.87011A4.27422,4.27422,0,0,0,257.76318,207.68168Z" transform="translate(-8.05078)"/><path class="cls-2" d="M270.22217,203.18168h1.21972l2.2002,8.96h.28027l2.59961-8.75976h1.25977l2.60058,8.75976h.29981l2.20019-8.96h1.21973l-2.5,10H279.522l-2.36035-8.24023-2.37988,8.24023h-2.05957Z" transform="translate(-8.05078)"/><path class="cls-2" d="M286.00439,200.68168v-1.5h1.17969v1.5Zm0,12.5v-10h1.17969v10Z" transform="translate(-8.05078)"/><path class="cls-2" d="M295.0376,204.24125h-3.33985v4.94043a7.24684,7.24684,0,0,0,.28028,2.54q.27978.60058,1.32031.59961l1.83984-.13965.08008,1.01953a14.52378,14.52378,0,0,1-2.02051.2002,2.54511,2.54511,0,0,1-2.10937-.75,4.92068,4.92068,0,0,1-.59082-2.87012v-5.54h-1.47949v-1.05957h1.47949V200.042h1.20019v3.13965h3.33985Z" transform="translate(-8.05078)"/><path class="cls-2" d="M298.063,213.18168H296.8833V198.74125H298.063v5.02051a7.67471,7.67471,0,0,1,3.24023-.78027,2.92639,2.92639,0,0,1,2.66992,1.06054,7.86822,7.86822,0,0,1,.66993,3.87989v5.25976h-1.2002v-5.20019a7.50226,7.50226,0,0,0-.42969-3.10938,1.92389,1.92389,0,0,0-1.87011-.81054,6.81693,6.81693,0,0,0-1.46973.16992,6.96843,6.96843,0,0,0-1.19043.35058l-.41992.15918Z" transform="translate(-8.05078)"/><path class="cls-2" d="M307.18994,200.68168v-1.5h1.17969v1.5Zm0,12.5v-10h1.17969v10Z" transform="translate(-8.05078)"/><path class="cls-2" d="M312.14307,213.18168h-1.17969v-10h1.17969v.74024a6.66545,6.66545,0,0,1,3.26074-.94043,2.92751,2.92751,0,0,1,2.66992,1.06054,7.86825,7.86825,0,0,1,.66992,3.87989v5.25976h-1.20019v-5.20019a7.34184,7.34184,0,0,0-.44043-3.10938,1.94719,1.94719,0,0,0-1.87989-.81054,5.59511,5.59511,0,0,0-1.46972.21,6.21142,6.21142,0,0,0-1.19043.42968l-.41992.2002Z" transform="translate(-8.05078)"/><path class="cls-2" d="M330.68311,204.24125h-3.33985v4.94043a7.24684,7.24684,0,0,0,.28028,2.54q.27978.60058,1.32031.59961l1.83984-.13965.08008,1.01953a14.52378,14.52378,0,0,1-2.02051.2002,2.54509,2.54509,0,0,1-2.10937-.75,4.92068,4.92068,0,0,1-.59082-2.87012v-5.54h-1.4795v-1.05957h1.4795V200.042h1.20019v3.13965h3.33985Z" transform="translate(-8.05078)"/><path class="cls-2" d="M333.7085,213.18168h-1.17969V198.74125h1.17969v5.02051a7.67468,7.67468,0,0,1,3.24023-.78027,2.9264,2.9264,0,0,1,2.66992,1.06054,7.86825,7.86825,0,0,1,.66992,3.87989v5.25976h-1.20019v-5.20019a7.50226,7.50226,0,0,0-.42969-3.10938,1.9239,1.9239,0,0,0-1.87012-.81054,6.81684,6.81684,0,0,0-1.46972.16992,6.96843,6.96843,0,0,0-1.19043.35058l-.41992.15918Z" transform="translate(-8.05078)"/><path class="cls-2" d="M349.49268,212.18168l.59961-.05957.04.9795a31.93751,31.93751,0,0,1-3.81933.28027,3.43617,3.43617,0,0,1-3.02051-1.28027,6.96706,6.96706,0,0,1-.86035-3.87989q0-5.23974,4.12012-5.24023a3.70853,3.70853,0,0,1,2.96,1.12988,5.44955,5.44955,0,0,1,.98047,3.61035l-.04.96h-6.79981a4.76134,4.76134,0,0,0,.62988,2.73047,2.46445,2.46445,0,0,0,2.16016.88965Q347.97217,212.3018,349.49268,212.18168Zm-5.83985-4.5h5.63965a4.69389,4.69389,0,0,0-.65039-2.82031,2.46441,2.46441,0,0,0-2.0791-.83984,2.69073,2.69073,0,0,0-2.1709.87011A4.27422,4.27422,0,0,0,343.65283,207.68168Z" transform="translate(-8.05078)"/><path class="cls-2" d="M352.59717,200.68168v-1.5h1.17969v1.5Zm0,12.5v-10h1.17969v10Z" transform="translate(-8.05078)"/><path class="cls-2" d="M356.37061,213.18168v-10h1.17968v1.44043a10.89432,10.89432,0,0,1,1.81055-1,8.54,8.54,0,0,1,1.96973-.64062v1.20019a11.241,11.241,0,0,0-1.79981.54981,14.25579,14.25579,0,0,0-1.46.65039l-.52051.2998v7.5Z" transform="translate(-8.05078)"/><path class="cls-2" d="M367.14893,200.68168v-1.5h1.17968v1.5Zm0,12.5v-10h1.17968v10Z" transform="translate(-8.05078)"/><path class="cls-2" d="M372.103,213.18168h-1.17969v-10H372.103v.74024a6.66545,6.66545,0,0,1,3.26074-.94043,2.92749,2.92749,0,0,1,2.66992,1.06054,7.86825,7.86825,0,0,1,.66992,3.87989v5.25976h-1.20019v-5.20019a7.34184,7.34184,0,0,0-.44043-3.10938,1.94718,1.94718,0,0,0-1.87988-.81054,5.59513,5.59513,0,0,0-1.46973.21,6.21142,6.21142,0,0,0-1.19043.42968l-.41992.2002Z" transform="translate(-8.05078)"/><path class="cls-2" d="M388.7876,198.74125v14.44043h-1.2002v-.74023a6.19743,6.19743,0,0,1-3.20019.94043,4.28938,4.28938,0,0,1-1.28028-.16992,3.079,3.079,0,0,1-1.09961-.66993q-1.13964-1.021-1.14062-3.99023a7.3336,7.3336,0,0,1,.96-4.27051,3.76808,3.76808,0,0,1,3.24023-1.2998,17.43531,17.43531,0,0,1,2.52051.25976v-4.5Zm-5.15039,13.4209a2.76731,2.76731,0,0,0,.96.13965,5.03862,5.03862,0,0,0,1.36035-.21973,9.16709,9.16709,0,0,0,1.21-.41992l.41992-.2207v-7.16016a18.04568,18.04568,0,0,0-2.48047-.23926,2.548,2.548,0,0,0-2.34961,1.04,6.22146,6.22146,0,0,0-.65039,3.21973q0,2.56055.78028,3.33984A2.17723,2.17723,0,0,0,383.63721,212.16215Z" transform="translate(-8.05078)"/><path class="cls-2" d="M397.7417,203.18168h1.17969v10H397.7417v-.74023a5.87037,5.87037,0,0,1-3.08008.94043q-2.04053,0-2.69043-1.04a8.17857,8.17857,0,0,1-.64941-3.94043v-5.21973h1.17968v5.2002a7.49717,7.49717,0,0,0,.42969,3.12012q.43066.7998,1.87012.7998a5.28337,5.28337,0,0,0,1.44043-.21,5.17988,5.17988,0,0,0,1.12012-.42969l.37988-.20019Z" transform="translate(-8.05078)"/><path class="cls-2" d="M404.54248,204.08207q-2.35986,0-2.35937,1.69922a1.18723,1.18723,0,0,0,.51953,1.10059,7.98819,7.98819,0,0,0,2.35058.62988,6.51949,6.51949,0,0,1,2.58008.84961,2.40839,2.40839,0,0,1,.75,2.07031,2.58048,2.58048,0,0,1-.98047,2.24024,4.87928,4.87928,0,0,1-2.87988.71,18.66042,18.66042,0,0,1-2.83984-.28027l-.58008-.08008.08008-1.05957a24.74153,24.74153,0,0,0,3.43945.33984,3.51178,3.51178,0,0,0,1.87012-.41992,1.54236,1.54236,0,0,0,.66992-1.41992,1.42526,1.42526,0,0,0-.54981-1.33008,7.75326,7.75326,0,0,0-2.35937-.61035,6.3692,6.3692,0,0,1-2.55078-.79981,2.24561,2.24561,0,0,1-.73926-1.96,2.31658,2.31658,0,0,1,1.01953-2.09961,4.54265,4.54265,0,0,1,2.52051-.66015,21.74845,21.74845,0,0,1,3,.25976l.53906.08008-.03906,1.05957A24.558,24.558,0,0,0,404.54248,204.08207Z" transform="translate(-8.05078)"/><path class="cls-2" d="M415.7876,204.24125h-3.33985v4.94043a7.24684,7.24684,0,0,0,.28028,2.54q.27978.60058,1.32031.59961l1.83984-.13965.08008,1.01953a14.52378,14.52378,0,0,1-2.02051.2002,2.54511,2.54511,0,0,1-2.10937-.75,4.92068,4.92068,0,0,1-.59082-2.87012v-5.54h-1.47949v-1.05957h1.47949V200.042h1.20019v3.13965h3.33985Z" transform="translate(-8.05078)"/><path class="cls-2" d="M417.6333,213.18168v-10h1.1792v1.44043a10.89391,10.89391,0,0,1,1.81055-1,8.53989,8.53989,0,0,1,1.96972-.64062v1.20019a11.24119,11.24119,0,0,0-1.7998.54981,14.25579,14.25579,0,0,0-1.46.65039l-.52051.2998v7.5Z" transform="translate(-8.05078)"/><path class="cls-2" d="M424.31641,200.68168v-1.5h1.17968v1.5Zm0,12.5v-10h1.17968v10Z" transform="translate(-8.05078)"/><path class="cls-2" d="M434.80664,212.18168l.59961-.05957.04.9795a31.9378,31.9378,0,0,1-3.81934.28027,3.43615,3.43615,0,0,1-3.0205-1.28027,6.967,6.967,0,0,1-.86036-3.87989q0-5.23974,4.12012-5.24023a3.70853,3.70853,0,0,1,2.96,1.12988,5.44955,5.44955,0,0,1,.98047,3.61035l-.04.96h-6.7998a4.76134,4.76134,0,0,0,.62988,2.73047,2.46444,2.46444,0,0,0,2.16016.88965Q433.28613,212.3018,434.80664,212.18168Zm-5.83984-4.5h5.63965a4.69381,4.69381,0,0,0-.6504-2.82031,2.46439,2.46439,0,0,0-2.0791-.83984,2.69075,2.69075,0,0,0-2.1709.87011A4.27422,4.27422,0,0,0,428.9668,207.68168Z" transform="translate(-8.05078)"/><path class="cls-2" d="M441.12988,204.08207q-2.35986,0-2.35937,1.69922a1.18723,1.18723,0,0,0,.51953,1.10059,7.98819,7.98819,0,0,0,2.35058.62988,6.51949,6.51949,0,0,1,2.58008.84961,2.40839,2.40839,0,0,1,.75,2.07031,2.58048,2.58048,0,0,1-.98047,2.24024,4.87928,4.87928,0,0,1-2.87988.71,18.66042,18.66042,0,0,1-2.83984-.28027l-.58008-.08008.08008-1.05957a24.74167,24.74167,0,0,0,3.43945.33984,3.51178,3.51178,0,0,0,1.87012-.41992A1.54236,1.54236,0,0,0,443.75,210.462a1.42528,1.42528,0,0,0-.5498-1.33008,7.75335,7.75335,0,0,0-2.35938-.61035,6.3692,6.3692,0,0,1-2.55078-.79981,2.24564,2.24564,0,0,1-.73926-1.96,2.31658,2.31658,0,0,1,1.01953-2.09961,4.54265,4.54265,0,0,1,2.52051-.66015,21.74845,21.74845,0,0,1,3,.25976l.53906.08008-.03906,1.05957A24.55791,24.55791,0,0,0,441.12988,204.08207Z" transform="translate(-8.05078)"/><path class="cls-2" d="M16.96729,226.92778q-1.60987,0-1.61036,1.22949a1.103,1.103,0,0,0,.36524.9707,4.31885,4.31885,0,0,0,1.42969.46,3.56,3.56,0,0,1,1.5205.58008,1.51126,1.51126,0,0,1,.45508,1.23926,2.07063,2.07063,0,0,1-.55469,1.61523,2.36954,2.36954,0,0,1-1.625.49512,13.73,13.73,0,0,1-1.81054-.13965l-.36035-.05078.07031-.5293a18.46706,18.46706,0,0,0,2.12012.16993,1.60931,1.60931,0,0,0,1.13964-.36524,1.39222,1.39222,0,0,0,.39063-1.07031,1.12762,1.12762,0,0,0-.3457-.96,2.72936,2.72936,0,0,0-1.09961-.39453,9.50125,9.50125,0,0,1-1.1045-.25489,2.45964,2.45964,0,0,1-.65527-.33007,1.18965,1.18965,0,0,1-.43555-.54981,2.3796,2.3796,0,0,1-.12988-.8457q0-1.81933,2.2002-1.81934a13.61353,13.61353,0,0,1,1.71972.13965l.33008.04981-.0498.53027A18.5046,18.5046,0,0,0,16.96729,226.92778Z" transform="translate(-8.05078)"/><path class="cls-2" d="M20.26709,230.92778a3.23919,3.23919,0,0,1,.47461-2,1.96825,1.96825,0,0,1,1.62012-.58985,1.96694,1.96694,0,0,1,1.62011.58985,3.23848,3.23848,0,0,1,.47559,2,3.52176,3.52176,0,0,1-.43555,2.00976,1.92829,1.92829,0,0,1-1.65527.59961,1.94049,1.94049,0,0,1-1.65918-.59961A3.48511,3.48511,0,0,1,20.26709,230.92778Zm.62012-.01563a3.45007,3.45007,0,0,0,.27441,1.64063q.27539.45409,1.2002.45508.92577,0,1.20507-.46a3.38782,3.38782,0,0,0,.28028-1.63574,2.9181,2.9181,0,0,0-.31543-1.60937,1.351,1.351,0,0,0-1.165-.43555,1.35914,1.35914,0,0,0-1.165.43066A2.91471,2.91471,0,0,0,20.88721,230.91215Z" transform="translate(-8.05078)"/><path class="cls-2" d="M29.00732,228.43754h.58985v5h-.58985v-.37011a2.93574,2.93574,0,0,1-1.54.46972,1.47245,1.47245,0,0,1-1.34473-.51953,4.08553,4.08553,0,0,1-.3252-1.96973v-2.61035h.58985v2.59961a3.75142,3.75142,0,0,0,.21484,1.56055q.21534.3999.93555.39941a2.62385,2.62385,0,0,0,.71972-.10449,2.57358,2.57358,0,0,0,.55957-.21484l.19043-.10059Z" transform="translate(-8.05078)"/><path class="cls-2" d="M31.19678,233.43754v-5h.58984v.71973a5.56015,5.56015,0,0,1,.90527-.5,4.20586,4.20586,0,0,1,.98536-.31934v.59961a5.4838,5.4838,0,0,0-.90039.27539,7.225,7.225,0,0,0-.73047.32422l-.25977.15039v3.75Z" transform="translate(-8.05078)"/><path class="cls-2" d="M36.54736,228.33793a6.8769,6.8769,0,0,1,1.06934.09961l.23047.03028-.03028.50976A10.36716,10.36716,0,0,0,36.647,228.878a1.44887,1.44887,0,0,0-1.21972.43457,2.78055,2.78055,0,0,0-.33008,1.59961,3.16058,3.16058,0,0,0,.2998,1.625,1.3994,1.3994,0,0,0,1.25.46l1.19043-.08984.01953.51074a11.08935,11.08935,0,0,1-1.32031.11914,1.90566,1.90566,0,0,1-1.625-.58984,3.53409,3.53409,0,0,1-.43457-2.0293,3.208,3.208,0,0,1,.47461-2.01074A1.97352,1.97352,0,0,1,36.54736,228.33793Z" transform="translate(-8.05078)"/><path class="cls-2" d="M42.42627,232.93754l.30078-.03027.01953.49023a15.84741,15.84741,0,0,1-1.91015.13965,1.71448,1.71448,0,0,1-1.50977-.63965,3.48045,3.48045,0,0,1-.42969-1.94043q0-2.61913,2.05957-2.61914a1.8574,1.8574,0,0,1,1.48047.56446,2.72715,2.72715,0,0,1,.48926,1.80468l-.01953.48047H39.50635a2.38038,2.38038,0,0,0,.31543,1.36524,1.23137,1.23137,0,0,0,1.08008.44433Q41.6665,232.99711,42.42627,232.93754Zm-2.91992-2.25h2.82031a2.34689,2.34689,0,0,0-.3252-1.41015,1.23242,1.23242,0,0,0-1.04-.41993,1.34594,1.34594,0,0,0-1.085.43555A2.13738,2.13738,0,0,0,39.50635,230.68754Z" transform="translate(-8.05078)"/><path class="cls-2" d="M44.20752,230.13774v-1.02051h.66016v1.02051Zm0,3.2998v-1.00976h.66016v1.00976Z" transform="translate(-8.05078)"/><path class="cls-2" d="M51.37744,233.43754H48.84717v-6.95019h2.53027q2.46974,0,2.46973,3.37988Q53.84717,233.43705,51.37744,233.43754Zm1.83008-3.57031q0-2.81982-1.83008-2.81934H49.46729v5.83985h1.91015Q53.207,232.88774,53.20752,229.86723Z" transform="translate(-8.05078)"/><path class="cls-2" d="M58.59619,232.93754l.30078-.03027.01953.49023a15.84727,15.84727,0,0,1-1.91015.13965,1.71448,1.71448,0,0,1-1.50977-.63965,3.48045,3.48045,0,0,1-.42969-1.94043q0-2.61913,2.05957-2.61914a1.85739,1.85739,0,0,1,1.48047.56446,2.72709,2.72709,0,0,1,.48926,1.80468l-.01953.48047H55.67627a2.38038,2.38038,0,0,0,.31543,1.36524,1.23137,1.23137,0,0,0,1.08008.44433Q57.83642,232.99711,58.59619,232.93754Zm-2.91992-2.25h2.82031a2.347,2.347,0,0,0-.32519-1.41015,1.23246,1.23246,0,0,0-1.04-.41993,1.34592,1.34592,0,0,0-1.085.43555A2.13732,2.13732,0,0,0,55.67627,230.68754Z" transform="translate(-8.05078)"/><path class="cls-2" d="M60.48584,233.43754v-7.21972h.59082v7.21972Z" transform="translate(-8.05078)"/><path class="cls-2" d="M62.52686,230.92778a3.23927,3.23927,0,0,1,.4746-2,2.51989,2.51989,0,0,1,3.24024,0,3.23848,3.23848,0,0,1,.47559,2,3.52176,3.52176,0,0,1-.43555,2.00976,2.59,2.59,0,0,1-3.31445,0A3.48511,3.48511,0,0,1,62.52686,230.92778Zm.62011-.01563a3.45,3.45,0,0,0,.27442,1.64063q.27538.45409,1.20019.45508.92579,0,1.20508-.46a3.388,3.388,0,0,0,.28027-1.63574,2.9181,2.9181,0,0,0-.31543-1.60937,1.78351,1.78351,0,0,0-2.33007-.00489A2.91461,2.91461,0,0,0,63.147,230.91215Z" transform="translate(-8.05078)"/><path class="cls-2" d="M68.106,227.18754v-.75h.58984v.75Zm0,6.25v-5h.58984v5Z" transform="translate(-8.05078)"/><path class="cls-2" d="M72.82666,228.96782H71.15674v2.46972a3.608,3.608,0,0,0,.13965,1.26953q.14063.3003.66015.30079l.91992-.07032.04.50977a7.358,7.358,0,0,1-1.00976.10058,1.27542,1.27542,0,0,1-1.05567-.375,2.46688,2.46688,0,0,1-.29492-1.43554v-2.76953h-.74023v-.53028h.74023v-1.57031h.60059v1.57031h1.66992Z" transform="translate(-8.05078)"/><path class="cls-2" d="M76.397,228.96782H74.72705v2.46972a3.608,3.608,0,0,0,.13965,1.26953q.14063.3003.66016.30079l.91992-.07032.04.50977a7.35814,7.35814,0,0,1-1.00977.10058,1.27538,1.27538,0,0,1-1.05566-.375,2.46678,2.46678,0,0,1-.29493-1.43554v-2.76953h-.74023v-.53028h.74023v-1.57031h.60059v1.57031H76.397Z" transform="translate(-8.05078)"/><path class="cls-2" d="M80.74561,232.93754l.30078-.03027.01953.49023a15.84742,15.84742,0,0,1-1.91016.13965,1.71447,1.71447,0,0,1-1.50976-.63965,3.48045,3.48045,0,0,1-.42969-1.94043q0-2.61913,2.05957-2.61914a1.8574,1.8574,0,0,1,1.48047.56446,2.72715,2.72715,0,0,1,.48926,1.80468l-.01954.48047H77.82568a2.38038,2.38038,0,0,0,.31543,1.36524,1.23138,1.23138,0,0,0,1.08008.44433Q79.98584,232.99711,80.74561,232.93754Zm-2.91993-2.25H80.646a2.34689,2.34689,0,0,0-.3252-1.41015,1.23246,1.23246,0,0,0-1.04-.41993,1.34592,1.34592,0,0,0-1.085.43555A2.13738,2.13738,0,0,0,77.82568,230.68754Z" transform="translate(-8.05078)"/><path class="cls-1" d="M189.59934,44.2738a9.41378,9.41378,0,0,0-9.40348,9.40347v7.17657a.7513.7513,0,0,0,.75111.7511h17.30474a.75129.75129,0,0,0,.7511-.7511V53.67727A9.41377,9.41377,0,0,0,189.59934,44.2738Zm7.90126,15.82893H181.69807V53.67727a7.90127,7.90127,0,0,1,15.80253,0Z" transform="translate(-8.05078)"/><path class="cls-1" d="M205.80089,75.71162H173.39778a.7513.7513,0,0,0-.7511.75111v36.60484h1.50221V77.21383h30.9009v35.85374H206.552V76.46273A.7513.7513,0,0,0,205.80089,75.71162Z" transform="translate(-8.05078)"/><path class="cls-1" d="M156.14683,80.46471H142.138a.75129.75129,0,0,0-.7511.7511V91.27943a.7513.7513,0,0,0,.7511.75111h14.00888a.7513.7513,0,0,0,.7511-.75111V81.21581A.75129.75129,0,0,0,156.14683,80.46471Zm-.7511,10.06362H142.88906V81.96691h12.50667Z" transform="translate(-8.05078)"/><path class="cls-1" d="M12.96939,113.06757c2.46089-2.99182,8.07022-5.08975,14.589-5.08975H43.69046a27.67966,27.67966,0,0,1,7.14772.91247,11.81581,11.81581,0,0,0-4.95137,4.17728h1.82311c2.4609-2.99182,8.07-5.08975,14.588-5.08975H78.431a27.31927,27.31927,0,0,1,7.77645,1.087,11.56577,11.56577,0,0,0-4.6158,4.00271h1.82312c2.46089-2.99182,8.07021-5.08975,14.58895-5.08975h16.13212c5.99881,0,10.01644,1.82323,11.58038,5.08975h2.54V78.22313l16.75706-16.09887a.75016.75016,0,0,0,.15159-.20636l10.37757-20.79033,34.04713-18.28079,32.25543,18.273,9.83869,19.71161h-8.092a.75129.75129,0,0,0-.7511.7511v51.48512h1.5022v-50.734h8.55555a.7511.7511,0,0,0,.67189-1.08655L223.08607,40.24346a.7498.7498,0,0,0-.30122-.31785L189.97,21.33577a.7508.7508,0,0,0-.72568-.0088L154.62213,39.9168a.75154.75154,0,0,0-.31687.32666L143.87879,61.13061l-16.894,16.22992a.74756.74756,0,0,0-.23081.54181v33.89775c-1.99866-3.39452-6.4026-5.32448-12.61816-5.32448h-5.50137l.01381-6.82449a5.47718,5.47718,0,0,0,3.97459.73937,10.44725,10.44725,0,0,0,5.50419-3.243v.00195c3.48462-3.58926,4.76873-12.33845,4.74819-13.55117a1.108,1.108,0,0,0-.24743-.65331c-.38191-.36992-1.6494-.14511-3.26286.40392.94561-3.06273,1.868-7.32437,1.26383-7.90909a.74082.74082,0,0,0-.56529-.22494,17.7968,17.7968,0,0,0-3.17263.87482c.63374-3.25845.97788-8.01594.24841-8.51887a.83008.83008,0,0,0-.59169-.13692,27.01161,27.01161,0,0,0-5.36494,2.73033c-.99512-3.80809-4.10431-8.83355-4.96372-9.22621a.81041.81041,0,0,0-.28851-.06846.76743.76743,0,0,0-.34328.03423c-.94756.324-4.04672,5.48352-5.03719,9.26032a27.00542,27.00542,0,0,0-5.36483-2.73021.83726.83726,0,0,0-.56626.11931L94.612,67.558l-.01859.01272v.001c-.71785.59512-.37885,5.29025.24854,8.51827a17.80405,17.80405,0,0,0-3.17373-.87519.73384.73384,0,0,0-.55747.21907.01012.01012,0,0,1-.00782.00587v.00195c-.60428.62861.34255,4.96006,1.2961,8.01435a15.475,15.475,0,0,0-2.73767-.72824h-.00294a.82335.82335,0,0,0-.55061.21516,1.10632,1.10632,0,0,0-.25037.65721C88.83692,84.8129,90.122,93.566,93.60468,97.14744c2.05771,2.12226,4.36872,3.3076,6.50468,3.33694a4.73277,4.73277,0,0,0,2.97116-.83131l.01382,6.82254H98.00372a27.66574,27.66574,0,0,0-9.78648,1.67458,27.66339,27.66339,0,0,0-9.78624-1.67458H73.2509l.01332-6.82645a5.47362,5.47362,0,0,0,3.97557.74133,10.44725,10.44725,0,0,0,5.50419-3.243v.00195c3.48462-3.58926,4.76775-12.33845,4.74721-13.55117a1.108,1.108,0,0,0-.24743-.65331c-.381-.36992-1.64842-.145-3.262.40429.94524-3.06127,1.86811-7.32168,1.264-7.90946a.70423.70423,0,0,0-.56529-.22494,17.79069,17.79069,0,0,0-3.17263.87494c.63362-3.25686.97861-8.01276.24841-8.519a.832.832,0,0,0-.59071-.13692A27.01066,27.01066,0,0,0,75.79944,70.164c-.99572-3.80846-4.10418-8.83343-4.96359-9.22609a.81041.81041,0,0,0-.28851-.06846.766.766,0,0,0-.34328.03423c-.94768.32408-4.04782,5.48536-5.03768,9.2624A27.13723,27.13723,0,0,0,59.802,67.43383a.82206.82206,0,0,0-.56821.12029L59.228,67.558l-.01663.01174c-.722.58472-.38154,5.28817.24719,8.52009a17.80751,17.80751,0,0,0-3.17336-.87506.7671.7671,0,0,0-.55747.21907c0,.002-.002.00587-.00782.00587v.00195c-.60416.62849.34157,4.95847,1.29475,8.01264a15.37743,15.37743,0,0,0-2.73828-.72653.85522.85522,0,0,0-.55159.21516,1.10632,1.10632,0,0,0-.25037.65721c-.02054,1.21273,1.26456,9.96583,4.74722,13.54727,2.05869,2.12226,4.36872,3.3076,6.50566,3.33694a4.78252,4.78252,0,0,0,2.97018-.83131l.01382,6.82254H62.2979a27.9512,27.9512,0,0,0-9.30359,1.50844,27.95335,27.95335,0,0,0-9.30385-1.50844H37.86782l.01332-6.82449a5.46084,5.46084,0,0,0,3.97557.73937,10.44725,10.44725,0,0,0,5.50419-3.243v.00195c3.48462-3.58926,4.76775-12.33845,4.74721-13.55117a1.10315,1.10315,0,0,0-.24743-.65331c-.38105-.36992-1.64842-.14511-3.262.404.94512-3.06126,1.86811-7.32143,1.264-7.90921a.67046.67046,0,0,0-.56529-.22494,17.801,17.801,0,0,0-3.17349.87519c.63424-3.25809.97886-8.01508.25025-8.51729a.80561.80561,0,0,0-.59169-.13887,26.88724,26.88724,0,0,0-5.36629,2.7285c-.99622-3.80993-4.10491-8.83367-4.96433-9.22536a.80957.80957,0,0,0-.28851-.06748.76455.76455,0,0,0-.3423.03423c-.94756.324-4.047,5.48389-5.03732,9.26081a27.01192,27.01192,0,0,0-5.36567-2.7307.8396.8396,0,0,0-.56627.11931l-.00684.00489-.01858.01272v.001c-.71786.59512-.37886,5.28989.24853,8.518a17.79346,17.79346,0,0,0-3.17276-.87494.8013.8013,0,0,0-.55746.21907c0,.002-.002.00587-.00782.00587v.00195c-.60416.62849.34157,4.95847,1.29475,8.01264a15.37743,15.37743,0,0,0-2.73828-.72653.81472.81472,0,0,0-.55159.21516,1.10632,1.10632,0,0,0-.25037.65721c-.02054,1.21273,1.26456,9.96583,4.74722,13.54727,2.05869,2.12226,4.36775,3.3076,6.50468,3.33694a4.61525,4.61525,0,0,0,2.97116-.83326l.01382,6.82449H27.55835c-7.6822,0-14.03773,2.7148-16.41207,6.592ZM33.81266,97.87116a.73476.73476,0,0,0-.54572-.68069.66662.66662,0,0,0-.20538-.0313.83119.83119,0,0,0-.65722.34035,2.95,2.95,0,0,1-.36675.45575,3.66093,3.66093,0,0,1-2.61028,1.02885c-.02054,0-.04206,0-.0626-.002-1.735-.02348-3.66945-1.04646-5.44844-2.88119-2.666-2.74036-3.96579-9.30861-4.25919-11.67928,2.23082.622,8.14674,2.67385,10.76,5.36335a10.43063,10.43063,0,0,1,2.26114,3.35845.71089.71089,0,0,0,.81761.42446.79732.79732,0,0,0,.63276-.73546.97386.97386,0,0,1,1.94427.1154.74808.74808,0,0,0,.64548.665.73493.73493,0,0,0,.8-.46748,10.32022,10.32022,0,0,1,2.265-3.36041c2.61518-2.69341,8.52914-4.7433,10.758-5.36335-.2934,2.36871-1.59414,8.937-4.25822,11.67928v.00195a8.97944,8.97944,0,0,1-4.68462,2.80686,3.78751,3.78751,0,0,1-3.43963-.95257,3.415,3.415,0,0,1-.40489-.51247.76049.76049,0,0,0-.84108-.2934.75187.75187,0,0,0-.53008.7159l-.016,8.60836H33.82977ZM24.92753,69.23335c1.96284.8978,6.82155,3.48755,8.73452,6.17118a11.357,11.357,0,0,1,.77164,1.23424.75031.75031,0,0,0,.65722.39707.728.728,0,0,0,.6621-.38729,12.76785,12.76785,0,0,1,.78338-1.244c1.913-2.68363,6.77559-5.27436,8.73746-6.17216a31.06482,31.06482,0,0,1-.81394,7.4685c-2.72924,1.06443-5.93084,2.63583-7.76019,4.52081-.21577.222-.40979.45391-.60636.6846-.33106.31332-.69267.5901-.99365.93692a13.485,13.485,0,0,0-1.01541-.96211c-.19-.22225-.37592-.44572-.5846-.66137-1.8318-1.88424-5.03181-3.45479-7.75958-4.51873A31.75421,31.75421,0,0,1,24.92753,69.23335Zm11.42023,4.09122a15.80789,15.80789,0,0,0-1.251,1.20367,15.63454,15.63454,0,0,0-1.24169-1.1989A19.92737,19.92737,0,0,0,31.116,71.05561a26.69735,26.69735,0,0,1,3.98571-8.36606,26.23726,26.23726,0,0,1,3.98169,8.36422A19.94394,19.94394,0,0,0,36.34776,73.32457Zm-3.92582,8.94161a11.03587,11.03587,0,0,1,2,2.78535.74949.74949,0,0,0,.67189.42054h.002a.74912.74912,0,0,0,.67188-.41663,11.27422,11.27422,0,0,1,2.00979-2.78926c2.61029-2.68754,8.51839-4.73548,10.75214-5.35748a36.40952,36.40952,0,0,1-1.732,7.12424c-3.12728,1.3038-6.75737,3.33-8.092,4.70369-.08876.09132-.15844.187-.24365.27922a14.12189,14.12189,0,0,0-1.70942,1.76872,3.56848,3.56848,0,0,0-3.3076,0,14.24545,14.24545,0,0,0-1.69231-1.751c-.09022-.09792-.16467-.20012-.2588-.29695-1.90514-1.96015-5.2812-3.58119-8.07083-4.64452a36.21562,36.21562,0,0,1-1.75416-7.18341C23.9016,77.5307,29.80873,79.57864,32.42194,82.26618Zm36.7738,15.605a.7374.7374,0,0,0-.54083-.68851.69774.69774,0,0,0-.21027-.0313.81189.81189,0,0,0-.64744.33643,3.143,3.143,0,0,1-.37653.46749,3.55982,3.55982,0,0,1-2.6719,1.0269c-1.735-.02348-3.67043-1.04646-5.44942-2.88119-2.666-2.74036-3.96579-9.30861-4.25919-11.67928,2.23082.622,8.14674,2.67385,10.76,5.36335a10.36914,10.36914,0,0,1,2.26016,3.35845.71374.71374,0,0,0,.81859.42446.79547.79547,0,0,0,.63276-.73546.97386.97386,0,0,1,1.94427.1154.75.75,0,0,0,.64548.665.73557.73557,0,0,0,.8-.46748,10.32953,10.32953,0,0,1,2.266-3.36041c2.61517-2.69341,8.52914-4.7433,10.757-5.36335-.2934,2.36871-1.59414,8.937-4.25822,11.67928v.00195a8.98081,8.98081,0,0,1-4.68364,2.80686,3.78943,3.78943,0,0,1-3.44061-.95257,3.50766,3.50766,0,0,1-.40684-.51443.75085.75085,0,0,0-1.36921.42446l-.016,8.60836H69.21285ZM60.31061,69.23335c1.96284.8978,6.82155,3.48755,8.7355,6.17118a11.654,11.654,0,0,1,.77066,1.23424.75031.75031,0,0,0,.65722.39707h.00489a.752.752,0,0,0,.65721-.38729,12.76785,12.76785,0,0,1,.78338-1.244c1.914-2.68363,6.77559-5.27533,8.73746-6.17216a31.06482,31.06482,0,0,1-.81394,7.4685c-2.72924,1.06443-5.93084,2.63583-7.76019,4.52081-.21651.22274-.41137.4555-.60856.687-.33032.3126-.69108.58864-.99145.93448a13.49772,13.49772,0,0,0-1.016-.96272c-.18973-.222-.37555-.44535-.584-.66076-1.8307-1.88424-5.03071-3.45466-7.75872-4.51861A31.75743,31.75743,0,0,1,60.31061,69.23335Zm11.42145,4.09024a15.8384,15.8384,0,0,0-1.25221,1.20465,15.67192,15.67192,0,0,0-1.24059-1.19793,19.96655,19.96655,0,0,0-2.7406-2.27348,26.71162,26.71162,0,0,1,3.98608-8.36826A26.22161,26.22161,0,0,1,74.46667,71.055,19.94632,19.94632,0,0,0,71.73206,73.32359Zm-3.927,8.94259a11.03587,11.03587,0,0,1,2,2.78535.74949.74949,0,0,0,.67189.42054h.002a.74912.74912,0,0,0,.67188-.41663,11.27422,11.27422,0,0,1,2.00979-2.78926c2.61029-2.68754,8.51839-4.73548,10.75214-5.35748a36.40791,36.40791,0,0,1-1.73228,7.12473c-3.12655,1.3038-6.7553,3.3296-8.08978,4.7032-.08667.08912-.15464.18264-.238.27262a14.13464,14.13464,0,0,0-1.717,1.77532,3.56848,3.56848,0,0,0-3.3076,0A14.24858,14.24858,0,0,0,67.13607,89.034c-.09034-.09805-.16479-.20037-.25917-.29732-1.90514-1.96015-5.2812-3.58119-8.07083-4.64452a36.21562,36.21562,0,0,1-1.75416-7.18341C59.28468,77.5307,65.19278,79.57864,67.805,82.26618Zm36.7738,15.605a.7374.7374,0,0,0-.54083-.68851.69774.69774,0,0,0-.21027-.0313.81048.81048,0,0,0-.64744.33643,3.22539,3.22539,0,0,1-.37555.46749,3.661,3.661,0,0,1-2.61029,1.02885c-.02053,0-.04205,0-.06357-.002-1.735-.02348-3.66945-1.04646-5.44844-2.88119-2.666-2.74036-3.96579-9.31057-4.25919-11.67928,2.23082.622,8.14674,2.67385,10.76,5.36335a10.36914,10.36914,0,0,1,2.26016,3.35845.71977.71977,0,0,0,.81859.42446.79534.79534,0,0,0,.63374-.73546.97267.97267,0,0,1,1.94231.10758.75216.75216,0,0,0,.64157.67286.7435.7435,0,0,0,.80489-.46748,10.32953,10.32953,0,0,1,2.266-3.36041c2.61517-2.69341,8.52914-4.7433,10.758-5.36335-.2934,2.36871-1.59512,8.937-4.2592,11.67928v.00195a8.98081,8.98081,0,0,1-4.68364,2.80686,3.78633,3.78633,0,0,1-3.44061-.95257,3.40816,3.40816,0,0,1-.40391-.51247.76153.76153,0,0,0-.84108-.2934.75187.75187,0,0,0-.53008.7159l-.0165,8.60836h-2.53755ZM95.69466,69.23335c1.96285.8978,6.82156,3.48755,8.73453,6.17118a11.16147,11.16147,0,0,1,.76968,1.23228.74834.74834,0,0,0,.65722.399.61451.61451,0,0,0,.66308-.38729,12.83189,12.83189,0,0,1,.78436-1.244c1.914-2.68363,6.77559-5.27533,8.73648-6.17216a31.02381,31.02381,0,0,1-.81394,7.46826c-2.729,1.06418-5.93048,2.63522-7.75921,4.51909-.21761.22384-.41358.45771-.61162.69047-.32959.3121-.68961.58753-.98937.933a13.48764,13.48764,0,0,0-1.013-.95978c-.19071-.22311-.3775-.44793-.587-.6637-1.8307-1.88424-5.03059-3.45466-7.7586-4.51861A31.75515,31.75515,0,0,1,95.69466,69.23335Zm11.42476,4.08657a15.837,15.837,0,0,0-1.25649,1.20832,15.61883,15.61883,0,0,0-1.23668-1.1945,19.91959,19.91959,0,0,0-2.744-2.27874,26.716,26.716,0,0,1,3.98559-8.36643,26.18647,26.18647,0,0,1,3.98206,8.36679A19.969,19.969,0,0,0,107.11942,73.31992Zm-3.93132,8.94822a10.97223,10.97223,0,0,1,2,2.78339.75089.75089,0,0,0,1.34573.00587,11.28079,11.28079,0,0,1,2.01077-2.79122c2.60931-2.68754,8.51839-4.73548,10.75214-5.35748a36.37768,36.37768,0,0,1-1.733,7.12424c-3.12691,1.3038-6.7559,3.33-8.09,4.70369-.08741.09-.15611.18423-.2401.27494a14.132,14.132,0,0,0-1.71492,1.773,3.56848,3.56848,0,0,0-3.3076,0,14.25155,14.25155,0,0,0-1.69353-1.75258c-.08985-.09743-.16381-.199-.25758-.29536-1.90087-1.95649-5.278-3.57764-8.069-4.64208a36.21242,36.21242,0,0,1-1.756-7.18585C94.66874,77.5307,100.57586,79.57864,103.1881,82.26814Z" transform="translate(-8.05078)"/><path class="cls-1" d="M11.13381,117.79107v1.50221H238.64805a.75129.75129,0,0,0,.7511-.7511V76.40405h18.26808L251.0755,82.5322l1.023,1.09927,7.98929-7.42694a.7502.7502,0,0,0,0-1.09927l-7.98929-7.42889-1.023,1.09927,6.58781,6.1262H238.64805a.75129.75129,0,0,0-.7511.7511v42.13813Z" transform="translate(-8.05078)"/><rect class="cls-1" x="307.08136" y="11.72231" width="1.50221" height="9.19418"/><rect class="cls-1" x="302.07204" y="4.07533" width="1.50221" height="16.84117"/><path class="cls-1" d="M291.97114,40.03347V38.53126H288.419a.75131.75131,0,0,0-.75111.75111V69.41261a.75155.75155,0,0,0,.38338.65526l10.17512,5.7125v37.64919a.75129.75129,0,0,0,.7511.7511h3.5521v-1.50221h-2.801V75.34027a.75154.75154,0,0,0-.38338-.65526l-10.17512-5.7125v-28.939Z" transform="translate(-8.05078)"/><path class="cls-1" d="M297.65723,13.29592h7.13158V20.9165H306.291V12.54481a.75129.75129,0,0,0-.7511-.7511h-8.63379a.7513.7513,0,0,0-.75111.7511V20.9165h1.50221Z" transform="translate(-8.05078)"/><path class="cls-1" d="M285.043,13.29592h7.13354V20.9165h1.50221V12.54481a.7513.7513,0,0,0-.75111-.7511h-8.63574a.7513.7513,0,0,0-.75111.7511V20.9165H285.043Z" transform="translate(-8.05078)"/><path class="cls-1" d="M275.51726,116.18362h5.01127a.7513.7513,0,0,0,.75111-.7511V76.74077a.7513.7513,0,0,0-.75111-.75111h-1.83864V69.17593h1.83864a.7513.7513,0,0,0,.75111-.7511V39.28237a.75131.75131,0,0,0-.75111-.75111h-1.83864V31.71851h3.38a.75129.75129,0,0,0,.7511-.7511V24.22605h36.41879v6.74136a.75129.75129,0,0,0,.7511.7511h6.7306V30.2163H320.742V26.39819h4.96433a2.73482,2.73482,0,0,1,2.92617,3.025v1.54426a.7513.7513,0,0,0,.75111.7511h16.42649V30.2163H330.13467v-.79315a4.24,4.24,0,0,0-4.42838-4.52717H320.742V23.475a.7513.7513,0,0,0-.75111-.75111h-37.921a.7513.7513,0,0,0-.7511.75111V30.2163h-3.38a.7513.7513,0,0,0-.75111.75111v8.315a.7513.7513,0,0,0,.75111.7511h1.83864V67.67372h-1.83864a.7513.7513,0,0,0-.75111.75111v8.31594a.7513.7513,0,0,0,.75111.7511h1.83864v37.18954h-5.01128a.7513.7513,0,0,0-.7511.75111v5.11494h1.50221Z" transform="translate(-8.05078)"/><path class="cls-1" d="M424.0012,65.25325a.75625.75625,0,0,0,.49292.18387h13.10227l-6.58879,6.12717,1.023,1.09927,7.99026-7.42889a.75021.75021,0,0,0-.002-1.09927l-7.98831-7.42694-1.021,1.09927,6.589,6.12718H424.77382L401.339,43.6189a.75628.75628,0,0,0-.49292-.18386H385.53449v1.50221h15.03187Z" transform="translate(-8.05078)"/><rect class="cls-1" x="385.695" y="92.87582" width="4.91739" height="1.50221"/><path class="cls-1" d="M403.51405,107.51844a2.05087,2.05087,0,1,0,2.04989,2.05185A2.05523,2.05523,0,0,0,403.51405,107.51844Zm0,2.59953a.54866.54866,0,1,1,.54768-.54768A.54971.54971,0,0,1,403.51405,110.118Z" transform="translate(-8.05078)"/><path class="cls-1" d="M403.51405,116.31067a6.81341,6.81341,0,1,0-5.01812-2.28241A6.70121,6.70121,0,0,0,403.51405,116.31067Zm-5.24013-6.74038a5.24018,5.24018,0,1,1,7.9553,4.458,5.24018,5.24018,0,0,1-7.9553-4.458Z" transform="translate(-8.05078)"/><path class="cls-1" d="M393.57952,89.8538h20.982a.75118.75118,0,0,0,.71394-.98192c-.22885-.712-5.7213-17.43188-13.92868-17.43188h-7.76728a.7513.7513,0,0,0-.7511.75111V89.10269A.7513.7513,0,0,0,393.57952,89.8538Zm.7511-16.91159h7.01618c6.091,0,10.86754,11.87293,12.15655,15.40938h-3.65577l-4.82435-4.82436,2.71187-2.71016L406.675,79.753l-6.492,6.48805,1.06015,1.06407,2.71579-2.71408,3.76053,3.76054H394.33062Z" transform="translate(-8.05078)"/><path class="cls-1" d="M349.08441,120.254a10.62194,10.62194,0,0,0,10.61179-9.93453h33.208a10.63223,10.63223,0,0,0,21.21968,0h10.92377a1.6128,1.6128,0,0,0,1.60784-1.6137v-3.44451a1.61281,1.61281,0,0,0-1.60784-1.61371h-1.11883v-1.47482c0-.62042-.009-1.18986-.02213-1.73754l.00062-.0033c-.00062-.02543-.002-.04743-.00257-.07274q-.01558-.6165-.04181-1.17763l-.00795-.16761q-.02713-.5382-.06442-1.03044c-.00416-.05563-.0077-.11406-.01211-.16895-.06039-.75086-.1385-1.42471-.23349-2.03975l-.00538-.03924-.00171-.00293a22.30736,22.30736,0,0,0-1.9719-6.13891l-.28166-.64744c-3.44256-7.93745-9.85238-22.71308-18.78739-22.71308h-14.9106V57.50741a.7513.7513,0,0,0-.7511-.75111h-4.847V26.66812l1.78583-2.37068a.75135.75135,0,0,0,.15061-.45183V18.38543a.75129.75129,0,0,0-.7511-.7511h-1.18534v-2.089h.47139a.75132.75132,0,0,0,.6005-.29927l2.24549-2.98584a.75135.75135,0,0,0,.15061-.45183V5.69a.7513.7513,0,0,0-.75111-.75111h-3.78095V.7511A.75129.75129,0,0,0,380.17309,0H360.69328a.7513.7513,0,0,0-.75111.7511V4.9389h-3.78095a.7513.7513,0,0,0-.7511.75111v6.11837a.75116.75116,0,0,0,.15061.45183l2.24549,2.98584a.7513.7513,0,0,0,.60049.29927h.4714v2.089h-1.18534a.75129.75129,0,0,0-.7511.7511v5.46018a.75135.75135,0,0,0,.15061.45183l1.78583,2.37068V56.7563h-3.56188V30.96741a.7513.7513,0,0,0-.75111-.75111h-5.33988v-.81369A4.23074,4.23074,0,0,0,344.7949,24.896H330.90142v1.50221H344.7949a2.753,2.753,0,0,1,2.92813,3.00442v1.5648a.7513.7513,0,0,0,.75111.7511H353.814v6.81275H294.64108a.75131.75131,0,0,0-.75111.75111v18.314a.75155.75155,0,0,0,.38338.65526l10.17316,5.71152v55.02923h1.50221V77.49187h9.53159v42.96169h1.50221V77.49187h2.25723v42.96169H320.742V77.49187h11.73991v26.15564H331.365a1.61322,1.61322,0,0,0-1.60979,1.61371v3.44451a1.61321,1.61321,0,0,0,1.60979,1.6137h3.28217v.11932h1.50221v-.11932h2.25526v.11932h.08191a10.60936,10.60936,0,0,0,10.59786,9.81521ZM339.901,109.57029a9.1844,9.1844,0,1,1,9.18342,9.18146A9.19507,9.19507,0,0,1,339.901,109.57029Zm-5.91691-51.31178h52.1v45.389H357.97089a10.66732,10.66732,0,0,0-17.771,0h-6.21581Zm-17.00156,9.41521V40.03347h2.25723V67.67372ZM320.742,40.03347h13.90521V56.7563H333.233a.75131.75131,0,0,0-.75111.75111V67.67372H320.742ZM336.14938,56.7563V40.03347h2.25526V56.7563Zm22.63777,48.39342h35.02611a10.58751,10.58751,0,0,0-.90868,3.66751H359.69584A10.58484,10.58484,0,0,0,358.78715,105.14972Zm-25.55417,0h6.15064a10.58946,10.58946,0,0,0-.9077,3.658l-7.2185-.102.10758-3.556Zm70.28107,13.602a9.30644,9.30644,0,1,1,7.978-4.72349A9.15316,9.15316,0,0,1,403.51405,118.75175Zm21.63924-13.49053-.10563,3.556H414.12352a10.58739,10.58739,0,0,0-.90856-3.66751h9.96277Zm-2.77165-5.57461-6.45872-.09975.11149-2.9829h6.11189l.00294.02383C422.261,97.51435,422.337,98.52463,422.38164,99.68661ZM402.49693,67.73534c7.94919,0,14.33944,14.73064,17.41036,21.80941l.28362.65135a22.68751,22.68751,0,0,1,1.70979,4.90565h-5.86629a1.61529,1.61529,0,0,0-1.6137,1.6137v2.87141a1.61529,1.61529,0,0,0,1.6137,1.6137h6.38488c.00391.31528.00733.63289.00733.97213v1.47482H412.39857a10.66549,10.66549,0,0,0-17.769,0h-7.0432V67.73534ZM379.422,1.50221V4.9389H361.44438V1.50221Zm-20.63973,12.5409L356.91233,11.557V6.44111H383.954V11.557l-1.86994,2.48608H358.78226Zm21.70379,3.59122H360.38032v-2.089h20.10573Zm-22.04218,5.95993V19.13654h23.97862v4.45772l-1.5604,2.07141H360.00427Zm1.93645,3.57362h20.10573V56.7563H360.38032ZM353.814,56.7563H339.90685V40.03347H353.814Zm-58.42184.4V40.03347h20.08813V67.67372h-9.53159V63.52309a.75154.75154,0,0,0-.38338-.65526Zm10.55654,18.83335V69.17593h26.53315v6.81373Z" transform="translate(-8.05078)"/><path class="cls-1" d="M342.344,109.57029a6.74136,6.74136,0,1,0,6.74038-6.7443A6.74835,6.74835,0,0,0,342.344,109.57029Zm6.74038-5.24209a5.24013,5.24013,0,1,1-5.23817,5.24209A5.247,5.247,0,0,1,349.08441,104.3282Z" transform="translate(-8.05078)"/><path class="cls-1" d="M349.08441,111.62018a2.05087,2.05087,0,1,0-2.04989-2.04989A2.05356,2.05356,0,0,0,349.08441,111.62018Zm0-2.59953a.54866.54866,0,1,1-.54768.54964A.55012.55012,0,0,1,349.08441,109.02065Z" transform="translate(-8.05078)"/><path class="cls-1" d="M467.82741,118.251h6.42938v-1.50221h-6.1262l-4.9125-4.72349-3.62936-3.48975-1.04059,1.08362,2.50222,2.40613,6.25675,6.01641A.74712.74712,0,0,0,467.82741,118.251Z" transform="translate(-8.05078)"/><polygon class="cls-1" points="515.399 116.749 506.778 116.749 498.744 116.749 498.744 118.251 506.778 118.251 515.399 118.251 515.399 116.749"/><path class="cls-1" d="M468.4768,114.44658h.03717a.75635.75635,0,0,0,.52616-.25428l1.90894-2.167,8.87217-10.0717h2.18718a1.47675,1.47675,0,0,0,1.05037-.446l.00587-.00586a1.47677,1.47677,0,0,0,.446-1.05038.74236.74236,0,0,0-.043-.268l-.17249-2.17336,4.42288-5.02081a.73.73,0,0,0,.16822-.33056l3.03877-13.4c2.95161,2.38376,6.49026,4.98182,10.65519,7.80579.25233.17017.45184.30514.5868.39707l3.74721,24.56371.13937.9132a.75284.75284,0,0,0,.74328.63766h10.14969a.75087.75087,0,0,0,.73937-.88216L512.434,83.2777a.75843.75843,0,0,0-.16821-.35794L497.29726,65.414l.79731.13252,5.04453-30.27108a.762.762,0,0,0-.043-.40195c-1.13448-2.83425-3.91787-3.09049-6.37265-3.3164-.70416-.06553-1.40245-.12812-2.04793-.25428a3.67943,3.67943,0,0,0-3.47386,1.06993c-.09193.08411-.16821.16235-.0665.16235a.749.749,0,0,0-.40881.14572l-8.52425,6.28463-4.45772,4.07728a.69543.69543,0,0,0-.1291.15453L470.91789,53.881a2.68384,2.68384,0,0,0-.75893.0264,4.483,4.483,0,0,0-2.84207,2.223,4.93132,4.93132,0,0,0-.442,4.15943c.06907.19939.10452.36357.15831.54976a11.01558,11.01558,0,0,0-1.74035,4.463l-4.60675-12.12573a4.26324,4.26324,0,0,0-2.488-2.55748,3.6396,3.6396,0,0,0-3.07484.29634,5.32587,5.32587,0,0,0-2.03619,6.355l1.12849,2.97006-.01357.005c.01675.04462.04474.08093.06283.12458l3.716,9.78061c-.30281.85612-.41259,3.54538-.75685,12.01572-.23277,5.7213-.45379,11.74578-.44988,11.79859l-.665,6.44307a1.56249,1.56249,0,0,0,.12909.622,1.46573,1.46573,0,0,0,.29927.45379,1.76929,1.76929,0,0,0,.4401.3247,1.38831,1.38831,0,0,0,.63568.14474h6.72757l-3.97545,4.15455a.74884.74884,0,0,0,.02934,1.068l5.19269,4.84918,2.377,2.21981A.75444.75444,0,0,0,468.4768,114.44658ZM455.87038,52.21836a2.24007,2.24007,0,0,1,1.11492-.30709,2.10813,2.10813,0,0,1,.70807.12323,2.76582,2.76582,0,0,1,1.58827,1.67629l2.65772,6.995a6.53393,6.53393,0,0,1-4.72325.53949,2.54144,2.54144,0,0,1-1.57153-1.47311l-1.15318-3.03547A3.8281,3.8281,0,0,1,455.87038,52.21836Zm14.55656,3.16775a1.38244,1.38244,0,0,1,.63961.05183.74622.74622,0,0,0,.843-.313l6.19527-9.57144.30049-.46419,2.95173,4.0713-6.3416,7.22852-.46052,1.61529-.74022.27555c.0313.17017.08606,1.19023.08411,3.99024A1.81552,1.81552,0,0,1,472.158,63.526c-2.87532-.03032-3.01811-.59463-3.44257-2.268-.11344-.443-.23667-.931-.42054-1.46015a3.47354,3.47354,0,0,1,.31883-2.90857A3.022,3.022,0,0,1,470.42694,55.38611Zm4.96359,4.79061c-.00085-.06589-.00183-.12738-.00281-.18949-.00159-.09645-.00306-.18851-.00489-.27628-.00416-.20929-.00868-.40074-.01394-.56492-.00183-.05892-.00391-.11027-.006-.16381-.00623-.16639-.01283-.31614-.02-.43717l-.00037-.00672c-.00514-.0846-.01039-.1593-.01577-.22507l7.4328-8.47339,3.34281-1.28314-2.713,9.08367.05441.01626a27.66811,27.66811,0,0,0-3.07447,7.263,3.92489,3.92489,0,0,0-.07152,1.82042,2.12061,2.12061,0,0,0-1.20575.11895,2.40621,2.40621,0,0,0-1.11883,1.61272c-.03717.12226-.09.28754-.11932.38632-.01467-.00233-.03753-.00795-.05293-.01064.03973-.42237.08814-.84133.08814-1.27935A11.29827,11.29827,0,0,0,475.39053,60.17672Zm4.01641,8.74687c.09-.28753.20342-.64548.34816-.7159.05086-.02347.2758-.09193.88412.13008a.74111.74111,0,0,0,.61418-.04206,1.86155,1.86155,0,0,1,.935-.2132v.01467l.12518-.002a1.13673,1.13673,0,0,1,.51052.19365l.15061-.20929.7159-.01565a.83065.83065,0,0,1,.65526-.6846h.00782a.22007.22007,0,0,1,.178.09486.33973.33973,0,0,1,.0489.31394.75116.75116,0,0,0,1.42788.46651.83107.83107,0,0,1,.79414-.44206,1.38781,1.38781,0,0,1,.89193.65135,1.5769,1.5769,0,0,1,.3423,1.41028,1.07853,1.07853,0,0,1-.65721.59364,1.65833,1.65833,0,0,0-.22494-.10758.75162.75162,0,0,0-.72764,1.29683,1.46674,1.46674,0,0,0,.2269.14279,1.68623,1.68623,0,0,1,.04694,1.01908,2.66089,2.66089,0,0,1-.61809,1.52568c-.19951.18582-.48313.20929-.48705.2621a.75153.75153,0,0,0-1.467.15648c-.02934.35208-.03325.95062-.03521,1.6137-.00195.45575-.00586,1.11492-.02738,1.6939a.898.898,0,0,0-.17213-.045c-.56333-.10953-.96822.33252-1.34768.75111-.80392.888-1.26358,1.19707-2.0538.7687a3.61581,3.61581,0,0,1-.1956-1.40832,5.51033,5.51033,0,0,0-.16235-1.49047,1.214,1.214,0,0,1,.29144-.96822l.02347-.02738a2.32662,2.32662,0,0,0,.97214-.40294.75123.75123,0,0,0-.36186-1.35746,1.8803,1.8803,0,0,0-1.14035.266.45044.45044,0,0,1-.05477-.01956c-.665-.26993-.4577-1.71737-.03912-2.9829.18191-.55355-.07433-.83717-.89-1.22152A2.91488,2.91488,0,0,0,479.40694,68.92359ZM464.84255,70.104l-1.27531.03912-4.106-.32482-2.71677-7.15126a5.97708,5.97708,0,0,0,1.99928.32592,9.4022,9.4022,0,0,0,3.73816-.8593l3.02117,7.95163C465.275,70.09181,465.077,70.09744,464.84255,70.104Zm-6.5702,23.94927c.02542-1.25966.70807-19.07883.9643-22.74829l4.26995.33839c.03326,0,.54377-.01369,1.377-.03716,6.17864-.1769,10.60813-.29084,13.34066-.34463-.68216,2.48192-.01968,3.57239.66822,4.04929a2.46526,2.46526,0,0,0-.18973,1.78583,5.04568,5.04568,0,0,1,.09388,1.07776c.02348.976.05477,2.18876.97605,2.6895a2.84261,2.84261,0,0,0,1.35465.37323c.12934,5.625.24511,11.405.24731,11.5349l.59267,7.47c0,.11149.02543.2269.0489.18a.13857.13857,0,0,1-.01956.02348l.00587.00586-24.39524.03521Zm31.33122-15.75167-3.13938,13.83871-3.33437,3.78522-.25489-3.21212c0-.11442-.07066-6.17069-.21443-12.00593a5.76113,5.76113,0,0,0,.92054-.83521,1.01418,1.01418,0,0,0,1.06211.56333c.89976-.18191.94084-1.30466.95257-4.05284v-.34621a1.94394,1.94394,0,0,0,1.1648-.36663c.9225.85856,1.92886,1.74793,3.04623,2.67789ZM516.0487,112.074h-8.6064l-.00746-.04865-3.83022-25.10161a.75712.75712,0,0,0-.2308-.43619c-.05282-.0489-.38729-.28557-.95062-.667A123.15991,123.15991,0,0,1,487.74732,74.531a5.23338,5.23338,0,0,0,.43815-1.48314,3.95927,3.95927,0,0,0,.0176-1.3027,2.51915,2.51915,0,0,0,1.25184-1.377,2.99128,2.99128,0,0,0-.54768-2.79122,2.80039,2.80039,0,0,0-1.93253-1.25673,2.333,2.333,0,0,0-1.2577.23081,1.70629,1.70629,0,0,0-1.41419-.67384,2.20426,2.20426,0,0,0-1.54329.77164,3.01734,3.01734,0,0,0-.96235-.05623,2.583,2.583,0,0,1,.01174-1.23864,31.4436,31.4436,0,0,1,2.36028-5.99747l10.9036,5.45089-.15672.13386,16.07441,18.80011ZM483.15463,40.12441l8.34235-6.14478a2.1819,2.1819,0,0,0,.71589-.49584,2.18968,2.18968,0,0,1,2.17508-.70612c.69438.135,1.44157.20538,2.19854.27482,2.24354.20636,4.19367.38631,5.03475,2.19365l-4.91335,29.47853-.64952-.75954-.87066.74389.61051-1.2192-10.818-5.4081a2.78561,2.78561,0,0,1,.73094-.74157l-.27189-.69927-.09168-.307,2.52495-8.45713,4.59269-1.7582-.53595-1.40246-4.93755,1.89023-.0033.00025L482.587,48.29683l-3.30613-4.56.10281-.15905Zm-4.34611,2.96139h-.00012l.00024-.00049ZM466.58535,67.56808a11.1664,11.1664,0,0,1,1.0302-4.78462c.527,1.38485,1.47006,2.21285,4.5268,2.24476h.03716a3.43962,3.43962,0,0,0,.4549-.04316c.05647-.0077.11405-.00562.16992-.01614a3.27774,3.27774,0,0,0,1.72043-.89132,3.06648,3.06648,0,0,0,.79083-1.31505,11.01894,11.01894,0,0,1,1.07128,4.80553c0,.34573-.03741.67776-.06577,1.01321a1.12335,1.12335,0,0,0-.9846.23472.79026.79026,0,0,0-.21125.69732.76135.76135,0,0,0,.12555.30611c-2.02617.05012-4.67949.12274-8.158.22091l-.41871-1.10184A12.00774,12.00774,0,0,1,466.58535,67.56808Zm-4.61029,39.02907,4.4433-4.64355h11.4014l-8.87217,10.0717-.5236.59438-.63643-.59438Z" transform="translate(-8.05078)"/><path class="cls-1" d="M490.3537,23.77273a9.45017,9.45017,0,0,0,8.76973,5.98194,9.57059,9.57059,0,0,0,1.77409-.16626A9.45407,9.45407,0,0,0,508.44573,18.539a10.12168,10.12168,0,0,0-.635-2.06126,5.24672,5.24672,0,0,0,2.1274-2.68106,2.75708,2.75708,0,0,0-.51639-2.43033c-2.33351-3.09146-5.95993-2.50564-7.86117-1.646-1.422-.72274-6.66605-3.04549-10.22793.0088l-3.34085,3.92178c-2.20832,2.58877-.77457,7.646,1.95014,9.96974A.732.732,0,0,0,490.3537,23.77273Zm5.36237-14.09641a12.88392,12.88392,0,0,1,5.4592,1.53937.748.748,0,0,0,.72568.00978c.15843-.08508,3.97264-2.0714,6.31984,1.04646a1.25259,1.25259,0,0,1,.266,1.14231c-.17408.66015-1.03081,2.01175-4.81763,3.6587-5.21078,2.26407-11.40544,4.51934-13.06608,5.11592-1.94622-1.94427-2.99855-5.76923-1.469-7.56386l3.2587-3.83767A4.968,4.968,0,0,1,495.71607,9.67632Zm11.25483,9.14039a7.95614,7.95614,0,0,1-15.16475,4.535c2.30661-.838,7.7696-2.86212,12.46156-4.90174a22.27457,22.27457,0,0,0,2.26138-1.126A8.65155,8.65155,0,0,1,506.9709,18.81671Z" transform="translate(-8.05078)"/></g></g></svg>