<?xml version="1.0" encoding="UTF-8" standalone="no"?>
<!DOCTYPE svg PUBLIC "-//W3C//DTD SVG 1.1//EN" "http://www.w3.org/Graphics/SVG/1.1/DTD/svg11.dtd">
<svg width="100%" height="100%" viewBox="0 0 237 65" version="1.1" xmlns="http://www.w3.org/2000/svg" xmlns:xlink="http://www.w3.org/1999/xlink" xml:space="preserve" xmlns:serif="http://www.serif.com/" style="fill-rule:evenodd;clip-rule:evenodd;stroke-linejoin:round;stroke-miterlimit:2;">
    <g transform="matrix(1,0,0,1,-1553.62,-1619.08)">
        <g transform="matrix(4.16667,0,0,4.16667,0,0)">
            <g transform="matrix(1,0,0,1,421.591,395.063)">
                <path d="M0,2.608L-2.067,2.608L-2.067,5.697L-3.401,5.697L-3.401,-3.089L0.012,-3.089C1.767,-3.089 2.909,-1.935 2.909,-0.253C2.909,1.43 1.779,2.608 0,2.608M-4.698,5.697L-6.044,5.697L-6.044,1.779C-6.044,1.081 -6.032,0.492 -5.996,-0.036L-8.135,5.673L-9.421,5.673L-11.56,-0.012C-11.525,0.492 -11.512,1.081 -11.512,1.779L-11.512,5.697L-12.859,5.697L-12.859,-3.089L-11.512,-3.089L-8.772,4.014L-6.044,-3.089L-4.698,-3.077L-4.698,5.697ZM-18.097,5.877C-20.681,5.877 -22.352,4.062 -22.352,1.322C-22.352,-1.466 -20.621,-3.281 -18.085,-3.281C-16.27,-3.281 -14.78,-2.248 -14.359,-0.721L-15.645,-0.204C-15.922,-1.274 -16.871,-1.972 -18.133,-1.972C-19.84,-1.972 -20.922,-0.637 -20.922,1.31C-20.922,3.269 -19.84,4.579 -18.085,4.579C-16.595,4.579 -15.489,3.629 -15.441,2.103L-18.253,2.103L-18.253,0.961L-14.119,0.961C-14.07,1.178 -14.047,1.466 -14.047,1.791C-14.047,4.23 -15.633,5.877 -18.097,5.877M-26.136,5.889C-27.879,5.889 -29.141,4.591 -29.141,2.728C-29.141,0.853 -27.867,-0.445 -26.1,-0.445C-24.73,-0.445 -23.708,0.312 -23.396,1.382L-24.514,1.863C-24.706,1.19 -25.343,0.757 -26.112,0.757C-27.122,0.757 -27.831,1.514 -27.831,2.728C-27.831,3.906 -27.17,4.687 -26.124,4.687C-25.367,4.687 -24.718,4.267 -24.514,3.594L-23.372,4.05C-23.733,5.18 -24.85,5.889 -26.136,5.889M-32.283,8.406L-40.935,8.406C-44.851,8.406 -48.037,5.22 -48.037,1.304C-48.037,-2.612 -44.851,-5.798 -40.935,-5.798L-32.283,-5.798L-32.283,8.406ZM0.32,-6.483L-40.935,-6.483C-45.229,-6.483 -48.722,-2.99 -48.722,1.304C-48.722,5.598 -45.229,9.091 -40.935,9.091L0.32,9.091C4.614,9.091 8.107,5.598 8.107,1.304C8.107,-2.99 4.614,-6.483 0.32,-6.483" style="fill:rgb(99,102,106);fill-rule:nonzero;"/>
            </g>
            <g transform="matrix(1,0,0,1,421.471,396.433)">
                <path d="M0,-3.185L-1.947,-3.185L-1.947,0L0,0C1.094,0 1.659,-0.697 1.659,-1.61C1.659,-2.584 1.058,-3.185 0,-3.185" style="fill:rgb(99,102,106);fill-rule:nonzero;"/>
            </g>
            <g transform="matrix(1,0,0,1,377.614,395.716)">
                <path d="M0,1.303L3.707,1.303L3.707,5.01L5.01,5.01L5.01,1.303L8.717,1.303L8.717,0L5.01,0L5.01,-3.707L3.707,-3.707L3.707,0L0,0L0,1.303Z" style="fill:rgb(99,102,106);fill-rule:nonzero;"/>
            </g>
        </g>
    </g>
</svg>
