<?xml version="1.0" encoding="utf-8"?>
<!-- Generator: Adobe Illustrator 20.1.0, SVG Export Plug-In . SVG Version: 6.00 Build 0)  -->
<svg version="1.1" id="Layer_1" xmlns="http://www.w3.org/2000/svg" xmlns:xlink="http://www.w3.org/1999/xlink" x="0px" y="0px"
	 viewBox="0 0 291.9 80" style="enable-background:new 0 0 291.9 80;" xml:space="preserve">
<style type="text/css">
	.st0{fill:#FFFFFF;}
</style>
<title>cgmp</title>
<g id="Layer_2">
	<g id="Layer_1-2">
		<path class="st0" d="M251.9,0H40C17.9,0,0,17.9,0,40s17.9,40,40,40h211.9c22.1,0,40-17.9,40-40S274,0,251.9,0 M84.4,76.5H40
			C19.8,76.5,3.5,60.1,3.5,40S19.8,3.5,40,3.5h44.4V76.5z M116,63.5c-9,0-15.4-6.7-15.4-16.2S107.1,31,116.2,31
			c7,0,12.3,3.9,13.9,9.4l-5.7,2.5c-1-3.5-4.3-5.7-8.2-5.7c-5.2,0-8.8,3.9-8.8,10.1c0,6,3.4,10.1,8.8,10.1c3.9,0,7.2-2.2,8.3-5.6
			l5.9,2.3C128.4,59.9,122.6,63.5,116,63.5 M157.3,63.5c-13.3,0-21.9-9.3-21.9-23.4c0-14.3,8.9-23.6,21.9-23.6
			c9.3,0,17,5.3,19.1,13.1l-6.6,2.7c-1.4-5.5-6.3-9.1-12.8-9.1c-8.8,0-14.3,6.9-14.3,16.9s5.6,16.8,14.6,16.8
			c7.6,0,13.3-4.9,13.6-12.7h-14.5v-5.9h21.2c0.3,1.4,0.4,2.8,0.4,4.3C178.1,55,170,63.5,157.3,63.5 M226.2,62.6h-6.9V42.4
			c0-3.6,0.1-6.6,0.2-9.3l-11,29.3h-6.6l-11-29.2c0.2,2.6,0.2,5.6,0.2,9.2v20.1h-6.9V17.4h6.9l14.1,36.5l14-36.5l6.9,0.1L226.2,62.6
			z M250.3,46.7h-10.6v15.9h-6.9V17.4h17.5c9,0,14.9,5.9,14.9,14.6S259.4,46.7,250.3,46.7"/>
		<path class="st0" d="M249.7,24h-10v16.3h10c5.6,0,8.5-3.6,8.5-8.3C258.2,27.1,255.1,24,249.7,24"/>
		<polygon class="st0" points="24.4,43.3 43.4,43.3 43.4,62.4 50.1,62.4 50.1,43.3 69.2,43.3 69.2,36.7 50.1,36.7 50.1,17.6 
			43.4,17.6 43.4,36.7 24.4,36.7 		"/>
	</g>
</g>
</svg>
