<svg xmlns="http://www.w3.org/2000/svg" viewBox="0 0 266.26 72.96"><defs><style>.cls-1{fill:#63666a;}</style></defs><title>cgmp-gray</title><g id="Layer_2" data-name="Layer 2"><g id="Layer_1-2" data-name="Layer 1"><path class="cls-1" d="M229.77,0H36.48a36.48,36.48,0,1,0,0,73H229.77a36.48,36.48,0,1,0,0-73M77,69.76H36.48a33.27,33.27,0,1,1,0-66.55H77ZM105.82,58c-8.16,0-14.08-6.08-14.08-14.81s6-14.87,14.25-14.87c6.42,0,11.2,3.55,12.67,8.56l-5.24,2.25c-.9-3.15-3.88-5.18-7.49-5.18-4.73,0-8.05,3.55-8.05,9.23,0,5.52,3.1,9.18,8,9.18a7.58,7.58,0,0,0,7.54-5.12l5.35,2.14c-1.69,5.29-6.93,8.62-13,8.62m37.67-.06c-12.11,0-19.94-8.5-19.94-21.34,0-13.06,8.11-21.57,20-21.57C152,15,159,19.84,161,27l-6,2.42c-1.3-5-5.74-8.28-11.66-8.28-8,0-13.06,6.25-13.06,15.37s5.07,15.32,13.29,15.32c7,0,12.16-4.45,12.39-11.6H142.75V34.88h19.37a18.74,18.74,0,0,1,.34,3.89c0,11.43-7.43,19.14-19,19.14m62.78-.84H200V38.71c0-3.27.06-6,.23-8.5L190.16,57h-6l-10-26.64c.17,2.36.23,5.12.23,8.39V57.06H168V15.9h6.31l12.84,33.28L200,15.9l6.31.06Zm22-14.47h-9.69V57.06h-6.25V15.9h16c8.22,0,13.57,5.41,13.57,13.29s-5.29,13.4-13.63,13.4"/><path class="cls-1" d="M227.71,21.87h-9.12V36.79h9.12c5.12,0,7.77-3.26,7.77-7.54,0-4.56-2.82-7.38-7.77-7.38"/><polygon class="cls-1" points="22.23 39.53 39.6 39.53 39.6 56.9 45.71 56.9 45.71 39.53 63.07 39.53 63.07 33.43 45.71 33.43 45.71 16.06 39.6 16.06 39.6 33.43 22.23 33.43 22.23 39.53"/></g></g></svg>