<?xml version="1.0" encoding="utf-8"?>
<!-- Generator: Adobe Illustrator 16.0.4, SVG Export Plug-In . SVG Version: 6.00 Build 0)  -->
<!DOCTYPE svg PUBLIC "-//W3C//DTD SVG 1.1//EN" "http://www.w3.org/Graphics/SVG/1.1/DTD/svg11.dtd">
<svg version="1.1" id="Layer_1" xmlns="http://www.w3.org/2000/svg" xmlns:xlink="http://www.w3.org/1999/xlink" x="0px" y="0px"
	 width="563.426px" height="100px" viewBox="0 0 563.426 100" enable-background="new 0 0 563.426 100" xml:space="preserve">
<path fill="#63666A" d="M53.82,60.852c12.134-11.477,28.457-12.353,28.457-12.353s0.118,15.66-11.467,26.47
	C58.117,86.881,42.566,86.881,42.566,86.881S41.903,71.986,53.82,60.852 M28.562,38.566C28.562,38.566,28.562,38.461,28.562,38.566
	c2.201,3.975,9.48,3.975,12.239,0c2.319,3.975,10.373,3.975,12.801,0c2.319,3.975,9.707,3.975,11.572,0
	C62.197,49.488,53.38,57.102,41.023,57.102c-12.352,0-22.167-7.614-24.377-18.536C18.411,42.541,26.243,42.541,28.562,38.566
	 M0.209,48.499h-0.222c0,0,15.442,0,28.243,12.021c12.24,11.467,11.359,26.256,11.359,26.256s-14.558,1.216-28.017-11.586
	C-1.224,63.17,0.209,48.499,0.209,48.499 M40.914,10C40.801,10.327,40.801,10,40.914,10c16.218,0,25.258,11.912,25.149,24.704
	c0-0.108-20.96,0-20.96,0c1.875-0.993,4.302-3.526,4.302-6.725c0-4.742-3.971-7.837-8.382-7.837c-3.749,0-8.495,2.646-8.495,7.731
	c0,2.859,2.314,5.837,4.746,6.83h-21.4C15.874,21.145,25.69,10.222,40.914,10"/>
<polygon fill="#63666A" points="90.331,84.457 90.331,11.321 137.757,11.321 137.757,23.79 105.552,23.79 105.552,41.438 
	137.757,41.438 137.757,53.898 105.552,53.898 105.552,72.104 137.757,72.104 137.757,84.457 "/>
<path fill="#63666A" d="M198.205,32.172c0-6.402-2.092-10.813-6.398-14.784c-4.41-4.302-10.26-5.958-19.744-5.958H144.16v73.027
	h15.221V53.898h12.796c8.386,0,14.558-0.768,18.859-4.411C195.782,45.296,198.205,39.232,198.205,32.172 M182.104,32.398
	c0,3.19-1.216,5.614-3.312,7.271c-2.092,1.878-5.513,1.77-10.587,1.77h-8.825V23.795h10.26
	C178.243,23.795,182.104,25.552,182.104,32.398"/>
<path fill="#63666A" d="M261.296,84.566l-28.23-73.137h-18.969l-27.031,73.027h15.555l6.843-18.537h29.338l6.726,18.646h15.768
	V84.566z M234.168,53.463h-20.407l10.038-27.803L234.168,53.463z"/>
<path fill="#63666A" d="M317.618,57.766h-3.58V44.188h3.58V57.766z M317.618,42.39h-3.58v-3.3h3.58V42.39z"/>
<rect x="432.746" y="39.095" fill="#63666A" width="3.581" height="18.671"/>
<path fill="#63666A" d="M533.157,57.766h-3.581V44.188h3.581V57.766z M533.157,42.39h-3.581v-3.3h3.581V42.39z"/>
<path fill="#63666A" d="M268.688,12.407h3.773v10.184c0,1.598,0,2.738,0.101,3.204c0.181,0.759,0.562,1.32,1.124,1.794
	c0.662,0.47,1.518,0.755,2.545,0.755c1.036,0,1.891-0.285,2.36-0.667c0.566-0.465,0.943-1.031,1.036-1.597
	c0.101-0.659,0.188-1.795,0.188-3.208V12.407h3.773v9.904c0,2.26-0.191,3.77-0.381,4.708c-0.189,0.952-0.562,1.702-1.124,2.361
	c-0.482,0.658-1.232,1.128-2.168,1.509c-0.947,0.474-2.079,0.654-3.589,0.654c-1.79,0-3.115-0.281-4.059-0.654
	c-0.939-0.381-1.694-0.943-2.164-1.605c-0.565-0.658-0.943-1.413-1.035-2.071c-0.281-1.132-0.382-2.642-0.382-4.81v-9.996"/>
<path fill="#63666A" d="M298.952,31.17h-3.581v-6.981c0-1.505,0-2.448-0.193-2.821c-0.18-0.474-0.367-0.852-0.75-1.044
	c-0.373-0.281-0.751-0.369-1.225-0.369c-0.662,0-1.229,0.18-1.698,0.47c-0.562,0.368-0.843,0.843-1.03,1.413
	c-0.192,0.562-0.285,1.597-0.285,3.115v6.218h-3.58V17.598h3.295v1.975c1.221-1.606,2.738-2.36,4.523-2.36
	c0.75,0,1.506,0.101,2.168,0.386c0.662,0.369,1.133,0.658,1.51,1.124c0.285,0.478,0.562,0.948,0.666,1.509
	c0.182,0.562,0.182,1.417,0.182,2.453L298.952,31.17"/>
<path fill="#63666A" d="M305.367,31.17h-3.581V17.598h3.581V31.17z M305.367,15.707h-3.581v-3.3h3.581V15.707z"/>
<path fill="#63666A" d="M314.415,17.593v2.831h-2.444v5.472v1.975c0.088,0.192,0.182,0.373,0.369,0.47
	c0.192,0.097,0.381,0.192,0.57,0.192c0.373,0,0.847-0.096,1.417-0.381l0.275,2.83c-0.75,0.381-1.692,0.562-2.729,0.562
	c-0.662,0-1.232-0.181-1.794-0.373c-0.475-0.188-0.853-0.47-1.133-0.852c-0.188-0.373-0.373-0.843-0.475-1.417
	c-0.088-0.369-0.088-1.22-0.088-2.536v-5.941h-1.706v-2.831h1.706v-2.738l3.585-2.071v4.809L314.415,17.593"/>
<path fill="#63666A" d="M322.998,28.34c-0.373,0.285-0.843,0.381-1.417,0.381c-0.843,0-1.506-0.284-2.076-0.851
	c-0.562-0.566-0.843-1.413-0.843-2.449h9.053c0.088-2.83-0.474-4.909-1.698-6.222c-1.132-1.321-2.736-1.987-4.809-1.987
	c-1.795,0-3.3,0.667-4.437,1.891c-1.226,1.321-1.796,3.107-1.796,5.375c0,1.888,0.476,3.493,1.325,4.718
	c1.132,1.505,2.923,2.348,5.279,2.348c1.509,0,2.742-0.373,3.686-1.035c1.031-0.751,1.786-1.694,2.163-3.02l-3.581-0.562
	C323.66,27.589,323.375,28.062,322.998,28.34 M318.751,23.153c0-0.943,0.192-1.786,0.754-2.356c0.479-0.562,1.133-0.848,1.896-0.848
	c0.755,0,1.403,0.285,1.879,0.848c0.568,0.57,0.854,1.32,0.854,2.356H318.751z"/>
<path fill="#63666A" d="M342.234,12.407h-3.594v6.696c-1.124-1.229-2.439-1.891-3.953-1.891c-1.698,0-3.012,0.57-4.144,1.794
	c-1.044,1.228-1.604,3.023-1.604,5.283c0,2.265,0.562,4.051,1.604,5.274c1.132,1.33,2.537,1.979,4.042,1.979
	c0.759,0,1.518-0.281,2.27-0.649c0.763-0.386,1.417-0.948,1.986-1.698v1.975h3.393V12.407 M333.463,20.985
	c0.562-0.658,1.321-1.036,2.168-1.036c0.853,0,1.606,0.378,2.168,1.036c0.562,0.662,0.843,1.795,0.843,3.392
	c0,1.418-0.28,2.55-0.843,3.212c-0.562,0.751-1.315,1.036-2.168,1.036c-1.044,0-1.887-0.474-2.448-1.417
	c-0.382-0.654-0.569-1.694-0.569-3.107C332.612,22.684,332.901,21.647,333.463,20.985"/>
<path fill="#63666A" d="M350.243,25.141l3.686-0.382c0.276,1.229,0.658,2.067,1.409,2.642c0.662,0.57,1.597,0.843,2.733,0.843
	c1.225,0,2.168-0.185,2.737-0.755c0.662-0.474,0.936-1.123,0.936-1.786c0-0.373-0.092-0.75-0.373-1.132
	c-0.281-0.285-0.751-0.562-1.417-0.751c-0.378-0.196-1.413-0.474-3.021-0.854c-1.975-0.466-3.392-1.128-4.233-1.879
	c-1.137-1.044-1.706-2.264-1.706-3.773c0-0.943,0.293-1.883,0.763-2.65c0.562-0.839,1.316-1.505,2.349-1.975
	c1.044-0.373,2.269-0.658,3.686-0.658c2.356,0,4.143,0.566,5.279,1.61c1.225,1.023,1.883,2.352,1.883,4.146l-3.771,0.088
	c-0.093-0.943-0.47-1.605-1.035-2.067c-0.471-0.377-1.324-0.57-2.356-0.57c-1.132,0-1.979,0.193-2.642,0.658
	c-0.382,0.285-0.562,0.667-0.562,1.136c0,0.461,0.181,0.843,0.562,1.124c0.475,0.381,1.605,0.854,3.492,1.325
	c1.786,0.381,3.203,0.843,4.051,1.317c0.848,0.47,1.603,1.132,2.07,1.887c0.476,0.851,0.751,1.794,0.751,3.019
	c0,1.036-0.275,2.08-0.938,3.019c-0.562,0.936-1.417,1.598-2.453,2.071c-1.132,0.47-2.444,0.755-4.142,0.755
	c-2.356,0-4.155-0.562-5.381-1.702C351.287,28.813,350.537,27.212,350.243,25.141"/>
<path fill="#63666A" d="M374.004,17.593v2.831h-2.444v5.472c0,1.123,0.089,1.786,0.089,1.975c0.093,0.192,0.181,0.373,0.28,0.47
	c0.192,0.097,0.382,0.192,0.658,0.192c0.285,0,0.759-0.096,1.417-0.381l0.285,2.83c-0.847,0.381-1.799,0.562-2.834,0.562
	c-0.654,0-1.225-0.181-1.694-0.373c-0.569-0.188-0.938-0.47-1.136-0.852c-0.277-0.373-0.369-0.843-0.457-1.417
	c-0.105-0.369-0.193-1.22-0.193-2.536v-5.941h-1.604v-2.831h1.604v-2.738l3.585-2.071v4.809L374.004,17.593"/>
<path fill="#63666A" d="M379.195,20.323c0.373-0.277,0.843-0.374,1.505-0.374c0.942,0,1.602,0.185,1.975,0.475
	c0.386,0.28,0.475,0.754,0.475,1.505v0.281c-0.562,0.289-1.794,0.57-3.479,0.943c-1.237,0.188-2.168,0.474-2.83,0.855
	c-0.667,0.276-1.229,0.75-1.605,1.412c-0.285,0.562-0.475,1.225-0.475,2.067c0,1.137,0.382,2.08,1.132,2.83
	c0.844,0.751,1.983,1.225,3.396,1.225c0.751,0,1.505-0.181,2.168-0.474c0.75-0.277,1.413-0.751,1.975-1.409
	c0,0.097,0.102,0.285,0.193,0.47c0.096,0.479,0.188,0.759,0.276,1.044h3.585c-0.281-0.666-0.562-1.229-0.658-1.891
	c-0.097-0.562-0.186-1.409-0.186-2.638l0.089-4.146c0-1.602-0.182-2.638-0.467-3.3c-0.377-0.57-0.946-1.044-1.701-1.417
	c-0.75-0.377-1.976-0.566-3.58-0.566c-1.786,0-3.107,0.281-3.954,0.939c-0.943,0.662-1.519,1.605-1.888,2.931l3.199,0.562
	C378.532,20.985,378.812,20.616,379.195,20.323 M383.148,25.329c0,0.847,0,1.501-0.089,1.786c-0.191,0.474-0.474,0.854-0.854,1.225
	c-0.662,0.381-1.224,0.666-1.878,0.666c-0.57,0-1.04-0.192-1.417-0.569c-0.378-0.374-0.57-0.848-0.57-1.321
	c0-0.562,0.192-0.939,0.662-1.32c0.285-0.189,0.943-0.374,1.979-0.654c1.034-0.193,1.785-0.382,2.167-0.57V25.329L383.148,25.329z"
	/>
<path fill="#63666A" d="M395.594,17.593v2.831h-2.449v5.472v1.975c0.102,0.192,0.188,0.373,0.379,0.47
	c0.092,0.097,0.372,0.192,0.564,0.192c0.382,0,0.853-0.096,1.413-0.381l0.281,2.83c-0.843,0.381-1.694,0.562-2.729,0.562
	c-0.663,0-1.225-0.181-1.786-0.373c-0.481-0.188-0.852-0.47-1.146-0.852c-0.18-0.373-0.368-0.843-0.469-1.417
	c-0.094-0.369-0.094-1.22-0.094-2.536v-5.941h-1.692v-2.831h1.692v-2.738l3.585-2.071v4.809L395.594,17.593"/>
<path fill="#63666A" d="M404.185,28.34c-0.386,0.285-0.854,0.381-1.417,0.381c-0.852,0-1.514-0.284-2.079-0.851
	c-0.57-0.566-0.852-1.413-0.852-2.449h9.052c0-2.83-0.474-4.909-1.692-6.222c-1.138-1.321-2.742-1.987-4.811-1.987
	c-1.795,0-3.3,0.667-4.432,1.891c-1.229,1.321-1.791,3.107-1.791,5.375c0,1.888,0.475,3.493,1.317,4.718
	c1.136,1.505,2.922,2.348,5.286,2.348c1.506,0,2.729-0.373,3.674-1.035c1.034-0.751,1.697-1.694,2.168-3.02l-3.585-0.562
	C404.834,27.589,404.554,28.062,404.185,28.34 M399.938,23.153c-0.101-0.943,0.181-1.786,0.75-2.356
	c0.475-0.562,1.124-0.848,1.892-0.848c0.751,0,1.413,0.285,1.875,0.848c0.57,0.57,0.854,1.32,0.854,2.356H399.938z"/>
<path fill="#63666A" d="M409.644,27.4l3.581-0.574c0.192,0.763,0.471,1.232,0.943,1.605c0.474,0.382,1.132,0.574,1.987,0.574
	c0.938,0,1.598-0.192,2.066-0.574c0.289-0.28,0.47-0.562,0.47-0.943c0-0.276-0.089-0.562-0.276-0.75
	c-0.192-0.185-0.562-0.285-1.136-0.474c-2.919-0.659-4.811-1.225-5.562-1.787c-1.132-0.754-1.604-1.693-1.604-3.022
	c0-1.221,0.474-2.256,1.413-3.006c0.854-0.855,2.359-1.233,4.34-1.233c1.887,0,3.207,0.277,4.153,0.847
	c0.939,0.654,1.502,1.509,1.884,2.641l-3.393,0.663c-0.188-0.474-0.479-0.943-0.852-1.233c-0.381-0.272-1.04-0.373-1.794-0.373
	c-0.939,0-1.604,0.101-2.071,0.373c-0.281,0.189-0.378,0.482-0.378,0.76c0,0.284,0.097,0.474,0.378,0.653
	c0.285,0.294,1.408,0.57,3.396,1.044c1.884,0.47,3.209,1.036,4.052,1.598c0.755,0.658,1.136,1.606,1.136,2.738
	c0,1.225-0.562,2.356-1.605,3.203c-1.035,0.943-2.549,1.413-4.615,1.413c-1.893,0-3.301-0.369-4.438-1.124
	C410.684,29.656,410.025,28.625,409.644,27.4"/>
<polygon fill="#63666A" points="268.688,57.766 268.688,39.09 282.559,39.09 282.559,42.201 272.461,42.201 272.461,46.356 
	281.896,46.356 281.896,49.556 272.461,49.556 272.461,54.646 282.932,54.646 282.932,57.766 "/>
<path fill="#63666A" d="M297.547,57.766h-3.589v-6.98c0-1.417-0.097-2.36-0.196-2.835c-0.177-0.469-0.462-0.75-0.75-1.031
	c-0.373-0.192-0.756-0.289-1.316-0.289c-0.566,0-1.129,0.097-1.698,0.478c-0.466,0.374-0.849,0.751-0.938,1.317
	c-0.193,0.57-0.281,1.693-0.281,3.211v6.132h-3.58v-13.58h3.291v1.975c1.225-1.509,2.642-2.355,4.523-2.355
	c0.75,0,1.51,0.188,2.168,0.469c0.662,0.281,1.137,0.663,1.412,1.137c0.383,0.373,0.663,0.943,0.76,1.505
	c0.096,0.562,0.196,1.325,0.196,2.356L297.547,57.766"/>
<path fill="#63666A" d="M304.042,57.766l-5.464-13.577h3.773l2.545,6.973l0.75,2.26c0.189-0.564,0.383-0.943,0.383-1.127
	c0.088-0.378,0.275-0.76,0.377-1.133l2.642-6.973h3.673l-5.379,13.577H304.042"/>
<path fill="#63666A" d="M323.849,57.766h-3.589V44.188h3.296v1.975c0.578-0.947,1.142-1.605,1.605-1.887
	c0.474-0.28,0.942-0.469,1.519-0.469c0.844,0,1.598,0.28,2.444,0.75l-1.133,3.111c-0.662-0.382-1.225-0.562-1.693-0.562
	c-0.574,0-0.942,0.093-1.325,0.374c-0.373,0.28-0.648,0.763-0.839,1.514c-0.191,0.754-0.285,2.255-0.285,4.62V57.766"/>
<path fill="#63666A" d="M329.777,54.839c0.574,1.035,1.418,1.882,2.554,2.444c1.132,0.574,2.355,0.851,3.581,0.851
	c1.979,0,3.682-0.661,4.998-2.075c1.324-1.324,1.979-3.011,1.979-5.086c0-2.079-0.653-3.772-1.979-5.095
	c-1.316-1.32-3.021-2.07-4.998-2.07c-1.325,0-2.537,0.377-3.673,0.938c-1.044,0.566-1.888,1.417-2.462,2.541
	c-0.562,1.137-0.838,2.269-0.838,3.493C328.939,52.386,329.216,53.711,329.777,54.839 M333.562,47.861
	c0.562-0.755,1.405-1.035,2.35-1.035s1.702,0.28,2.359,1.035c0.566,0.751,0.939,1.795,0.939,3.112c0,1.412-0.373,2.447-0.939,3.106
	c-0.657,0.759-1.416,1.136-2.359,1.136s-1.786-0.377-2.35-1.136c-0.661-0.659-1.044-1.694-1.044-3.106
	C332.52,49.656,332.901,48.612,333.562,47.861"/>
<path fill="#63666A" d="M357.229,57.766h-3.594v-6.98c0-1.417-0.092-2.36-0.279-2.835c-0.094-0.469-0.373-0.75-0.752-1.031
	c-0.284-0.192-0.755-0.289-1.229-0.289c-0.662,0-1.224,0.097-1.698,0.478c-0.465,0.374-0.847,0.751-1.03,1.317
	c-0.192,0.57-0.289,1.693-0.289,3.211v6.132h-3.581v-13.58h3.393v1.975c1.132-1.509,2.642-2.355,4.437-2.355
	c0.848,0,1.501,0.188,2.168,0.469c0.657,0.281,1.132,0.663,1.501,1.137c0.382,0.373,0.569,0.943,0.768,1.505
	c0.088,0.562,0.188,1.325,0.188,2.356v8.491"/>
<path fill="#63666A" d="M359.766,44.188h3.305v1.874c1.132-1.501,2.549-2.26,4.143-2.26c0.951,0,1.605,0.197,2.27,0.566
	c0.661,0.382,1.132,0.943,1.604,1.605c0.562-0.662,1.226-1.224,1.887-1.605c0.751-0.369,1.404-0.566,2.261-0.566
	c0.938,0,1.795,0.285,2.545,0.658c0.659,0.378,1.133,1.04,1.506,1.795c0.285,0.57,0.382,1.505,0.382,2.83v8.681h-3.581v-7.737
	c0-1.417-0.101-2.269-0.382-2.638c-0.281-0.565-0.843-0.767-1.505-0.767c-0.57,0-1.044,0.104-1.417,0.381
	c-0.47,0.386-0.853,0.855-1.04,1.418c-0.186,0.574-0.281,1.505-0.281,2.83v6.513h-3.581V50.31c0-1.312,0-2.168-0.191-2.55
	c-0.093-0.369-0.281-0.654-0.566-0.843c-0.276-0.188-0.658-0.293-1.132-0.293c-0.47,0-1.035,0.104-1.413,0.381
	c-0.461,0.285-0.755,0.755-0.943,1.325c-0.285,0.562-0.373,1.506-0.373,2.83v6.604h-3.491V44.188"/>
<path fill="#63666A" d="M389.371,54.927c-0.373,0.289-0.843,0.47-1.413,0.47c-0.843,0-1.51-0.276-2.071-0.842
	c-0.569-0.664-0.852-1.507-0.852-2.551h9.053c0.097-2.729-0.474-4.805-1.698-6.13c-1.123-1.312-2.736-2.066-4.809-2.066
	c-1.786,0-3.296,0.649-4.433,1.979c-1.225,1.22-1.8,3.019-1.8,5.273c0,1.893,0.482,3.494,1.33,4.723
	c1.132,1.593,2.918,2.355,5.278,2.355c1.514,0,2.738-0.373,3.682-1.035c1.035-0.662,1.786-1.707,2.167-3.02l-3.491-0.57
	C390.033,54.176,389.753,54.646,389.371,54.927 M385.137,49.837c0-1.032,0.181-1.795,0.75-2.356
	c0.471-0.562,1.124-0.855,1.979-0.855c0.662,0,1.319,0.201,1.887,0.767c0.47,0.562,0.755,1.413,0.755,2.445L385.137,49.837
	L385.137,49.837z"/>
<path fill="#63666A" d="M408.419,57.766h-3.58v-6.98c0-1.417-0.097-2.36-0.192-2.835c-0.192-0.469-0.466-0.75-0.756-1.031
	c-0.373-0.192-0.75-0.289-1.312-0.289c-0.574,0-1.136,0.097-1.697,0.478c-0.479,0.374-0.852,0.751-1.04,1.317
	c-0.097,0.57-0.192,1.693-0.192,3.211v6.132h-3.572v-13.58h3.292v1.975c1.224-1.509,2.637-2.355,4.522-2.355
	c0.756,0,1.515,0.188,2.173,0.469c0.657,0.281,1.133,0.663,1.408,1.137c0.387,0.373,0.662,0.943,0.76,1.505
	c0.097,0.562,0.188,1.325,0.188,2.356L408.419,57.766"/>
<path fill="#63666A" d="M417.472,44.188v2.918h-2.447v5.473v1.979c0.088,0.181,0.18,0.275,0.367,0.368
	c0.098,0.192,0.383,0.192,0.57,0.192c0.382,0,0.848-0.096,1.409-0.285l0.289,2.729c-0.852,0.387-1.794,0.576-2.83,0.576
	c-0.562,0-1.136-0.102-1.698-0.281c-0.47-0.295-0.847-0.57-1.132-0.855c-0.188-0.373-0.373-0.847-0.474-1.413
	c-0.088-0.47-0.088-1.315-0.088-2.541v-5.941h-1.698v-2.918h1.698v-2.742l3.585-2.075v4.817L417.472,44.188"/>
<path fill="#63666A" d="M422.658,47.006c0.275-0.28,0.843-0.381,1.505-0.381c0.943,0,1.605,0.101,1.888,0.381
	c0.381,0.285,0.569,0.852,0.569,1.51v0.378c-0.662,0.284-1.882,0.562-3.492,0.854c-1.316,0.277-2.265,0.562-2.927,0.843
	c-0.654,0.382-1.128,0.853-1.505,1.413c-0.373,0.663-0.562,1.325-0.562,2.08c0,1.225,0.378,2.168,1.222,2.918
	c0.755,0.764,1.887,1.137,3.304,1.137c0.751,0,1.505-0.188,2.256-0.474c0.662-0.29,1.325-0.751,1.887-1.312
	c0.098,0.088,0.098,0.18,0.193,0.367c0.092,0.471,0.188,0.848,0.28,1.045h3.585c-0.285-0.574-0.475-1.232-0.662-1.795
	c-0.093-0.574-0.093-1.416-0.093-2.642v-4.243c0-1.505-0.186-2.642-0.471-3.212c-0.285-0.562-0.847-1.035-1.702-1.505
	c-0.75-0.373-1.975-0.562-3.58-0.562c-1.693,0-3.02,0.381-3.953,0.943c-0.853,0.662-1.515,1.693-1.888,2.918l3.203,0.662
	C421.996,47.669,422.276,47.199,422.658,47.006 M426.62,52.004c0,0.852-0.096,1.413-0.188,1.707
	c-0.101,0.465-0.381,0.936-0.854,1.216c-0.562,0.47-1.225,0.658-1.882,0.658c-0.566,0-1.036-0.188-1.418-0.562
	c-0.368-0.379-0.562-0.752-0.562-1.312c0-0.482,0.193-0.952,0.658-1.232c0.373-0.285,1.036-0.475,1.979-0.662
	c1.035-0.281,1.786-0.373,2.269-0.562V52.004z"/>
<path fill="#63666A" d="M449.342,57.766V50.78h2.448c1.795,0,3.111-0.101,3.963-0.281c0.75-0.188,1.413-0.47,2.071-0.943
	c0.57-0.378,1.132-1.044,1.604-1.795c0.377-0.847,0.562-1.786,0.562-2.918c0-1.51-0.373-2.733-1.035-3.686
	c-0.755-0.935-1.694-1.505-2.729-1.786c-0.759-0.188-2.269-0.281-4.523-0.281h-6.134v18.676H449.342 M451.22,42.201
	c1.321,0,2.27,0.088,2.738,0.188c0.662,0.093,1.137,0.382,1.51,0.755c0.465,0.474,0.658,1.044,0.658,1.698
	c0,0.57-0.193,1.132-0.47,1.51c-0.285,0.373-0.654,0.754-1.226,0.935c-0.474,0.193-1.509,0.294-3.021,0.294h-2.067v-5.38H451.22z"/>
<path fill="#63666A" d="M465.56,57.766h-3.585V44.188h3.301v1.975c0.562-0.947,1.132-1.605,1.598-1.887
	c0.474-0.28,0.943-0.469,1.51-0.469c0.848,0,1.614,0.28,2.356,0.75l-1.036,3.111c-0.662-0.382-1.226-0.562-1.693-0.562
	c-0.565,0-0.942,0.093-1.325,0.374c-0.373,0.28-0.653,0.763-0.847,1.514c-0.188,0.754-0.277,2.255-0.277,4.62L465.56,57.766"/>
<path fill="#63666A" d="M471.497,54.839c0.562,1.035,1.408,1.882,2.545,2.444c1.132,0.574,2.356,0.851,3.581,0.851
	c1.987,0,3.681-0.661,4.993-2.075c1.329-1.324,1.982-3.011,1.982-5.086c0-2.079-0.653-3.772-1.982-5.095
	c-1.312-1.32-3.006-2.07-4.993-2.07c-1.317,0-2.55,0.377-3.674,0.938c-1.044,0.566-1.892,1.417-2.452,2.541
	c-0.57,1.137-0.943,2.269-0.943,3.493C470.554,52.386,470.927,53.711,471.497,54.839 M475.262,47.861
	c0.575-0.755,1.418-1.035,2.361-1.035c0.851,0,1.693,0.28,2.264,1.035c0.658,0.751,1.035,1.795,1.035,3.112
	c0,1.412-0.377,2.447-1.035,3.106c-0.569,0.759-1.413,1.136-2.264,1.136c-0.943,0-1.786-0.377-2.361-1.136
	c-0.648-0.659-1.03-1.694-1.03-3.106C474.23,49.656,474.612,48.612,475.262,47.861"/>
<path fill="#63666A" d="M492.805,44.188v2.918h-2.447v5.473v1.979c0.092,0.181,0.181,0.275,0.368,0.368
	c0.192,0.192,0.387,0.192,0.562,0.192c0.386,0,0.854-0.096,1.417-0.285l0.29,2.729c-0.751,0.387-1.707,0.576-2.738,0.576
	c-0.654,0-1.225-0.102-1.786-0.281c-0.474-0.295-0.852-0.57-1.137-0.855c-0.188-0.373-0.368-0.847-0.47-1.413
	c-0.093-0.47-0.093-1.315-0.093-2.541v-5.941h-1.701v-2.918h1.701v-2.742l3.586-2.075v4.817L492.805,44.188"/>
<path fill="#63666A" d="M501.388,54.927c-0.382,0.289-0.847,0.47-1.417,0.47c-0.843,0-1.51-0.276-2.07-0.842
	c-0.57-0.664-0.853-1.507-0.853-2.551h9.053c0.089-2.729-0.481-4.805-1.706-6.13c-1.123-1.312-2.729-2.066-4.801-2.066
	c-1.791,0-3.301,0.649-4.433,1.979c-1.224,1.22-1.794,3.019-1.794,5.273c0,1.893,0.469,3.494,1.324,4.723
	c1.137,1.593,2.923,2.355,5.278,2.355c1.505,0,2.729-0.373,3.673-1.035c1.045-0.662,1.796-1.707,2.168-3.02l-3.585-0.57
	C502.046,54.176,501.766,54.646,501.388,54.927 M497.141,49.837c-0.093-1.032,0.188-1.795,0.76-2.356
	c0.466-0.562,1.128-0.855,1.883-0.855c0.759,0,1.413,0.201,1.882,0.767c0.562,0.562,0.854,1.413,0.854,2.445L497.141,49.837
	L497.141,49.837z"/>
<path fill="#63666A" d="M519.962,48.143l-3.585,0.662c-0.101-0.763-0.381-1.224-0.763-1.605c-0.471-0.373-1.031-0.47-1.694-0.47
	c-0.843,0-1.597,0.276-2.167,0.852c-0.474,0.658-0.751,1.693-0.751,3.203c0,1.605,0.277,2.729,0.751,3.392
	c0.57,0.658,1.324,1.04,2.264,1.04c0.667,0,1.229-0.191,1.698-0.57c0.382-0.47,0.755-1.131,0.847-2.065l3.59,0.562
	c-0.378,1.693-1.137,2.918-2.181,3.773c-1.026,0.852-2.355,1.225-4.143,1.225c-1.979,0-3.581-0.662-4.713-1.887
	c-1.229-1.229-1.79-3.023-1.79-5.279c0-2.269,0.562-3.967,1.79-5.277c1.132-1.237,2.732-1.887,4.805-1.887
	c1.606,0,2.927,0.381,3.862,1.132C518.826,45.602,519.488,46.729,519.962,48.143"/>
<path fill="#63666A" d="M527.971,44.188v2.918h-2.453v5.473c0,1.132,0,1.786,0.105,1.979c0,0.181,0.18,0.275,0.276,0.368
	c0.185,0.192,0.372,0.192,0.653,0.192c0.289,0,0.755-0.096,1.417-0.285l0.285,2.729c-0.847,0.387-1.795,0.576-2.826,0.576
	c-0.662,0-1.225-0.102-1.698-0.281c-0.569-0.295-0.938-0.57-1.132-0.855c-0.28-0.373-0.377-0.847-0.474-1.413
	c-0.097-0.47-0.188-1.315-0.188-2.541v-5.941h-1.605v-2.918h1.605v-2.742l3.58-2.075v4.817L527.971,44.188"/>
<path fill="#63666A" d="M536.075,54.839c0.569,1.035,1.417,1.882,2.55,2.444c1.136,0.574,2.36,0.851,3.58,0.851
	c1.979,0,3.686-0.661,4.998-2.075c1.321-1.324,1.979-3.011,1.979-5.086c0-2.079-0.657-3.772-1.979-5.095
	c-1.312-1.32-3.02-2.07-4.998-2.07c-1.408,0-2.545,0.377-3.668,0.938c-1.045,0.566-1.893,1.417-2.462,2.541
	c-0.562,1.137-0.932,2.269-0.932,3.493C535.145,52.386,535.514,53.711,536.075,54.839 M539.761,47.861
	c0.658-0.755,1.506-1.035,2.356-1.035c0.936,0,1.786,0.28,2.361,1.035c0.652,0.751,0.931,1.795,0.931,3.112
	c0,1.412-0.277,2.447-0.931,3.106c-0.575,0.759-1.427,1.136-2.361,1.136c-0.852,0-1.698-0.377-2.356-1.136
	c-0.562-0.659-0.951-1.694-0.951-3.106C538.81,49.656,539.199,48.612,539.761,47.861"/>
<path fill="#63666A" d="M563.514,57.766h-3.581v-6.98c0-1.417-0.092-2.36-0.279-2.835c-0.189-0.469-0.383-0.75-0.751-1.031
	c-0.387-0.192-0.76-0.289-1.226-0.289c-0.666,0-1.229,0.097-1.702,0.478c-0.47,0.374-0.851,0.751-1.04,1.317
	c-0.185,0.57-0.279,1.693-0.279,3.211v6.132h-3.581v-13.58h3.3v1.975c1.225-1.509,2.726-2.355,4.528-2.355
	c0.751,0,1.501,0.188,2.168,0.469c0.658,0.281,1.132,0.663,1.501,1.137c0.293,0.373,0.569,0.943,0.662,1.505
	c0.192,0.562,0.192,1.325,0.192,2.356L563.514,57.766"/>
<path fill="#63666A" d="M278.021,65.677h-4.054l-7.254,18.765h4.05l1.606-4.235h7.547l1.594,4.235h4.059L278.021,65.677z
	 M273.497,76.994l2.549-6.979l2.638,6.979H273.497z"/>
<path fill="#63666A" d="M286.318,85.766c0,1.225,0.474,2.26,1.418,3.01c0.938,0.855,2.637,1.226,4.9,1.226
	c1.225,0,2.26-0.181,3.115-0.369c0.75-0.284,1.413-0.666,1.882-1.136c0.476-0.471,0.849-1.032,1.138-1.887
	c0.28-0.752,0.373-1.977,0.373-3.582V70.863h-3.393v1.795c-1.036-1.413-2.453-2.168-4.146-2.168c-1.605,0-3.02,0.562-4.055,1.785
	c-1.133,1.229-1.707,3.023-1.707,5.279c0,1.795,0.475,3.305,1.229,4.528c1.133,1.604,2.546,2.356,4.341,2.356
	c1.698,0,3.011-0.752,4.146-2.26v1.979c0,0.852-0.092,1.412-0.188,1.697c-0.092,0.471-0.377,0.752-0.654,0.939
	c-0.474,0.28-1.225,0.475-2.176,0.475c-0.751,0-1.321-0.193-1.598-0.475c-0.281-0.188-0.475-0.47-0.475-0.939l-4.15-0.474V85.766
	 M290.373,74.256c0.57-0.662,1.32-1.036,2.168-1.036c0.852,0,1.605,0.374,2.176,1.036c0.562,0.658,0.939,1.795,0.939,3.212
	c0,1.32-0.377,2.356-0.939,3.011c-0.662,0.754-1.417,1.039-2.27,1.039c-0.842,0-1.504-0.285-2.074-0.942
	c-0.562-0.75-0.848-1.786-0.848-3.203C289.525,75.958,289.812,74.914,290.373,74.256"/>
<path fill="#63666A" d="M308.759,81.609c-0.373,0.281-0.847,0.471-1.417,0.471c-0.843,0-1.505-0.374-2.08-0.943
	c-0.562-0.562-0.838-1.412-0.838-2.449h9.048c0.093-2.826-0.47-4.81-1.693-6.218c-1.137-1.329-2.729-1.979-4.81-1.979
	c-1.795,0-3.3,0.649-4.437,1.879c-1.224,1.319-1.786,3.114-1.786,5.375c0,1.891,0.475,3.487,1.316,4.717
	c1.137,1.511,2.932,2.361,5.278,2.361c1.515,0,2.738-0.382,3.687-1.046c1.03-0.75,1.786-1.696,2.168-3.01l-3.497-0.562
	C309.422,80.855,309.137,81.329,308.759,81.609 M304.52,76.424c0-0.939,0.182-1.785,0.742-2.349
	c0.482-0.574,1.146-0.855,1.992-0.855c0.658,0,1.32,0.281,1.883,0.855c0.475,0.562,0.754,1.312,0.754,2.349H304.52z"/>
<path fill="#63666A" d="M327.803,84.439h-3.58v-6.978c0-1.501-0.093-2.457-0.185-2.83c-0.189-0.47-0.482-0.851-0.759-1.039
	c-0.374-0.272-0.849-0.374-1.317-0.374c-0.562,0-1.136,0.189-1.706,0.562c-0.461,0.289-0.843,0.763-1.031,1.324
	c-0.192,0.562-0.192,1.605-0.192,3.11v6.224h-3.58V70.863h3.304v1.976c1.229-1.598,2.646-2.349,4.433-2.349
	c0.852,0,1.604,0.089,2.269,0.475c0.654,0.276,1.123,0.562,1.404,1.031c0.382,0.47,0.569,0.943,0.755,1.505
	c0.101,0.569,0.188,1.417,0.188,2.461L327.803,84.439"/>
<path fill="#63666A" d="M342.424,74.826l-3.489,0.562c-0.092-0.654-0.386-1.226-0.854-1.506c-0.369-0.378-0.939-0.562-1.598-0.562
	c-0.939,0-1.698,0.273-2.164,0.937c-0.574,0.658-0.855,1.702-0.855,3.115c0,1.598,0.281,2.834,0.855,3.487
	c0.562,0.658,1.225,0.943,2.164,0.943c0.657,0,1.229-0.191,1.692-0.57c0.466-0.373,0.759-1.026,0.948-2.07l3.479,0.663
	c-0.368,1.604-1.03,2.83-2.074,3.673c-1.031,0.852-2.448,1.325-4.234,1.325c-1.976,0-3.493-0.663-4.713-1.888
	c-1.229-1.324-1.799-3.022-1.799-5.278c0-2.269,0.569-4.062,1.799-5.287c1.22-1.229,2.825-1.879,4.801-1.879
	c1.698,0,3.022,0.373,3.962,1.036C341.283,72.275,342.042,73.32,342.424,74.826"/>
<path fill="#63666A" d="M342.608,70.863h3.772l3.203,9.609l3.115-9.609h3.766l-4.81,13.011l-0.853,2.453
	c-0.271,0.75-0.562,1.413-0.843,1.795c-0.28,0.373-0.662,0.75-1.035,1.035c-0.378,0.276-0.759,0.474-1.321,0.569
	c-0.563,0.182-1.126,0.273-1.88,0.273c-0.663,0-1.32-0.092-1.982-0.271l-0.285-2.83c0.57,0.092,1.132,0.18,1.51,0.18
	c0.854,0,1.417-0.276,1.786-0.75c0.479-0.475,0.763-1.044,0.951-1.795L342.608,70.863"/>
</svg>
