<?xml version="1.0" encoding="UTF-8" standalone="no"?>
<!DOCTYPE svg PUBLIC "-//W3C//DTD SVG 1.1//EN" "http://www.w3.org/Graphics/SVG/1.1/DTD/svg11.dtd">
<svg width="100%" height="100%" viewBox="0 0 351 64" version="1.1" xmlns="http://www.w3.org/2000/svg" xmlns:xlink="http://www.w3.org/1999/xlink" xml:space="preserve" xmlns:serif="http://www.serif.com/" style="fill-rule:evenodd;clip-rule:evenodd;stroke-linejoin:round;stroke-miterlimit:2;">
    <g transform="matrix(1,0,0,1,-1155.75,-1619.53)">
        <g transform="matrix(4.16667,0,0,4.16667,0,0)">
            <g transform="matrix(1,0,0,1,285.85,404.035)">
                <path d="M0,-15.348L8.671,-15.348L8.671,-12.912L2.541,-12.912L2.541,-8.902L8.042,-8.902L8.042,-6.614L2.541,-6.614L2.541,-2.435L8.671,-2.435L8.671,0L0,0L0,-15.348Z" style="fill:rgb(99,102,106);fill-rule:nonzero;"/>
            </g>
            <g transform="matrix(1,0,0,1,302.564,396.309)">
                <path d="M0,0.105C1.806,0.105 2.708,-1.071 2.708,-2.562C2.708,-4.157 1.764,-5.186 0,-5.186L-3.254,-5.186L-3.254,0.105L0,0.105ZM-5.795,-7.622L0.231,-7.622C3.338,-7.622 5.333,-5.564 5.333,-2.603C5.333,0.378 3.359,2.457 0.21,2.457L-3.254,2.457L-3.254,7.727L-5.795,7.727L-5.795,-7.622Z" style="fill:rgb(99,102,106);fill-rule:nonzero;"/>
            </g>
            <g transform="matrix(1,0,0,1,315.205,393.999)">
                <path d="M0,4.724L-1.26,1.008C-1.743,-0.42 -2.058,-1.365 -2.163,-1.869C-2.226,-1.491 -2.562,-0.504 -3.065,1.008L-4.325,4.724L0,4.724ZM0.777,7.055L-5.102,7.055L-6.11,10.036L-9.112,10.036L-3.527,-5.312L-0.777,-5.312L4.808,10.036L1.785,10.036L0.777,7.055Z" style="fill:rgb(99,102,106);fill-rule:nonzero;"/>
            </g>
            <g transform="matrix(0.707107,0.707107,0.707107,-0.707107,278.399,393.144)">
                <path d="M1.65,-0.684C-0.965,-0.683 -3.085,1.65 -3.085,1.65C-3.085,1.65 -0.965,3.983 1.65,3.984C4.267,3.984 6.386,1.65 6.386,1.65C6.386,1.65 4.267,-0.684 1.65,-0.684" style="fill:rgb(99,102,106);fill-rule:nonzero;"/>
            </g>
            <g transform="matrix(-0.707107,0.707107,0.707107,0.707107,283.067,399.578)">
                <path d="M1.651,-3.985C4.267,-3.984 6.387,-1.651 6.387,-1.651C6.387,-1.651 4.268,0.683 1.651,0.683C-0.965,0.683 -3.084,-1.651 -3.084,-1.651C-3.084,-1.651 -0.965,-3.985 1.651,-3.985" style="fill:rgb(99,102,106);fill-rule:nonzero;"/>
            </g>
            <g transform="matrix(1,0,0,1,323.062,392.982)">
                <path d="M0,-0.091L1.114,-0.091C1.681,-0.091 1.961,-0.469 1.961,-0.924C1.961,-1.394 1.66,-1.723 1.114,-1.723L0,-1.723L0,-0.091ZM2.066,0.525L2.872,2.514L1.849,2.514L1.163,0.728L0,0.728L0,2.514L-0.917,2.514L-0.917,-2.605L1.177,-2.605C2.241,-2.605 2.9,-1.912 2.9,-0.931C2.9,-0.273 2.599,0.252 2.066,0.525" style="fill:rgb(99,102,106);fill-rule:nonzero;"/>
            </g>
            <g transform="matrix(1,0,0,1,326.715,395.497)">
                <path d="M0,-5.12L2.914,-5.12L2.914,-4.231L0.917,-4.231L0.917,-3.005L2.704,-3.005L2.704,-2.179L0.917,-2.179L0.917,-0.89L2.914,-0.89L2.914,0L0,0L0,-5.12Z" style="fill:rgb(99,102,106);fill-rule:nonzero;"/>
            </g>
            <g transform="matrix(1,0,0,1,334.922,392.631)">
                <path d="M0,0.603C0,2.011 -0.932,2.97 -2.388,2.97C-3.922,2.97 -4.896,1.913 -4.896,0.316C-4.896,-1.309 -3.873,-2.367 -2.381,-2.367C-1.317,-2.367 -0.441,-1.764 -0.203,-0.868L-1.085,-0.511C-1.226,-1.078 -1.716,-1.449 -2.409,-1.449C-3.341,-1.449 -3.901,-0.728 -3.901,0.309C-3.901,1.359 -3.334,2.06 -2.381,2.06C-1.604,2.06 -1.022,1.59 -0.974,0.841L-2.493,0.841L-2.493,0.05L-0.049,0.05C-0.014,0.204 0,0.4 0,0.603" style="fill:rgb(99,102,106);fill-rule:nonzero;"/>
            </g>
            <g transform="matrix(1,0,0,1,0,-6.126)">
                <rect x="335.662" y="396.503" width="0.896" height="5.12" style="fill:rgb(99,102,106);"/>
            </g>
            <g transform="matrix(1,0,0,1,339.953,394.011)">
                <path d="M0,-2.164C-0.049,-2.591 -0.378,-2.864 -0.861,-2.864C-1.31,-2.864 -1.611,-2.612 -1.611,-2.241C-1.611,-1.877 -1.316,-1.73 -0.91,-1.625L-0.217,-1.45C0.659,-1.232 1.037,-0.686 1.037,-0.007C1.037,0.946 0.308,1.569 -0.792,1.569C-1.898,1.569 -2.612,0.939 -2.696,0.028L-1.779,-0.112C-1.765,0.364 -1.379,0.687 -0.798,0.687C-0.287,0.687 0.042,0.455 0.042,0.042C0.042,-0.287 -0.175,-0.462 -0.525,-0.553L-1.205,-0.721C-2.199,-0.966 -2.598,-1.464 -2.598,-2.185C-2.598,-3.138 -1.87,-3.733 -0.854,-3.733C0.084,-3.733 0.785,-3.228 0.904,-2.395L0,-2.164Z" style="fill:rgb(99,102,106);fill-rule:nonzero;"/>
            </g>
            <g transform="matrix(1,0,0,1,345.009,394.614)">
                <path d="M0,-3.355L-1.38,-3.355L-1.38,0.882L-2.304,0.882L-2.304,-3.355L-3.684,-3.355L-3.684,-4.237L0,-4.237L0,-3.355Z" style="fill:rgb(99,102,106);fill-rule:nonzero;"/>
            </g>
            <g transform="matrix(1,0,0,1,345.643,395.497)">
                <path d="M0,-5.12L2.914,-5.12L2.914,-4.231L0.917,-4.231L0.917,-3.005L2.704,-3.005L2.704,-2.179L0.917,-2.179L0.917,-0.89L2.914,-0.89L2.914,0L0,0L0,-5.12Z" style="fill:rgb(99,102,106);fill-rule:nonzero;"/>
            </g>
            <g transform="matrix(1,0,0,1,350.18,392.982)">
                <path d="M0,-0.091L1.114,-0.091C1.681,-0.091 1.961,-0.469 1.961,-0.924C1.961,-1.394 1.66,-1.723 1.114,-1.723L0,-1.723L0,-0.091ZM2.066,0.525L2.872,2.514L1.849,2.514L1.163,0.728L0,0.728L0,2.514L-0.917,2.514L-0.917,-2.605L1.177,-2.605C2.241,-2.605 2.9,-1.912 2.9,-0.931C2.9,-0.273 2.599,0.252 2.066,0.525" style="fill:rgb(99,102,106);fill-rule:nonzero;"/>
            </g>
            <g transform="matrix(1,0,0,1,353.833,395.497)">
                <path d="M0,-5.12L2.914,-5.12L2.914,-4.231L0.917,-4.231L0.917,-3.005L2.704,-3.005L2.704,-2.179L0.917,-2.179L0.917,-0.89L2.914,-0.89L2.914,0L0,0L0,-5.12Z" style="fill:rgb(99,102,106);fill-rule:nonzero;"/>
            </g>
            <g transform="matrix(1,0,0,1,359.056,391.267)">
                <path d="M0,3.34C0.932,3.34 1.478,2.668 1.478,1.666C1.478,0.616 0.882,-0.008 0,-0.008L-0.679,-0.008L-0.679,3.34L0,3.34ZM-1.604,-0.89L0.063,-0.89C1.604,-0.89 2.458,0.132 2.458,1.666C2.458,3.291 1.527,4.23 0.063,4.23L-1.604,4.23L-1.604,-0.89Z" style="fill:rgb(99,102,106);fill-rule:nonzero;"/>
            </g>
            <g transform="matrix(1,0,0,1,322.144,403.897)">
                <path d="M0,-5.12L2.935,-5.12L2.935,-4.238L0.917,-4.238L0.917,-2.949L2.62,-2.949L2.62,-2.122L0.917,-2.122L0.917,0L0,0L0,-5.12Z" style="fill:rgb(99,102,106);fill-rule:nonzero;"/>
            </g>
            <g transform="matrix(1,0,0,1,327.879,400.563)">
                <path d="M0,1.547L-0.35,0.476C-0.498,0.006 -0.609,-0.337 -0.645,-0.498C-0.666,-0.372 -0.785,-0.022 -0.946,0.476L-1.296,1.547L0,1.547ZM0.28,2.395L-1.576,2.395L-1.884,3.333L-2.977,3.333L-1.135,-1.786L-0.147,-1.786L1.695,3.333L0.588,3.333L0.28,2.395Z" style="fill:rgb(99,102,106);fill-rule:nonzero;"/>
            </g>
            <g transform="matrix(1,0,0,1,329.817,401.333)">
                <path d="M0,0.007C0,-1.597 1.016,-2.661 2.458,-2.661C3.551,-2.661 4.44,-2.032 4.686,-1.065L3.761,-0.722C3.621,-1.338 3.096,-1.723 2.458,-1.723C1.59,-1.723 1.008,-1.037 1.008,0.007C1.008,1.036 1.59,1.73 2.458,1.73C3.096,1.73 3.621,1.344 3.761,0.728L4.686,1.064C4.454,2.024 3.572,2.668 2.451,2.668C0.995,2.668 0,1.597 0,0.007" style="fill:rgb(99,102,106);fill-rule:nonzero;"/>
            </g>
            <g transform="matrix(1,0,0,1,0,10.674)">
                <rect x="335.234" y="388.103" width="0.896" height="5.12" style="fill:rgb(99,102,106);"/>
            </g>
            <g transform="matrix(1,0,0,1,340.129,399.667)">
                <path d="M0,3.34L0,4.23L-3.047,4.23L-3.047,-0.89L-2.122,-0.89L-2.122,3.34L0,3.34Z" style="fill:rgb(99,102,106);fill-rule:nonzero;"/>
            </g>
            <g transform="matrix(1,0,0,1,0,10.674)">
                <rect x="340.828" y="388.103" width="0.896" height="5.12" style="fill:rgb(99,102,106);"/>
            </g>
            <g transform="matrix(1,0,0,1,346.044,403.014)">
                <path d="M0,-3.355L-1.38,-3.355L-1.38,0.882L-2.304,0.882L-2.304,-3.355L-3.684,-3.355L-3.684,-4.237L0,-4.237L0,-3.355Z" style="fill:rgb(99,102,106);fill-rule:nonzero;"/>
            </g>
            <g transform="matrix(1,0,0,1,347.338,403.897)">
                <path d="M0,-5.12L1.197,-3.012L2.409,-5.12L3.474,-5.12L1.646,-2.032L1.646,0L0.742,0L0.742,-2.032L-1.072,-5.12L0,-5.12Z" style="fill:rgb(99,102,106);fill-rule:nonzero;"/>
            </g>
        </g>
    </g>
</svg>
