<?xml version="1.0" encoding="utf-8"?>
<!-- Generator: Adobe Illustrator 16.0.0, SVG Export Plug-In . SVG Version: 6.00 Build 0)  -->
<!DOCTYPE svg PUBLIC "-//W3C//DTD SVG 1.1//EN" "http://www.w3.org/Graphics/SVG/1.1/DTD/svg11.dtd">
<svg version="1.1" id="Layer_1" xmlns="http://www.w3.org/2000/svg" xmlns:xlink="http://www.w3.org/1999/xlink" x="0px" y="0px"
	 width="563.426px" height="100px" viewBox="0 0 563.426 100" enable-background="new 0 0 563.426 100" xml:space="preserve">
<g>
	<g>
		<defs>
			<rect id="SVGID_1_" y="10" width="563.521" height="80"/>
		</defs>
		<clipPath id="SVGID_2_">
			<use xlink:href="#SVGID_1_"  overflow="visible"/>
		</clipPath>
		<path clip-path="url(#SVGID_2_)" fill-rule="evenodd" clip-rule="evenodd" fill="#FFFFFF" d="M53.82,60.852
			c12.134-11.477,28.457-12.353,28.457-12.353s0.118,15.66-11.467,26.47C58.117,86.881,42.566,86.881,42.566,86.881
			S41.903,71.987,53.82,60.852 M28.562,38.566C28.562,38.566,28.562,38.461,28.562,38.566c2.201,3.975,9.48,3.975,12.239,0
			c2.319,3.975,10.373,3.975,12.801,0c2.319,3.975,9.707,3.975,11.572,0c-2.977,10.922-11.794,18.536-24.151,18.536
			c-12.352,0-22.167-7.614-24.377-18.536C18.411,42.541,26.243,42.541,28.562,38.566 M0.209,48.499h-0.222
			c0,0,15.442,0,28.243,12.021C40.47,71.987,39.589,86.775,39.589,86.775S25.031,87.991,11.572,75.19
			C-1.224,63.17,0.209,48.499,0.209,48.499 M40.914,10C40.801,10.327,40.801,10,40.914,10c16.218,0,25.258,11.912,25.149,24.704
			c0-0.108-20.96,0-20.96,0c1.875-0.993,4.302-3.526,4.302-6.725c0-4.742-3.971-7.837-8.382-7.837c-3.749,0-8.495,2.646-8.495,7.731
			c0,2.859,2.314,5.837,4.746,6.83h-21.4C15.874,21.145,25.69,10.222,40.914,10"/>
		<polygon clip-path="url(#SVGID_2_)" fill-rule="evenodd" clip-rule="evenodd" fill="#FFFFFF" points="90.331,84.457 
			90.331,11.321 137.757,11.321 137.757,23.79 105.552,23.79 105.552,41.438 137.757,41.438 137.757,53.899 105.552,53.899 
			105.552,72.104 137.757,72.104 137.757,84.457 		"/>
		<path clip-path="url(#SVGID_2_)" fill-rule="evenodd" clip-rule="evenodd" fill="#FFFFFF" d="M198.205,32.172
			c0-6.402-2.092-10.813-6.398-14.784c-4.41-4.302-10.26-5.958-19.744-5.958h-27.903v73.027h15.221V53.899h12.796
			c8.386,0,14.558-0.768,18.859-4.411C195.782,45.296,198.205,39.232,198.205,32.172 M182.104,32.398
			c0,3.19-1.216,5.614-3.312,7.271c-2.092,1.878-5.513,1.77-10.587,1.77h-8.825V23.795h10.26
			C178.243,23.795,182.104,25.552,182.104,32.398"/>
		<path clip-path="url(#SVGID_2_)" fill-rule="evenodd" clip-rule="evenodd" fill="#FFFFFF" d="M261.296,84.566l-28.23-73.137
			h-18.969l-27.031,73.027h15.555l6.843-18.537h29.338l6.726,18.646H261.296z M234.168,53.463h-20.407l10.038-27.803L234.168,53.463
			z"/>
		<path clip-path="url(#SVGID_2_)" fill-rule="evenodd" clip-rule="evenodd" fill="#FFFFFF" d="M317.618,57.766h-3.58V44.188h3.58
			V57.766z M317.618,42.39h-3.58v-3.3h3.58V42.39z"/>
		<rect x="432.746" y="39.095" clip-path="url(#SVGID_2_)" fill="#FFFFFF" width="3.581" height="18.671"/>
		<path clip-path="url(#SVGID_2_)" fill-rule="evenodd" clip-rule="evenodd" fill="#FFFFFF" d="M533.157,57.766h-3.581V44.188h3.581
			V57.766z M533.157,42.39h-3.581v-3.3h3.581V42.39z"/>
		<path clip-path="url(#SVGID_2_)" fill-rule="evenodd" clip-rule="evenodd" fill="#FFFFFF" d="M268.688,12.407h3.773v10.184
			c0,1.598,0,2.738,0.101,3.204c0.181,0.759,0.562,1.32,1.124,1.794c0.662,0.47,1.518,0.755,2.545,0.755
			c1.036,0,1.891-0.285,2.36-0.667c0.566-0.465,0.943-1.031,1.036-1.597c0.101-0.659,0.188-1.795,0.188-3.208V12.407h3.773v9.904
			c0,2.26-0.192,3.77-0.381,4.708c-0.189,0.952-0.562,1.702-1.124,2.361c-0.482,0.658-1.232,1.128-2.168,1.509
			c-0.947,0.474-2.079,0.654-3.589,0.654c-1.79,0-3.115-0.281-4.059-0.654c-0.939-0.381-1.694-0.943-2.164-1.605
			c-0.565-0.658-0.943-1.413-1.035-2.071c-0.281-1.132-0.382-2.642-0.382-4.81V12.407"/>
		<path clip-path="url(#SVGID_2_)" fill-rule="evenodd" clip-rule="evenodd" fill="#FFFFFF" d="M298.952,31.17h-3.581v-6.981
			c0-1.505,0-2.448-0.193-2.821c-0.18-0.474-0.368-0.852-0.75-1.044c-0.373-0.281-0.751-0.369-1.225-0.369
			c-0.662,0-1.229,0.18-1.698,0.47c-0.562,0.368-0.843,0.843-1.031,1.413c-0.192,0.562-0.285,1.597-0.285,3.115v6.218h-3.58V17.598
			h3.295v1.975c1.221-1.606,2.738-2.36,4.524-2.36c0.75,0,1.505,0.101,2.168,0.386c0.662,0.369,1.132,0.658,1.509,1.124
			c0.285,0.478,0.562,0.948,0.667,1.509c0.181,0.562,0.181,1.417,0.181,2.453V31.17"/>
		<path clip-path="url(#SVGID_2_)" fill-rule="evenodd" clip-rule="evenodd" fill="#FFFFFF" d="M305.367,31.17h-3.581V17.598h3.581
			V31.17z M305.367,15.707h-3.581v-3.3h3.581V15.707z"/>
		<path clip-path="url(#SVGID_2_)" fill-rule="evenodd" clip-rule="evenodd" fill="#FFFFFF" d="M314.415,17.593v2.831h-2.444v5.472
			v1.975c0.088,0.192,0.181,0.373,0.369,0.47c0.192,0.097,0.381,0.192,0.57,0.192c0.373,0,0.847-0.096,1.417-0.381l0.276,2.83
			c-0.75,0.381-1.693,0.562-2.729,0.562c-0.662,0-1.232-0.181-1.794-0.373c-0.475-0.188-0.852-0.47-1.133-0.852
			c-0.188-0.373-0.373-0.843-0.474-1.417c-0.088-0.369-0.088-1.22-0.088-2.536v-5.941h-1.706v-2.831h1.706v-2.738l3.585-2.071v4.809
			H314.415"/>
		<path clip-path="url(#SVGID_2_)" fill-rule="evenodd" clip-rule="evenodd" fill="#FFFFFF" d="M322.998,28.34
			c-0.373,0.285-0.843,0.381-1.417,0.381c-0.843,0-1.506-0.284-2.076-0.851c-0.562-0.566-0.843-1.413-0.843-2.449h9.053
			c0.088-2.83-0.474-4.909-1.698-6.222c-1.132-1.321-2.737-1.987-4.809-1.987c-1.795,0-3.3,0.667-4.437,1.891
			c-1.225,1.321-1.795,3.107-1.795,5.375c0,1.888,0.475,3.493,1.325,4.718c1.132,1.505,2.923,2.348,5.279,2.348
			c1.509,0,2.742-0.373,3.686-1.035c1.031-0.751,1.786-1.694,2.163-3.02l-3.581-0.562C323.66,27.589,323.375,28.062,322.998,28.34
			 M318.751,23.153c0-0.943,0.192-1.786,0.754-2.356c0.479-0.562,1.133-0.848,1.896-0.848c0.755,0,1.404,0.285,1.879,0.848
			c0.569,0.57,0.854,1.32,0.854,2.356H318.751z"/>
		<path clip-path="url(#SVGID_2_)" fill-rule="evenodd" clip-rule="evenodd" fill="#FFFFFF" d="M342.234,12.407h-3.593v6.696
			c-1.124-1.229-2.44-1.891-3.954-1.891c-1.698,0-3.011,0.57-4.143,1.794c-1.044,1.228-1.605,3.023-1.605,5.283
			c0,2.265,0.562,4.051,1.605,5.274c1.132,1.33,2.537,1.979,4.042,1.979c0.759,0,1.518-0.281,2.269-0.649
			c0.763-0.386,1.417-0.948,1.987-1.698v1.975h3.392V12.407 M333.463,20.985c0.562-0.658,1.321-1.036,2.168-1.036
			c0.852,0,1.606,0.378,2.168,1.036c0.562,0.662,0.843,1.795,0.843,3.392c0,1.418-0.281,2.55-0.843,3.212
			c-0.562,0.751-1.316,1.036-2.168,1.036c-1.044,0-1.887-0.474-2.448-1.417c-0.382-0.654-0.57-1.694-0.57-3.107
			C332.612,22.684,332.901,21.647,333.463,20.985"/>
		<path clip-path="url(#SVGID_2_)" fill-rule="evenodd" clip-rule="evenodd" fill="#FFFFFF" d="M350.243,25.141l3.686-0.382
			c0.276,1.229,0.658,2.067,1.409,2.642c0.662,0.57,1.597,0.843,2.733,0.843c1.225,0,2.168-0.185,2.738-0.755
			c0.662-0.474,0.935-1.123,0.935-1.786c0-0.373-0.092-0.75-0.373-1.132c-0.281-0.285-0.751-0.562-1.417-0.751
			c-0.378-0.196-1.413-0.474-3.02-0.854c-1.975-0.466-3.392-1.128-4.234-1.879c-1.137-1.044-1.706-2.264-1.706-3.773
			c0-0.943,0.293-1.883,0.763-2.65c0.562-0.839,1.316-1.505,2.348-1.975c1.044-0.373,2.269-0.658,3.686-0.658
			c2.356,0,4.143,0.566,5.279,1.61c1.225,1.023,1.883,2.352,1.883,4.146l-3.77,0.088c-0.093-0.943-0.47-1.605-1.036-2.067
			c-0.47-0.377-1.324-0.57-2.356-0.57c-1.132,0-1.979,0.193-2.642,0.658c-0.381,0.285-0.562,0.667-0.562,1.136
			c0,0.461,0.181,0.843,0.562,1.124c0.475,0.381,1.606,0.855,3.493,1.325c1.786,0.381,3.203,0.843,4.05,1.317
			c0.848,0.47,1.603,1.132,2.071,1.887c0.475,0.851,0.751,1.794,0.751,3.019c0,1.036-0.276,2.08-0.939,3.019
			c-0.562,0.936-1.417,1.598-2.453,2.071c-1.132,0.47-2.444,0.755-4.142,0.755c-2.356,0-4.155-0.562-5.38-1.702
			C351.287,28.813,350.537,27.212,350.243,25.141"/>
		<path clip-path="url(#SVGID_2_)" fill-rule="evenodd" clip-rule="evenodd" fill="#FFFFFF" d="M374.004,17.593v2.831h-2.444v5.472
			c0,1.123,0.088,1.786,0.088,1.975c0.093,0.192,0.181,0.373,0.281,0.47c0.192,0.097,0.382,0.192,0.658,0.192
			c0.285,0,0.759-0.096,1.417-0.381l0.285,2.83c-0.847,0.381-1.799,0.562-2.834,0.562c-0.654,0-1.225-0.181-1.694-0.373
			c-0.57-0.188-0.938-0.47-1.136-0.852c-0.277-0.373-0.369-0.843-0.457-1.417c-0.105-0.369-0.193-1.22-0.193-2.536v-5.941h-1.605
			v-2.831h1.605v-2.738l3.585-2.071v4.809H374.004"/>
		<path clip-path="url(#SVGID_2_)" fill-rule="evenodd" clip-rule="evenodd" fill="#FFFFFF" d="M379.195,20.323
			c0.373-0.277,0.843-0.374,1.505-0.374c0.943,0,1.602,0.185,1.975,0.475c0.386,0.28,0.474,0.754,0.474,1.505v0.281
			c-0.562,0.289-1.794,0.57-3.479,0.943c-1.237,0.188-2.168,0.474-2.83,0.855c-0.667,0.276-1.229,0.75-1.606,1.412
			c-0.285,0.562-0.474,1.225-0.474,2.067c0,1.137,0.382,2.08,1.132,2.83c0.843,0.751,1.983,1.225,3.396,1.225
			c0.751,0,1.505-0.181,2.168-0.474c0.75-0.277,1.413-0.751,1.975-1.409c0,0.097,0.101,0.285,0.193,0.47
			c0.096,0.479,0.188,0.759,0.276,1.044h3.585c-0.281-0.666-0.562-1.229-0.658-1.891c-0.097-0.562-0.185-1.409-0.185-2.638
			l0.088-4.146c0-1.602-0.181-2.638-0.466-3.3c-0.377-0.57-0.947-1.044-1.702-1.417c-0.75-0.377-1.975-0.566-3.58-0.566
			c-1.786,0-3.107,0.281-3.954,0.939c-0.943,0.662-1.518,1.605-1.887,2.931l3.199,0.562
			C378.532,20.985,378.813,20.616,379.195,20.323 M383.148,25.329c0,0.847,0,1.501-0.088,1.786
			c-0.192,0.474-0.474,0.855-0.855,1.225c-0.662,0.381-1.224,0.666-1.878,0.666c-0.57,0-1.04-0.192-1.417-0.569
			c-0.378-0.374-0.57-0.848-0.57-1.321c0-0.562,0.192-0.939,0.662-1.32c0.285-0.189,0.943-0.374,1.979-0.654
			c1.035-0.193,1.786-0.382,2.167-0.57V25.329z"/>
		<path clip-path="url(#SVGID_2_)" fill-rule="evenodd" clip-rule="evenodd" fill="#FFFFFF" d="M395.594,17.593v2.831h-2.449v5.472
			v1.975c0.101,0.192,0.188,0.373,0.378,0.47c0.092,0.097,0.373,0.192,0.565,0.192c0.382,0,0.852-0.096,1.413-0.381l0.281,2.83
			c-0.843,0.381-1.694,0.562-2.729,0.562c-0.663,0-1.225-0.181-1.786-0.373c-0.482-0.188-0.852-0.47-1.146-0.852
			c-0.18-0.373-0.368-0.843-0.469-1.417c-0.093-0.369-0.093-1.22-0.093-2.536v-5.941h-1.693v-2.831h1.693v-2.738l3.585-2.071v4.809
			H395.594"/>
		<path clip-path="url(#SVGID_2_)" fill-rule="evenodd" clip-rule="evenodd" fill="#FFFFFF" d="M404.185,28.34
			c-0.386,0.285-0.855,0.381-1.417,0.381c-0.852,0-1.514-0.284-2.08-0.851c-0.57-0.566-0.851-1.413-0.851-2.449h9.052
			c0-2.83-0.474-4.909-1.693-6.222c-1.137-1.321-2.742-1.987-4.81-1.987c-1.795,0-3.3,0.667-4.432,1.891
			c-1.229,1.321-1.791,3.107-1.791,5.375c0,1.888,0.475,3.493,1.317,4.718c1.136,1.505,2.922,2.348,5.287,2.348
			c1.505,0,2.729-0.373,3.673-1.035c1.035-0.751,1.698-1.694,2.168-3.02l-3.585-0.562C404.834,27.589,404.554,28.062,404.185,28.34
			 M399.938,23.153c-0.101-0.943,0.18-1.786,0.75-2.356c0.474-0.562,1.124-0.848,1.891-0.848c0.751,0,1.413,0.285,1.875,0.848
			c0.57,0.57,0.855,1.32,0.855,2.356H399.938z"/>
		<path clip-path="url(#SVGID_2_)" fill-rule="evenodd" clip-rule="evenodd" fill="#FFFFFF" d="M409.644,27.4l3.581-0.574
			c0.192,0.763,0.47,1.232,0.943,1.605c0.474,0.382,1.132,0.574,1.987,0.574c0.939,0,1.598-0.192,2.067-0.574
			c0.289-0.28,0.469-0.562,0.469-0.943c0-0.276-0.088-0.562-0.276-0.75c-0.192-0.185-0.562-0.285-1.136-0.474
			c-2.919-0.659-4.81-1.225-5.561-1.787c-1.132-0.754-1.605-1.693-1.605-3.022c0-1.221,0.474-2.256,1.413-3.006
			c0.855-0.855,2.36-1.233,4.34-1.233c1.887,0,3.207,0.277,4.154,0.847c0.939,0.654,1.502,1.509,1.883,2.641l-3.392,0.663
			c-0.188-0.474-0.479-0.943-0.852-1.233c-0.381-0.272-1.04-0.373-1.794-0.373c-0.939,0-1.603,0.101-2.071,0.373
			c-0.281,0.189-0.378,0.482-0.378,0.76c0,0.284,0.097,0.474,0.378,0.653c0.285,0.294,1.408,0.57,3.396,1.044
			c1.883,0.47,3.208,1.036,4.051,1.598c0.755,0.658,1.136,1.606,1.136,2.738c0,1.225-0.562,2.356-1.605,3.203
			c-1.036,0.943-2.549,1.413-4.616,1.413c-1.892,0-3.3-0.369-4.437-1.124C410.684,29.656,410.025,28.625,409.644,27.4"/>
		<polygon clip-path="url(#SVGID_2_)" fill-rule="evenodd" clip-rule="evenodd" fill="#FFFFFF" points="268.688,57.766 
			268.688,39.09 282.558,39.09 282.558,42.201 272.461,42.201 272.461,46.356 281.896,46.356 281.896,49.556 272.461,49.556 
			272.461,54.646 282.931,54.646 282.931,57.766 		"/>
		<path clip-path="url(#SVGID_2_)" fill-rule="evenodd" clip-rule="evenodd" fill="#FFFFFF" d="M297.547,57.766h-3.589v-6.981
			c0-1.417-0.097-2.36-0.197-2.835c-0.176-0.469-0.461-0.75-0.75-1.031c-0.373-0.192-0.755-0.289-1.316-0.289
			c-0.566,0-1.128,0.097-1.698,0.478c-0.466,0.374-0.848,0.751-0.939,1.317c-0.193,0.57-0.281,1.693-0.281,3.211v6.131h-3.58V44.188
			h3.291v1.975c1.225-1.509,2.642-2.355,4.524-2.355c0.75,0,1.509,0.188,2.167,0.469c0.663,0.281,1.137,0.663,1.413,1.137
			c0.382,0.373,0.663,0.943,0.759,1.505c0.097,0.562,0.197,1.325,0.197,2.356V57.766"/>
		<path clip-path="url(#SVGID_2_)" fill-rule="evenodd" clip-rule="evenodd" fill="#FFFFFF" d="M304.042,57.766l-5.464-13.577h3.774
			l2.545,6.973l0.75,2.26c0.189-0.565,0.382-0.943,0.382-1.127c0.088-0.378,0.276-0.76,0.377-1.133l2.642-6.973h3.673l-5.379,13.577
			H304.042"/>
		<path clip-path="url(#SVGID_2_)" fill-rule="evenodd" clip-rule="evenodd" fill="#FFFFFF" d="M323.849,57.766h-3.589V44.188h3.296
			v1.975c0.578-0.947,1.141-1.605,1.605-1.887c0.474-0.28,0.943-0.469,1.519-0.469c0.843,0,1.597,0.28,2.444,0.75l-1.133,3.111
			c-0.662-0.382-1.224-0.562-1.693-0.562c-0.574,0-0.943,0.093-1.325,0.374c-0.373,0.28-0.649,0.763-0.839,1.514
			c-0.192,0.754-0.285,2.255-0.285,4.62V57.766"/>
		<path clip-path="url(#SVGID_2_)" fill-rule="evenodd" clip-rule="evenodd" fill="#FFFFFF" d="M329.777,54.839
			c0.575,1.035,1.418,1.882,2.554,2.444c1.132,0.574,2.356,0.851,3.581,0.851c1.979,0,3.682-0.662,4.998-2.075
			c1.324-1.325,1.979-3.011,1.979-5.086c0-2.079-0.654-3.773-1.979-5.095c-1.316-1.32-3.02-2.07-4.998-2.07
			c-1.325,0-2.537,0.377-3.673,0.938c-1.044,0.566-1.887,1.417-2.462,2.541c-0.562,1.137-0.838,2.269-0.838,3.493
			C328.939,52.386,329.216,53.711,329.777,54.839 M333.563,47.861c0.562-0.755,1.405-1.035,2.349-1.035s1.702,0.28,2.36,1.035
			c0.566,0.751,0.939,1.795,0.939,3.111c0,1.413-0.373,2.448-0.939,3.107c-0.658,0.759-1.417,1.136-2.36,1.136
			s-1.786-0.377-2.349-1.136c-0.662-0.659-1.044-1.694-1.044-3.107C332.52,49.656,332.901,48.612,333.563,47.861"/>
		<path clip-path="url(#SVGID_2_)" fill-rule="evenodd" clip-rule="evenodd" fill="#FFFFFF" d="M357.229,57.766h-3.594v-6.981
			c0-1.417-0.092-2.36-0.28-2.835c-0.093-0.469-0.373-0.75-0.751-1.031c-0.285-0.192-0.755-0.289-1.229-0.289
			c-0.662,0-1.224,0.097-1.698,0.478c-0.465,0.374-0.847,0.751-1.031,1.317c-0.192,0.57-0.289,1.693-0.289,3.211v6.131h-3.581
			V44.188h3.393v1.975c1.132-1.509,2.642-2.355,4.436-2.355c0.848,0,1.501,0.188,2.168,0.469c0.658,0.281,1.132,0.663,1.501,1.137
			c0.382,0.373,0.57,0.943,0.768,1.505c0.088,0.562,0.188,1.325,0.188,2.356V57.766"/>
		<path clip-path="url(#SVGID_2_)" fill-rule="evenodd" clip-rule="evenodd" fill="#FFFFFF" d="M359.766,44.188h3.304v1.874
			c1.132-1.501,2.549-2.26,4.143-2.26c0.951,0,1.605,0.197,2.269,0.566c0.662,0.382,1.132,0.943,1.605,1.605
			c0.562-0.662,1.225-1.224,1.887-1.605c0.751-0.369,1.404-0.566,2.26-0.566c0.939,0,1.795,0.285,2.545,0.658
			c0.659,0.378,1.133,1.04,1.506,1.795c0.285,0.57,0.382,1.505,0.382,2.83v8.68h-3.581v-7.736c0-1.417-0.101-2.269-0.382-2.638
			c-0.281-0.565-0.843-0.767-1.505-0.767c-0.57,0-1.044,0.104-1.417,0.381c-0.47,0.386-0.852,0.855-1.04,1.418
			c-0.185,0.574-0.281,1.505-0.281,2.83v6.512h-3.581v-7.455c0-1.312,0-2.168-0.192-2.55c-0.092-0.369-0.281-0.654-0.566-0.843
			c-0.276-0.188-0.658-0.293-1.132-0.293c-0.47,0-1.035,0.104-1.413,0.381c-0.461,0.285-0.755,0.755-0.943,1.325
			c-0.285,0.562-0.373,1.506-0.373,2.83v6.604h-3.492V44.188"/>
		<path clip-path="url(#SVGID_2_)" fill-rule="evenodd" clip-rule="evenodd" fill="#FFFFFF" d="M389.371,54.927
			c-0.373,0.289-0.843,0.47-1.413,0.47c-0.843,0-1.51-0.277-2.071-0.843c-0.57-0.663-0.852-1.506-0.852-2.55h9.053
			c0.097-2.729-0.474-4.805-1.698-6.13c-1.123-1.312-2.737-2.066-4.809-2.066c-1.786,0-3.296,0.649-4.433,1.979
			c-1.224,1.22-1.799,3.019-1.799,5.274c0,1.892,0.482,3.493,1.33,4.722c1.132,1.593,2.918,2.356,5.278,2.356
			c1.514,0,2.738-0.373,3.682-1.036c1.035-0.662,1.786-1.706,2.167-3.019l-3.492-0.57C390.033,54.176,389.753,54.646,389.371,54.927
			 M385.137,49.837c0-1.032,0.18-1.795,0.75-2.356c0.47-0.562,1.124-0.855,1.979-0.855c0.662,0,1.32,0.201,1.887,0.767
			c0.47,0.562,0.755,1.413,0.755,2.445H385.137z"/>
		<path clip-path="url(#SVGID_2_)" fill-rule="evenodd" clip-rule="evenodd" fill="#FFFFFF" d="M408.419,57.766h-3.58v-6.981
			c0-1.417-0.097-2.36-0.193-2.835c-0.192-0.469-0.465-0.75-0.755-1.031c-0.373-0.192-0.75-0.289-1.312-0.289
			c-0.574,0-1.136,0.097-1.697,0.478c-0.479,0.374-0.852,0.751-1.04,1.317c-0.097,0.57-0.193,1.693-0.193,3.211v6.131h-3.572V44.188
			h3.292v1.975c1.224-1.509,2.637-2.355,4.523-2.355c0.755,0,1.514,0.188,2.172,0.469c0.658,0.281,1.133,0.663,1.409,1.137
			c0.386,0.373,0.662,0.943,0.759,1.505c0.097,0.562,0.188,1.325,0.188,2.356V57.766"/>
		<path clip-path="url(#SVGID_2_)" fill-rule="evenodd" clip-rule="evenodd" fill="#FFFFFF" d="M417.472,44.188v2.918h-2.448v5.473
			v1.979c0.088,0.181,0.18,0.276,0.368,0.369c0.097,0.192,0.382,0.192,0.57,0.192c0.382,0,0.848-0.096,1.409-0.285l0.289,2.729
			c-0.851,0.386-1.794,0.575-2.83,0.575c-0.562,0-1.136-0.101-1.698-0.281c-0.47-0.294-0.847-0.57-1.132-0.855
			c-0.188-0.373-0.373-0.847-0.474-1.413c-0.088-0.47-0.088-1.316-0.088-2.541v-5.941h-1.698v-2.918h1.698v-2.742l3.585-2.075v4.817
			H417.472"/>
		<path clip-path="url(#SVGID_2_)" fill-rule="evenodd" clip-rule="evenodd" fill="#FFFFFF" d="M422.658,47.006
			c0.276-0.28,0.843-0.381,1.505-0.381c0.943,0,1.606,0.101,1.888,0.381c0.381,0.285,0.569,0.852,0.569,1.51v0.378
			c-0.662,0.284-1.882,0.562-3.492,0.854c-1.316,0.277-2.265,0.562-2.927,0.843c-0.654,0.382-1.128,0.852-1.505,1.413
			c-0.373,0.663-0.562,1.325-0.562,2.08c0,1.225,0.378,2.168,1.221,2.918c0.755,0.764,1.887,1.137,3.304,1.137
			c0.751,0,1.505-0.189,2.256-0.474c0.662-0.29,1.325-0.751,1.887-1.312c0.097,0.088,0.097,0.18,0.193,0.368
			c0.092,0.47,0.188,0.848,0.28,1.045h3.585c-0.285-0.575-0.474-1.233-0.662-1.795c-0.093-0.574-0.093-1.417-0.093-2.642v-4.243
			c0-1.505-0.185-2.642-0.47-3.212c-0.285-0.562-0.847-1.035-1.702-1.505c-0.75-0.373-1.975-0.562-3.58-0.562
			c-1.694,0-3.02,0.381-3.954,0.943c-0.852,0.662-1.514,1.693-1.887,2.918l3.203,0.662
			C421.996,47.669,422.276,47.199,422.658,47.006 M426.62,52.004c0,0.852-0.096,1.413-0.188,1.707
			c-0.101,0.465-0.381,0.935-0.855,1.216c-0.562,0.47-1.224,0.658-1.882,0.658c-0.566,0-1.036-0.188-1.418-0.562
			c-0.368-0.378-0.562-0.751-0.562-1.312c0-0.482,0.193-0.952,0.658-1.233c0.373-0.285,1.036-0.474,1.979-0.662
			c1.035-0.281,1.786-0.373,2.268-0.562V52.004z"/>
		<path clip-path="url(#SVGID_2_)" fill-rule="evenodd" clip-rule="evenodd" fill="#FFFFFF" d="M449.342,57.766V50.78h2.448
			c1.795,0,3.111-0.101,3.963-0.281c0.75-0.188,1.413-0.47,2.071-0.943c0.57-0.378,1.132-1.044,1.605-1.795
			c0.377-0.847,0.562-1.786,0.562-2.918c0-1.51-0.373-2.733-1.035-3.686c-0.755-0.935-1.694-1.505-2.729-1.786
			c-0.759-0.188-2.269-0.281-4.524-0.281h-6.134v18.676H449.342 M451.22,42.201c1.321,0,2.269,0.088,2.738,0.188
			c0.662,0.093,1.137,0.382,1.51,0.755c0.465,0.474,0.658,1.044,0.658,1.698c0,0.57-0.193,1.132-0.47,1.51
			c-0.285,0.373-0.654,0.754-1.225,0.935c-0.474,0.193-1.509,0.294-3.022,0.294h-2.067v-5.38H451.22z"/>
		<path clip-path="url(#SVGID_2_)" fill-rule="evenodd" clip-rule="evenodd" fill="#FFFFFF" d="M465.56,57.766h-3.585V44.188h3.3
			v1.975c0.562-0.947,1.132-1.605,1.598-1.887c0.474-0.28,0.943-0.469,1.51-0.469c0.847,0,1.614,0.28,2.356,0.75l-1.036,3.111
			c-0.662-0.382-1.225-0.562-1.693-0.562c-0.566,0-0.943,0.093-1.325,0.374c-0.373,0.28-0.654,0.763-0.847,1.514
			c-0.189,0.754-0.277,2.255-0.277,4.62V57.766"/>
		<path clip-path="url(#SVGID_2_)" fill-rule="evenodd" clip-rule="evenodd" fill="#FFFFFF" d="M471.497,54.839
			c0.562,1.035,1.408,1.882,2.545,2.444c1.132,0.574,2.356,0.851,3.581,0.851c1.987,0,3.681-0.662,4.993-2.075
			c1.329-1.325,1.983-3.011,1.983-5.086c0-2.079-0.654-3.773-1.983-5.095c-1.312-1.32-3.006-2.07-4.993-2.07
			c-1.317,0-2.55,0.377-3.674,0.938c-1.044,0.566-1.891,1.417-2.452,2.541c-0.57,1.137-0.943,2.269-0.943,3.493
			C470.554,52.386,470.927,53.711,471.497,54.839 M475.262,47.861c0.575-0.755,1.418-1.035,2.361-1.035
			c0.851,0,1.693,0.28,2.264,1.035c0.658,0.751,1.035,1.795,1.035,3.111c0,1.413-0.377,2.448-1.035,3.107
			c-0.57,0.759-1.413,1.136-2.264,1.136c-0.943,0-1.786-0.377-2.361-1.136c-0.649-0.659-1.031-1.694-1.031-3.107
			C474.23,49.656,474.612,48.612,475.262,47.861"/>
		<path clip-path="url(#SVGID_2_)" fill-rule="evenodd" clip-rule="evenodd" fill="#FFFFFF" d="M492.805,44.188v2.918h-2.448v5.473
			v1.979c0.092,0.181,0.181,0.276,0.369,0.369c0.192,0.192,0.386,0.192,0.562,0.192c0.386,0,0.855-0.096,1.417-0.285l0.29,2.729
			c-0.751,0.386-1.707,0.575-2.738,0.575c-0.654,0-1.225-0.101-1.786-0.281c-0.474-0.294-0.852-0.57-1.137-0.855
			c-0.188-0.373-0.368-0.847-0.47-1.413c-0.092-0.47-0.092-1.316-0.092-2.541v-5.941h-1.702v-2.918h1.702v-2.742l3.585-2.075v4.817
			H492.805"/>
		<path clip-path="url(#SVGID_2_)" fill-rule="evenodd" clip-rule="evenodd" fill="#FFFFFF" d="M501.388,54.927
			c-0.382,0.289-0.847,0.47-1.417,0.47c-0.843,0-1.51-0.277-2.071-0.843c-0.57-0.663-0.852-1.506-0.852-2.55h9.053
			c0.088-2.729-0.482-4.805-1.706-6.13c-1.124-1.312-2.73-2.066-4.801-2.066c-1.791,0-3.301,0.649-4.433,1.979
			c-1.224,1.22-1.794,3.019-1.794,5.274c0,1.892,0.469,3.493,1.324,4.722c1.137,1.593,2.923,2.356,5.279,2.356
			c1.505,0,2.729-0.373,3.673-1.036c1.044-0.662,1.795-1.706,2.168-3.019l-3.585-0.57C502.046,54.176,501.766,54.646,501.388,54.927
			 M497.141,49.837c-0.093-1.032,0.188-1.795,0.759-2.356c0.466-0.562,1.128-0.855,1.883-0.855c0.759,0,1.413,0.201,1.882,0.767
			c0.562,0.562,0.855,1.413,0.855,2.445H497.141z"/>
		<path clip-path="url(#SVGID_2_)" fill-rule="evenodd" clip-rule="evenodd" fill="#FFFFFF" d="M519.962,48.143l-3.585,0.662
			c-0.101-0.763-0.381-1.224-0.763-1.605c-0.47-0.373-1.031-0.47-1.694-0.47c-0.843,0-1.597,0.276-2.167,0.852
			c-0.474,0.658-0.751,1.693-0.751,3.203c0,1.605,0.277,2.729,0.751,3.392c0.57,0.658,1.324,1.04,2.264,1.04
			c0.667,0,1.229-0.192,1.698-0.57c0.382-0.47,0.755-1.132,0.847-2.066l3.589,0.562c-0.377,1.693-1.136,2.918-2.18,3.773
			c-1.027,0.852-2.356,1.225-4.143,1.225c-1.979,0-3.581-0.663-4.713-1.887c-1.229-1.229-1.79-3.023-1.79-5.279
			c0-2.269,0.562-3.967,1.79-5.278c1.132-1.237,2.733-1.887,4.805-1.887c1.606,0,2.927,0.381,3.862,1.132
			C518.826,45.602,519.488,46.729,519.962,48.143"/>
		<path clip-path="url(#SVGID_2_)" fill-rule="evenodd" clip-rule="evenodd" fill="#FFFFFF" d="M527.971,44.188v2.918h-2.453v5.473
			c0,1.132,0,1.786,0.105,1.979c0,0.181,0.18,0.276,0.276,0.369c0.185,0.192,0.373,0.192,0.654,0.192
			c0.289,0,0.755-0.096,1.417-0.285l0.285,2.729c-0.847,0.386-1.795,0.575-2.826,0.575c-0.662,0-1.225-0.101-1.698-0.281
			c-0.57-0.294-0.938-0.57-1.132-0.855c-0.281-0.373-0.377-0.847-0.474-1.413c-0.097-0.47-0.188-1.316-0.188-2.541v-5.941h-1.606
			v-2.918h1.606v-2.742l3.58-2.075v4.817H527.971"/>
		<path clip-path="url(#SVGID_2_)" fill-rule="evenodd" clip-rule="evenodd" fill="#FFFFFF" d="M536.075,54.839
			c0.57,1.035,1.417,1.882,2.55,2.444c1.136,0.574,2.36,0.851,3.58,0.851c1.979,0,3.686-0.662,4.998-2.075
			c1.321-1.325,1.979-3.011,1.979-5.086c0-2.079-0.658-3.773-1.979-5.095c-1.312-1.32-3.019-2.07-4.998-2.07
			c-1.408,0-2.545,0.377-3.668,0.938c-1.045,0.566-1.892,1.417-2.462,2.541c-0.562,1.137-0.931,2.269-0.931,3.493
			C535.145,52.386,535.514,53.711,536.075,54.839 M539.761,47.861c0.658-0.755,1.506-1.035,2.356-1.035
			c0.936,0,1.786,0.28,2.361,1.035c0.653,0.751,0.931,1.795,0.931,3.111c0,1.413-0.277,2.448-0.931,3.107
			c-0.575,0.759-1.426,1.136-2.361,1.136c-0.851,0-1.698-0.377-2.356-1.136c-0.562-0.659-0.951-1.694-0.951-3.107
			C538.81,49.656,539.199,48.612,539.761,47.861"/>
		<path clip-path="url(#SVGID_2_)" fill-rule="evenodd" clip-rule="evenodd" fill="#FFFFFF" d="M563.514,57.766h-3.581v-6.981
			c0-1.417-0.092-2.36-0.28-2.835c-0.189-0.469-0.382-0.75-0.751-1.031c-0.386-0.192-0.759-0.289-1.225-0.289
			c-0.666,0-1.229,0.097-1.702,0.478c-0.47,0.374-0.851,0.751-1.04,1.317c-0.185,0.57-0.28,1.693-0.28,3.211v6.131h-3.581V44.188
			h3.3v1.975c1.225-1.509,2.726-2.355,4.528-2.355c0.751,0,1.501,0.188,2.168,0.469c0.658,0.281,1.132,0.663,1.501,1.137
			c0.293,0.373,0.57,0.943,0.662,1.505c0.193,0.562,0.193,1.325,0.193,2.356L563.514,57.766"/>
		<path clip-path="url(#SVGID_2_)" fill-rule="evenodd" clip-rule="evenodd" fill="#FFFFFF" d="M278.021,65.677h-4.054
			l-7.254,18.764h4.05l1.606-4.235h7.547l1.594,4.235h4.059L278.021,65.677z M273.497,76.994l2.549-6.978l2.638,6.978H273.497z"/>
		<path clip-path="url(#SVGID_2_)" fill-rule="evenodd" clip-rule="evenodd" fill="#FFFFFF" d="M286.318,85.766
			c0,1.224,0.474,2.26,1.418,3.01c0.938,0.855,2.637,1.225,4.901,1.225c1.224,0,2.26-0.181,3.115-0.369
			c0.75-0.285,1.413-0.666,1.882-1.136c0.475-0.47,0.848-1.032,1.137-1.887c0.281-0.751,0.373-1.976,0.373-3.581V70.863h-3.392
			v1.795c-1.036-1.413-2.453-2.168-4.147-2.168c-1.605,0-3.019,0.562-4.054,1.786c-1.133,1.229-1.707,3.023-1.707,5.279
			c0,1.795,0.474,3.304,1.229,4.528c1.132,1.605,2.545,2.356,4.34,2.356c1.698,0,3.011-0.751,4.146-2.26v1.979
			c0,0.852-0.092,1.413-0.188,1.698c-0.092,0.47-0.377,0.751-0.654,0.939c-0.474,0.28-1.225,0.474-2.176,0.474
			c-0.751,0-1.321-0.193-1.598-0.474c-0.281-0.188-0.474-0.47-0.474-0.939l-4.151-0.474V85.766 M290.373,74.256
			c0.57-0.662,1.321-1.036,2.168-1.036c0.851,0,1.605,0.374,2.176,1.036c0.562,0.658,0.939,1.795,0.939,3.212
			c0,1.32-0.377,2.356-0.939,3.01c-0.662,0.755-1.417,1.04-2.269,1.04c-0.843,0-1.505-0.285-2.075-0.943
			c-0.562-0.75-0.847-1.786-0.847-3.203C289.526,75.958,289.812,74.914,290.373,74.256"/>
		<path clip-path="url(#SVGID_2_)" fill-rule="evenodd" clip-rule="evenodd" fill="#FFFFFF" d="M308.759,81.61
			c-0.373,0.28-0.847,0.47-1.417,0.47c-0.843,0-1.505-0.374-2.08-0.943c-0.562-0.562-0.838-1.413-0.838-2.449h9.048
			c0.092-2.826-0.47-4.81-1.694-6.218c-1.136-1.329-2.729-1.979-4.809-1.979c-1.795,0-3.3,0.65-4.437,1.879
			c-1.224,1.32-1.786,3.115-1.786,5.375c0,1.891,0.474,3.488,1.316,4.717c1.137,1.51,2.932,2.361,5.279,2.361
			c1.514,0,2.738-0.382,3.686-1.045c1.031-0.75,1.786-1.697,2.168-3.01l-3.497-0.562C309.422,80.855,309.137,81.329,308.759,81.61
			 M304.52,76.424c0-0.939,0.181-1.786,0.742-2.349c0.482-0.574,1.145-0.855,1.992-0.855c0.658,0,1.32,0.281,1.883,0.855
			c0.474,0.562,0.754,1.312,0.754,2.349H304.52z"/>
		<path clip-path="url(#SVGID_2_)" fill-rule="evenodd" clip-rule="evenodd" fill="#FFFFFF" d="M327.803,84.44h-3.58v-6.978
			c0-1.501-0.093-2.457-0.185-2.83c-0.189-0.47-0.482-0.851-0.759-1.039c-0.374-0.273-0.848-0.374-1.317-0.374
			c-0.562,0-1.136,0.189-1.706,0.562c-0.461,0.289-0.843,0.763-1.031,1.324c-0.193,0.562-0.193,1.606-0.193,3.111v6.223h-3.58
			V70.863h3.304v1.976c1.229-1.598,2.646-2.349,4.432-2.349c0.852,0,1.605,0.089,2.269,0.475c0.654,0.276,1.123,0.562,1.404,1.031
			c0.382,0.47,0.57,0.943,0.755,1.505c0.101,0.57,0.188,1.417,0.188,2.461V84.44"/>
		<path clip-path="url(#SVGID_2_)" fill-rule="evenodd" clip-rule="evenodd" fill="#FFFFFF" d="M342.424,74.826l-3.489,0.562
			c-0.092-0.654-0.386-1.225-0.854-1.505c-0.369-0.378-0.939-0.562-1.598-0.562c-0.939,0-1.698,0.273-2.164,0.936
			c-0.574,0.658-0.855,1.702-0.855,3.115c0,1.598,0.281,2.834,0.855,3.488c0.562,0.658,1.225,0.943,2.164,0.943
			c0.658,0,1.229-0.192,1.693-0.57c0.466-0.373,0.759-1.027,0.948-2.071l3.479,0.663c-0.369,1.605-1.031,2.83-2.075,3.673
			c-1.031,0.851-2.448,1.325-4.234,1.325c-1.976,0-3.493-0.663-4.713-1.888c-1.229-1.324-1.799-3.022-1.799-5.278
			c0-2.269,0.57-4.062,1.799-5.287c1.22-1.229,2.825-1.879,4.801-1.879c1.698,0,3.022,0.373,3.962,1.036
			C341.283,72.276,342.042,73.32,342.424,74.826"/>
		<path clip-path="url(#SVGID_2_)" fill-rule="evenodd" clip-rule="evenodd" fill="#FFFFFF" d="M342.608,70.863h3.773l3.203,9.61
			l3.115-9.61h3.766l-4.81,13.011l-0.852,2.453c-0.272,0.75-0.562,1.413-0.843,1.795c-0.28,0.373-0.662,0.75-1.035,1.035
			c-0.378,0.276-0.759,0.474-1.321,0.57C347.04,89.908,346.478,90,345.724,90c-0.663,0-1.321-0.092-1.983-0.272l-0.285-2.83
			c0.57,0.092,1.132,0.18,1.51,0.18c0.854,0,1.417-0.276,1.786-0.75c0.478-0.474,0.763-1.044,0.951-1.795L342.608,70.863"/>
	</g>
</g>
</svg>
