<?xml version="1.0" encoding="UTF-8" standalone="no"?>
<!DOCTYPE svg PUBLIC "-//W3C//DTD SVG 1.1//EN" "http://www.w3.org/Graphics/SVG/1.1/DTD/svg11.dtd">
<svg width="100%" height="100%" viewBox="0 0 357 64" version="1.1" xmlns="http://www.w3.org/2000/svg" xmlns:xlink="http://www.w3.org/1999/xlink" xml:space="preserve" xmlns:serif="http://www.serif.com/" style="fill-rule:evenodd;clip-rule:evenodd;stroke-linejoin:round;stroke-miterlimit:2;">
    <g transform="matrix(1,0,0,1,-763.331,-1619.42)">
        <g transform="matrix(4.16667,0,0,4.16667,0,0)">
            <g transform="matrix(1,0,0,1,230.223,392.882)">
                <path d="M0,-0.091L1.114,-0.091C1.681,-0.091 1.961,-0.469 1.961,-0.924C1.961,-1.394 1.66,-1.723 1.114,-1.723L0,-1.723L0,-0.091ZM2.066,0.525L2.872,2.514L1.849,2.514L1.163,0.728L0,0.728L0,2.514L-0.917,2.514L-0.917,-2.605L1.177,-2.605C2.241,-2.605 2.9,-1.912 2.9,-0.931C2.9,-0.273 2.599,0.252 2.066,0.525" style="fill:rgb(99,102,106);fill-rule:nonzero;"/>
            </g>
            <g transform="matrix(1,0,0,1,233.877,395.397)">
                <path d="M0,-5.12L2.914,-5.12L2.914,-4.231L0.917,-4.231L0.917,-3.005L2.704,-3.005L2.704,-2.179L0.917,-2.179L0.917,-0.89L2.914,-0.89L2.914,0L0,0L0,-5.12Z" style="fill:rgb(99,102,106);fill-rule:nonzero;"/>
            </g>
            <g transform="matrix(1,0,0,1,242.084,392.531)">
                <path d="M0,0.603C0,2.011 -0.932,2.97 -2.388,2.97C-3.922,2.97 -4.896,1.913 -4.896,0.316C-4.896,-1.309 -3.873,-2.367 -2.381,-2.367C-1.317,-2.367 -0.441,-1.764 -0.203,-0.868L-1.085,-0.511C-1.226,-1.078 -1.716,-1.449 -2.409,-1.449C-3.341,-1.449 -3.901,-0.728 -3.901,0.309C-3.901,1.359 -3.334,2.06 -2.381,2.06C-1.604,2.06 -1.022,1.59 -0.974,0.841L-2.493,0.841L-2.493,0.05L-0.049,0.05C-0.014,0.204 0,0.4 0,0.603" style="fill:rgb(99,102,106);fill-rule:nonzero;"/>
            </g>
            <g transform="matrix(1,0,0,1,0,-6.328)">
                <rect x="242.823" y="396.604" width="0.896" height="5.12" style="fill:rgb(99,102,106);"/>
            </g>
            <g transform="matrix(1,0,0,1,247.115,393.911)">
                <path d="M0,-2.164C-0.049,-2.591 -0.378,-2.864 -0.861,-2.864C-1.31,-2.864 -1.611,-2.612 -1.611,-2.241C-1.611,-1.877 -1.316,-1.73 -0.91,-1.625L-0.217,-1.45C0.659,-1.232 1.037,-0.686 1.037,-0.007C1.037,0.946 0.308,1.569 -0.792,1.569C-1.898,1.569 -2.612,0.939 -2.696,0.028L-1.779,-0.112C-1.765,0.364 -1.379,0.687 -0.798,0.687C-0.287,0.687 0.042,0.455 0.042,0.042C0.042,-0.287 -0.175,-0.462 -0.525,-0.553L-1.205,-0.721C-2.199,-0.966 -2.598,-1.464 -2.598,-2.185C-2.598,-3.138 -1.87,-3.733 -0.854,-3.733C0.084,-3.733 0.785,-3.228 0.904,-2.395L0,-2.164Z" style="fill:rgb(99,102,106);fill-rule:nonzero;"/>
            </g>
            <g transform="matrix(1,0,0,1,252.17,394.514)">
                <path d="M0,-3.355L-1.38,-3.355L-1.38,0.882L-2.304,0.882L-2.304,-3.355L-3.684,-3.355L-3.684,-4.237L0,-4.237L0,-3.355Z" style="fill:rgb(99,102,106);fill-rule:nonzero;"/>
            </g>
            <g transform="matrix(1,0,0,1,252.805,395.397)">
                <path d="M0,-5.12L2.914,-5.12L2.914,-4.231L0.917,-4.231L0.917,-3.005L2.704,-3.005L2.704,-2.179L0.917,-2.179L0.917,-0.89L2.914,-0.89L2.914,0L0,0L0,-5.12Z" style="fill:rgb(99,102,106);fill-rule:nonzero;"/>
            </g>
            <g transform="matrix(1,0,0,1,257.341,392.882)">
                <path d="M0,-0.091L1.114,-0.091C1.681,-0.091 1.961,-0.469 1.961,-0.924C1.961,-1.394 1.66,-1.723 1.114,-1.723L0,-1.723L0,-0.091ZM2.066,0.525L2.872,2.514L1.849,2.514L1.163,0.728L0,0.728L0,2.514L-0.917,2.514L-0.917,-2.605L1.177,-2.605C2.241,-2.605 2.9,-1.912 2.9,-0.931C2.9,-0.273 2.599,0.252 2.066,0.525" style="fill:rgb(99,102,106);fill-rule:nonzero;"/>
            </g>
            <g transform="matrix(1,0,0,1,260.995,395.397)">
                <path d="M0,-5.12L2.914,-5.12L2.914,-4.231L0.917,-4.231L0.917,-3.005L2.704,-3.005L2.704,-2.179L0.917,-2.179L0.917,-0.89L2.914,-0.89L2.914,0L0,0L0,-5.12Z" style="fill:rgb(99,102,106);fill-rule:nonzero;"/>
            </g>
            <g transform="matrix(1,0,0,1,266.218,391.166)">
                <path d="M0,3.34C0.932,3.34 1.478,2.668 1.478,1.666C1.478,0.616 0.882,-0.008 0,-0.008L-0.679,-0.008L-0.679,3.34L0,3.34ZM-1.604,-0.89L0.063,-0.89C1.604,-0.89 2.458,0.132 2.458,1.666C2.458,3.291 1.527,4.23 0.063,4.23L-1.604,4.23L-1.604,-0.89Z" style="fill:rgb(99,102,106);fill-rule:nonzero;"/>
            </g>
            <g transform="matrix(1,0,0,1,229.306,403.796)">
                <path d="M0,-5.12L2.935,-5.12L2.935,-4.238L0.917,-4.238L0.917,-2.949L2.62,-2.949L2.62,-2.122L0.917,-2.122L0.917,0L0,0L0,-5.12Z" style="fill:rgb(99,102,106);fill-rule:nonzero;"/>
            </g>
            <g transform="matrix(1,0,0,1,235.041,400.463)">
                <path d="M0,1.547L-0.35,0.476C-0.498,0.006 -0.609,-0.337 -0.645,-0.498C-0.666,-0.372 -0.785,-0.022 -0.946,0.476L-1.296,1.547L0,1.547ZM0.28,2.395L-1.576,2.395L-1.884,3.333L-2.977,3.333L-1.135,-1.786L-0.147,-1.786L1.695,3.333L0.588,3.333L0.28,2.395Z" style="fill:rgb(99,102,106);fill-rule:nonzero;"/>
            </g>
            <g transform="matrix(1,0,0,1,236.978,401.233)">
                <path d="M0,0.007C0,-1.597 1.016,-2.661 2.458,-2.661C3.551,-2.661 4.44,-2.032 4.686,-1.065L3.761,-0.722C3.621,-1.338 3.096,-1.723 2.458,-1.723C1.59,-1.723 1.008,-1.037 1.008,0.007C1.008,1.036 1.59,1.73 2.458,1.73C3.096,1.73 3.621,1.344 3.761,0.728L4.686,1.064C4.454,2.024 3.572,2.668 2.451,2.668C0.995,2.668 0,1.597 0,0.007" style="fill:rgb(99,102,106);fill-rule:nonzero;"/>
            </g>
            <g transform="matrix(1,0,0,1,0,10.472)">
                <rect x="242.396" y="388.204" width="0.896" height="5.12" style="fill:rgb(99,102,106);"/>
            </g>
            <g transform="matrix(1,0,0,1,247.291,399.566)">
                <path d="M0,3.34L0,4.23L-3.047,4.23L-3.047,-0.89L-2.122,-0.89L-2.122,3.34L0,3.34Z" style="fill:rgb(99,102,106);fill-rule:nonzero;"/>
            </g>
            <g transform="matrix(1,0,0,1,0,10.472)">
                <rect x="247.989" y="388.204" width="0.896" height="5.12" style="fill:rgb(99,102,106);"/>
            </g>
            <g transform="matrix(1,0,0,1,253.206,402.914)">
                <path d="M0,-3.355L-1.38,-3.355L-1.38,0.882L-2.304,0.882L-2.304,-3.355L-3.684,-3.355L-3.684,-4.237L0,-4.237L0,-3.355Z" style="fill:rgb(99,102,106);fill-rule:nonzero;"/>
            </g>
            <g transform="matrix(1,0,0,1,254.499,403.796)">
                <path d="M0,-5.12L1.197,-3.012L2.409,-5.12L3.474,-5.12L1.646,-2.032L1.646,0L0.742,0L0.742,-2.032L-1.072,-5.12L0,-5.12Z" style="fill:rgb(99,102,106);fill-rule:nonzero;"/>
            </g>
            <g transform="matrix(1,0,0,1,186.073,395.601)">
                <path d="M0,1.239L7.296,1.239L7.296,2.764L1.879,2.764L1.879,8.159L0,8.159L0,1.239ZM0,-4.51L7.562,-4.51L7.562,-2.962L1.879,-2.962L1.879,-1.193L7.296,-1.193L7.296,0.355L0,0.355L0,-4.51ZM-2.874,-6.92L7.562,-6.92L7.562,-5.372L-0.973,-5.372L-0.973,8.159L-2.874,8.159L-2.874,-6.92Z" style="fill:rgb(99,102,106);fill-rule:nonzero;"/>
            </g>
            <g transform="matrix(1,0,0,1,201.282,392.639)">
                <path d="M0,7.164C2.875,7.164 4.046,5.992 4.046,3.516C4.046,1.238 2.918,0.022 0,0.022L-1.725,0.022L-1.725,7.164L0,7.164ZM-3.604,-1.547L-0.265,-1.547C4.046,-1.547 5.97,0.244 5.97,3.538C5.97,6.722 3.891,8.734 -0.265,8.734L-3.604,8.734L-3.604,-1.547ZM-0.221,9.574C4.488,9.574 6.965,7.385 6.965,3.494C6.965,0 4.687,-2.41 -0.243,-2.41L-4.577,-2.41L-4.577,9.574L-0.221,9.574ZM-6.478,-3.958L0.398,-3.958C4.776,-3.958 8.866,-1.636 8.866,3.494C8.866,8.026 5.505,11.122 0.464,11.122L-6.478,11.122L-6.478,-3.958Z" style="fill:rgb(99,102,106);fill-rule:nonzero;"/>
            </g>
            <g transform="matrix(1,0,0,1,218.989,395.382)">
                <path d="M0,1.657L-1.525,-1.947L-2.896,1.657L0,1.657ZM-2.344,-4.268L-0.729,-4.268L2.521,3.205L-5.439,3.205L-2.344,-4.268ZM-5.815,4.067L2.896,4.067L4.754,8.379L2.631,8.379L1.503,5.615L-4.355,5.615L-5.505,8.379L-7.628,8.379L-5.815,4.067ZM-4.046,-6.722L0.951,-6.722L7.894,8.379L5.793,8.379L-0.332,-5.153L-2.786,-5.153L-8.623,8.379L-10.723,8.379L-4.046,-6.722Z" style="fill:rgb(99,102,106);fill-rule:nonzero;"/>
            </g>
        </g>
    </g>
</svg>
