<?xml version="1.0" encoding="utf-8"?>
<!-- Generator: Adobe Illustrator 16.0.4, SVG Export Plug-In . SVG Version: 6.00 Build 0)  -->
<!DOCTYPE svg PUBLIC "-//W3C//DTD SVG 1.1//EN" "http://www.w3.org/Graphics/SVG/1.1/DTD/svg11.dtd">
<svg version="1.1" id="Layer_1" xmlns="http://www.w3.org/2000/svg" xmlns:xlink="http://www.w3.org/1999/xlink" x="0px" y="0px"
	 width="200px" height="100px" viewBox="0 0 200 100" enable-background="new 0 0 200 100" xml:space="preserve">
<polygon fill="#63666A" points="23.238,65.408 48.545,65.408 48.545,55.889 14.099,55.889 13.733,55.889 13.733,89.773 
	22.975,89.773 22.975,65.551 "/>
<path fill="#63666A" d="M13.738,22.625l69.152-0.009l0.147-0.062c14.927,0.134,26.984,12.24,26.984,27.146
	c0,14.932-12.098,27.047-27.056,27.149l-0.241-0.009l-16.918-0.018V42.551h9.555v24.95l0.794-0.019h6.591l0.361-0.004
	c9.667-0.195,17.445-8.067,17.445-17.743c0-9.729-7.854-17.627-17.588-17.747H23.203l-0.228,0.004v10.362l0.009,0.188l25.494,0.009
	l0.027,9.515l-34.661-0.004l-0.107-0.006L13.738,22.625L13.738,22.625z"/>
<polygon fill="#63666A" points="152.242,10.153 194.021,80.576 199.986,70.691 162.962,10.153 "/>
<polygon fill="#63666A" points="109.37,89.782 152.21,18.408 187.541,76.877 138.841,76.877 138.841,67.755 170.458,67.755 
	152.21,37.307 122.303,89.782 "/>
<polygon fill="#63666A" points="194.021,80.576 138.841,80.562 138.841,89.782 188.594,89.766 188.67,89.542 "/>
<path fill="#63666A" d="M52.286,80.277l0.04-37.731h9.55v37.731l-0.004,0.07h20.871l0.223,0.01
	c16.909-0.116,30.583-13.812,30.583-30.693c0-16.846-13.638-30.533-30.507-30.689l-0.299,0.005H10.324v70.797H1.086V9.787
	l81.656-0.004h0.37c19.421,0.174,35.541,13.665,39.025,32.05l19.387-31.679h10.719L119,65.832l-3.227,5.449
	c-7.145,10.478-19.016,18.283-32.662,18.402h-0.37H52.286V80.277z"/>
</svg>
