<?xml version="1.0" encoding="utf-8"?>
<!-- Generator: Adobe Illustrator 16.0.0, SVG Export Plug-In . SVG Version: 6.00 Build 0)  -->
<!DOCTYPE svg PUBLIC "-//W3C//DTD SVG 1.1//EN" "http://www.w3.org/Graphics/SVG/1.1/DTD/svg11.dtd">
<svg version="1.1" id="Layer_1" xmlns="http://www.w3.org/2000/svg" xmlns:xlink="http://www.w3.org/1999/xlink" x="0px" y="0px"
	 width="36px" height="36px" viewBox="0 0 36 36" enable-background="new 0 0 36 36" xml:space="preserve">
<g>
	<g>
		<g>
			<g>
				<circle fill="#86C8BC" cx="18" cy="18" r="17.269"/>
			</g>
			<g>
				<path fill="#FFFFFF" d="M18,36C8.074,36,0,27.925,0,18C0,8.074,8.074,0,18,0c9.925,0,18,8.074,18,18C36,27.925,27.925,36,18,36z
					 M18,1.462C8.881,1.462,1.462,8.881,1.462,18c0,9.119,7.419,16.537,16.538,16.537c9.119,0,16.537-7.418,16.537-16.537
					C34.537,8.881,27.119,1.462,18,1.462z"/>
			</g>
		</g>
	</g>
	<g>
		<g>
			<path fill="#FFFFFF" d="M18.363,15.275v3.241h3.116v0.828h-3.116v3.268h-0.882v-3.268h-3.115v-0.828h3.115v-3.241H18.363z"/>
		</g>
	</g>
</g>
</svg>
