<?xml version="1.0" encoding="utf-8"?>
<!-- Generator: Adobe Illustrator 16.0.0, SVG Export Plug-In . SVG Version: 6.00 Build 0)  -->
<!DOCTYPE svg PUBLIC "-//W3C//DTD SVG 1.1//EN" "http://www.w3.org/Graphics/SVG/1.1/DTD/svg11.dtd">
<svg version="1.1" id="Layer_1" xmlns="http://www.w3.org/2000/svg" xmlns:xlink="http://www.w3.org/1999/xlink" x="0px" y="0px"
	 width="90px" height="90px" viewBox="0 0 90 90" enable-background="new 0 0 90 90" xml:space="preserve">
<g>
	<g>
		<path fill="#6BA48A" d="M44.5,83.5c-21.505,0-39-17.495-39-38.999C5.5,22.996,22.995,5.5,44.5,5.5s39,17.496,39,39.001
			C83.5,66.005,66.005,83.5,44.5,83.5z"/>
		<path fill="#FFFFFF" d="M44.5,7C65.21,7,82,23.79,82,44.501C82,65.211,65.21,82,44.5,82C23.789,82,7,65.211,7,44.501
			C7,23.79,23.789,7,44.5,7 M44.5,4C22.168,4,4,22.168,4,44.501C4,66.832,22.168,85,44.5,85C66.832,85,85,66.832,85,44.501
			C85,22.168,66.832,4,44.5,4L44.5,4z"/>
	</g>
	<g>
		
			<path fill="none" stroke="#FFFFFF" stroke-width="1.5" stroke-linecap="round" stroke-linejoin="round" stroke-miterlimit="10" d="
			M43.375,31.039c4.006-0.266,7.984,0.885,11.25,3.337"/>
		
			<path fill="none" stroke="#FFFFFF" stroke-width="1.5" stroke-linecap="round" stroke-linejoin="round" stroke-miterlimit="10" d="
			M70.375,38.875c0,2.486-2.016,4.5-4.5,4.5"/>
		
			<path fill="none" stroke="#FFFFFF" stroke-width="1.5" stroke-linecap="round" stroke-linejoin="round" stroke-miterlimit="10" d="
			M44.5,25.375c-1.912,0-3.758,0.233-5.522,0.63C37.627,23.615,35.067,22,32.125,22c-1.434,0-2.777,0.394-3.937,1.062
			c2.048,1.186,3.513,3.265,3.858,5.707c-4.713,2.853-7.997,7.271-8.754,12.355h-4.667v9h6.068
			c3.173,6.596,10.84,11.251,19.807,11.251c11.806,0,21.375-8.059,21.375-18.001C65.875,33.436,56.306,25.375,44.5,25.375z"/>
		
			<circle fill="none" stroke="#FFFFFF" stroke-width="1.5" stroke-linecap="round" stroke-linejoin="round" stroke-miterlimit="10" cx="31" cy="40.001" r="1.125"/>
		
			<line fill="none" stroke="#FFFFFF" stroke-width="1.5" stroke-linecap="round" stroke-linejoin="round" stroke-miterlimit="10" x1="34.375" y1="59.723" x2="34.375" y2="67.001"/>
		
			<line fill="none" stroke="#FFFFFF" stroke-width="1.5" stroke-linecap="round" stroke-linejoin="round" stroke-miterlimit="10" x1="54.625" y1="59.652" x2="54.625" y2="67.001"/>
	</g>
</g>
</svg>
