<?xml version="1.0" encoding="utf-8"?>
<!-- Generator: Adobe Illustrator 16.0.0, SVG Export Plug-In . SVG Version: 6.00 Build 0)  -->
<!DOCTYPE svg PUBLIC "-//W3C//DTD SVG 1.1//EN" "http://www.w3.org/Graphics/SVG/1.1/DTD/svg11.dtd">
<svg version="1.1" id="Layer_1" xmlns="http://www.w3.org/2000/svg" xmlns:xlink="http://www.w3.org/1999/xlink" x="0px" y="0px"
	 width="80px" height="80px" viewBox="0 0 80 80" enable-background="new 0 0 80 80" xml:space="preserve">
<g>
	<g>
		<path fill="#E04E39" d="M40.354,79.045c-21.295,0-38.621-17.324-38.621-38.621c0-21.295,17.325-38.621,38.621-38.621
			c21.296,0,38.621,17.325,38.621,38.621C78.975,61.721,61.649,79.045,40.354,79.045z"/>
		<path fill="#FFFFFF" d="M40.354,3.183c20.567,0,37.241,16.674,37.241,37.241c0,20.568-16.674,37.242-37.241,37.242
			S3.112,60.992,3.112,40.424C3.112,19.857,19.786,3.183,40.354,3.183 M40.354,0.424c-22.056,0-40,17.944-40,40s17.944,40,40,40
			c22.057,0,40-17.943,40-40S62.41,0.424,40.354,0.424L40.354,0.424z"/>
	</g>
	<g>
		<g>
			
				<path fill="none" stroke="#FFFFFF" stroke-width="1.5" stroke-linecap="round" stroke-linejoin="round" stroke-miterlimit="10" d="
				M37.987,52.494c1.436,2.15,3.456,3.852,5.808,4.693c-2.902,0.807-4.892,2.301-4.892,3.297H56.91c0-0.996-1.986-2.49-4.891-3.297
				c4.723-1.689,8.105-6.834,8.105-12.137h1.287c0.711,0,1.286-0.576,1.286-1.287s-0.575-1.287-1.286-1.287H42.559"/>
			
				<path fill="none" stroke="#FFFFFF" stroke-width="1.5" stroke-linecap="round" stroke-linejoin="round" stroke-miterlimit="10" d="
				M55.624,39.905c5.059-7.058,5.411-7.619,4.501-8.36c-0.974-0.793-1.574-0.372-9.646,8.36"/>
			
				<path fill="none" stroke="#FFFFFF" stroke-width="1.5" stroke-linecap="round" stroke-linejoin="round" stroke-miterlimit="10" d="
				M51.121,53.414c2.033-0.848,3.66-2.473,4.508-4.508"/>
		</g>
		<g>
			
				<path fill="none" stroke="#FFFFFF" stroke-width="1.5" stroke-linecap="round" stroke-linejoin="round" stroke-miterlimit="10" d="
				M28.395,26.494c2.611,0,4.721-2.113,4.721-4.721c0-2.606-2.109-4.722-4.721-4.722c-2.608,0-4.721,2.116-4.721,4.722
				C23.674,24.381,25.787,26.494,28.395,26.494z"/>
			
				<polygon fill="none" stroke="#FFFFFF" stroke-width="1.5" stroke-linecap="round" stroke-linejoin="round" stroke-miterlimit="10" points="
				28.395,60.484 33.116,60.484 35.062,45.377 38.78,45.377 38.78,31.214 32.172,29.326 28.395,36.879 24.618,29.326 18.009,31.214 
				18.009,45.377 21.727,45.377 23.674,60.484 			"/>
		</g>
	</g>
</g>
</svg>
