<?xml version="1.0" encoding="utf-8"?>
<!-- Generator: Adobe Illustrator 16.0.0, SVG Export Plug-In . SVG Version: 6.00 Build 0)  -->
<!DOCTYPE svg PUBLIC "-//W3C//DTD SVG 1.1//EN" "http://www.w3.org/Graphics/SVG/1.1/DTD/svg11.dtd">
<svg version="1.1" id="Layer_1" xmlns="http://www.w3.org/2000/svg" xmlns:xlink="http://www.w3.org/1999/xlink" x="0px" y="0px"
	 width="80px" height="80px" viewBox="0 0 80 80" enable-background="new 0 0 80 80" xml:space="preserve">
<g>
	<g>
		<path fill="#005587" d="M40,79.149C18.414,79.149,0.851,61.587,0.851,40C0.851,18.414,18.414,0.851,40,0.851
			c21.587,0,39.149,17.562,39.149,39.149C79.149,61.587,61.587,79.149,40,79.149z"/>
		<path fill="#FFFFFF" d="M40,1.702C61.151,1.702,78.298,18.85,78.298,40c0,21.152-17.146,38.298-38.298,38.298
			C18.85,78.298,1.702,61.152,1.702,40C1.702,18.85,18.85,1.702,40,1.702 M40,0C17.944,0,0,17.944,0,40c0,22.057,17.944,40,40,40
			c22.057,0,40-17.943,40-40C80,17.944,62.057,0,40,0L40,0z"/>
	</g>
	<g>
		<path fill="none" stroke="#FFFFFF" stroke-linecap="round" stroke-linejoin="round" stroke-miterlimit="10" d="M61.933,42.371
			c0.083-0.779,0.129-1.569,0.129-2.371c0-12.434-10.086-22.52-22.521-22.52c-12.437,0-22.52,10.086-22.52,22.52
			c0,12.441,10.083,22.521,22.52,22.521c1.659,0,3.272-0.19,4.831-0.531"/>
		<path fill="none" stroke="#FFFFFF" stroke-linecap="round" stroke-linejoin="round" stroke-miterlimit="10" d="M46.128,18.461
			c0,0-8.831,1.835-8.545,4.895c0.203,2.181,1.958,2.938,3.917,1.958c1.958-0.979,0.978,5.875,0.978,5.875
			c-1.957,0-5.874,1.958-7.833,0c0,0,0-1.958-4.894-0.979c-4.897,0.979-4.897,7.833-4.897,7.833s0,3.917,2.939,3.917
			c2.936,0,5.875-0.979,5.875,2.938c0,0,1.958,1.958,1.958,2.937c0,0.979-0.981,1.958-0.981,2.939c0,0.977,1.96,4.895,2.939,4.895
			c0.314,0,1.032-0.003,1.862-0.164"/>
		<path fill="none" stroke="#FFFFFF" stroke-linecap="round" stroke-linejoin="round" stroke-miterlimit="10" d="M49.333,38.042
			c0,0-1.959,0.979-2.939,0c0,0-0.978-3.917-1.958-3.917c-0.978,0,2.938-2.937,6.855-1.958c3.916-1.958,4.894-7.333,4.894-7.333"/>
		<path fill="none" stroke="#FFFFFF" stroke-linecap="round" stroke-linejoin="round" stroke-miterlimit="10" d="M62.979,52.825
			c0,5.024-4.076,9.104-9.105,9.104c-5.026,0-9.103-4.079-9.103-9.104c0-5.03,4.076-9.104,9.103-9.104
			C58.903,43.721,62.979,47.795,62.979,52.825z"/>
		
			<line fill="none" stroke="#FFFFFF" stroke-linecap="round" stroke-linejoin="round" stroke-miterlimit="10" x1="53.874" y1="48.272" x2="53.874" y2="57.376"/>
		
			<line fill="none" stroke="#FFFFFF" stroke-linecap="round" stroke-linejoin="round" stroke-miterlimit="10" x1="58.429" y1="52.825" x2="49.322" y2="52.825"/>
	</g>
</g>
</svg>
