<svg xmlns="http://www.w3.org/2000/svg" fill="#fff" height="1em" width="1em" viewBox="0 0 40 40"><path d="M29.577 23.563c-2.344 0-3.642-1.425-3.642-1.425l1.285-1.855s1.129 1.032 2.385 1.032c.503 0 1.047-.195 1.047-.795 0-1.186-4.494-1.144-4.494-4.214 0-1.842 1.549-3.056 3.53-3.056 2.151 0 3.21 1.13 3.21 1.13l-1.032 1.996s-1.005-.879-2.205-.879c-.502 0-1.061.223-1.061.781 0 1.256 4.494 1.033 4.494 4.186 0 1.661-1.27 3.099-3.517 3.099Zm-6.55-.169-.306-4.493c-.056-.754 0-1.674 0-1.674h-.029s-.336 1.046-.558 1.674l-1.046 2.889h-2.094l-1.047-2.889a73.633 73.633 0 0 1-.558-1.674h-.028s.056.92 0 1.674l-.306 4.493h-2.457l.824-9.977h2.651l1.451 4.214c.224.642.502 1.647.502 1.647h.029s.279-1.005.502-1.647l1.451-4.214h2.652l.809 9.977h-2.442Zm-12.479.169c-2.344 0-3.642-1.425-3.642-1.425l1.284-1.855s1.13 1.032 2.386 1.032c.502 0 1.047-.195 1.047-.795 0-1.186-4.494-1.144-4.494-4.214 0-1.842 1.549-3.056 3.531-3.056 2.148 0 3.209 1.13 3.209 1.13l-1.033 1.996s-1.004-.879-2.204-.879c-.503 0-1.061.223-1.061.781 0 1.256 4.493 1.033 4.493 4.186 0 1.661-1.269 3.099-3.516 3.099ZM32.814 6H7.185C5.437 6 4 7.438 4 9.213V28.99c0 1.766 1.426 3.213 3.185 3.213h3.425l1.835 2.092a1.603 1.603 0 0 0 2.31 0l1.835-2.092h16.224c1.748 0 3.186-1.439 3.186-3.213V9.213C36 7.446 34.574 6 32.814 6Z"/></svg>