<?xml version="1.0" encoding="utf-8"?>
<!-- Generator: Adobe Illustrator 16.0.0, SVG Export Plug-In . SVG Version: 6.00 Build 0)  -->
<!DOCTYPE svg PUBLIC "-//W3C//DTD SVG 1.1//EN" "http://www.w3.org/Graphics/SVG/1.1/DTD/svg11.dtd">
<svg version="1.1" id="Layer_1" xmlns="http://www.w3.org/2000/svg" xmlns:xlink="http://www.w3.org/1999/xlink" x="0px" y="0px"
	 width="50px" height="50px" viewBox="0 0 50 50" enable-background="new 0 0 50 50" xml:space="preserve">
<path fill="#86C8BC" d="M44.692,9.658H5.307C2.381,9.658,0,12.039,0,14.966V39.03c0,2.931,2.381,5.312,5.307,5.312h39.385
	c2.927,0,5.308-2.381,5.308-5.312V14.966C50,12.039,47.619,9.658,44.692,9.658z M42.47,13.708L24.998,27.686L7.53,13.708H42.47z
	 M45.95,39.03c0,0.696-0.565,1.262-1.258,1.262H5.307c-0.694,0-1.257-0.565-1.257-1.262V16.112L23.732,31.86
	c0.37,0.297,0.818,0.442,1.266,0.442s0.896-0.146,1.266-0.442L45.95,16.112V39.03z"/>
</svg>
