<?xml version="1.0" encoding="utf-8"?>
<!-- Generator: Adobe Illustrator 16.0.0, SVG Export Plug-In . SVG Version: 6.00 Build 0)  -->
<!DOCTYPE svg PUBLIC "-//W3C//DTD SVG 1.1//EN" "http://www.w3.org/Graphics/SVG/1.1/DTD/svg11.dtd">
<svg version="1.1" id="Layer_1" xmlns="http://www.w3.org/2000/svg" xmlns:xlink="http://www.w3.org/1999/xlink" x="0px" y="0px"
	 width="50px" height="50px" viewBox="0 0 50 50" enable-background="new 0 0 50 50" xml:space="preserve">
<g>
	<path fill="#86C8BC" d="M36.005,32.766c-2.219-2.227-6.101-2.227-8.327,0l-0.218,0.219c-3.709-3.161-7.275-6.725-10.442-10.438
		l0.221-0.221c2.293-2.293,2.295-6.029,0-8.33l-4.271-4.267c-2.219-2.218-6.091-2.225-8.328,0l-2.335,2.341
		c-2.641,2.636-3.063,6.816-1.002,9.945c6.949,10.507,16.178,19.732,26.693,26.684c1.296,0.858,2.804,1.31,4.357,1.31
		c2.11,0,4.092-0.818,5.58-2.31l2.342-2.339c2.293-2.293,2.297-6.027,0-8.326L36.005,32.766z M37.645,42.725l-2.344,2.34
		c-1.367,1.363-3.634,1.59-5.253,0.527c-10.095-6.679-18.963-15.541-25.636-25.63c-1.09-1.655-0.87-3.865,0.527-5.258l2.335-2.342
		c0.409-0.407,0.955-0.633,1.533-0.633c0.578,0,1.12,0.224,1.528,0.632l4.269,4.265c0.844,0.845,0.846,2.22,0.004,3.063
		l-1.427,1.422c-0.678,0.677-0.732,1.759-0.125,2.499c3.934,4.8,8.547,9.41,13.338,13.333c0.739,0.607,1.817,0.551,2.496-0.123
		l1.422-1.422c0.824-0.818,2.238-0.822,3.061,0l4.271,4.268C38.484,40.51,38.488,41.881,37.645,42.725z"/>
	<path fill="#86C8BC" d="M49.454,0.546c-0.728-0.728-1.906-0.728-2.634,0L29.876,17.494V8.905c0-1.03-0.833-1.863-1.862-1.863
		s-1.861,0.834-1.861,1.863v13.082c0,0.001,0,0.002,0,0.003c0,0.122,0.013,0.244,0.037,0.365c0.009,0.042,0.025,0.082,0.036,0.123
		c0.021,0.077,0.04,0.153,0.07,0.227c0.018,0.042,0.043,0.079,0.063,0.12c0.034,0.068,0.065,0.137,0.109,0.202
		c0.023,0.035,0.055,0.065,0.08,0.099c0.049,0.062,0.093,0.125,0.149,0.182c0.362,0.364,0.839,0.546,1.315,0.546
		c0.014,0,0.027-0.003,0.041-0.004H41.1c1.028,0,1.861-0.834,1.861-1.863c0-1.029-0.833-1.862-1.861-1.862h-8.586l16.94-16.945
		C50.182,2.452,50.182,1.274,49.454,0.546z"/>
</g>
</svg>
