<?xml version="1.0" encoding="utf-8"?>
<!-- Generator: Adobe Illustrator 16.0.0, SVG Export Plug-In . SVG Version: 6.00 Build 0)  -->
<!DOCTYPE svg PUBLIC "-//W3C//DTD SVG 1.1//EN" "http://www.w3.org/Graphics/SVG/1.1/DTD/svg11.dtd">
<svg version="1.1" id="Layer_1" xmlns="http://www.w3.org/2000/svg" xmlns:xlink="http://www.w3.org/1999/xlink" x="0px" y="0px"
	 width="80px" height="80px" viewBox="0 0 80 80" enable-background="new 0 0 80 80" xml:space="preserve">
<g>
	<g>
		<path fill="#00B2A9" d="M40,79.149C18.414,79.149,0.851,61.587,0.851,40C0.851,18.414,18.414,0.851,40,0.851
			C61.588,0.851,79.15,18.414,79.15,40C79.15,61.587,61.588,79.149,40,79.149z"/>
		<path fill="#FFFFFF" d="M40,1.702C61.152,1.702,78.299,18.85,78.299,40c0,21.152-17.146,38.298-38.299,38.298
			C18.848,78.298,1.703,61.152,1.703,40C1.703,18.85,18.848,1.702,40,1.702 M40,0C17.944,0,0,17.944,0,40c0,22.057,17.944,40,40,40
			c22.057,0,40-17.943,40-40C80,17.944,62.057,0,40,0L40,0z"/>
	</g>
	<g>
		<g>
			<path fill="#FFFFFF" d="M45.643,22.945h-2.826v2.864h2.826c8.096,0,13.125,4.486,13.125,11.71v0.108
				c0,5.766-3.66,11.928-13.936,11.928h-7.788V60.96h-5.498V37.08h-2.863v26.744h11.226V52.419h4.923
				c10.205,0,16.799-5.806,16.799-14.791V37.52C61.631,28.803,55.207,22.945,45.643,22.945z"/>
			<path fill="#FFFFFF" d="M53.162,37.795v-0.113c0-4.434-3.15-7.188-8.221-7.188h-7.897v14.485h8.059
				C49.848,44.979,53.162,42.023,53.162,37.795z M39.909,33.357h5.033c2.443,0,5.355,0.75,5.355,4.324v0.113
				c0,2.625-2.037,4.32-5.193,4.32h-5.195V33.357z"/>
		</g>
		<polygon fill="#FFFFFF" points="39.691,22.945 31.546,22.945 31.546,14.802 28.683,14.802 28.683,22.945 20.539,22.945 
			20.539,25.81 28.683,25.81 28.683,33.955 31.546,33.955 31.546,25.81 39.691,25.81 		"/>
	</g>
</g>
</svg>
