<?xml version="1.0" encoding="utf-8"?>
<!-- Generator: Adobe Illustrator 16.0.0, SVG Export Plug-In . SVG Version: 6.00 Build 0)  -->
<!DOCTYPE svg PUBLIC "-//W3C//DTD SVG 1.1//EN" "http://www.w3.org/Graphics/SVG/1.1/DTD/svg11.dtd">
<svg version="1.1" id="Layer_1" xmlns="http://www.w3.org/2000/svg" xmlns:xlink="http://www.w3.org/1999/xlink" x="0px" y="0px"
	 width="90px" height="90px" viewBox="0 0 90 90" enable-background="new 0 0 90 90" xml:space="preserve">
<g>
	<g>
		<path fill="#ED5338" d="M44.999,84.5C23.219,84.5,5.5,66.781,5.5,45.001C5.5,23.22,23.219,5.5,44.999,5.5
			C66.78,5.5,84.5,23.22,84.5,45.001C84.5,66.781,66.78,84.5,44.999,84.5z"/>
		<path fill="#FFFFFF" d="M44.999,7C65.986,7,83,24.014,83,45.001C83,65.987,65.986,83,44.999,83C24.013,83,7,65.987,7,45.001
			C7,24.014,24.013,7,44.999,7 M44.999,4C22.392,4,4,22.393,4,45.001C4,67.608,22.392,86,44.999,86C67.607,86,86,67.608,86,45.001
			C86,22.393,67.607,4,44.999,4L44.999,4z"/>
	</g>
	<g>
		
			<polygon fill="none" stroke="#FFFFFF" stroke-width="1.5" stroke-linecap="round" stroke-linejoin="round" stroke-miterlimit="10" points="
			44.937,29.41 48.049,33.858 52.553,34.487 49.262,37.772 50.013,43.373 44.88,40.195 39.857,43.373 41.062,37.772 37.319,34.487 
			41.712,33.858 		"/>
		
			<path fill="none" stroke="#FFFFFF" stroke-width="1.5" stroke-linecap="round" stroke-linejoin="round" stroke-miterlimit="10" d="
			M31.374,43.718c-9.911,0-9.161-13.119-9.161-15.857h5.024"/>
		
			<path fill="none" stroke="#FFFFFF" stroke-width="1.5" stroke-linecap="round" stroke-linejoin="round" stroke-miterlimit="10" d="
			M58.57,43.718c9.91,0,9.219-13.119,9.219-15.857h-5.08"/>
		
			<path fill="none" stroke="#FFFFFF" stroke-width="1.5" stroke-linecap="round" stroke-linejoin="round" stroke-miterlimit="10" d="
			M62.844,23.897H27.167c0,30.59,15.787,21.908,15.787,32.703c-0.124,6.937-3.376,8.919-8.85,8.919v3.964h21.803V65.52
			c-5.474,0-8.989-1.982-8.989-8.919C46.918,45.793,62.844,54.361,62.844,23.897z"/>
	</g>
</g>
</svg>
