<?xml version="1.0" encoding="utf-8"?>
<!-- Generator: Adobe Illustrator 16.0.0, SVG Export Plug-In . SVG Version: 6.00 Build 0)  -->
<!DOCTYPE svg PUBLIC "-//W3C//DTD SVG 1.1//EN" "http://www.w3.org/Graphics/SVG/1.1/DTD/svg11.dtd">
<svg version="1.1" id="Layer_1" xmlns="http://www.w3.org/2000/svg" xmlns:xlink="http://www.w3.org/1999/xlink" x="0px" y="0px"
	 width="80px" height="80px" viewBox="0 0 80 80" enable-background="new 0 0 80 80" xml:space="preserve">
<g>
	<g>
		<path fill="#E04E39" d="M40,79.149C18.414,79.149,0.851,61.587,0.851,40C0.851,18.414,18.414,0.851,40,0.851
			c21.587,0,39.149,17.562,39.149,39.149C79.149,61.587,61.587,79.149,40,79.149z"/>
		<path fill="#FFFFFF" d="M40,1.702C61.151,1.702,78.298,18.85,78.298,40c0,21.152-17.146,38.298-38.298,38.298
			C18.85,78.298,1.702,61.152,1.702,40C1.702,18.85,18.85,1.702,40,1.702 M40,0C17.944,0,0,17.944,0,40c0,22.057,17.944,40,40,40
			c22.057,0,40-17.943,40-40C80,17.944,62.057,0,40,0L40,0z"/>
	</g>
	<g>
		<g>
			
				<line fill="none" stroke="#FFFFFF" stroke-linecap="round" stroke-linejoin="round" stroke-miterlimit="10" x1="17.021" y1="61.638" x2="62.979" y2="61.638"/>
			
				<rect x="21.017" y="41.671" fill="none" stroke="#FFFFFF" stroke-linecap="round" stroke-linejoin="round" stroke-miterlimit="10" width="37.966" height="19.967"/>
			
				<line fill="none" stroke="#FFFFFF" stroke-linecap="round" stroke-linejoin="round" stroke-miterlimit="10" x1="17.021" y1="41.671" x2="62.979" y2="41.671"/>
			
				<rect x="35.005" y="37.676" fill="none" stroke="#FFFFFF" stroke-linecap="round" stroke-linejoin="round" stroke-miterlimit="10" width="9.989" height="3.997"/>
			
				<rect x="37.003" y="53.645" fill="none" stroke="#FFFFFF" stroke-linecap="round" stroke-linejoin="round" stroke-miterlimit="10" width="5.993" height="7.993"/>
			
				<line fill="none" stroke="#FFFFFF" stroke-linecap="round" stroke-linejoin="round" stroke-miterlimit="10" x1="27.013" y1="55.643" x2="33.007" y2="55.643"/>
			
				<line fill="none" stroke="#FFFFFF" stroke-linecap="round" stroke-linejoin="round" stroke-miterlimit="10" x1="46.995" y1="55.643" x2="52.989" y2="55.643"/>
			
				<line fill="none" stroke="#FFFFFF" stroke-linecap="round" stroke-linejoin="round" stroke-miterlimit="10" x1="27.013" y1="47.65" x2="37.003" y2="47.65"/>
			
				<line fill="none" stroke="#FFFFFF" stroke-linecap="round" stroke-linejoin="round" stroke-miterlimit="10" x1="42.996" y1="47.65" x2="52.989" y2="47.65"/>
		</g>
		<polyline fill="none" stroke="#FFFFFF" stroke-linecap="round" stroke-linejoin="round" stroke-miterlimit="10" points="
			40,37.676 40,14.957 48.558,17.374 40,19.97 		"/>
	</g>
</g>
</svg>
