<?xml version="1.0" encoding="utf-8"?>
<!-- Generator: Adobe Illustrator 16.0.0, SVG Export Plug-In . SVG Version: 6.00 Build 0)  -->
<!DOCTYPE svg PUBLIC "-//W3C//DTD SVG 1.1//EN" "http://www.w3.org/Graphics/SVG/1.1/DTD/svg11.dtd">
<svg version="1.1" id="Layer_1" xmlns="http://www.w3.org/2000/svg" xmlns:xlink="http://www.w3.org/1999/xlink" x="0px" y="0px"
	 width="90px" height="90px" viewBox="0 0 90 90" enable-background="new 0 0 90 90" xml:space="preserve">
<g>
	<g>
		<path fill="#00B5AF" d="M44.499,83.5C22.995,83.5,5.5,66.005,5.5,44.501C5.5,22.996,22.995,5.5,44.499,5.5
			C66.004,5.5,83.5,22.996,83.5,44.501C83.5,66.005,66.004,83.5,44.499,83.5z"/>
		<path fill="#FFFFFF" d="M44.499,7C65.21,7,82,23.79,82,44.501C82,65.211,65.21,82,44.499,82C23.789,82,7,65.211,7,44.501
			C7,23.79,23.789,7,44.499,7 M44.499,4C22.168,4,4,22.168,4,44.501C4,66.832,22.168,85,44.499,85C66.831,85,85,66.832,85,44.501
			C85,22.168,66.831,4,44.499,4L44.499,4z"/>
	</g>
	<g>
		
			<path fill="none" stroke="#FFFFFF" stroke-width="1.5" stroke-linecap="round" stroke-linejoin="round" stroke-miterlimit="10" d="
			M54.625,45.059h10.12l5.621,8.994c0,0,0,2.249,0,3.374c0,1.124,0,3.352,0,3.352h-5.621"/>
		
			<polyline fill="none" stroke="#FFFFFF" stroke-width="1.5" stroke-linecap="round" stroke-linejoin="round" stroke-miterlimit="10" points="
			42.257,60.849 54.625,60.834 54.625,38.312 42.257,38.312 		"/>
		
			<polyline fill="none" stroke="#FFFFFF" stroke-width="1.5" stroke-linecap="round" stroke-linejoin="round" stroke-miterlimit="10" points="
			29.889,43.935 29.889,60.849 35.51,60.849 		"/>
		
			<path fill="none" stroke="#FFFFFF" stroke-width="1.5" stroke-linecap="round" stroke-linejoin="round" stroke-miterlimit="10" d="
			M64.745,61.96c0,1.861-1.51,3.372-3.373,3.372s-3.373-1.511-3.373-3.372c0-1.865,1.51-3.375,3.373-3.375
			S64.745,60.095,64.745,61.96z"/>
		
			<path fill="none" stroke="#FFFFFF" stroke-width="1.5" stroke-linecap="round" stroke-linejoin="round" stroke-miterlimit="10" d="
			M42.257,61.96c0,1.861-1.51,3.372-3.373,3.372c-1.862,0-3.374-1.511-3.374-3.372c0-1.865,1.511-3.375,3.374-3.375
			C40.747,58.585,42.257,60.095,42.257,61.96z"/>
		
			<path fill="none" stroke="#FFFFFF" stroke-width="1.5" stroke-linecap="round" stroke-linejoin="round" stroke-miterlimit="10" d="
			M38.884,30.452c0,5.516-4.604,10.12-10.12,10.12s-10.12-4.604-10.12-10.12c0-5.519,4.603-10.12,10.12-10.12
			S38.884,24.933,38.884,30.452z"/>
		
			<polyline fill="none" stroke="#FFFFFF" stroke-width="1.5" stroke-linecap="round" stroke-linejoin="round" stroke-miterlimit="10" points="
			27.639,24.819 27.639,31.565 32.137,31.565 		"/>
		
			<line fill="none" stroke="#FFFFFF" stroke-width="1.5" stroke-linecap="round" stroke-linejoin="round" stroke-miterlimit="10" x1="18.644" y1="49.556" x2="25.391" y2="49.567"/>
		
			<line fill="none" stroke="#FFFFFF" stroke-width="1.5" stroke-linecap="round" stroke-linejoin="round" stroke-miterlimit="10" x1="22.017" y1="54.053" x2="25.391" y2="54.064"/>
		
			<line fill="none" stroke="#FFFFFF" stroke-width="1.5" stroke-linecap="round" stroke-linejoin="round" stroke-miterlimit="10" x1="24.267" y1="58.551" x2="25.391" y2="58.562"/>
		
			<line fill="none" stroke="#FFFFFF" stroke-width="1.5" stroke-linecap="round" stroke-linejoin="round" stroke-miterlimit="10" x1="54.625" y1="54.053" x2="69.664" y2="54.053"/>
		
			<line fill="none" stroke="#FFFFFF" stroke-width="1.5" stroke-linecap="round" stroke-linejoin="round" stroke-miterlimit="10" x1="54.484" y1="61.059" x2="54.555" y2="60.986"/>
		
			<line fill="none" stroke="#FFFFFF" stroke-width="1.5" stroke-linecap="round" stroke-linejoin="round" stroke-miterlimit="10" x1="54.649" y1="60.799" x2="58.373" y2="60.799"/>
	</g>
</g>
</svg>
