<?xml version="1.0" encoding="utf-8"?>
<!-- Generator: Adobe Illustrator 16.0.0, SVG Export Plug-In . SVG Version: 6.00 Build 0)  -->
<!DOCTYPE svg PUBLIC "-//W3C//DTD SVG 1.1//EN" "http://www.w3.org/Graphics/SVG/1.1/DTD/svg11.dtd">
<svg version="1.1" id="Layer_1" xmlns="http://www.w3.org/2000/svg" xmlns:xlink="http://www.w3.org/1999/xlink" x="0px" y="0px"
	 width="330px" height="65px" viewBox="127.5 70 330 65" enable-background="new 127.5 70 330 65" xml:space="preserve">
<g>
	<path fill="#86C8BC" d="M196.452,91.746h4.028v2.93c1.297-1.831,3.131-3.297,5.961-3.297c4.16,0,8.189,3.297,8.189,9.123v0.066
		c0,5.828-3.996,9.122-8.189,9.122c-2.896,0-4.73-1.465-5.961-3.097v8.06h-4.028V91.746z M210.535,100.568v-0.066
		c0-3.395-2.297-5.627-5.027-5.627s-5.127,2.266-5.127,5.627v0.066c0,3.397,2.396,5.628,5.127,5.628
		C208.271,106.196,210.535,104.032,210.535,100.568"/>
	<path fill="#86C8BC" d="M216.765,91.746h4.03v3.961c1.098-2.629,3.127-4.428,6.225-4.295v4.262h-0.233
		c-3.53,0-5.991,2.297-5.991,6.959v6.692h-4.03V91.746z"/>
	<path fill="#86C8BC" d="M228.287,100.604v-0.068c0-5.027,3.562-9.156,8.59-9.156c5.592,0,8.424,4.396,8.424,9.457
		c0,0.365-0.034,0.73-0.068,1.131h-12.918c0.434,2.863,2.465,4.462,5.062,4.462c1.965,0,3.361-0.732,4.761-2.099l2.362,2.099
		c-1.662,1.997-3.962,3.296-7.189,3.296C232.215,109.725,228.287,106.029,228.287,100.604 M241.305,99.304
		c-0.267-2.597-1.799-4.628-4.462-4.628c-2.464,0-4.194,1.898-4.562,4.628H241.305z"/>
	<path fill="#86C8BC" d="M247.732,100.635v-0.065c0-4.994,3.861-9.189,9.124-9.189c3.329,0,5.394,1.231,7.024,3.029l-2.496,2.696
		c-1.232-1.299-2.531-2.196-4.562-2.196c-2.93,0-5.062,2.529-5.062,5.593v0.067c0,3.128,2.165,5.66,5.261,5.66
		c1.898,0,3.297-0.9,4.562-2.197l2.43,2.396c-1.73,1.933-3.762,3.296-7.191,3.296C251.594,109.725,247.732,105.632,247.732,100.635"
		/>
	<path fill="#86C8BC" d="M266.447,85.219h4.329v3.83h-4.329V85.219z M266.613,91.745h4.027v17.58h-4.027V91.745z"/>
	<path fill="#86C8BC" d="M273.141,107.027l1.799-2.729c1.896,1.432,3.961,2.164,5.758,2.164c1.732,0,2.732-0.732,2.732-1.898v-0.068
		c0-1.363-1.865-1.828-3.93-2.463c-2.596-0.732-5.494-1.797-5.494-5.159v-0.067c0-3.331,2.764-5.361,6.26-5.361
		c2.197,0,4.596,0.766,6.461,1.997l-1.6,2.864c-1.697-1.031-3.496-1.664-4.96-1.664c-1.565,0-2.464,0.732-2.464,1.765v0.066
		c0,1.265,1.896,1.798,3.963,2.464c2.562,0.799,5.458,1.965,5.458,5.127v0.068c0,3.694-2.862,5.527-6.525,5.527
		C278.101,109.66,275.337,108.759,273.141,107.027"/>
	<path fill="#86C8BC" d="M289.957,85.219h4.329v3.83h-4.329V85.219z M290.123,91.745h4.029v17.58h-4.029V91.745z"/>
	<path fill="#86C8BC" d="M297.116,100.635v-0.065c0-5.028,3.997-9.189,9.391-9.189c5.393,0,9.354,4.095,9.354,9.122v0.067
		c0,4.994-3.995,9.155-9.423,9.155C301.078,109.725,297.116,105.632,297.116,100.635 M311.833,100.635v-0.065
		c0-3.098-2.231-5.66-5.395-5.66c-3.23,0-5.293,2.529-5.293,5.593v0.067c0,3.063,2.23,5.66,5.361,5.66
		C309.769,106.229,311.833,103.665,311.833,100.635"/>
	<path fill="#86C8BC" d="M318.628,91.746h4.028v2.729c1.134-1.664,2.764-3.095,5.494-3.095c3.963,0,6.26,2.663,6.26,6.759v11.187
		h-4.028v-9.987c0-2.731-1.366-4.297-3.762-4.297c-2.332,0-3.964,1.632-3.964,4.362v9.922h-4.028V91.746z"/>
	<path fill="#63666A" d="M337.042,107.195l0.966-1.299c1.864,1.432,3.93,2.23,6.094,2.23c2.298,0,4.095-1.265,4.095-3.229v-0.067
		c0-1.998-2.129-2.729-4.493-3.395c-2.764-0.801-5.828-1.633-5.828-4.662v-0.067c0-2.73,2.297-4.693,5.596-4.693
		c2.031,0,4.327,0.731,6.025,1.864l-0.867,1.365c-1.563-1.033-3.427-1.699-5.227-1.699c-2.33,0-3.861,1.266-3.861,2.963v0.068
		c0,1.896,2.298,2.596,4.727,3.295c2.73,0.766,5.596,1.766,5.596,4.763v0.065c0,3.028-2.598,4.963-5.86,4.963
		C341.538,109.66,338.841,108.66,337.042,107.195"/>
	<path fill="#63666A" d="M352.561,100.902v-0.067c0-4.761,3.797-8.89,8.655-8.89c3.196,0,5.195,1.465,6.793,3.131l-1.164,1.197
		c-1.466-1.498-3.131-2.798-5.66-2.798c-3.863,0-6.86,3.23-6.86,7.292v0.067c0,4.095,3.096,7.359,6.993,7.359
		c2.396,0,4.261-1.233,5.692-2.831l1.132,0.999c-1.73,1.965-3.796,3.362-6.926,3.362
		C356.322,109.725,352.561,105.662,352.561,100.902"/>
	<path fill="#63666A" d="M371.441,85.686h2.031v2.23h-2.031V85.686z M371.642,92.346h1.632v16.979h-1.632V92.346z"/>
	<path fill="#63666A" d="M377.202,100.869v-0.067c0-4.927,3.462-8.856,8.058-8.856c4.763,0,7.792,3.862,7.792,8.89
		c0,0.3,0,0.399-0.034,0.665h-14.085c0.301,4.23,3.331,6.694,6.659,6.694c2.631,0,4.431-1.167,5.828-2.666l1.132,1.001
		c-1.732,1.864-3.763,3.195-7.025,3.195C381.065,109.725,377.202,106.162,377.202,100.869 M391.287,100.036
		c-0.233-3.429-2.199-6.594-6.095-6.594c-3.362,0-5.959,2.831-6.26,6.594H391.287z"/>
	<path fill="#63666A" d="M396.482,92.346h1.632v3.162c1.132-1.998,3.03-3.562,6.127-3.562c4.294,0,6.792,2.931,6.792,6.992v10.388
		h-1.631V99.236c0-3.496-1.965-5.793-5.396-5.793c-3.329,0-5.893,2.529-5.893,6.06v9.822h-1.632V92.346z"/>
	<path fill="#63666A" d="M414.397,100.902v-0.067c0-4.761,3.797-8.89,8.656-8.89c3.197,0,5.194,1.465,6.794,3.131l-1.166,1.197
		c-1.464-1.498-3.131-2.798-5.66-2.798c-3.863,0-6.86,3.23-6.86,7.292v0.067c0,4.095,3.097,7.359,6.994,7.359
		c2.396,0,4.26-1.233,5.692-2.831l1.132,0.999c-1.731,1.965-3.795,3.362-6.926,3.362
		C418.16,109.725,414.397,105.662,414.397,100.902"/>
	<path fill="#63666A" d="M431.579,100.869v-0.067c0-4.927,3.464-8.856,8.058-8.856c4.763,0,7.793,3.862,7.793,8.89
		c0,0.3,0,0.399-0.033,0.665h-14.086c0.301,4.23,3.33,6.694,6.66,6.694c2.629,0,4.429-1.167,5.827-2.666l1.131,1.001
		c-1.731,1.864-3.762,3.195-7.023,3.195C435.44,109.725,431.579,106.162,431.579,100.869 M445.664,100.036
		c-0.232-3.429-2.197-6.594-6.093-6.594c-3.364,0-5.96,2.831-6.261,6.594H445.664z"/>
	<path fill="#63666A" d="M448.49,88.963v-0.021c0-2.029,1.645-3.738,3.718-3.738c2.093,0,3.718,1.688,3.718,3.719v0.02
		c0,2.029-1.647,3.738-3.718,3.738C450.113,92.68,448.49,90.993,448.49,88.963 M455.498,88.941v-0.02
		c0-1.818-1.411-3.312-3.29-3.312c-1.859,0-3.29,1.516-3.29,3.332v0.021c0,1.816,1.41,3.312,3.29,3.312
		C454.066,92.274,455.498,90.758,455.498,88.941 M450.819,86.998h1.667c0.768,0,1.389,0.404,1.389,1.152
		c0,0.621-0.406,0.983-0.921,1.133l1.048,1.452h-0.748l-0.938-1.367h-0.898v1.367h-0.598V86.998z M452.421,88.879
		c0.533,0,0.833-0.278,0.833-0.684c0-0.45-0.32-0.664-0.833-0.664h-1.004v1.348H452.421z"/>
	<path fill="#63666A" d="M160.787,80.798h-3.746v3.797h3.746c10.734,0,17.403,5.95,17.403,15.528v0.145
		c0,7.645-4.855,15.812-18.478,15.812h-10.327v15.123h-7.29V99.54h-3.797V135h14.884v-15.123h6.53
		c13.531,0,22.274-7.697,22.274-19.609v-0.145C181.987,88.564,173.468,80.798,160.787,80.798"/>
	<path fill="#63666A" d="M170.756,100.486v-0.148c0-5.879-4.176-9.531-10.9-9.531h-10.471v19.206h10.687
		C166.362,110.013,170.756,106.096,170.756,100.486 M153.183,94.604h6.672c3.241,0,7.104,0.994,7.104,5.734v0.148
		c0,3.479-2.704,5.729-6.888,5.729h-6.888V94.604z"/>
	<polygon fill="#86C8BC" points="152.894,80.798 142.096,80.798 142.096,70 138.299,70 138.299,80.798 127.5,80.798 127.5,84.595 
		138.299,84.595 138.299,95.393 142.096,95.393 142.096,84.595 152.894,84.595 	"/>
</g>
</svg>
