<?xml version="1.0" encoding="utf-8"?>
<!-- Generator: Adobe Illustrator 16.0.0, SVG Export Plug-In . SVG Version: 6.00 Build 0)  -->
<!DOCTYPE svg PUBLIC "-//W3C//DTD SVG 1.1//EN" "http://www.w3.org/Graphics/SVG/1.1/DTD/svg11.dtd">
<svg version="1.1" id="Layer_1" xmlns="http://www.w3.org/2000/svg" xmlns:xlink="http://www.w3.org/1999/xlink" x="0px" y="0px"
	 width="55px" height="65px" viewBox="0 0 55 65" enable-background="new 0 0 55 65" xml:space="preserve">
<path fill="#FFFFFF" d="M33.287,10.798h-3.746v3.797h3.746c10.734,0,17.403,5.951,17.403,15.529v0.144
	c0,7.645-4.855,15.813-18.478,15.813H21.886v15.123h-7.29V29.54h-3.797V65h14.884V49.877h6.53c13.532,0,22.274-7.697,22.274-19.61
	v-0.144C54.487,18.564,45.968,10.798,33.287,10.798"/>
<path fill="#FFFFFF" d="M43.256,30.486v-0.149c0-5.878-4.177-9.531-10.901-9.531H21.885v19.206h10.687
	C38.862,40.013,43.256,36.096,43.256,30.486 M25.683,24.604h6.672c3.241,0,7.104,0.994,7.104,5.734v0.149
	c0,3.479-2.705,5.729-6.888,5.729h-6.888V24.604z"/>
<polygon fill="#86C8BC" points="25.394,10.798 14.596,10.798 14.596,0 10.799,0 10.799,10.798 0,10.798 0,14.595 10.799,14.595 
	10.799,25.393 14.596,25.393 14.596,14.595 25.394,14.595 "/>
</svg>
