<?xml version="1.0" encoding="utf-8"?>
<!-- Generator: Adobe Illustrator 20.1.0, SVG Export Plug-In . SVG Version: 6.00 Build 0)  -->
<svg version="1.1" id="Layer_2" xmlns="http://www.w3.org/2000/svg" xmlns:xlink="http://www.w3.org/1999/xlink" x="0px" y="0px"
	 viewBox="0 0 32 32" style="enable-background:new 0 0 32 32;" xml:space="preserve">
<style type="text/css">
	.st0{fill:#FFFFFF;}
</style>
<path class="st0" d="M15.6,13.6c-0.1-0.1-0.1-0.2-0.1-0.3v-2.3c0-0.1,0-0.2,0.1-0.2c0.1-0.1,0.2-0.1,0.3-0.1c0.1,0,0.2,0,0.3,0.1
	c0.1,0.1,0.1,0.1,0.1,0.2v2.3c0,0.1,0,0.2-0.1,0.3c-0.1,0.1-0.2,0.1-0.3,0.1C15.8,13.7,15.7,13.7,15.6,13.6z M18.3,18.2
	c0.1,0.2,0.2,0.4,0.2,0.7V21c0,0.3-0.1,0.5-0.2,0.6c-0.1,0.1-0.3,0.2-0.5,0.2c-0.1,0-0.3,0-0.4-0.1c-0.1-0.1-0.2-0.1-0.3-0.3v0.3
	h-0.8v-5.1h0.8v1.7c0.1-0.1,0.2-0.2,0.3-0.3c0.1-0.1,0.2-0.1,0.4-0.1C18,17.9,18.2,18,18.3,18.2z M17.7,18.9c0-0.1,0-0.2-0.1-0.3
	c-0.1-0.1-0.1-0.1-0.2-0.1c-0.1,0-0.1,0-0.2,0c-0.1,0-0.1,0.1-0.2,0.1V21c0.1,0.1,0.1,0.1,0.2,0.1c0.1,0,0.1,0,0.2,0
	c0.1,0,0.2,0,0.2-0.1c0-0.1,0.1-0.1,0.1-0.3V18.9z M10.6,17.4h0.9v4.4h0.9v-4.4h0.9v-0.7h-2.6V17.4z M15,20.9
	c-0.1,0.1-0.1,0.2-0.2,0.2c-0.1,0.1-0.2,0.1-0.2,0.1c-0.1,0-0.1,0-0.2-0.1c0,0,0-0.1,0-0.2V18h-0.8v3.2c0,0.2,0,0.4,0.1,0.5
	c0.1,0.1,0.2,0.2,0.4,0.2c0.1,0,0.3,0,0.4-0.1c0.2-0.1,0.3-0.2,0.4-0.4v0.4h0.8V18H15V20.9z M31,16c0,8.3-6.7,15-15,15
	C7.7,31,1,24.3,1,16C1,7.7,7.7,1,16,1C24.3,1,31,7.7,31,16z M17.8,13.6c0,0.2,0.1,0.4,0.2,0.6c0.1,0.1,0.2,0.2,0.4,0.2
	c0.2,0,0.3,0,0.5-0.1c0.2-0.1,0.3-0.2,0.5-0.4v0.5h0.9v-4.2h-0.9v3.2c-0.1,0.1-0.2,0.2-0.3,0.2c-0.1,0.1-0.2,0.1-0.2,0.1
	c-0.1,0-0.1,0-0.2-0.1c0,0-0.1-0.1-0.1-0.2v-3.2h-0.9V13.6z M14.6,13.3c0,0.4,0.1,0.6,0.3,0.8c0.2,0.2,0.5,0.3,0.9,0.3
	c0.4,0,0.7-0.1,0.9-0.3c0.2-0.2,0.3-0.5,0.3-0.8v-2.2c0-0.3-0.1-0.6-0.3-0.8c-0.2-0.2-0.5-0.3-0.9-0.3c-0.4,0-0.7,0.1-0.9,0.3
	c-0.2,0.2-0.3,0.4-0.3,0.8V13.3z M11.3,8.7l1.1,3.4v2.2h1V12l1.1-3.3h-1L13,10.9h-0.1l-0.6-2.3H11.3z M23.5,18.4
	c0-1.5-1.2-2.7-2.7-2.7h-9.5c-1.5,0-2.7,1.2-2.7,2.7v2.2c0,1.5,1.2,2.7,2.7,2.7h9.5c1.5,0,2.7-1.2,2.7-2.7V18.4z M20.8,18.2
	c0.2,0.2,0.3,0.5,0.3,0.8v1h-1.5v0.7c0,0.2,0,0.3,0.1,0.4c0.1,0.1,0.1,0.1,0.3,0.1c0.1,0,0.2,0,0.3-0.1c0-0.1,0.1-0.2,0.1-0.4v-0.2
	h0.8v0.2c0,0.4-0.1,0.7-0.3,0.9c-0.2,0.2-0.5,0.3-0.9,0.3c-0.3,0-0.6-0.1-0.8-0.3c-0.2-0.2-0.3-0.5-0.3-0.9V19
	c0-0.3,0.1-0.6,0.3-0.8c0.2-0.2,0.5-0.3,0.8-0.3C20.4,17.9,20.7,18,20.8,18.2z M20.3,19c0-0.2,0-0.3-0.1-0.3
	c-0.1-0.1-0.1-0.1-0.3-0.1c-0.1,0-0.2,0-0.3,0.1c-0.1,0.1-0.1,0.2-0.1,0.3v0.4h0.7V19z"/>
</svg>
