<?xml version="1.0" encoding="utf-8"?>
<!-- Generator: Adobe Illustrator 20.1.0, SVG Export Plug-In . SVG Version: 6.00 Build 0)  -->
<svg version="1.1" id="Layer_1" xmlns="http://www.w3.org/2000/svg" xmlns:xlink="http://www.w3.org/1999/xlink" x="0px" y="0px"
	 viewBox="0 0 32 32" style="enable-background:new 0 0 32 32;" xml:space="preserve">
<style type="text/css">
	.st0{fill:#FFFFFF;}
</style>
<path class="st0" d="M16.9,15.3C16.9,15.2,16.9,15.2,16.9,15.3L16.9,15.3L16.9,15.3z M31,16.4c0,8.3-6.7,15-15,15
	c-8.3,0-15-6.7-15-15c0-8.3,6.7-15,15-15C24.3,1.4,31,8.1,31,16.4z M11.9,13.9H8.7v9.7h3.2V13.9z M12.1,10.9c0-0.9-0.7-1.7-1.8-1.7
	c-1.1,0-1.8,0.7-1.8,1.7c0,0.9,0.7,1.7,1.8,1.7h0C11.4,12.5,12.1,11.8,12.1,10.9z M23.5,18c0-3-1.6-4.4-3.7-4.4
	c-1.7,0-2.5,0.9-2.9,1.6v-1.4h-3.2c0,0.9,0,9.7,0,9.7h3.2v-5.4c0-0.3,0-0.6,0.1-0.8c0.2-0.6,0.8-1.2,1.6-1.2c1.2,0,1.6,0.9,1.6,2.2
	v5.2h3.2V18z"/>
</svg>
