<svg xmlns="http://www.w3.org/2000/svg" viewBox="0 0 89.18 89.18"><defs><style>.cls-1{fill:#5eaee0;}.cls-2{fill:#fff;}.cls-3{fill:none;stroke:#fff;stroke-linecap:round;stroke-linejoin:round;stroke-width:2px;}</style></defs><g id="Layer_2" data-name="Layer 2"><g id="Layer_1-2" data-name="Layer 1"><circle class="cls-1" cx="44.59" cy="44.59" r="43.59"/><path class="cls-2" d="M44.59,2A42.59,42.59,0,1,1,2,44.59,42.59,42.59,0,0,1,44.59,2m0-2A44.59,44.59,0,1,0,89.18,44.59,44.64,44.64,0,0,0,44.59,0Z"/><path class="cls-3" d="M33.18,67.61C29.31,67.61,22,62.72,22,57.29s2.89-6.51,2.89-11.24S22,41.18,22,35.38c0-6.11,7.54-8.79,8.87-11.63.75-1.6,1.35-2.18,2.28-2.18s1.53.58,2.28,2.18c1.33,2.84,8.87,5.52,8.87,11.63,0,5.8-2.89,5.94-2.89,10.67s2.89,5.81,2.89,11.24S37.05,67.61,33.18,67.61Z"/><path class="cls-3" d="M39.2,36.13A6.72,6.72,0,0,1,37.51,42a6,6,0,0,1-5.63,1.5"/><path class="cls-3" d="M39.2,54.63a6.73,6.73,0,0,1-1.69,5.83A6,6,0,0,1,31.88,62"/><path class="cls-3" d="M51,65.24c2.5,2.49,8.06,3.57,16.21-4.58,4.44-4.43,1.92-9.78,2.71-12,.44-1.23.43-1.84,0-2.33s-1.1-.49-2.33,0c-2.18.79-7.53-1.73-12,2.71C47.42,57.18,48.5,62.74,51,65.24Z"/><path class="cls-3" d="M69.86,46.37S55.44,53.91,51,65.24"/><path class="cls-3" d="M68.62,42.68c-.3-4.2-3.62-6.8-4-8.67-.23-1.28-.54-1.81-1.21-2s-1.19.12-2,1.12c-1.5,1.78-7.39,2.27-9,8.33a29.66,29.66,0,0,0-1.08,6.79"/></g></g></svg>