<svg xmlns="http://www.w3.org/2000/svg" viewBox="0 0 89.18 89.18"><defs><style>.cls-1{fill:#6ba48a;}.cls-2{fill:#fff;}.cls-3{fill:none;stroke:#fff;stroke-linecap:round;stroke-linejoin:round;stroke-width:2px;}</style></defs><g id="Layer_2" data-name="Layer 2"><g id="Layer_1-2" data-name="Layer 1"><circle class="cls-1" cx="44.59" cy="44.59" r="43.59"/><path class="cls-2" d="M44.59,2A42.59,42.59,0,1,1,2,44.59,42.59,42.59,0,0,1,44.59,2m0-2A44.59,44.59,0,1,0,89.18,44.59,44.64,44.64,0,0,0,44.59,0Z"/><path class="cls-3" d="M22.12,59.2c3-3,1.63-5.54,4.11-8s5-1.08,8-4.11,1.4-5.32,4.11-8,5-1.07,8-4.11,1.64-5.55,4.12-8,5-1.08,8-4.11L51,15.21c-3,3-5.56,1.64-8,4.12s-1.08,5-4.11,8-5.32,1.4-8,4.11-1.07,5-4.11,8-5.55,1.63-8,4.11-1.08,5-4.11,8Z"/><path class="cls-3" d="M18.34,55.42c3-3,1.62-5.55,4.1-8s5-1.08,8-4.11,1.4-5.32,4.11-8,5-1.07,8-4.1,1.64-5.56,4.12-8,5-1.07,8-4.11"/><path class="cls-3" d="M38.21,75.29c3-3,1.63-5.55,4.11-8s5-1.07,8-4.1,1.39-5.32,4.1-8,5-1.07,8-4.11,1.63-5.55,4.11-8,5-1.08,8-4.12L67.05,31.3c-3,3-5.55,1.63-8,4.11s-1.08,5-4.12,8-5.31,1.39-8,4.1-1.08,5-4.11,8-5.55,1.63-8,4.11-1.07,5-4.11,8Z"/><path class="cls-3" d="M34.42,71.5c3-3,1.63-5.55,4.11-8s5-1.08,8-4.11,1.4-5.32,4.1-8,5-1.07,8-4.11,1.64-5.55,4.11-8,5-1.08,8-4.12"/></g></g></svg>