<svg xmlns="http://www.w3.org/2000/svg" viewBox="0 0 89.18 89.17"><defs><style>.cls-1{fill:#ed5338;}.cls-2{fill:#fff;}.cls-3{fill:none;stroke:#fff;stroke-linecap:round;stroke-linejoin:round;stroke-width:2px;}</style></defs><g id="Layer_2" data-name="Layer 2"><g id="Layer_1-2" data-name="Layer 1"><path class="cls-1" d="M44.59,88.17A43.59,43.59,0,1,1,88.18,44.59,43.63,43.63,0,0,1,44.59,88.17Z"/><path class="cls-2" d="M44.59,2A42.59,42.59,0,1,1,2,44.59,42.59,42.59,0,0,1,44.59,2m0-2A44.59,44.59,0,1,0,89.18,44.59,44.64,44.64,0,0,0,44.59,0Z"/><path class="cls-3" d="M57.62,59.5a19.66,19.66,0,0,0,0-27.79l-4.17-4.17L45.81,19.9a8.84,8.84,0,0,0-12.5,12.51,8.84,8.84,0,0,1,0,12.5l-3.48,3.47A13.75,13.75,0,0,0,49.28,67.83Z"/><path class="cls-3" d="M52.06,56.72a15.72,15.72,0,0,0,0-22.23L50,32.41c-2.78-2.78-6.25-2.09-7.64-.7-2.78,2.78,6.08,6.42-3.48,16L34,52.55A7.86,7.86,0,0,0,45.12,63.66Z"/><circle class="cls-3" cx="39.56" cy="26.16" r="1.96"/></g></g></svg>