<svg xmlns="http://www.w3.org/2000/svg" viewBox="0 0 89.18 89.18"><defs><style>.cls-1{fill:#beb0a3;}.cls-2{fill:#fff;}.cls-3{fill:none;stroke:#fff;stroke-linecap:round;stroke-linejoin:round;stroke-width:2px;}</style></defs><g id="Layer_2" data-name="Layer 2"><g id="Layer_1-2" data-name="Layer 1"><circle class="cls-1" cx="44.59" cy="44.59" r="43.59"/><path class="cls-2" d="M44.59,2A42.59,42.59,0,1,1,2,44.59,42.59,42.59,0,0,1,44.59,2m0-2A44.59,44.59,0,1,0,89.18,44.59,44.64,44.64,0,0,0,44.59,0Z"/><path class="cls-3" d="M29.27,68c-2.26-2.26-1.45-6-1.45-6s-3.77.78-6.1-1.55c-5.35-5.35,3-13.66,8.74-5.79l6.31-6.31,4.55,4.55L35,59.25C42.93,65,34.62,73.39,29.27,68Z"/><path class="cls-3" d="M42.94,54.57,35.36,47C31.3,42.92,49.16,9.05,65,24.88S46.48,58.1,42.94,54.57Z"/></g></g></svg>