<svg id="Layer_1" data-name="Layer 1" xmlns="http://www.w3.org/2000/svg" viewBox="0 0 50.5 50.4"><defs><style>.cls-1{fill:#8ed2cc;}.cls-2{fill:#fff;}</style></defs><title>timeline</title><circle class="cls-1" cx="24.7002" cy="24.7998" r="23"/><path class="cls-2" d="M24.7,2.3A22.5,22.5,0,1,1,2.2,24.8,22.5,22.5,0,0,1,24.7,2.3m0-1A23.5,23.5,0,1,0,48.2,24.8,23.52661,23.52661,0,0,0,24.7,1.3Z"/><path class="cls-2" d="M38.2002,38.01123h-27a.5.5,0,0,1,0-1h27a.5.5,0,1,1,0,1Z"/><path class="cls-2" d="M35.85254,38.01123H13.54785a.49971.49971,0,0,1-.5-.5V25.78076a.49971.49971,0,0,1,.5-.5H35.85254a.49971.49971,0,0,1,.5.5V37.51123A.49971.49971,0,0,1,35.85254,38.01123Zm-21.80469-1H35.35254V26.28076H14.04785Z"/><path class="cls-2" d="M38.2002,26.28076h-27a.5.5,0,0,1,0-1h27a.5.5,0,0,1,0,1Z"/><path class="cls-2" d="M27.63477,26.28271H21.76562a.49972.49972,0,0,1-.5-.5V23.43457a.49972.49972,0,0,1,.5-.5h5.86915a.49972.49972,0,0,1,.5.5v2.34814A.49972.49972,0,0,1,27.63477,26.28271Zm-5.36915-1h4.86915V23.93457H22.26562Z"/><path class="cls-2" d="M26.46094,38.01123H22.93945a.49972.49972,0,0,1-.5-.5V32.81592a.49972.49972,0,0,1,.5-.5h3.52149a.49972.49972,0,0,1,.5.5v4.69531A.49972.49972,0,0,1,26.46094,38.01123Zm-3.02149-1h2.52149V33.31592H23.43945Z"/><path class="cls-2" d="M20.59082,34.48975H17.06934a.5.5,0,1,1,0-1h3.52148a.5.5,0,0,1,0,1Z"/><path class="cls-2" d="M32.33008,34.48975H28.80859a.5.5,0,1,1,0-1h3.52149a.5.5,0,0,1,0,1Z"/><path class="cls-2" d="M22.93945,29.794H17.06934a.5.5,0,0,1,0-1h5.87011a.5.5,0,0,1,0,1Z"/><path class="cls-2" d="M32.33008,29.794H26.46094a.5.5,0,0,1,0-1h5.86914a.5.5,0,0,1,0,1Z"/><path class="cls-2" d="M24.7002,23.93457a.49971.49971,0,0,1-.5-.5V10.08691a.49937.49937,0,0,1,.63574-.48095l5.02734,1.42041a.49992.49992,0,0,1,.00977.95947L25.2002,13.40332V23.43457A.49972.49972,0,0,1,24.7002,23.93457Zm.5-13.187V12.3584l2.749-.834Z"/></svg>