<svg id="Layer_1" data-name="Layer 1" xmlns="http://www.w3.org/2000/svg" viewBox="0 0 50.5 50.4"><defs><style>.cls-1{fill:#6ba48a;}.cls-2{fill:#fff;}.cls-3{fill:#004a7c;}</style></defs><title>timeline</title><circle class="cls-1" cx="26" cy="24.6002" r="23"/><path class="cls-2" d="M25.99951,2.1a22.5,22.5,0,1,1-22.5,22.5,22.5,22.5,0,0,1,22.5-22.5m0-1a23.5,23.5,0,1,0,23.5,23.5,23.52661,23.52661,0,0,0-23.5-23.5Z"/><path class="cls-2" d="M16.97852,38.6001a.49972.49972,0,0,1-.5-.5c0-3.72559,4.90527-5.502,9.64843-7.22022,4.41993-1.60058,8.98926-3.25537,8.98926-6.27978s-4.56933-4.6792-8.98926-6.27979c-4.74316-1.71826-9.64843-3.49463-9.64843-7.22021a.5.5,0,0,1,1,0c0,3.02441,4.56933,4.6792,8.98925,6.27978,4.74317,1.71826,9.64844,3.49463,9.64844,7.22022s-4.90527,5.50195-9.64844,7.22021c-4.41992,1.60059-8.98925,3.25537-8.98925,6.27979A.49972.49972,0,0,1,16.97852,38.6001Z"/><path class="cls-2" d="M35.02051,38.6001a.49972.49972,0,0,1-.5-.5c0-3.02442-4.56934-4.6792-8.98926-6.27979-4.74316-1.71826-9.64844-3.49463-9.64844-7.22021s4.90528-5.502,9.64844-7.22022c4.41992-1.60058,8.98926-3.25537,8.98926-6.27978a.5.5,0,1,1,1,0c0,3.72558-4.90528,5.50195-9.64844,7.22021-4.41992,1.60059-8.98926,3.25537-8.98926,6.27979s4.56934,4.6792,8.98926,6.27978c4.74316,1.71826,9.64844,3.49463,9.64844,7.22022A.49972.49972,0,0,1,35.02051,38.6001Z"/><circle class="cls-3" cx="25.2002" cy="24.6001" r="23"/><path class="cls-2" d="M25.2,2.1A22.5,22.5,0,1,1,2.7,24.6,22.5,22.5,0,0,1,25.2,2.1m0-1A23.5,23.5,0,1,0,48.7,24.6,23.52661,23.52661,0,0,0,25.2,1.1Z"/><path class="cls-2" d="M22.03516,23.32715a.49974.49974,0,0,1-.35157-.14453l-5.37988-5.32569a.50041.50041,0,0,1-.00391-.70752L24.10938,9.269a.55293.55293,0,0,1,.36523-.14795l2.31152.04639,1.415-1.44385a.39656.39656,0,0,1,.35742-.1499.50019.50019,0,0,1,.35254.14551l2.90235,2.88623a.50048.50048,0,0,1-.00489.71435l-1.44726,1.39649.07226,2.32178a.50065.50065,0,0,1-.14941.37207l-7.89844,7.77343A.49849.49849,0,0,1,22.03516,23.32715Zm-4.67286-5.8291,4.67383,4.62646,7.39063-7.27392-.07227-2.32471a.502.502,0,0,1,.15235-.37549l1.23925-1.1958L28.56348,8.7832,27.34961,10.022a.55067.55067,0,0,1-.36719.14991L24.669,10.12549Z"/><path class="cls-2" d="M25.1416,37.03516a10.66545,10.66545,0,0,1-10.16406-7.37989.50014.50014,0,1,1,.95117-.30957A9.69033,9.69033,0,1,0,28.14355,17.13086a.50029.50029,0,0,1,.31055-.95117,10.69068,10.69068,0,0,1-3.3125,20.85547Z"/><path class="cls-2" d="M20.8125,29.94482h-9.749a.5.5,0,1,1,0-1h9.749a.5.5,0,0,1,0,1Z"/><path class="cls-2" d="M33.58594,39.62451H16.584a.5.5,0,1,1,0-1h17.002a.5.5,0,1,1,0,1Z"/><path class="cls-2" d="M17.7334,24.45605a.49838.49838,0,0,1-.35352-.14648l-2.26367-2.26269a.49984.49984,0,0,1,0-.707l2.668-2.667a.49982.49982,0,0,1,.707,0l2.26367,2.2627a.4998.4998,0,0,1,0,.707l-2.668,2.667A.49834.49834,0,0,1,17.7334,24.45605Zm-1.55664-2.76269L17.7334,23.249l1.96094-1.96L18.1377,19.7334Z"/></svg>