<svg id="Layer_1" data-name="Layer 1" xmlns="http://www.w3.org/2000/svg" viewBox="0 0 50.5 50.4"><defs><style>.cls-1{fill:#004a7c;}.cls-2{fill:#fff;}</style></defs><title>timeline</title><circle class="cls-1" cx="25.2002" cy="25.2002" r="23"/><path class="cls-2" d="M25.2,2.7A22.5,22.5,0,1,1,2.7,25.2,22.5,22.5,0,0,1,25.2,2.7m0-1A23.5,23.5,0,1,0,48.7,25.2,23.52662,23.52662,0,0,0,25.2,1.7Z"/><path class="cls-2" d="M24.92969,38.93018A13.74019,13.74019,0,1,1,38.583,26.644a.49976.49976,0,1,1-.99414-.10351,13.13026,13.13026,0,0,0,.07129-1.34082,12.7561,12.7561,0,1,0-10,12.4292.5.5,0,0,1,.21484.97656A13.78883,13.78883,0,0,1,24.92969,38.93018Z"/><path class="cls-2" d="M23.7793,34.90332c-1.00977,0-2.22559-2.7168-2.22559-3.376a2.46256,2.46256,0,0,1,.33984-1.08642,1.75645,1.75645,0,0,0,.23536-.63965A4.17971,4.17971,0,0,0,21.125,28.4292a.49963.49963,0,0,1-.14648-.35352,1.44908,1.44908,0,0,0-.28711-1.04785c-.3125-.29492-1.01563-.25586-1.75586-.21191-.29688.01709-.60254.03418-.90821.03418-1.76074,0-2.22558-1.832-2.22558-2.80078,0-.18116.03711-4.44385,3.27832-5.09229,1.45508-.292,2.48242-.20557,3.0459.25635a1.16717,1.16717,0,0,1,.38183.54443c.627.48828,1.7461.22852,2.73731-.00146.33886-.07862.667-.15479.96679-.19776a7.87373,7.87373,0,0,0-.00976-2.49121,2.18146,2.18146,0,0,1-1.9668.02832,1.98211,1.98211,0,0,1-.9541-1.62841c-.19824-2.13379,4.47754-3.21631,5.417-3.41211a.50451.50451,0,0,1,.59082.38769.49942.49942,0,0,1-.38769.59131c-1.99121.41553-4.70606,1.45947-4.624,2.34033a1.03821,1.03821,0,0,0,.44336.84717,1.246,1.246,0,0,0,1.13575-.09766.84234.84234,0,0,1,.89746.04151c.75586.54541.57324,2.69531.39746,3.92822a.5001.5001,0,0,1-.49512.4292,6.30642,6.30642,0,0,0-1.18555.20752c-1.23437.28808-2.7705.645-3.7705-.354a.49963.49963,0,0,1-.14649-.35351c-.02734-.07422-.50195-.44092-2.27832-.08545-2.43555.48779-2.47363,4.07617-2.47363,4.1123,0,.07178.02344,1.8003,1.22558,1.8003.28614,0,.57325-.0166.85059-.03272a3.22334,3.22334,0,0,1,2.5.4834,2.18159,2.18159,0,0,1,.5957,1.56641,3.74428,3.74428,0,0,1,1.15528,1.93408,2.453,2.453,0,0,1-.34082,1.08691,1.77171,1.77171,0,0,0-.23438.63916A5.79615,5.79615,0,0,0,23.8623,33.918a8.14948,8.14948,0,0,0,.915-.10156.5.5,0,1,1,.19141.98144A6.18573,6.18573,0,0,1,23.7793,34.90332Z"/><path class="cls-2" d="M29.6582,24.80713a1.4423,1.4423,0,0,1-1.05468-.4043.50228.50228,0,0,1-.13184-.23193,5.9808,5.9808,0,0,0-.76367-1.93311.66681.66681,0,0,1-.43848-.3081.60062.60062,0,0,1,.11621-.65967,5.27848,5.27848,0,0,1,4.376-1.2002c1.91992-1.08691,2.45019-3.84179,2.45508-3.87011a.50036.50036,0,0,1,.98437.18017c-.02539.13867-.64941,3.417-3.14453,4.66553a.50474.50474,0,0,1-.34473.0376,4.50523,4.50523,0,0,0-3.21093.56006,5.75257,5.75257,0,0,1,.89746,2.11328A1.5781,1.5781,0,0,0,30.459,23.602a.50006.50006,0,0,1,.44727.89453A3.06318,3.06318,0,0,1,29.6582,24.80713Zm-1.85254-2.55859h0Z"/><path class="cls-2" d="M33.35156,38.582A5.84863,5.84863,0,1,1,39.2002,32.7334,5.85537,5.85537,0,0,1,33.35156,38.582Zm0-10.69726A4.84863,4.84863,0,1,0,38.2002,32.7334,4.85407,4.85407,0,0,0,33.35156,27.88477Z"/><path class="cls-2" d="M33.35156,35.90771a.49972.49972,0,0,1-.5-.5V30.05908a.5.5,0,0,1,1,0v5.34863A.49971.49971,0,0,1,33.35156,35.90771Z"/><path class="cls-2" d="M36.02539,33.2334H30.67676a.5.5,0,0,1,0-1h5.34863a.5.5,0,0,1,0,1Z"/></svg>