<svg id="Layer_1" data-name="Layer 1" xmlns="http://www.w3.org/2000/svg" viewBox="0 0 50.5 50.4"><defs><style>.cls-1{fill:#8ed2cc;}.cls-2{fill:#fff;}</style></defs><title>timeline</title><circle class="cls-1" cx="25.2002" cy="25.2002" r="23"/><path class="cls-2" d="M25.2,2.7A22.5,22.5,0,1,1,2.7,25.2,22.5,22.5,0,0,1,25.2,2.7m0-1A23.5,23.5,0,1,0,48.7,25.2,23.52662,23.52662,0,0,0,25.2,1.7Z"/><path class="cls-2" d="M28.51491,15.1802h-1.66v1.68232h1.66c4.75615,0,7.71068,2.6363,7.71068,6.88018v.06336c0,3.38739-2.15062,7.007-8.18641,7.007H23.46329v6.70028h-3.23V23.48411H18.551V39.19568h6.59464V32.49539h2.89357c5.99506,0,9.86873-3.41074,9.86873-8.68933V23.7427C37.90791,18.62125,34.13318,15.1802,28.51491,15.1802Z"/><path class="cls-2" d="M32.93222,23.90319V23.8378c0-2.60492-1.85059-4.223-4.82968-4.223H23.46329v8.50956h4.73447C30.98533,28.12432,32.93222,26.38858,32.93222,23.90319Zm-7.78661-2.60611h2.95693c1.43582,0,3.14737.44076,3.14737,2.54072v.06539c0,1.54231-1.19808,2.53881-3.05215,2.53881H25.14561Z"/><polygon class="cls-2" points="25.018 15.18 20.233 15.18 20.233 10.396 18.551 10.396 18.551 15.18 13.766 15.18 13.766 16.863 18.551 16.863 18.551 21.647 20.233 21.647 20.233 16.863 25.018 16.863 25.018 15.18"/></svg>