<svg id="Layer_1" data-name="Layer 1" xmlns="http://www.w3.org/2000/svg" viewBox="0 0 50.5 50.4"><defs><style>.cls-1{fill:#ed5338;}.cls-2{fill:#fff;}</style></defs><title>timeline</title><circle class="cls-1" cx="25.7002" cy="25.1998" r="23"/><path class="cls-2" d="M25.7,2.7A22.5,22.5,0,1,1,3.2,25.2,22.5,22.5,0,0,1,25.7,2.7m0-1A23.5,23.5,0,1,0,49.2,25.2,23.52662,23.52662,0,0,0,25.7,1.7Z"/><path class="cls-2" d="M25.85449,36.91562a1.89014,1.89014,0,1,1,1.88965-1.8916A1.89194,1.89194,0,0,1,25.85449,36.91562Zm0-2.70458a.81445.81445,0,1,0,.81446.813A.81458.81458,0,0,0,25.85449,34.211Z"/><path class="cls-1" d="M25.8548,33.16032A1.86522,1.86522,0,1,1,23.99,35.02388a1.86626,1.86626,0,0,1,1.86478-1.86356m0,2.70492a.83971.83971,0,1,0-.83924-.84136.84126.84126,0,0,0,.83924.84136m0-2.75492a1.91521,1.91521,0,1,0,1.91479,1.91356,1.916,1.916,0,0,0-1.91479-1.91356Zm0,2.70493a.78972.78972,0,1,1,.78921-.79137.79114.79114,0,0,1-.78921.79137Z"/><path class="cls-2" d="M29.21387,34.55967a.55083.55083,0,0,1-.54883-.54785V29.19687l-5.59473-.0249-.02539,4.83985a.54429.54429,0,0,1-.375.51855.5283.5283,0,0,1-.17383.0293.54492.54492,0,0,1-.43652-.22217l-6.24512-8.43018a.54508.54508,0,0,1,.31348-.85742l7.17969-1.6875.01953-5.23388a5.34,5.34,0,0,1-.52246-.501l-10.99414-.0083.01855-1.11817,10.22656.02491A4.844,4.844,0,0,1,21.749,14.8751a4.11547,4.11547,0,0,1,.25782-1.438l-8.23047-.03369.01855-.50391-.00683-.61474,8.84472.02539A4.13216,4.13216,0,0,1,29.999,14.8751a4.10328,4.10328,0,0,1-1.57031,3.23535L28.419,23.357l7.16308,1.6919a.54719.54719,0,0,1,.31445.85839L29.65039,34.3375a.5463.5463,0,0,1-.43652.22217ZM17.22363,25.91416l4.68262,6.38135.0459-3.67041a.54692.54692,0,0,1,.5459-.54639h6.71386a.54691.54691,0,0,1,.5459.54639v3.65576L34.501,25.9542l-8.6709-2.05908Zm8.60059-3.12842a.533.533,0,0,1,.124.01416l1.34766.31446.03125-4.34375a5.21351,5.21351,0,0,1-1.45313.22119,4.151,4.151,0,0,1-1.41992-.24463L24.41992,23.069l1.2793-.26807A.52073.52073,0,0,1,25.82422,22.78574Zm.0498-10.94287A3.03579,3.03579,0,0,0,22.8418,14.8751a2.993,2.993,0,0,0,.62109,1.83545A3.03173,3.03173,0,1,0,25.874,11.84287Z"/><path class="cls-1" d="M25.874,10.775a4.09749,4.09749,0,0,1,2.53977,7.31558l-.019.015v5.2909l.03861.009L35.57608,25.073a.52265.52265,0,0,1,.30069.81905l-6.246,8.43049a.52246.52246,0,0,1-.41706.21211.50851.50851,0,0,1-.16565-.02782.51962.51962,0,0,1-.35791-.49485V29.1467H23.02V34.012a.51989.51989,0,0,1-.35861.495.50774.50774,0,0,1-.16516.02762.52123.52123,0,0,1-.417-.21209l-6.24542-8.43042a.521.521,0,0,1,.3-.81795L23.3136,23.3865l.03854-.00906v-5.273l-.019-.015a4.1483,4.1483,0,0,1-.51013-.47871l-.01489-.01653H11.86038q-.00243-.51337-.00607-1.04289H22.13159l-.02981-.06966a4.10084,4.10084,0,0,1-.07117-3.03569l.02512-.06745H13.8255l-.01175-1.04309h8.8432l.015-.01875A4.08323,4.08323,0,0,1,25.874,10.775m0,7.1559A3.05647,3.05647,0,1,0,22.8168,14.875a3.0259,3.0259,0,0,0,.62836,1.85389.59607.59607,0,0,1,.03943.05028A3.04543,3.04543,0,0,0,25.874,17.9309m-.00049,1.03566a4.12808,4.12808,0,0,1-1.41107-.243l-.06726-.02477v4.43319l.0614-.01439,1.24793-.29245a.5294.5294,0,0,1,.11929-.01423.52241.52241,0,0,1,.11868.01319l1.3479.3147.06138.01433V18.69875l-.0673.02477a4.12718,4.12718,0,0,1-1.41095.243m-3.8966,13.46566v-3.807a.52208.52208,0,0,1,.52151-.52148h6.7132a.52208.52208,0,0,1,.52151.52148v3.807l.09018-.12174,4.69724-6.341.04529-.06115-.07413-.0173-8.656-2.02031-.01138-.00266-.01141.00268-8.59519,2.01922-.074.01737.04525.06106,4.69779,6.34214.09018.12174M25.874,10.725a4.14367,4.14367,0,0,0-3.241,1.56038H13.76318c.0044.37256.0087.75518.01288,1.14309h8.2077a4.15085,4.15085,0,0,0,.07206,3.0728H11.804q.00407.58128.00665,1.14289H22.78586a4.19249,4.19249,0,0,0,.51629.48449v5.20918l-7.17977,1.68769a.571.571,0,0,0-.3288.8963l6.24548,8.4305a.56944.56944,0,0,0,.45719.23233.55838.55838,0,0,0,.18136-.03032A.57058.57058,0,0,0,23.07,34.012V29.1967h5.57013V34.012a.57043.57043,0,0,0,.39233.54235.55768.55768,0,0,0,.18124.03032.57032.57032,0,0,0,.45722-.23233l6.24606-8.4305a.57265.57265,0,0,0-.32928-.89746l-7.14295-1.66753v-5.227A4.1475,4.1475,0,0,0,25.874,10.725Zm0,7.1559a3.004,3.004,0,0,1-2.35031-1.133.60811.60811,0,0,0-.04126-.05245A3.00694,3.00694,0,1,1,25.874,17.8809Zm-.00049,1.13566a4.16314,4.16314,0,0,0,1.42823-.24612v4.31963l-1.3479-.3147a.57.57,0,0,0-.13-.0145.57609.57609,0,0,0-.13061.01553l-1.248.29247V18.77044a4.164,4.164,0,0,0,1.42834.24612ZM21.92688,32.28072l-4.69782-6.34214,8.59522-2.01922,8.656,2.02031-4.69724,6.34105v-3.6555a.57113.57113,0,0,0-.5715-.57148h-6.7132a.57114.57114,0,0,0-.5715.57148v3.6555Z"/><path class="cls-2" d="M25.87286,14.17328a.70227.70227,0,1,1-.70236.70172.7034.7034,0,0,1,.70236-.70172m0-.65A1.35226,1.35226,0,1,0,27.22632,14.875a1.3534,1.3534,0,0,0-1.35346-1.35171Z"/><path class="cls-2" d="M25.85449,42.33018a1.89039,1.89039,0,1,1,1.88965-1.89112A1.89185,1.89185,0,0,1,25.85449,42.33018Zm0-2.70508a.8147.8147,0,1,0,.81446.814A.8151.8151,0,0,0,25.85449,39.6251Z"/><path class="cls-1" d="M25.8548,38.57458A1.86521,1.86521,0,1,1,23.99,40.43924a1.86681,1.86681,0,0,1,1.86478-1.86466m0,2.70492a.83971.83971,0,1,0-.83924-.84026.84071.84071,0,0,0,.83924.84026m0-2.75492a1.91521,1.91521,0,1,0,1.91479,1.91466,1.91624,1.91624,0,0,0-1.91479-1.91466Zm0,2.70492a.78971.78971,0,1,1,.78921-.79026.7909.7909,0,0,1-.78921.79026Z"/></svg>