<svg id="Layer_1" data-name="Layer 1" xmlns="http://www.w3.org/2000/svg" viewBox="0 0 50.5 50.4"><defs><style>.cls-1{fill:#5eaee0;}.cls-2{fill:#fff;}</style></defs><title>timeline</title><circle class="cls-1" cx="25.2002" cy="25.2002" r="23"/><path class="cls-2" d="M25.2,2.7A22.5,22.5,0,1,1,2.7,25.2,22.5,22.5,0,0,1,25.2,2.7m0-1A23.5,23.5,0,1,0,48.7,25.2,23.52662,23.52662,0,0,0,25.2,1.7Z"/><path class="cls-2" d="M25.2002,32.98438h-13.5a.49972.49972,0,0,1-.5-.5V13.70166a.49971.49971,0,0,1,.5-.5h27a.49972.49972,0,0,1,.5.5v9.978a.5.5,0,0,1-1,0v-9.478h-26V31.98438h13a.5.5,0,0,1,0,1Z"/><path class="cls-2" d="M36.35254,41.20166a.50254.50254,0,0,1-.32031-.11572l-3.20215-2.66846-3.20117,2.66846a.5004.5004,0,0,1-.82032-.38428V33.07129a.5.5,0,0,1,1,0v6.5625l2.70118-2.25147a.50117.50117,0,0,1,.64062,0l2.70215,2.252v-6.563a.5.5,0,0,1,1,0v7.63037a.50064.50064,0,0,1-.5.5Z"/><path class="cls-2" d="M32.83008,31.81006a2.26075,2.26075,0,1,1,2.26074-2.26074A2.2636,2.2636,0,0,1,32.83008,31.81006Zm0-3.52149a1.26075,1.26075,0,1,0,1.26074,1.26075A1.262,1.262,0,0,0,32.83008,28.28857Z"/><path class="cls-2" d="M32.83008,35.332a2.82267,2.82267,0,0,1-2.48731-1.47168,2.83924,2.83924,0,0,1-2.48925-4.31055,2.82425,2.82425,0,0,1-.03125-2.8916,2.88881,2.88881,0,0,1,2.51953-1.41845,2.83955,2.83955,0,0,1,4.97754-.00147,2.78671,2.78671,0,0,1,2.51855,1.41992,2.82123,2.82123,0,0,1-.03027,2.89112,2.83929,2.83929,0,0,1-2.48731,4.31006A2.82622,2.82622,0,0,1,32.83008,35.332Zm-2.18262-2.499a.49923.49923,0,0,1,.46582.31885,1.84038,1.84038,0,0,0,3.43652-.002.50251.50251,0,0,1,.542-.3125,1.83938,1.83938,0,0,0,1.71679-2.97461.49887.49887,0,0,1,0-.62646,1.84029,1.84029,0,0,0-1.71777-2.97608.5.5,0,0,1-.542-.313,1.84025,1.84025,0,0,0-3.43653.00146.49919.49919,0,0,1-.542.313,1.83893,1.83893,0,0,0-1.71777,2.97412.49887.49887,0,0,1,0,.62646,1.84066,1.84066,0,0,0,1.71875,2.97657A.50946.50946,0,0,1,30.64746,32.833Z"/><path class="cls-2" d="M25.2002,30.63623H17.56934a.49971.49971,0,0,1-.5-.5,3.025,3.025,0,0,0-3.02149-3.02148.49972.49972,0,0,1-.5-.5V19.57129a.49971.49971,0,0,1,.5-.5,3.02506,3.02506,0,0,0,3.02149-3.022.49971.49971,0,0,1,.5-.5H32.83008a.49971.49971,0,0,1,.5.5,3.02527,3.02527,0,0,0,3.02246,3.022.49971.49971,0,0,1,.5.5v2.93457a.5.5,0,0,1-1,0V20.04053a4.03022,4.03022,0,0,1-3.49121-3.49121H18.03809a4.03021,4.03021,0,0,1-3.49024,3.49121v6.105a4.03017,4.03017,0,0,1,3.49024,3.49072H25.2002a.5.5,0,0,1,0,1Z"/></svg>