<svg id="Layer_1" data-name="Layer 1" xmlns="http://www.w3.org/2000/svg" viewBox="0 0 50.5 50.4"><defs><style>.cls-1{fill:#ed5338;}.cls-2{fill:#fff;}</style></defs><title>timeline</title><circle class="cls-1" cx="25.2002" cy="25.2002" r="23"/><path class="cls-2" d="M25.2,2.7A22.5,22.5,0,1,1,2.7,25.2,22.5,22.5,0,0,1,25.2,2.7m0-1A23.5,23.5,0,1,0,48.7,25.2,23.52662,23.52662,0,0,0,25.2,1.7Z"/><path class="cls-2" d="M37.334,29.26562a.50025.50025,0,0,1-.38769-.81591L39.5,25.31494l-2.55957-3.25732a.50042.50042,0,0,1,.78711-.61817l2.80664,3.57227a.50071.50071,0,0,1-.00586.625l-2.80664,3.44482A.4997.4997,0,0,1,37.334,29.26562Z"/><path class="cls-2" d="M40.14062,25.75684h-5.458a.5.5,0,0,1,0-1h5.458a.5.5,0,0,1,0,1Z"/><path class="cls-2" d="M13.06641,29.26562a.49972.49972,0,0,1-.3877-.18408L9.87207,25.63672a.50071.50071,0,0,1-.00586-.625l2.80664-3.57227a.50042.50042,0,0,1,.78711.61817l-2.55957,3.25732,2.55371,3.13477a.50025.50025,0,0,1-.38769.81591Z"/><path class="cls-2" d="M15.71777,25.75684h-5.458a.5.5,0,0,1,0-1h5.458a.5.5,0,1,1,0,1Z"/><path class="cls-2" d="M21.62793,13.53857a.49959.49959,0,0,1-.30859-.89306L24.8916,9.83887a.498.498,0,0,1,.624.00537L28.96,12.65088a.4998.4998,0,1,1-.63086.77539l-3.13476-2.5542-3.25782,2.55957A.494.494,0,0,1,21.62793,13.53857Z"/><path class="cls-2" d="M25.2002,16.20215a.49971.49971,0,0,1-.5-.5V10.23193a.5.5,0,0,1,1,0v5.47022A.49972.49972,0,0,1,25.2002,16.20215Z"/><path class="cls-2" d="M25.2002,40.668a.49792.49792,0,0,1-.3086-.10693l-3.57226-2.80665a.49973.49973,0,1,1,.61718-.78613l3.25782,2.55957,3.13476-2.5542A.4998.4998,0,1,1,28.96,37.749l-3.44434,2.80664A.49807.49807,0,0,1,25.2002,40.668Z"/><path class="cls-2" d="M25.2002,40.668a.49971.49971,0,0,1-.5-.5v-5.4707a.5.5,0,0,1,1,0V40.168A.49972.49972,0,0,1,25.2002,40.668Z"/><path class="cls-2" d="M25.13281,29.63672a.49972.49972,0,0,1-.5-.5V28.167a.5.5,0,0,1,1,0v.96973A.49971.49971,0,0,1,25.13281,29.63672Z"/><path class="cls-2" d="M25.13281,22.84717a.49972.49972,0,0,1-.5-.5v-.96973a.5.5,0,0,1,1,0v.96973A.49971.49971,0,0,1,25.13281,22.84717Z"/><path class="cls-2" d="M25.13281,28.667a1.95718,1.95718,0,0,1-1.95508-1.95508.5.5,0,0,1,1,0,.95508.95508,0,1,0,.95508-.95459,1.95508,1.95508,0,1,1,1.95508-1.95507.5.5,0,0,1-1,0,.95508.95508,0,1,0-.95508.95507,1.95484,1.95484,0,1,1,0,3.90967Z"/><path class="cls-2" d="M25.13672,32.29785a7.04077,7.04077,0,1,1,7.04-7.04053A7.0484,7.0484,0,0,1,25.13672,32.29785Zm0-13.08154a6.04077,6.04077,0,1,0,6.04,6.041A6.04782,6.04782,0,0,0,25.13672,19.21631Z"/></svg>