<?xml version="1.0" encoding="UTF-8" standalone="no"?>
<!DOCTYPE svg PUBLIC "-//W3C//DTD SVG 1.1//EN" "http://www.w3.org/Graphics/SVG/1.1/DTD/svg11.dtd">
<svg width="100%" height="100%" viewBox="0 0 128 100" version="1.1" xmlns="http://www.w3.org/2000/svg" xmlns:xlink="http://www.w3.org/1999/xlink" xml:space="preserve" xmlns:serif="http://www.serif.com/" style="fill-rule:evenodd;clip-rule:evenodd;stroke-linejoin:round;stroke-miterlimit:2;">
    <g transform="matrix(4.16667,0,0,4.16667,-563.841,-443.75)">
        <g transform="matrix(0.0714789,0,0,0.0714789,136.874,107.807)">
            <path d="M78.085,219.83C73.432,226.391 68.917,233.182 64.542,240.213C68.215,241.984 72.012,243.682 75.928,245.293C81.143,236.369 86.545,227.893 92.143,219.83L78.085,219.83Z" style="fill:rgb(99,102,106);fill-rule:nonzero;"/>
        </g>
        <g transform="matrix(0.0714789,0,0,0.0714789,136.874,107.807)">
            <path d="M114.35,176.164L114.35,191.238C117.581,187.531 120.874,183.936 124.229,180.451L124.229,166.395C120.883,169.566 117.594,172.83 114.35,176.164Z" style="fill:rgb(99,102,106);fill-rule:nonzero;"/>
        </g>
        <g transform="matrix(0.0714789,0,0,0.0714789,136.874,107.807)">
            <path d="M182.914,107.675L182.914,108.408C213.075,91.85 247.187,80.273 286.073,72.766C276.354,69.512 266.054,66.736 255.288,64.484C222.535,75.279 192.392,89.518 164.899,107.675L182.914,107.675Z" style="fill:rgb(99,102,106);fill-rule:nonzero;"/>
        </g>
        <g transform="matrix(0.0714789,0,0,0.0714789,136.874,107.807)">
            <path d="M182.914,121.739L182.914,134.039C186.16,132.128 189.448,130.272 192.789,128.483L192.789,115.998C189.462,117.86 186.171,119.775 182.914,121.739Z" style="fill:rgb(99,102,106);fill-rule:nonzero;"/>
        </g>
        <g transform="matrix(0.0714789,0,0,0.0714789,136.874,107.807)">
            <path d="M241.475,107.675C266.49,99.321 293.797,93.316 323.717,89.324C315.207,84.488 305.854,80.107 295.787,76.253C264.583,83.932 235.501,94.293 208.561,107.675L241.475,107.675Z" style="fill:rgb(99,102,106);fill-rule:nonzero;"/>
        </g>
        <g transform="matrix(0.0714789,0,0,0.0714789,136.874,107.807)">
            <path d="M328.498,92.14C307.568,96.204 287.524,101.353 268.369,107.675L319.515,107.675L319.515,219.83L260.829,219.83L260.829,110.243C257.685,111.346 254.572,112.495 251.477,113.664L251.477,219.83L192.789,219.83L192.789,141.678C189.46,143.647 186.171,145.675 182.914,147.751L182.914,219.83L124.229,219.83L124.229,195.002C120.879,198.371 117.593,201.844 114.35,205.385L114.35,219.83L101.79,219.83C94.629,228.535 87.755,237.707 81.171,247.369C111.632,259.037 148.615,265.881 188.5,265.881C292.605,265.881 377,219.291 377,161.818C377,135.019 358.643,110.586 328.498,92.14Z" style="fill:rgb(99,102,106);fill-rule:nonzero;"/>
        </g>
        <g transform="matrix(0.0714789,0,0,0.0714789,136.874,107.807)">
            <path d="M93.921,219.904L93.921,137.503C93.921,134.599 93.446,132.533 92.489,131.292C91.532,130.06 89.882,129.44 87.548,129.44C85.955,129.44 84.362,129.923 82.768,130.888C81.171,131.859 79.948,133.419 79.1,135.568L79.1,219.904L68.102,219.904L68.102,120.087L77.347,120.087C77.664,122.56 77.825,125.085 77.825,127.666C79.311,124.873 81.276,122.64 83.725,120.974C86.166,119.308 88.927,118.474 92.011,118.474C96.475,118.474 99.741,119.925 101.817,122.829C103.889,125.732 104.926,130.408 104.926,136.857L104.926,219.904L93.921,219.904Z" style="fill:rgb(99,102,106);fill-rule:nonzero;"/>
        </g>
        <g transform="matrix(0.0714789,0,0,0.0714789,136.874,107.807)">
            <path d="M229.775,190.172C229.775,188.049 229.482,186.213 228.9,184.674C228.313,183.135 227.012,181.141 224.994,178.695C222.762,176.041 220.266,173.514 217.504,171.125C214.74,168.732 212.348,166.318 210.33,163.871C208.203,161.535 206.824,159.195 206.189,156.857C205.549,154.521 205.229,151.439 205.229,147.613L205.229,137.41C205.229,130.611 206.715,125.749 209.691,122.826C212.666,119.904 217.025,118.443 222.762,118.443C229.457,118.443 234.051,119.93 236.551,122.904C239.048,125.88 240.559,130.714 240.559,137.41L240.559,153.51L230.254,153.51L230.254,137.41C230.254,134.966 229.564,133.027 228.182,131.593C226.801,130.158 225.1,129.441 223.08,129.441C218.299,129.441 215.91,132.097 215.91,137.41L215.91,149.046C215.91,151.385 216.201,153.219 216.787,154.547C217.365,155.875 218.564,157.494 220.375,159.406C222.498,161.746 224.887,163.979 227.548,166.102C230.199,168.23 232.541,170.461 234.561,172.797C237.004,175.666 238.648,178.455 239.5,181.166C240.348,183.875 240.773,187.357 240.773,191.607L240.773,202.285C240.773,208.662 239.262,213.234 236.232,215.996C233.205,218.758 228.605,220.139 222.445,220.139C210.967,220.139 205.229,214.029 205.229,201.809L205.229,185.709L215.111,185.709L215.111,201.49C215.111,203.936 215.83,205.873 217.264,207.309C218.697,208.742 220.477,209.461 222.604,209.461C227.387,209.461 229.775,206.805 229.775,201.49L229.775,190.172Z" style="fill:rgb(99,102,106);fill-rule:nonzero;"/>
        </g>
        <g transform="matrix(0.0714789,0,0,0.0714789,136.874,107.807)">
            <path d="M298.467,178.182L308.668,178.182L308.668,200.18C308.668,206.236 307.258,211.045 304.445,214.605C301.627,218.166 297.191,219.945 291.133,219.945C285.08,219.945 280.561,218.111 277.584,214.445C274.609,210.779 273.121,205.918 273.121,199.859L273.121,138.65C273.121,132.593 274.609,127.679 277.584,123.906C280.561,120.135 285.08,118.248 291.133,118.248C297.191,118.248 301.578,120.109 304.289,123.826C306.996,127.546 308.74,132.432 308.74,138.492L308.74,159.852L298.467,159.852L298.467,138.332C298.467,132.49 296.021,129.565 291.133,129.565C288.688,129.565 286.855,130.361 285.635,131.955C284.414,133.55 283.803,135.728 283.803,138.492L283.803,199.859C283.803,205.814 286.246,208.787 291.133,208.787C296.021,208.787 298.467,205.865 298.467,200.02L298.467,178.182Z" style="fill:rgb(99,102,106);fill-rule:nonzero;"/>
        </g>
        <g transform="matrix(0.0714789,0,0,0.0714789,136.874,107.807)">
            <path d="M161.697,203.145C161.167,205.377 160.238,206.971 158.91,207.928C157.58,208.883 156.121,209.363 154.525,209.363C149.529,209.363 147.033,206.652 147.033,201.232L147.033,190.713C147.033,187.738 147.195,185.107 147.513,182.822C147.83,180.537 148.494,178.518 149.505,176.766C150.513,175.012 152.005,173.445 153.968,172.063C155.931,170.682 158.511,169.406 161.697,168.236L161.697,203.145ZM154.845,118.343C148.787,118.343 144.404,119.964 141.691,123.207C138.984,126.449 137.63,131.31 137.63,137.791L137.63,158.672L147.354,158.672L147.354,137.951C147.354,135.188 147.83,133.065 148.787,131.574C149.746,130.087 151.656,129.343 154.525,129.343C157.287,129.343 159.175,130.087 160.183,131.574C161.193,133.065 161.697,135.188 161.697,137.951L161.697,159.469C158.193,160.959 154.896,162.473 151.816,164.014C148.732,165.555 146.052,167.439 143.767,169.672C141.48,171.902 139.675,174.641 138.347,177.881C137.015,181.123 136.355,185.133 136.355,189.916L136.355,204.42C136.355,209.947 137.601,213.932 140.099,216.375C142.595,218.818 146.078,220.043 150.544,220.043C155.746,220.043 159.679,217.598 162.339,212.709C162.339,215.26 162.548,217.227 163.167,219.873L172.061,219.873L172.061,134.419C171.096,123.717 165.367,118.343 154.845,118.343Z" style="fill:rgb(99,102,106);fill-rule:nonzero;"/>
        </g>
        <g transform="matrix(0.0714789,0,0,0.0714789,136.874,107.807)">
            <path d="M7.533,248.408L15.737,232.326C14.518,233.666 13.331,234.959 12.168,236.203C11.006,237.451 9.807,238.734 8.573,240.059L3.924,245.041L2.234,243.467L18.446,226.086L20.776,228.258L12.122,244C13.221,242.787 14.305,241.609 15.377,240.461C16.447,239.314 17.54,238.141 18.656,236.945L23.973,231.242L25.689,232.842L9.477,250.223L7.533,248.408Z" style="fill:rgb(99,102,106);fill-rule:nonzero;"/>
        </g>
        <g transform="matrix(0.0714789,0,0,0.0714789,136.874,107.807)">
            <path d="M21.466,251.795C22.427,249.969 23.376,248.162 24.308,246.377C25.241,244.59 26.215,242.768 27.231,240.91C25.745,242.422 24.286,243.891 22.856,245.311C21.423,246.732 19.971,248.168 18.502,249.621L21.466,251.795ZM18.677,257.197L20.526,253.611L17.053,251.066L14.188,253.908L12.099,252.377L29.339,235.545L31.852,237.387L20.823,258.77L18.677,257.197Z" style="fill:rgb(99,102,106);fill-rule:nonzero;"/>
        </g>
        <g transform="matrix(0.0714789,0,0,0.0714789,136.874,107.807)">
            <path d="M24.746,261.223L36.143,242.941L33.412,241.238L34.586,239.352L42.279,244.146L41.102,246.033L38.37,244.33L26.973,262.611L24.746,261.223Z" style="fill:rgb(99,102,106);fill-rule:nonzero;"/>
        </g>
        <g transform="matrix(0.0714789,0,0,0.0714789,136.874,107.807)">
            <path d="M32.771,266.014L44.278,245.217L46.605,246.506L35.097,267.301L32.771,266.014Z" style="fill:rgb(99,102,106);fill-rule:nonzero;"/>
        </g>
        <g transform="matrix(0.0714789,0,0,0.0714789,136.874,107.807)">
            <path d="M53.356,254.201C53.89,253.111 53.592,252.289 52.461,251.734C51.35,251.188 50.528,251.461 49.993,252.549L42.849,267.09C42.297,268.213 42.575,269.047 43.686,269.592C44.817,270.148 45.658,269.863 46.211,268.74L53.356,254.201ZM47.607,251.375C48.795,248.957 50.74,248.41 53.442,249.738C56.165,251.076 56.931,252.955 55.742,255.373L48.598,269.914C47.409,272.334 45.454,272.873 42.73,271.535C40.029,270.209 39.272,268.336 40.461,265.916L47.607,251.375Z" style="fill:rgb(99,102,106);fill-rule:nonzero;"/>
        </g>
        <g transform="matrix(0.0714789,0,0,0.0714789,136.874,107.807)">
            <path d="M57.303,277.824L59.485,259.902C58.8,261.579 58.127,263.201 57.463,264.77C56.801,266.34 56.116,267.957 55.411,269.625L52.757,275.902L50.629,275.002L59.884,253.111L62.819,254.352L60.099,272.107C60.715,270.592 61.329,269.111 61.94,267.666C62.55,266.221 63.175,264.744 63.812,263.236L66.847,256.055L69.008,256.969L59.753,278.859L57.303,277.824Z" style="fill:rgb(99,102,106);fill-rule:nonzero;"/>
        </g>
        <g transform="matrix(0.0714789,0,0,0.0714789,136.874,107.807)">
            <path d="M71.746,276.934C72.161,274.912 72.565,272.914 72.963,270.938C73.36,268.963 73.788,266.939 74.242,264.873C73.239,266.74 72.249,268.557 71.268,270.32C70.292,272.086 69.299,273.869 68.293,275.676L71.746,276.934ZM70.577,282.9L71.35,278.941L67.305,277.467L65.35,280.994L62.916,280.109L74.768,259.133L77.697,260.199L73.077,283.813L70.577,282.9Z" style="fill:rgb(99,102,106);fill-rule:nonzero;"/>
        </g>
        <g transform="matrix(0.0714789,0,0,0.0714789,136.874,107.807)">
            <path d="M76.421,284.908L83.645,262.266L86.177,263.074L79.614,283.654L84.516,285.217L83.858,287.281L76.421,284.908Z" style="fill:rgb(99,102,106);fill-rule:nonzero;"/>
        </g>
        <g transform="matrix(0.0714789,0,0,0.0714789,136.874,107.807)">
            <path d="M101.009,285.779C101.224,283.729 101.432,281.699 101.636,279.693C101.839,277.689 102.067,275.635 102.317,273.533C101.501,275.49 100.692,277.395 99.889,279.244C99.087,281.096 98.276,282.969 97.45,284.863L101.009,285.779ZM100.427,291.832L100.811,287.816L96.64,286.742L95.036,290.445L92.528,289.801L102.282,267.77L105.3,268.545L103.002,292.496L100.427,291.832Z" style="fill:rgb(99,102,106);fill-rule:nonzero;"/>
        </g>
        <g transform="matrix(0.0714789,0,0,0.0714789,136.874,107.807)">
            <path d="M113.454,294.814L112.267,276.801C111.905,278.574 111.546,280.293 111.185,281.959C110.825,283.623 110.453,285.342 110.071,287.109L108.63,293.771L106.373,293.283L111.396,270.053L114.511,270.727L115.14,288.68C115.461,287.074 115.789,285.506 116.121,283.973C116.453,282.439 116.792,280.873 117.138,279.273L118.786,271.65L121.079,272.148L116.054,295.377L113.454,294.814Z" style="fill:rgb(99,102,106);fill-rule:nonzero;"/>
        </g>
        <g transform="matrix(0.0714789,0,0,0.0714789,136.874,107.807)">
            <path d="M120.32,296.182L124.673,272.816L127.286,273.303L122.936,296.668L120.32,296.182Z" style="fill:rgb(99,102,106);fill-rule:nonzero;"/>
        </g>
        <g transform="matrix(0.0714789,0,0,0.0714789,136.874,107.807)">
            <path d="M137.944,299.113L139.025,292.006C139.289,290.273 139.552,288.58 139.816,286.924C140.08,285.271 140.355,283.58 140.642,281.852L134.933,298.656L132.615,298.305L132.199,280.566C131.958,282.303 131.718,283.998 131.476,285.656C131.236,287.314 130.983,289.01 130.72,290.742L129.64,297.85L127.216,297.48L130.794,273.984L134.322,274.521L134.538,293.338L140.343,275.438L143.976,275.992L140.399,299.488L137.944,299.113Z" style="fill:rgb(99,102,106);fill-rule:nonzero;"/>
        </g>
        <g transform="matrix(0.0714789,0,0,0.0714789,136.874,107.807)">
            <path d="M151.591,294.725C151.513,292.664 151.433,290.625 151.35,288.611C151.268,286.598 151.202,284.533 151.155,282.416C150.622,284.469 150.091,286.469 149.56,288.414C149.028,290.359 148.487,292.328 147.938,294.322L151.591,294.725ZM151.87,300.799L151.682,296.77L147.403,296.297L146.339,300.189L143.765,299.904L150.305,276.715L153.401,277.057L154.514,301.092L151.87,300.799Z" style="fill:rgb(99,102,106);fill-rule:nonzero;"/>
        </g>
        <g transform="matrix(0.0714789,0,0,0.0714789,136.874,107.807)">
            <path d="M158.034,301.391L159.867,277.693L162.519,277.898L160.853,299.436L165.982,299.834L165.815,301.992L158.034,301.391Z" style="fill:rgb(99,102,106);fill-rule:nonzero;"/>
        </g>
        <g transform="matrix(0.0714789,0,0,0.0714789,136.874,107.807)">
            <path d="M181.854,295.625C181.863,295.26 181.86,294.961 181.842,294.73C181.826,294.498 181.785,294.295 181.72,294.119C181.654,293.945 181.565,293.783 181.453,293.637C181.34,293.488 181.205,293.326 181.045,293.148C180.705,292.793 180.364,292.461 180.022,292.152C179.681,291.846 179.328,291.537 178.961,291.229C178.597,290.92 178.227,290.592 177.852,290.244C177.477,289.898 177.084,289.506 176.674,289.07C176.221,288.615 175.959,288.15 175.89,287.678C175.821,287.203 175.797,286.631 175.814,285.957L175.912,282.406C175.983,279.789 177.513,278.52 180.498,278.602C182.106,278.646 183.229,278.998 183.865,279.662C184.5,280.324 184.801,281.318 184.764,282.646L184.646,286.977L182.162,286.91L182.271,282.867C182.287,282.271 182.179,281.787 181.943,281.414C181.709,281.043 181.229,280.846 180.506,280.826C179.271,280.793 178.637,281.344 178.605,282.479L178.51,286C178.496,286.502 178.525,286.867 178.603,287.102C178.677,287.334 178.838,287.59 179.088,287.865C179.77,288.617 180.469,289.281 181.188,289.859C181.908,290.438 182.629,291.102 183.356,291.854C183.606,292.111 183.81,292.367 183.967,292.621C184.123,292.877 184.244,293.148 184.328,293.441C184.414,293.73 184.469,294.061 184.496,294.426C184.52,294.793 184.526,295.207 184.514,295.67L184.42,299.076C184.386,300.346 184.015,301.309 183.308,301.963C182.602,302.619 181.444,302.924 179.834,302.879C178.271,302.838 177.144,302.469 176.451,301.777C175.756,301.084 175.429,300.102 175.463,298.832L175.602,293.779L178.155,293.85L178.026,298.584C178.01,299.199 178.129,299.703 178.387,300.096C178.645,300.488 179.123,300.693 179.824,300.713C180.5,300.73 180.988,300.596 181.289,300.305C181.588,300.014 181.746,299.58 181.761,299.004L181.854,295.625Z" style="fill:rgb(99,102,106);fill-rule:nonzero;"/>
        </g>
        <g transform="matrix(0.0714789,0,0,0.0714789,136.874,107.807)">
            <path d="M194.371,278.957L197.031,278.932L197.207,298.918C197.23,301.613 195.737,302.975 192.727,303C189.719,303.027 188.2,301.693 188.178,298.996L188.001,279.014L190.661,278.99L190.837,298.973C190.848,300.225 191.473,300.846 192.708,300.834C193.946,300.824 194.559,300.193 194.546,298.941L194.371,278.957Z" style="fill:rgb(99,102,106);fill-rule:nonzero;"/>
        </g>
        <g transform="matrix(0.0714789,0,0,0.0714789,136.874,107.807)">
            <path d="M207.381,282.828C207.349,282.117 207.15,281.6 206.785,281.279C206.42,280.959 205.819,280.818 204.979,280.855L203.161,280.938L203.527,289.045L205.381,288.961C206.15,288.926 206.713,288.736 207.071,288.391C207.43,288.049 207.593,287.512 207.56,286.781L207.381,282.828ZM201.477,302.58L200.403,278.836L204.879,278.635C206.557,278.557 207.813,278.844 208.65,279.49C209.485,280.137 209.935,281.209 210.003,282.709L210.179,286.604C210.246,288.105 209.9,289.209 209.138,289.918C208.376,290.627 207.155,291.02 205.478,291.096L203.624,291.18L204.134,302.459L201.477,302.58Z" style="fill:rgb(99,102,106);fill-rule:nonzero;"/>
        </g>
        <g transform="matrix(0.0714789,0,0,0.0714789,136.874,107.807)">
            <path d="M219.671,281.969C219.614,281.26 219.397,280.75 219.021,280.441C218.646,280.135 218.039,280.014 217.202,280.082L215.387,280.229L216.04,288.316L217.89,288.168C218.656,288.105 219.213,287.896 219.559,287.541C219.904,287.186 220.048,286.643 219.989,285.912L219.671,281.969ZM214.468,301.916L212.557,278.227L217.023,277.865C218.697,277.73 219.963,277.971 220.821,278.588C221.679,279.205 222.166,280.262 222.287,281.758L222.601,285.645C222.722,287.141 222.413,288.258 221.678,288.992C220.941,289.729 219.735,290.164 218.06,290.299L216.211,290.447L217.119,301.703L214.468,301.916Z" style="fill:rgb(99,102,106);fill-rule:nonzero;"/>
        </g>
        <g transform="matrix(0.0714789,0,0,0.0714789,136.874,107.807)">
            <path d="M227.451,300.783L224.761,277.168L227.403,276.867L229.849,298.33L234.96,297.748L235.205,299.9L227.451,300.783Z" style="fill:rgb(99,102,106);fill-rule:nonzero;"/>
        </g>
        <g transform="matrix(0.0714789,0,0,0.0714789,136.874,107.807)">
            <path d="M238.544,299.453L235.121,275.934L242.672,274.836L242.992,277.035L238.074,277.752L239.275,286.012L242.739,285.506L243.056,287.678L239.592,288.182L240.865,296.928L245.956,296.188L246.268,298.33L238.544,299.453Z" style="fill:rgb(99,102,106);fill-rule:nonzero;"/>
        </g>
        <g transform="matrix(0.0714789,0,0,0.0714789,136.874,107.807)">
            <path d="M260.571,295.779L259.247,288.711C258.926,286.99 258.614,285.305 258.318,283.656C258.021,282.008 257.722,280.32 257.424,278.594L257.578,296.34L255.273,296.771L249.03,280.166C249.375,281.883 249.706,283.564 250.027,285.209C250.347,286.854 250.668,288.535 250.991,290.258L252.314,297.326L249.907,297.777L245.531,274.416L249.04,273.758L255.451,291.449L255.026,272.637L258.639,271.961L263.014,295.322L260.571,295.779Z" style="fill:rgb(99,102,106);fill-rule:nonzero;"/>
        </g>
        <g transform="matrix(0.0714789,0,0,0.0714789,136.874,107.807)">
            <path d="M267.188,294.385L261.837,271.229L269.271,269.51L269.772,271.678L264.932,272.795L266.81,280.928L270.22,280.139L270.714,282.277L267.304,283.066L269.294,291.676L274.306,290.518L274.793,292.629L267.188,294.385Z" style="fill:rgb(99,102,106);fill-rule:nonzero;"/>
        </g>
        <g transform="matrix(0.0714789,0,0,0.0714789,136.874,107.807)">
            <path d="M285.358,289.844L276.003,274.402C276.5,276.143 276.974,277.834 277.422,279.479C277.868,281.121 278.33,282.816 278.805,284.563L280.597,291.139L278.366,291.746L272.124,268.814L275.196,267.977L284.026,283.621C283.574,282.049 283.142,280.506 282.729,278.99C282.317,277.477 281.896,275.93 281.466,274.352L279.418,266.828L281.681,266.211L287.925,289.145L285.358,289.844Z" style="fill:rgb(99,102,106);fill-rule:nonzero;"/>
        </g>
        <g transform="matrix(0.0714789,0,0,0.0714789,136.874,107.807)">
            <path d="M294.209,287.219L287.704,266.682L284.635,267.654L283.963,265.533L292.606,262.798L293.275,264.916L290.207,265.889L296.713,286.426L294.209,287.219Z" style="fill:rgb(99,102,106);fill-rule:nonzero;"/>
        </g>
        <g transform="matrix(0.0714789,0,0,0.0714789,136.874,107.807)">
            <path d="M311.729,271.781L313.979,270.904L315.763,275.479C316.267,276.77 316.328,277.846 315.95,278.705C315.572,279.566 314.697,280.264 313.327,280.797C310.479,281.908 308.571,281.217 307.598,278.723L301.724,263.654C300.731,261.107 301.657,259.279 304.507,258.169C307.114,257.152 308.908,257.898 309.887,260.41L311.419,264.338L309.169,265.215L307.648,261.314C307.418,260.723 307.128,260.334 306.78,260.148C306.432,259.966 305.943,259.994 305.313,260.24C304.14,260.699 303.776,261.502 304.224,262.648L310.099,277.717C310.554,278.885 311.367,279.236 312.54,278.779C313.15,278.541 313.522,278.23 313.661,277.846C313.799,277.463 313.753,276.975 313.521,276.381L311.729,271.781Z" style="fill:rgb(99,102,106);fill-rule:nonzero;"/>
        </g>
        <g transform="matrix(0.0714789,0,0,0.0714789,136.874,107.807)">
            <path d="M318.289,256.723C317.793,255.617 316.969,255.32 315.82,255.838C314.69,256.344 314.376,257.15 314.873,258.256L321.508,273.037C322.021,274.18 322.84,274.496 323.969,273.99C325.117,273.475 325.437,272.645 324.924,271.504L318.289,256.723ZM312.446,259.346C311.342,256.887 312.164,255.041 314.909,253.809C317.676,252.566 319.612,253.174 320.715,255.633L327.352,270.414C328.455,272.873 327.623,274.723 324.856,275.965C322.109,277.199 320.186,276.586 319.081,274.127L312.446,259.346Z" style="fill:rgb(99,102,106);fill-rule:nonzero;"/>
        </g>
        <g transform="matrix(0.0714789,0,0,0.0714789,136.874,107.807)">
            <path d="M327.212,248.09L329.57,246.859L338.801,264.586C340.046,266.977 339.333,268.867 336.664,270.258C333.993,271.646 332.037,271.146 330.791,268.756L321.561,251.031L323.921,249.803L333.148,267.527C333.729,268.637 334.565,268.906 335.663,268.336C336.761,267.766 337.02,266.924 336.441,265.814L327.212,248.09Z" style="fill:rgb(99,102,106);fill-rule:nonzero;"/>
        </g>
        <g transform="matrix(0.0714789,0,0,0.0714789,136.874,107.807)">
            <path d="M350.366,262.119L337.046,249.932C338.012,251.463 338.943,252.953 339.835,254.404C340.727,255.855 341.646,257.354 342.593,258.895L346.161,264.701L344.193,265.912L331.753,245.66L334.466,243.994L347.339,256.521C346.462,255.141 345.613,253.781 344.791,252.443C343.97,251.107 343.132,249.742 342.275,248.348L338.193,241.703L340.191,240.477L352.634,260.727L350.366,262.119Z" style="fill:rgb(99,102,106);fill-rule:nonzero;"/>
        </g>
        <g transform="matrix(0.0714789,0,0,0.0714789,136.874,107.807)">
            <path d="M355.947,247.656L357.892,246.225L360.803,250.178C361.625,251.293 361.964,252.316 361.823,253.244C361.682,254.174 361.019,255.074 359.835,255.947C357.373,257.76 355.35,257.588 353.763,255.434L344.174,242.41C342.553,240.209 342.972,238.203 345.434,236.391C347.689,234.729 349.615,234.984 351.214,237.154L353.713,240.549L351.769,241.982L349.286,238.609C348.909,238.098 348.528,237.799 348.146,237.711C347.761,237.623 347.297,237.779 346.753,238.18C345.737,238.928 345.596,239.797 346.327,240.789L355.916,253.813C356.657,254.818 357.536,254.949 358.551,254.203C359.076,253.814 359.357,253.418 359.39,253.01C359.424,252.604 359.252,252.145 358.875,251.633L355.947,247.656Z" style="fill:rgb(99,102,106);fill-rule:nonzero;"/>
        </g>
        <g transform="matrix(0.0714789,0,0,0.0714789,136.874,107.807)">
            <path d="M366.187,250.623L350.689,232.602L352.707,230.867L368.203,248.889L366.187,250.623Z" style="fill:rgb(99,102,106);fill-rule:nonzero;"/>
        </g>
        <g transform="matrix(0.0714789,0,0,0.0714789,136.874,107.807)">
            <path d="M371.475,245.963L354.517,229.311L356.38,227.412L371.793,242.549L375.398,238.877L376.942,240.395L371.475,245.963Z" style="fill:rgb(99,102,106);fill-rule:nonzero;"/>
        </g>
        <g transform="matrix(0.0714789,0,0,0.0714789,136.874,107.807)">
            <path d="M57.809,219.83C55.241,223.988 52.717,228.221 50.246,232.547C53.555,234.518 57,236.416 60.573,238.24C63.967,231.9 67.444,225.768 71.003,219.83L57.809,219.83Z" style="fill:rgb(99,102,106);fill-rule:nonzero;"/>
        </g>
        <g transform="matrix(0.0714789,0,0,0.0714789,136.874,107.807)">
            <path d="M114.35,148.531L114.35,161.715C117.585,158.266 120.873,154.908 124.229,151.666L124.229,139.224C120.886,142.249 117.595,145.354 114.35,148.531Z" style="fill:rgb(99,102,106);fill-rule:nonzero;"/>
        </g>
        <g transform="matrix(0.0714789,0,0,0.0714789,136.874,107.807)">
            <path d="M188.5,57.755C84.392,57.755 0,104.346 0,161.818C0,188.268 17.881,212.406 47.321,230.764C50.047,225.244 52.827,219.867 55.661,214.631L55.661,107.675L114.35,107.675L114.35,133.885C117.587,130.632 120.874,127.462 124.229,124.404L124.229,107.675L144.448,107.675C171.738,87.228 202.668,72.104 238.063,61.397C222.268,59.027 205.654,57.755 188.5,57.755Z" style="fill:rgb(99,102,106);fill-rule:nonzero;"/>
        </g>
        <g transform="matrix(0.0714789,0,0,0.0714789,136.874,107.807)">
            <path d="M1.392,78.115C-0.118,76.193 -0.138,73.895 1.782,72.385C3.622,70.939 5.891,71.47 7.401,73.391C8.913,75.311 8.956,77.725 7.118,79.171C5.195,80.681 2.903,80.035 1.392,78.115Z" style="fill:rgb(99,102,106);fill-rule:nonzero;"/>
        </g>
        <g transform="matrix(0.0714789,0,0,0.0714789,136.874,107.807)">
            <path d="M27.591,47.531C26.306,45.332 24.894,44.771 22.741,46.031L20.405,47.395L27.776,60.01L30.155,58.619C32.131,57.465 32.522,55.971 31.185,53.682L27.591,47.531ZM36.561,82.877L14.974,45.932L20.72,42.574C25.03,40.056 28.256,40.941 30.958,45.564L34.499,51.625C37.227,56.294 36.407,59.423 32.096,61.941L29.717,63.33L39.973,80.884L36.561,82.877Z" style="fill:rgb(99,102,106);fill-rule:nonzero;"/>
        </g>
        <g transform="matrix(0.0714789,0,0,0.0714789,136.874,107.807)">
            <path d="M48.106,37.64C46.801,34.863 45.704,34.115 43.21,35.287L40.904,36.369L47.626,50.676L49.978,49.57C52.189,48.531 52.572,47.145 51.534,44.934L48.106,37.64ZM62.903,68.889C59.295,63.287 55.751,57.945 51.905,52.572C51.598,52.773 51.409,52.861 51.081,53.017L49.15,53.923L57.398,71.476L53.821,73.156L35.626,34.428L41.506,31.664C46.024,29.541 49.122,30.385 51.508,35.467L55.135,43.184C56.461,46.008 56.404,48.332 54.939,50.227C59.106,55.795 63.038,61.473 66.809,67.054L62.903,68.889Z" style="fill:rgb(99,102,106);fill-rule:nonzero;"/>
        </g>
        <g transform="matrix(0.0714789,0,0,0.0714789,136.874,107.807)">
            <path d="M72.412,64.793L57.292,24.758L67.897,20.752L69.311,24.498L62.404,27.106L67.713,41.166L72.578,39.328L73.973,43.025L69.11,44.862L74.731,59.748L81.881,57.047L83.26,60.695L72.412,64.793Z" style="fill:rgb(99,102,106);fill-rule:nonzero;"/>
        </g>
        <g transform="matrix(0.0714789,0,0,0.0714789,136.874,107.807)">
            <path d="M89.194,58.723L76.76,17.77L87.858,14.402L89.021,18.233L81.706,20.454L86.131,35.034L91.158,33.508L92.305,37.289L87.28,38.815L92.975,57.574L89.194,58.723Z" style="fill:rgb(99,102,106);fill-rule:nonzero;"/>
        </g>
        <g transform="matrix(0.0714789,0,0,0.0714789,136.874,107.807)">
            <path d="M105.845,53.895L95.948,12.252L106.979,9.632L107.905,13.527L100.72,15.235L104.196,29.858L109.256,28.656L110.169,32.502L105.108,33.703L108.788,49.186L116.227,47.42L117.129,51.213L105.845,53.895Z" style="fill:rgb(99,102,106);fill-rule:nonzero;"/>
        </g>
        <g transform="matrix(0.0714789,0,0,0.0714789,136.874,107.807)">
            <path d="M127.188,14.176C126.665,11.152 125.804,10.141 123.088,10.611L120.577,11.045L123.272,26.622L125.834,26.178C128.243,25.762 128.979,24.525 128.562,22.117L127.188,14.176ZM133.187,48.232C131.188,41.876 129.185,35.783 126.897,29.583C126.548,29.697 126.344,29.732 125.985,29.794L123.884,30.156L127.19,49.27L123.297,49.943L116,7.773L122.405,6.665C127.323,5.814 130.087,7.447 131.044,12.98L132.499,21.384C133.03,24.459 132.36,26.686 130.446,28.125C132.991,34.598 135.278,41.115 137.438,47.496L133.187,48.232Z" style="fill:rgb(99,102,106);fill-rule:nonzero;"/>
        </g>
        <g transform="matrix(0.0714789,0,0,0.0714789,136.874,107.807)">
            <path d="M149.604,11.192C149.265,8.144 148.466,7.082 145.728,7.387L143.194,7.67L144.948,23.381L147.532,23.092C149.961,22.82 150.771,21.631 150.499,19.203L149.604,11.192ZM153.544,45.549C151.933,39.084 150.299,32.881 148.39,26.555C148.032,26.646 147.827,26.67 147.465,26.711L145.347,26.946L147.497,46.224L143.569,46.662L138.823,4.129L145.282,3.407C150.244,2.854 152.903,4.65 153.526,10.231L154.474,18.707C154.819,21.809 154.017,23.99 152.019,25.312C154.169,31.926 156.062,38.57 157.833,45.07L153.544,45.549Z" style="fill:rgb(99,102,106);fill-rule:nonzero;"/>
        </g>
        <g transform="matrix(0.0714789,0,0,0.0714789,136.874,107.807)">
            <path d="M164.108,44.603L161.585,1.881L172.899,1.213L173.136,5.21L165.765,5.646L166.651,20.646L171.843,20.341L172.075,24.286L166.884,24.593L167.823,40.478L175.454,40.025L175.685,43.92L164.108,44.603Z" style="fill:rgb(99,102,106);fill-rule:nonzero;"/>
        </g>
        <g transform="matrix(0.0714789,0,0,0.0714789,136.874,107.807)">
            <path d="M191.128,8.166C191.103,6.034 190.151,4.797 188.28,4.818L185.577,4.852L185.985,39.744L188.69,39.712C190.562,39.689 191.483,38.535 191.458,36.299L191.128,8.166ZM182.079,43.689L181.577,0.893L188.233,0.814C192.757,0.762 195.026,3.491 195.081,8.066L195.411,36.252C195.468,41.089 193.261,43.559 188.735,43.612L182.079,43.689Z" style="fill:rgb(99,102,106);fill-rule:nonzero;"/>
        </g>
        <g transform="matrix(0.0714789,0,0,0.0714789,136.874,107.807)">
            <path d="M222.831,31.932C223.005,29.338 222.728,28.799 221.829,27.436C219.919,24.809 217.946,23.114 215.659,19.887C214.366,18.186 214.466,16.682 214.628,14.243L215.052,7.862C215.366,3.141 217.753,0.954 222.161,1.247C226.935,1.564 228.495,3.961 228.179,8.734L227.661,16.516L223.978,16.271L224.46,9.008C224.601,6.881 224.128,5.391 222.001,5.249C220.185,5.128 219.181,6.104 219.048,8.127L218.626,14.456C218.505,16.271 218.626,16.801 219.339,17.84C221.239,20.622 223.308,22.428 225.362,25.223C226.747,27.139 227.003,28.77 226.778,32.143L226.372,38.264C226.067,42.829 224.034,45.196 219.263,44.878C214.644,44.571 212.786,41.947 213.091,37.381L213.694,28.303L217.481,28.555L216.915,37.062C216.767,39.293 217.341,40.844 219.417,40.98C221.44,41.115 222.29,40.077 222.429,38.002L222.831,31.932Z" style="fill:rgb(99,102,106);fill-rule:nonzero;"/>
        </g>
        <g transform="matrix(0.0714789,0,0,0.0714789,136.874,107.807)">
            <path d="M247.138,4.179L251.06,4.67L246.593,40.369C245.991,45.168 243.472,47.314 239.034,46.76C234.597,46.205 232.683,43.502 233.282,38.703L237.749,3.004L241.671,3.494L237.202,39.195C236.927,41.412 237.712,42.664 239.519,42.89C241.323,43.117 242.394,42.098 242.673,39.879L247.138,4.179Z" style="fill:rgb(99,102,106);fill-rule:nonzero;"/>
        </g>
        <g transform="matrix(0.0714789,0,0,0.0714789,136.874,107.807)">
            <path d="M269.163,15.713C269.644,13.211 268.952,11.859 266.501,11.389L263.847,10.877L261.084,25.225L263.792,25.745C266.038,26.177 267.315,25.312 267.817,22.708L269.163,15.713ZM252.636,48.218L260.724,6.199L267.259,7.457C272.159,8.4 274.005,11.191 272.993,16.45L271.667,23.342C270.644,28.652 267.966,30.466 263.063,29.523L260.358,29.002L256.517,48.965L252.636,48.218Z" style="fill:rgb(99,102,106);fill-rule:nonzero;"/>
        </g>
        <g transform="matrix(0.0714789,0,0,0.0714789,136.874,107.807)">
            <path d="M291.052,21.008C291.712,18.548 291.12,17.148 288.708,16.501L286.097,15.799L282.304,29.91L284.964,30.626C287.175,31.219 288.513,30.449 289.2,27.888L291.052,21.008ZM272.208,52.234L283.321,10.906L289.749,12.634C294.569,13.931 296.208,16.848 294.817,22.021L292.993,28.8C291.589,34.023 288.786,35.638 283.966,34.341L281.304,33.626L276.024,53.26L272.208,52.234Z" style="fill:rgb(99,102,106);fill-rule:nonzero;"/>
        </g>
        <g transform="matrix(0.0714789,0,0,0.0714789,136.874,107.807)">
            <path d="M291.366,57.701L305.544,17.327L309.272,18.637L296.388,55.331L303.597,57.864L302.306,61.543L291.366,57.701Z" style="fill:rgb(99,102,106);fill-rule:nonzero;"/>
        </g>
        <g transform="matrix(0.0714789,0,0,0.0714789,136.874,107.807)">
            <path d="M307.716,63.782L324.405,24.375L328.046,25.916L311.356,65.323L307.716,63.782Z" style="fill:rgb(99,102,106);fill-rule:nonzero;"/>
        </g>
        <g transform="matrix(0.0714789,0,0,0.0714789,136.874,107.807)">
            <path d="M317.962,68.259L337.327,30.095L347.437,35.225L345.624,38.795L339.04,35.454L332.239,48.855L336.876,51.208L335.089,54.732L330.45,52.38L323.251,66.57L330.067,70.027L328.304,73.506L317.962,68.259Z" style="fill:rgb(99,102,106);fill-rule:nonzero;"/>
        </g>
        <g transform="matrix(0.0714789,0,0,0.0714789,136.874,107.807)">
            <path d="M360.415,52.56C362.062,49.971 362.104,48.643 359.778,47.164L357.628,45.797L349.149,59.138L351.343,60.533C353.405,61.844 354.78,61.424 356.093,59.361L360.415,52.56ZM341.954,81.799C344.751,75.75 347.364,69.895 349.841,63.768C349.505,63.617 349.331,63.504 349.022,63.31L347.224,62.166L336.819,78.535L333.485,76.414L356.44,40.297L361.927,43.785C366.14,46.463 367.085,49.528 364.073,54.269L359.499,61.465C357.825,64.099 355.831,65.295 353.446,65.074C350.978,71.576 348.29,77.938 345.597,84.113L341.954,81.799Z" style="fill:rgb(99,102,106);fill-rule:nonzero;"/>
        </g>
        <g transform="matrix(0.0714789,0,0,0.0714789,136.874,107.807)">
            <path d="M374.392,75.619C376.011,73.789 378.269,73.357 380.099,74.978C381.851,76.531 381.733,78.858 380.112,80.687C378.491,82.517 376.126,82.992 374.374,81.439C372.544,79.82 372.771,77.447 374.392,75.619Z" style="fill:rgb(99,102,106);fill-rule:nonzero;"/>
        </g>
        <g transform="matrix(0.0714789,0,0,0.0714789,136.874,107.807)">
            <path d="M378.618,221.015L379.15,220.308C379.296,220.113 379.415,219.938 379.502,219.788C379.588,219.637 379.642,219.499 379.659,219.373C379.675,219.249 379.655,219.137 379.601,219.032C379.545,218.93 379.443,218.823 379.301,218.716C379.085,218.554 378.872,218.504 378.665,218.57C378.46,218.633 378.228,218.837 377.971,219.176L377.321,220.042L378.618,221.015ZM381.035,222.828L380.549,223.476L376.286,220.275L377.502,218.654C378.239,217.673 379.01,217.485 379.815,218.089C380.007,218.231 380.15,218.386 380.247,218.55C380.344,218.714 380.401,218.88 380.423,219.043C380.441,219.207 380.433,219.37 380.391,219.533C380.352,219.697 380.289,219.853 380.212,219.998L382.961,220.263L382.377,221.04L379.663,220.768L379.169,221.429L381.035,222.828ZM382.499,222.761C382.814,222.341 383.029,221.895 383.147,221.417C383.264,220.944 383.283,220.469 383.209,219.997C383.134,219.526 382.966,219.074 382.704,218.642C382.443,218.213 382.094,217.832 381.654,217.501C381.223,217.177 380.765,216.951 380.282,216.824C379.797,216.7 379.322,216.665 378.852,216.726C378.382,216.788 377.931,216.939 377.503,217.182C377.074,217.424 376.703,217.753 376.389,218.175C376.069,218.599 375.853,219.052 375.739,219.529C375.627,220.008 375.605,220.481 375.676,220.956C375.744,221.43 375.908,221.877 376.166,222.306C376.422,222.737 376.768,223.113 377.199,223.438C377.638,223.766 378.1,223.998 378.586,224.125C379.074,224.255 379.557,224.29 380.03,224.227C380.509,224.166 380.96,224.012 381.384,223.766C381.809,223.522 382.179,223.187 382.499,222.761ZM383.09,223.205C382.711,223.708 382.261,224.113 381.74,224.418C381.219,224.723 380.668,224.922 380.096,225.013C379.521,225.102 378.938,225.077 378.344,224.941C377.75,224.804 377.19,224.535 376.668,224.145C376.149,223.756 375.745,223.298 375.449,222.769C375.156,222.24 374.974,221.687 374.899,221.11C374.824,220.533 374.862,219.951 375.011,219.365C375.159,218.779 375.421,218.233 375.799,217.73C376.172,217.234 376.621,216.832 377.143,216.525C377.662,216.221 378.21,216.023 378.786,215.933C379.361,215.84 379.942,215.866 380.528,216.006C381.115,216.144 381.669,216.407 382.186,216.795C382.71,217.189 383.123,217.648 383.422,218.178C383.725,218.703 383.908,219.256 383.981,219.836C384.057,220.411 384.019,220.992 383.872,221.577C383.725,222.166 383.462,222.705 383.09,223.205Z" style="fill:rgb(99,102,106);fill-rule:nonzero;"/>
        </g>
    </g>
</svg>
