<svg xmlns="http://www.w3.org/2000/svg" width="80" height="80" viewBox="0 0 80 80"><path fill="#00B2A9" d="M40 79.149C18.414 79.149.851 61.587.851 40 .851 18.414 18.414.851 40 .851 61.587.851 79.149 18.413 79.149 40S61.587 79.149 40 79.149z"/><path fill="#FFF" d="M40 1.702C61.151 1.702 78.298 18.85 78.298 40c0 21.152-17.146 38.298-38.298 38.298C18.85 78.298 1.702 61.152 1.702 40 1.702 18.85 18.85 1.702 40 1.702M40 0C17.944 0 0 17.944 0 40c0 22.057 17.944 40 40 40 22.057 0 40-17.943 40-40C80 17.944 62.057 0 40 0z"/><g fill="none" stroke="#FFF" stroke-linecap="round" stroke-linejoin="round" stroke-miterlimit="10"><path d="M60.652 34.125l4.778 6.081-4.778 5.863m-4.51-5.971h9.288m-46.083-5.973l-4.776 6.081 4.776 5.863m4.513-5.971h-9.289M33.921 19.3L40 14.523l5.862 4.777M40 23.835v-9.312m-6.079 46.179L40 65.478l5.862-4.776M40 56.168v9.31m-.113-20.425v1.65m0-13.209v1.651m-2.477 7.43a2.475 2.475 0 1 0 4.951 0 2.474 2.474 0 0 0-2.474-2.477 2.476 2.476 0 0 1-2.477-2.477 2.476 2.476 0 1 1 4.951 0"/><circle cx="39.891" cy="40.098" r="11.133"/></g></svg>