<svg xmlns="http://www.w3.org/2000/svg" width="80" height="80" viewBox="0 0 80 80"><path fill="#00B2A9" d="M40 79.149C18.414 79.149.851 61.587.851 40 .851 18.414 18.414.851 40 .851 61.588.851 79.15 18.414 79.15 40c0 21.587-17.562 39.149-39.15 39.149z"/><path fill="#FFF" d="M40 1.702C61.152 1.702 78.299 18.85 78.299 40c0 21.152-17.146 38.298-38.299 38.298C18.848 78.298 1.703 61.152 1.703 40 1.703 18.85 18.848 1.702 40 1.702M40 0C17.944 0 0 17.944 0 40c0 22.057 17.944 40 40 40 22.057 0 40-17.943 40-40C80 17.944 62.057 0 40 0z"/><g fill="#FFF"><path d="M45.643 22.945h-2.826v2.864h2.826c8.096 0 13.125 4.486 13.125 11.71v.108c0 5.766-3.66 11.928-13.936 11.928h-7.788V60.96h-5.498V37.08h-2.863v26.744h11.226V52.419h4.923c10.205 0 16.799-5.806 16.799-14.791v-.108c0-8.717-6.424-14.575-15.988-14.575z"/><path d="M53.162 37.795v-.113c0-4.434-3.15-7.188-8.221-7.188h-7.897v14.485h8.059c4.745 0 8.059-2.956 8.059-7.184zm-13.253-4.438h5.033c2.443 0 5.355.75 5.355 4.324v.113c0 2.625-2.037 4.32-5.193 4.32h-5.195v-8.757zm-.218-10.412h-8.145v-8.143h-2.863v8.143h-8.144v2.865h8.144v8.145h2.863V25.81h8.145z"/></g></svg>