<svg xmlns="http://www.w3.org/2000/svg" width="80" height="80" viewBox="0 0 80 80"><path fill="#E04E39" d="M40.354 79.045c-21.295 0-38.621-17.324-38.621-38.621 0-21.295 17.325-38.621 38.621-38.621 21.296 0 38.621 17.325 38.621 38.621 0 21.297-17.326 38.621-38.621 38.621z"/><path fill="#FFF" d="M40.354 3.183c20.567 0 37.241 16.674 37.241 37.241 0 20.568-16.674 37.242-37.241 37.242S3.112 60.992 3.112 40.424c0-20.567 16.674-37.241 37.242-37.241m0-2.759c-22.056 0-40 17.944-40 40s17.944 40 40 40c22.057 0 40-17.943 40-40s-17.944-40-40-40z"/><path d="M37.987 52.494c1.436 2.15 3.456 3.852 5.808 4.693-2.902.807-4.892 2.301-4.892 3.297H56.91c0-.996-1.986-2.49-4.891-3.297 4.723-1.689 8.105-6.834 8.105-12.137h1.287a1.286 1.286 0 1 0 0-2.574H42.559m13.065-2.571c5.059-7.058 5.411-7.619 4.501-8.36-.974-.793-1.574-.372-9.646 8.36m.642 13.509a8.392 8.392 0 0 0 4.508-4.508M28.395 26.494a4.718 4.718 0 0 0 4.721-4.721 4.72 4.72 0 0 0-4.721-4.722 4.722 4.722 0 0 0 0 9.443zm0 33.99h4.721l1.946-15.107h3.718V31.214l-6.608-1.888-3.777 7.553-3.777-7.553-6.609 1.888v14.163h3.718l1.947 15.107z" fill="none" stroke="#FFF" stroke-width="1.5" stroke-linecap="round" stroke-linejoin="round" stroke-miterlimit="10"/></svg>