<svg xmlns="http://www.w3.org/2000/svg" width="80" height="80" viewBox="0 0 80 80"><path fill="#005587" d="M40 79.149C18.414 79.149.851 61.587.851 40 .851 18.414 18.414.851 40 .851 61.587.851 79.149 18.413 79.149 40S61.587 79.149 40 79.149z"/><path fill="#FFF" d="M40 1.702C61.151 1.702 78.298 18.85 78.298 40c0 21.152-17.146 38.298-38.298 38.298C18.85 78.298 1.702 61.152 1.702 40 1.702 18.85 18.85 1.702 40 1.702M40 0C17.944 0 0 17.944 0 40c0 22.057 17.944 40 40 40 22.057 0 40-17.943 40-40C80 17.944 62.057 0 40 0z"/><g fill="none" stroke="#FFF" stroke-linecap="round" stroke-linejoin="round" stroke-miterlimit="10"><path d="M61.933 42.371c.083-.779.129-1.569.129-2.371 0-12.434-10.086-22.52-22.521-22.52-12.437 0-22.52 10.086-22.52 22.52 0 12.441 10.083 22.521 22.52 22.521 1.659 0 3.272-.19 4.831-.531"/><path d="M46.128 18.461s-8.831 1.835-8.545 4.895c.203 2.181 1.958 2.938 3.917 1.958 1.958-.979.978 5.875.978 5.875-1.957 0-5.874 1.958-7.833 0 0 0 0-1.958-4.894-.979-4.897.979-4.897 7.833-4.897 7.833s0 3.917 2.939 3.917c2.936 0 5.875-.979 5.875 2.938 0 0 1.958 1.958 1.958 2.937 0 .979-.981 1.958-.981 2.939 0 .977 1.96 4.895 2.939 4.895.314 0 1.032-.003 1.862-.164m9.887-17.463s-1.959.979-2.939 0c0 0-.978-3.917-1.958-3.917-.978 0 2.938-2.937 6.855-1.958 3.916-1.958 4.894-7.333 4.894-7.333m6.794 27.991c0 5.024-4.076 9.104-9.105 9.104-5.026 0-9.103-4.079-9.103-9.104a9.103 9.103 0 0 1 9.103-9.104 9.103 9.103 0 0 1 9.105 9.104zm-9.105-4.553v9.104m4.555-4.551h-9.107"/></g></svg>