<svg xmlns="http://www.w3.org/2000/svg" width="80" height="80" viewBox="0 0 80 80"><path fill="#00B2A9" d="M40 79.149C18.414 79.149.851 61.587.851 40 .851 18.414 18.414.851 40 .851 61.587.851 79.149 18.413 79.149 40S61.587 79.149 40 79.149z"/><path fill="#FFF" d="M40 1.702C61.151 1.702 78.298 18.85 78.298 40c0 21.152-17.146 38.298-38.298 38.298S1.702 61.152 1.702 40C1.702 18.85 18.848 1.702 40 1.702M40 0C17.944 0 0 17.944 0 40c0 22.057 17.944 40 40 40 22.057 0 40-17.943 40-40C80 17.944 62.057 0 40 0z"/><g fill="none" stroke="#FFF" stroke-linecap="round" stroke-linejoin="round" stroke-miterlimit="10"><path d="M17.021 60.812h45.958m-41.96-37.966h37.964v37.966H21.019zm-3.998 0h45.958M23.017 18.85h33.968v3.996H23.017zm11.988-3.996h9.989v3.996h-9.989z"/><path d="M37.003 52.82h5.993v7.991h-5.993zm-9.99 1.998h5.994m13.985 0h5.997m-25.976-7.994h9.99m5.993 0h9.993M27.013 40.83h9.99m5.993 0h9.993m-25.976-5.995h9.99m5.993 0h9.993M27.013 28.84h9.99m5.993 0h9.993"/></g></svg>