<svg xmlns="http://www.w3.org/2000/svg" width="80" height="80" viewBox="0 0 80 80"><path fill="#E04E39" d="M40 79.149C18.414 79.149.851 61.587.851 40 .851 18.414 18.414.851 40 .851 61.587.851 79.149 18.413 79.149 40S61.587 79.149 40 79.149z"/><path fill="#FFF" d="M40 1.702C61.151 1.702 78.298 18.85 78.298 40c0 21.152-17.146 38.298-38.298 38.298C18.85 78.298 1.702 61.152 1.702 40 1.702 18.85 18.85 1.702 40 1.702M40 0C17.944 0 0 17.944 0 40c0 22.057 17.944 40 40 40 22.057 0 40-17.943 40-40C80 17.944 62.057 0 40 0z"/><g fill="none" stroke="#FFF" stroke-linecap="round" stroke-linejoin="round" stroke-miterlimit="10"><path d="M17.021 61.638h45.958M21.017 41.671h37.966v19.967H21.017zm-3.996 0h45.958"/><path d="M35.005 37.676h9.989v3.997h-9.989zm1.998 15.969h5.993v7.993h-5.993zm-9.99 1.998h5.994m13.988 0h5.994M27.013 47.65h9.99m5.993 0h9.993M40 37.676V14.957l8.558 2.417L40 19.97"/></g></svg>