<svg xmlns="http://www.w3.org/2000/svg" width="80" height="80" viewBox="0 0 80 80"><path fill="#005587" d="M40 79.148C18.413 79.148.851 61.586.851 40 .851 18.414 18.413.851 40 .851S79.149 18.414 79.149 40c0 21.586-17.562 39.148-39.149 39.148z"/><path fill="#FFF" d="M40 1.702c21.151 0 38.298 17.146 38.298 38.298 0 21.15-17.146 38.296-38.298 38.296S1.702 61.15 1.702 40C1.702 18.848 18.849 1.702 40 1.702M40 0C17.944 0 0 17.944 0 40s17.944 40 40 40c22.057 0 40-17.943 40-40C80 17.944 62.057 0 40 0z"/><g fill="none" stroke="#FFF" stroke-linecap="round" stroke-linejoin="round" stroke-miterlimit="10"><path d="M40 52.396H17.021V20.427h45.958v16.986m-3.996 15.985v12.987l-5.997-4.994-5.994 4.994V53.398"/><path d="M55.985 47.402a2.997 2.997 0 1 1-5.995-.003 2.997 2.997 0 0 1 5.995.003z"/><path d="M60.423 47.402c1.004-1.248 1.2-3.025.353-4.496s-2.49-2.187-4.069-1.943a3.992 3.992 0 0 0-3.72-2.553 3.991 3.991 0 0 0-3.717 2.555c-1.583-.243-3.222.47-4.065 1.941a3.984 3.984 0 0 0 .349 4.496 3.986 3.986 0 0 0 3.719 6.441 3.991 3.991 0 0 0 3.714 2.551 3.994 3.994 0 0 0 3.72-2.555c1.583.244 3.222-.473 4.069-1.941s.651-3.25-.353-4.496z"/><path d="M58.983 35.415v-4.996a5.997 5.997 0 0 1-5.997-5.995H27.013a5.996 5.996 0 0 1-5.996 5.995v11.99a5.995 5.995 0 0 1 5.996 5.992H40"/></g></svg>